<?xml version="1.0" encoding="utf-8"?>
<!-- Generator: Adobe Illustrator 18.0.0, SVG Export Plug-In . SVG Version: 6.00 Build 0)  -->
<!DOCTYPE svg PUBLIC "-//W3C//DTD SVG 1.1//EN" "http://www.w3.org/Graphics/SVG/1.1/DTD/svg11.dtd">
<svg version="1.1" id="Слой_1" xmlns="http://www.w3.org/2000/svg" xmlns:xlink="http://www.w3.org/1999/xlink" x="0px" y="0px"
	 viewBox="0 0 178 154" enable-background="new 0 0 178 154" xml:space="preserve">
<g>
	<g>
		<path fill="#949494" d="M147.2109985,69.0081253c-38.923996-22.4730034-79.0940018-22.4730034-118.0179977-0.0010071l0,0
			C9.7309999,80.2441254-0.0000004,91.6601181-0.0000004,103.0761185c0,11.4169998,9.7309999,22.8330002,29.1929989,34.0690079
			c38.923996,22.4729919,79.0950012,22.4729919,118.0190048,0.0009918
			c19.4619904-11.2369995,29.1929932-22.6529999,29.1929932-34.0689926
			C176.4049988,91.6601181,166.673996,80.2441254,147.2109985,69.0081253z"/>
	</g>
	<g>
		<path fill="#2E2F2F" d="M147.2109985,69.0081253c-38.923996-22.4730034-79.0940018-22.4730034-118.0179977-0.0010071l0,0
			C9.7309999,80.2441254-0.0000004,91.6601181-0.0000004,103.0761185c0,11.4169998,9.7309999,22.8330002,29.1929989,34.0690079
			c38.9249954,22.4729919,79.0950012,22.4729919,118.0190048,0.0009918
			c19.4619904-11.2369995,29.1920013-22.6529999,29.1920013-34.0689926
			C176.404007,91.6601181,166.6730042,80.2441254,147.2109985,69.0081253z"/>
		
			<linearGradient id="SVGID_1_" gradientUnits="userSpaceOnUse" x1="-0.0000004" y1="120.0379944" x2="176.404007" y2="120.0379944">
			<stop  offset="0" style="stop-color:#555870"/>
			<stop  offset="0.1184938" style="stop-color:#50546B"/>
			<stop  offset="0.299578" style="stop-color:#4F5269"/>
			<stop  offset="0.453744" style="stop-color:#3F4259"/>
			<stop  offset="0.6196783" style="stop-color:#34364E"/>
			<stop  offset="0.744144" style="stop-color:#30334A"/>
			<stop  offset="1" style="stop-color:#21233D"/>
		</linearGradient>
		<path fill="url(#SVGID_1_)" d="M147.2120056,120.1451187c-38.9240036,22.4729996-79.0940094,22.4729996-118.0190048,0
			C9.7309999,108.9081192-0.0000004,97.4921188-0.0000004,86.0761185v17c0,11.4169998,9.7309999,22.8330002,29.1929989,34.0690079
			c38.9249954,22.4729919,79.0950012,22.4729919,118.0190048,0c19.4619904-11.2360077,29.1920013-22.6520081,29.1920013-34.0680008
			V86.0761185C176.404007,97.4921188,166.673996,108.9091187,147.2120056,120.1451187z"/>
		<path fill="#37394F" d="M147.2109985,52.007122c-38.923996-22.4729996-79.0940018-22.4729996-118.0179977,0l0,0
			C9.7309999,63.2431221-0.0000004,74.6601181-0.0000004,86.0761185s9.7309999,22.8320007,29.1929989,34.0690002
			c38.9249954,22.4729996,79.0950012,22.4729996,118.0190048,0c19.4619904-11.2360001,29.1920013-22.6529999,29.1920013-34.0690002
			S166.6730042,63.2441216,147.2109985,52.007122z"/>
	</g>
	<g>
		<defs>
			<path id="SVGID_2_" d="M147.2109985,52.007122c-38.923996-22.4729996-79.0940018-22.4729996-118.0179977,0l0,0
				C9.7309999,63.2431221-0.0000004,74.6601181-0.0000004,86.0761185s9.7309999,22.8320007,29.1929989,34.0690002
				c38.9249954,22.4729996,79.0950012,22.4729996,118.0190048,0c19.4619904-11.2360001,29.1920013-22.6529999,29.1920013-34.0690002
				S166.6730042,63.2441216,147.2109985,52.007122z"/>
		</defs>
		<clipPath id="SVGID_3_">
			<use xlink:href="#SVGID_2_"  overflow="visible"/>
		</clipPath>
		<g clip-path="url(#SVGID_3_)">
			<path opacity="0" fill="#FFFFFF" d="M190.5110016,5.5261216c-0.548996-0.1729999-1.1490021-0.2309999-1.7940063-0.1689997
				C189.3619995,5.2951217,189.9620056,5.3531218,190.5110016,5.5261216z M179.996994,12.6571217
				c-0.8429871,1.6560001-1.3339996,3.3310003-1.5110016,4.9519997l0,0
				c0.1760101-1.6199999,0.6670074-3.2949991,1.5110016-4.9509993c0.3380127-0.6630001,0.7290039-1.2870007,1.1419983-1.8880005
				C180.7259979,11.3711214,180.3350067,11.995122,179.996994,12.6571217z M139.0890045,20.2351227
				c-0.6730042,0.8989983-1.0780029,1.8439999-1.2140045,2.8289986c-0.1179962,0.8540001,0.0059967,1.7440014,0.2940063,2.6540012
				h-0.0010071c-0.2870026-0.9099998-0.4109955-1.7989998-0.2929993-2.6540012
				c0.1360016-0.9849987,0.5410004-1.9300003,1.2140045-2.8299999c0.2050018-0.2729988,0.4279938-0.4799995,0.67099-0.6199989
				c0.227005-0.1310005,0.4790039-0.1820011,0.7450104-0.1960011L139.0890045,20.2351227z M194.1080017,25.002121
				c-4.2340088-9.421999-8.8829956-11.1399994-12.9089966-8.9469986c0.147995-0.8730001,0.3880005-1.750001,0.8300018-2.618001
				c0.8109894-1.592,2.0659943-2.9529991,3.3879852-3.7959995l6.1480103,3.5500002l2.6080017-2.007
				c-0.4199982-2.665-1.4199982-4.473-2.8760071-5.3130002l-0.0029907-0.0009999l-13.2170105-7.631
				c-0.9949951-0.5759999-2.2039948-0.6980001-3.5839996-0.331c-2.8679962,0.76-5.901001,3.5549998-7.7160034,7.1169996
				c-1.2019958,2.3600001-1.7220001,4.7630005-1.5659943,6.9800005l-1.6459961-0.9500008l-3.6699982,2.1190004
				c-3.2450104-3.71-6.5299988-5.7309999-8.7830048-4.4300003l-13.2200012,7.6329994
				c-0.3880005,0.2240009-0.7449951,0.5460014-1.0659943,0.9750004c-1.9960022,2.6650009-2.1520081,5.9209995-0.625,9.5020008
				l-2.8930054,1.6709995l-0.996994,0.5750008l0,0l-23.529007,13.5839977v16.1760025L112.125,60.790123v22.9349976
				l25.7200012,14.8499985l3.8639984,2.2310028l21.8569946,12.6179962l21.8600006-12.6199951v0.0019989l7.7280121-4.461998
				v-0.0009995l21.8559875-12.6180038V60.790123l3.3430023-1.9300003V42.6841202l-22.7929993-13.157999
				C195.25,28.047121,194.7960052,26.5331211,194.1080017,25.002121z"/>
			<path opacity="0.030303" fill="#F6F5F6" d="M188.2878723,5.5261216
				c-0.5490265-0.1729999-1.1489868-0.2309999-1.7939911-0.1689997
				C187.1388855,5.2951217,187.7388763,5.3531218,188.2878723,5.5261216z M177.77388,12.6571217
				c-0.8430328,1.6560001-1.3339996,3.3310003-1.5110016,4.9519997l0,0
				c0.1759949-1.6199999,0.6670074-3.2949991,1.5110016-4.9509993c0.3379669-0.6630001,0.7289734-1.2870007,1.1419678-1.8880005
				C178.5028534,11.3711214,178.1118774,11.995122,177.77388,12.6571217z M136.8658752,20.2351227
				c-0.6730042,0.8989983-1.0780334,1.8439999-1.2140045,2.8289986c-0.1180267,0.8540001,0.0059814,1.7440014,0.2939758,2.6540012
				h-0.0009613c-0.2870331-0.9099998-0.4110413-1.7989998-0.2930145-2.6540012
				c0.1359711-0.9849987,0.5410004-1.9300003,1.2140045-2.8299999c0.2050018-0.2729988,0.428009-0.4799995,0.6709747-0.6199989
				c0.2270355-0.1310005,0.4790344-0.1820011,0.7449951-0.1960011L136.8658752,20.2351227z M191.8848724,25.002121
				c-4.2339935-9.421999-8.8830261-11.1399994-12.9089966-8.9469986c0.1479797-0.8730001,0.3880005-1.750001,0.8300018-2.618001
				c0.8110046-1.592,2.0659943-2.9529991,3.38797-3.7959995l6.1480255,3.5500002l2.6080017-2.007
				c-0.4199982-2.665-1.4200287-4.473-2.8759918-5.3130002l-0.0030365-0.0009999l-13.2169647-7.631
				c-0.9950409-0.5759999-2.20401-0.6980001-3.5839996-0.331c-2.8680115,0.76-5.901001,3.5549998-7.7160034,7.1169996
				c-1.2019958,2.3600001-1.7220001,4.7630005-1.5660248,6.9800005l-1.6459808-0.9500008l-3.6699982,2.1190004
				c-3.2449951-3.71-6.5300293-5.7309999-8.7829895-4.4300003l-13.2200012,7.6329994
				c-0.3880005,0.2240009-0.7450104,0.5460014-1.0660095,0.9750004c-1.9960327,2.6650009-2.1519928,5.9209995-0.625,9.5020008
				l-2.8930206,1.6709995l-0.9969788,0.5750008l0,0L106.558876,42.6841202v16.1760025l3.3430023,1.9300003v22.9349976
				l25.7199936,14.8499985l3.8640137,2.2310028l21.8569946,12.6179962l21.8599701-12.6199951v0.0019989l7.7279968-4.461998
				v-0.0009995l21.8560333-12.6180038V60.790123l3.3430023-1.9300003V42.6841202l-22.7929993-13.157999
				C193.0268707,28.047121,192.572876,26.5331211,191.8848724,25.002121z"/>
			<path opacity="0.0606061" fill="#ECEBED" d="M186.0647583,5.5261216
				c-0.549057-0.1729999-1.1490021-0.2309999-1.7940063-0.1689997
				C184.9157562,5.2951217,185.5157623,5.3531218,186.0647583,5.5261216z M175.5507507,12.6571217
				c-0.8430481,1.6560001-1.3339996,3.3310003-1.5109863,4.9519997l0,0
				c0.1759949-1.6199999,0.6669922-3.2949991,1.5109863-4.9509993c0.3379517-0.6630001,0.7289429-1.2870007,1.1419525-1.8880005
				C176.2796936,11.3711214,175.8887634,11.995122,175.5507507,12.6571217z M134.6427612,20.2351227
				c-0.6730042,0.8989983-1.078064,1.8439999-1.2140045,2.8289986c-0.1180573,0.8540001,0.0059357,1.7440014,0.2939453,2.6540012
				h-0.000946c-0.2870636-0.9099998-0.4110565-1.7989998-0.2929993-2.6540012
				c0.1359406-0.9849987,0.5410004-1.9300003,1.2140045-2.8299999c0.2050018-0.2729988,0.4279938-0.4799995,0.670929-0.6199989
				c0.227066-0.1310005,0.4790649-0.1820011,0.7450104-0.1960011L134.6427612,20.2351227z M189.6617584,25.002121
				c-4.2340088-9.421999-8.8830566-11.1399994-12.9089966-8.9469986c0.147934-0.8730001,0.3880005-1.750001,0.8300018-2.618001
				c0.8109894-1.592,2.0659943-2.9529991,3.3879395-3.7959995l6.148056,3.5500002l2.6080017-2.007
				c-0.4199982-2.665-1.4200592-4.473-2.8760071-5.3130002L186.847702,5.870122l-13.2169495-7.631
				c-0.9950562-0.5759999-2.2039948-0.6980001-3.5839996-0.331c-2.8679962,0.76-5.901001,3.5549998-7.7160034,7.1169996
				c-1.2019958,2.3600001-1.7219849,4.7630005-1.5660553,6.9800005l-1.6459351-0.9500008l-3.6699982,2.1190004
				c-3.2450104-3.71-6.5300598-5.7309999-8.7830048-4.4300003L133.445755,16.377121
				c-0.3880005,0.2240009-0.7449951,0.5460014-1.0659943,0.9750004c-1.9960632,2.6650009-2.1520081,5.9209995-0.625,9.5020008
				l-2.8930664,1.6709995l-0.9969406,0.5750008l0,0l-23.5289993,13.5839977v16.1760025l3.3430023,1.9300003v22.9349976
				l25.7200012,14.8499985l3.8639984,2.2310028l21.8569946,12.6179962l21.8599396-12.6199951v0.0019989l7.7280121-4.461998
				v-0.0009995l21.8560486-12.6180038V60.790123l3.3430023-1.9300003V42.6841202l-22.7929993-13.157999
				C190.8037567,28.047121,190.349762,26.5331211,189.6617584,25.002121z"/>
			<path opacity="0.0909091" fill="#E2E0E4" d="M183.841629,5.5261216
				c-0.5490875-0.1729999-1.1489868-0.2309999-1.7939911-0.1689997
				C182.6926422,5.2951217,183.2926331,5.3531218,183.841629,5.5261216z M173.3276367,12.6571217
				c-0.8430939,1.6560001-1.3339996,3.3310003-1.5110016,4.9519997l0,0
				c0.1759949-1.6199999,0.6670074-3.2949991,1.5110016-4.9509993c0.3379059-0.6630001,0.7289124-1.2870007,1.1419067-1.8880005
				C174.0565491,11.3711214,173.6656342,11.995122,173.3276367,12.6571217z M132.419632,20.2351227
				c-0.6729889,0.8989983-1.0780945,1.8439999-1.2139893,2.8289986c-0.118103,0.8540001,0.0059052,1.7440014,0.2938995,2.6540012
				h-0.0009003c-0.2870941-0.9099998-0.4111023-1.7989998-0.2929993-2.6540012
				c0.1358948-0.9849987,0.5410004-1.9300003,1.2139893-2.8299999c0.2050018-0.2729988,0.428009-0.4799995,0.6709137-0.6199989
				c0.2270966-0.1310005,0.4790955-0.1820011,0.7449951-0.1960011L132.419632,20.2351227z M187.4386292,25.002121
				c-4.2339935-9.421999-8.8830872-11.1399994-12.9089966-8.9469986c0.1479187-0.8730001,0.3880005-1.750001,0.8300018-2.618001
				c0.8110046-1.592,2.0659943-2.9529991,3.3879089-3.7959995l6.1480865,3.5500002l2.6080017-2.007
				c-0.4199982-2.665-1.4200897-4.473-2.8759918-5.3130002l-0.0030975-0.0009999l-13.2169037-7.631
				c-0.9950867-0.5759999-2.20401-0.6980001-3.5839996-0.331c-2.8679962,0.76-5.901001,3.5549998-7.7160034,7.1169996
				c-1.2019958,2.3600001-1.7220001,4.7630005-1.5660858,6.9800005l-1.6459198-0.9500008l-3.6699982,2.1190004
				c-3.2449951-3.71-6.5300903-5.7309999-8.7829895-4.4300003L131.222641,16.377121
				c-0.3880005,0.2240009-0.7450104,0.5460014-1.0660095,0.9750004c-1.9960938,2.6650009-2.1519928,5.9209995-0.625,9.5020008
				l-2.8930893,1.6709995l-0.9969025,0.5750008l0,0l-23.529007,13.5839977v16.1760025l3.3430023,1.9300003v22.9349976
				l25.7199936,14.8499985l3.8640137,2.2310028l21.8569946,12.6179962l21.8599091-12.6199951v0.0019989l7.7279968-4.461998
				v-0.0009995l21.8560944-12.6180038V60.790123l3.3430023-1.9300003V42.6841202l-22.7929993-13.157999
				C188.5806427,28.047121,188.1266327,26.5331211,187.4386292,25.002121z"/>
			<path opacity="0.1212121" fill="#D9D7DB" d="M181.618515,5.5261216c-0.549118-0.1729999-1.1490021-0.2309999-1.7940063-0.1689997
				C180.4695129,5.2951217,181.069519,5.3531218,181.618515,5.5261216z M171.1045074,12.6571217
				c-0.8431091,1.6560001-1.3339996,3.3310003-1.5109863,4.9519997l0,0
				c0.1759949-1.6199999,0.6669922-3.2949991,1.5109863-4.9509993c0.3378906-0.6630001,0.7288818-1.2870007,1.1418915-1.8880005
				C171.8333893,11.3711214,171.4425201,11.995122,171.1045074,12.6571217z M130.1965179,20.2351227
				c-0.6730042,0.8989983-1.078125,1.8439999-1.2140045,2.8289986c-0.1181183,0.8540001,0.0058746,1.7440014,0.2938843,2.6540012
				h-0.000885c-0.2871246-0.9099998-0.4111176-1.7989998-0.2929993-2.6540012
				c0.1358795-0.9849987,0.5410004-1.9300003,1.2140045-2.8299999c0.2050018-0.2729988,0.4279938-0.4799995,0.6708679-0.6199989
				c0.2271271-0.1310005,0.479126-0.1820011,0.7450104-0.1960011L130.1965179,20.2351227z M185.2155151,25.002121
				c-4.2339935-9.421999-8.8831177-11.1399994-12.9089966-8.9469986c0.1478729-0.8730001,0.3880005-1.750001,0.8300018-2.618001
				c0.8109894-1.592,2.0659943-2.9529991,3.3878784-3.7959995l6.1481171,3.5500002l2.6080017-2.007
				c-0.4199982-2.665-1.4201202-4.473-2.8760071-5.3130002l-0.0031128-0.0009999l-13.2168884-7.631
				c-0.9951172-0.5759999-2.2039948-0.6980001-3.5839996-0.331c-2.8679962,0.76-5.901001,3.5549998-7.7159882,7.1169996
				c-1.2020111,2.3600001-1.7220001,4.7630005-1.5661316,6.9800005l-1.645874-0.9500008l-3.6699982,2.1190004
				c-3.2450104-3.71-6.5301208-5.7309999-8.7830048-4.4300003l-13.2200012,7.6329994
				c-0.3880005,0.2240009-0.7449951,0.5460014-1.0659943,0.9750004c-1.9961243,2.6650009-2.1520004,5.9209995-0.625,9.5020008
				l-2.8931274,1.6709995l-0.9968719,0.5750008l0,0l-23.529007,13.5839977v16.1760025l3.3430023,1.9300003v22.9349976
				l25.7200012,14.8499985l3.8639984,2.2310028l21.8569946,12.6179962l21.8598785-12.6199951v0.0019989l7.7280121-4.461998
				v-0.0009995l21.8561096-12.6180038V60.790123l3.3430023-1.9300003V42.6841202l-22.7929993-13.157999
				C186.3575134,28.047121,185.9035187,26.5331211,185.2155151,25.002121z"/>
			<path opacity="0.1515152" fill="#D0CDD3" d="M179.395401,5.5261216
				c-0.5491638-0.1729999-1.1490021-0.2309999-1.7940063-0.1689997
				C178.2463989,5.2951217,178.8463898,5.3531218,179.395401,5.5261216z M168.8813934,12.6571217
				c-0.8431549,1.6560001-1.3339996,3.3310003-1.5110016,4.9519997l0,0
				c0.1759949-1.6199999,0.6670074-3.2949991,1.5110016-4.9509993c0.3378448-0.6630001,0.7288513-1.2870007,1.1418457-1.8880005
				C169.6102448,11.3711214,169.2193909,11.995122,168.8813934,12.6571217z M127.9733963,20.2351227
				c-0.6730042,0.8989983-1.0781555,1.8439999-1.2140045,2.8289986c-0.1181488,0.8540001,0.0058517,1.7440014,0.2938538,2.6540012
				h-0.0008545c-0.2871475-0.9099998-0.4111481-1.7989998-0.2929993-2.6540012
				c0.135849-0.9849987,0.5410004-1.9300003,1.2140045-2.8299999c0.2049942-0.2729988,0.4280014-0.4799995,0.670845-0.6199989
				c0.2271576-0.1310005,0.4791565-0.1820011,0.7449951-0.1960011L127.9733963,20.2351227z M182.9923859,25.002121
				c-4.2339935-9.421999-8.8831482-11.1399994-12.9089966-8.9469986c0.1478577-0.8730001,0.3880005-1.750001,0.8300018-2.618001
				c0.8110046-1.592,2.0660095-2.9529991,3.3878479-3.7959995l6.1481476,3.5500002l2.6080017-2.007
				c-0.4199982-2.665-1.4201508-4.473-2.8759918-5.3130002l-0.0031586-0.0009999l-13.2168427-7.631
				c-0.9951477-0.5759999-2.2039948-0.6980001-3.5839996-0.331c-2.8679962,0.76-5.901001,3.5549998-7.7160034,7.1169996
				c-1.2019958,2.3600001-1.7220001,4.7630005-1.5661469,6.9800005l-1.6458588-0.9500008l-3.6699982,2.1190004
				c-3.2449951-3.71-6.5301514-5.7309999-8.7829895-4.4300003l-13.2200089,7.6329994
				c-0.3879929,0.2240009-0.7449951,0.5460014-1.0659943,0.9750004c-1.9961548,2.6650009-2.1520004,5.9209995-0.625,9.5020008
				l-2.8931503,1.6709995l-0.9968491,0.5750008l0,0L97.6663971,42.6841202v16.1760025l3.3429947,1.9300003v22.9349976
				L126.729393,98.575119l3.864006,2.2310028l21.8569946,12.6179962l21.859848-12.6199951v0.0019989l7.7279968-4.461998v-0.0009995
				l21.8561554-12.6180038V60.790123l3.3430023-1.9300003V42.6841202l-22.7929993-13.157999
				C184.1343994,28.047121,183.6803894,26.5331211,182.9923859,25.002121z"/>
			<path opacity="0.1818182" fill="#C7C4CA" d="M177.1722717,5.5261216
				c-0.5491791-0.1729999-1.1490021-0.2309999-1.7940063-0.1689997
				C176.0232697,5.2951217,176.6232758,5.3531218,177.1722717,5.5261216z M166.6582794,12.6571217
				c-0.8431854,1.6560001-1.3339996,3.3310003-1.5110016,4.9519997l0,0
				c0.1759949-1.6199999,0.6669922-3.2949991,1.5110016-4.9509993c0.3378143-0.6630001,0.7288055-1.2870007,1.1418152-1.8880005
				C167.387085,11.3711214,166.9962769,11.995122,166.6582794,12.6571217z M125.7502747,20.2351227
				c-0.6730042,0.8989983-1.078186,1.8439999-1.2140045,2.8289986c-0.1181793,0.8540001,0.0058212,1.7440014,0.2938232,2.6540012
				h-0.000824c-0.287178-0.9099998-0.4111786-1.7989998-0.2929993-2.6540012
				c0.1358185-0.9849987,0.5410004-1.9300003,1.2140045-2.8299999c0.2049942-0.2729988,0.4280014-0.4799995,0.6708145-0.6199989
				c0.2271805-0.1310005,0.4791794-0.1820011,0.7450027-0.1960011L125.7502747,20.2351227z M180.7692719,25.002121
				c-4.2339935-9.421999-8.8831787-11.1399994-12.9089966-8.9469986c0.1478119-0.8730001,0.3880005-1.750001,0.8300018-2.618001
				c0.8109894-1.592,2.0659943-2.9529991,3.3878174-3.7959995l6.1481781,3.5500002l2.6080017-2.007
				c-0.4199982-2.665-1.4201813-4.473-2.8760071-5.3130002l-0.0031738-0.0009999l-13.2168274-7.631
				c-0.9951782-0.5759999-2.2039948-0.6980001-3.5839996-0.331c-2.8679962,0.76-5.901001,3.5549998-7.7159882,7.1169996
				c-1.2020111,2.3600001-1.7220001,4.7630005-1.5661926,6.9800005l-1.645813-0.9500008l-3.6699982,2.1190004
				c-3.2449951-3.71-6.5301819-5.7309999-8.7830048-4.4300003l-13.2199936,7.6329994
				c-0.3880005,0.2240009-0.7450027,0.5460014-1.0660019,0.9750004c-1.9961853,2.6650009-2.1520004,5.9209995-0.625,9.5020008
				l-2.8931808,1.6709995l-0.9968185,0.5750008l0,0L95.4432755,42.6841202v16.1760025l3.3429947,1.9300003v22.9349976
				l25.7200012,14.8499985l3.8639984,2.2310028l21.8570099,12.6179962l21.8598175-12.6199951v0.0019989l7.7279968-4.461998
				v-0.0009995l21.8561859-12.6180038V60.790123l3.3429871-1.9300003V42.6841202l-22.7929993-13.157999
				C181.9112701,28.047121,181.4572754,26.5331211,180.7692719,25.002121z"/>
			<path opacity="0.2121212" fill="#BEBBC2" d="M174.9491577,5.5261216
				c-0.5492249-0.1729999-1.1490021-0.2309999-1.7940063-0.1689997
				C173.8001556,5.2951217,174.4001465,5.3531218,174.9491577,5.5261216z M164.4351501,12.6571217
				c-0.8432159,1.6560001-1.3339996,3.3310003-1.5110016,4.9519997l0,0
				c0.1760101-1.6199999,0.6670074-3.2949991,1.5110016-4.9509993c0.3377838-0.6630001,0.7287903-1.2870007,1.1417847-1.8880005
				C165.1639404,11.3711214,164.7731476,11.995122,164.4351501,12.6571217z M123.527153,20.2351227
				c-0.6730042,0.8989983-1.0782166,1.8439999-1.2140045,2.8289986c-0.1182098,0.8540001,0.0057907,1.7440014,0.2937927,2.6540012
				h-0.0007935c-0.2872086-0.9099998-0.4112091-1.7989998-0.2929993-2.6540012
				c0.135788-0.9849987,0.5410004-1.9300003,1.2140045-2.8299999c0.2050018-0.2729988,0.4280014-0.4799995,0.670784-0.6199989
				c0.227211-0.1310005,0.4792175-0.1820011,0.7450027-0.1960011L123.527153,20.2351227z M178.5461578,25.002121
				c-4.2340088-9.421999-8.8832245-11.1399994-12.9090118-8.9469986c0.1477966-0.8730001,0.3880005-1.750001,0.8300018-2.618001
				c0.8110046-1.592,2.0660095-2.9529991,3.3877869-3.7959995l6.1482239,3.5500002l2.6079865-2.007
				c-0.4199982-2.665-1.4202118-4.473-2.8759918-5.3130002l-0.0032196-0.0009999l-13.2167816-7.631
				c-0.9952087-0.5759999-2.2039948-0.6980001-3.5839996-0.331c-2.8679962,0.76-5.901001,3.5549998-7.7160034,7.1169996
				c-1.2019958,2.3600001-1.7220001,4.7630005-1.5662079,6.9800005l-1.6457825-0.9500008l-3.6700134,2.1190004
				c-3.2449951-3.71-6.5302124-5.7309999-8.7829895-4.4300003l-13.2200012,7.6329994
				c-0.3880005,0.2240009-0.7450027,0.5460014-1.0660019,0.9750004c-1.9962158,2.6650009-2.1520004,5.9209995-0.625,9.5020008
				l-2.8932114,1.6709995l-0.996788,0.5750008l0,0L93.2201538,42.6841202v16.1760025l3.3429947,1.9300003v22.9349976
				l25.7200012,14.8499985l3.8639984,2.2310028l21.8570023,12.6179962l21.859787-12.6199951v0.0019989l7.7279968-4.461998
				v-0.0009995l21.8562164-12.6180038V60.790123l3.3430023-1.9300003V42.6841202l-22.7929993-13.157999
				C179.6881561,28.047121,179.2341461,26.5331211,178.5461578,25.002121z"/>
			<path opacity="0.2424242" fill="#B6B2BA" d="M172.7260284,5.5261216
				c-0.5492401-0.1729999-1.1490021-0.2309999-1.7939911-0.1689997
				C171.5770264,5.2951217,172.1770325,5.3531218,172.7260284,5.5261216z M162.2120361,12.6571217
				c-0.8432465,1.6560001-1.3339996,3.3310003-1.5110016,4.9519997l0,0
				c0.1759949-1.6199999,0.6669922-3.2949991,1.5110016-4.9509993c0.3377533-0.6630001,0.7287445-1.2870007,1.1417542-1.8880005
				C162.9407806,11.3711214,162.5500336,11.995122,162.2120361,12.6571217z M121.3040314,20.2351227
				c-0.6730042,0.8989983-1.0782471,1.8439999-1.2140045,2.8289986c-0.1182404,0.8540001,0.0057602,1.7440014,0.2937622,2.6540012
				h-0.0007629c-0.2872391-0.9099998-0.4112396-1.7989998-0.2929993-2.6540012
				c0.1357574-0.9849987,0.5410004-1.9300003,1.2140045-2.8299999c0.2050018-0.2729988,0.4280014-0.4799995,0.6707535-0.6199989
				c0.2272415-0.1310005,0.479248-0.1820011,0.7450027-0.1960011L121.3040314,20.2351227z M176.3230286,25.002121
				c-4.2339935-9.421999-8.8832397-11.1399994-12.9089966-8.9469986c0.1477509-0.8730001,0.3880005-1.750001,0.8300018-2.618001
				c0.8109894-1.592,2.0659943-2.9529991,3.3877563-3.7959995l6.1482391,3.5500002l2.6080017-2.007
				c-0.4199982-2.665-1.4202423-4.473-2.8760071-5.3130002l-0.0032349-0.0009999l-13.2167664-7.631
				c-0.9952393-0.5759999-2.2039948-0.6980001-3.5839996-0.331c-2.8679962,0.76-5.9009857,3.5549998-7.7159882,7.1169996
				c-1.2020111,2.3600001-1.7220001,4.7630005-1.5662537,6.9800005l-1.645752-0.9500008l-3.6699982,2.1190004
				c-3.2449951-3.71-6.5302429-5.7309999-8.7830048-4.4300003l-13.2199936,7.6329994
				c-0.3880005,0.2240009-0.7450027,0.5460014-1.0660019,0.9750004c-1.9962463,2.6650009-2.1520004,5.9209995-0.625,9.5020008
				l-2.8932419,1.6709995l-0.9967575,0.5750008l0,0L90.9970322,42.6841202v16.1760025l3.3429947,1.9300003v22.9349976
				l25.7200012,14.8499985l3.8639984,2.2310028l21.8570099,12.6179962l21.8597565-12.6199951v0.0019989l7.7279968-4.461998
				v-0.0009995l21.8562469-12.6180038V60.790123l3.3429871-1.9300003V42.6841202l-22.7929993-13.157999
				C177.4650269,28.047121,177.0110321,26.5331211,176.3230286,25.002121z"/>
			<path opacity="0.2727273" fill="#AEAAB2" d="M170.5029144,5.5261216
				c-0.5492859-0.1729999-1.1490021-0.2309999-1.7940063-0.1689997
				C169.3539124,5.2951217,169.9539032,5.3531218,170.5029144,5.5261216z M159.9889069,12.6571217
				c-0.843277,1.6560001-1.3339996,3.3310003-1.5110016,4.9519997l0,0c0.1760101-1.6199999,0.6670074-3.2949991,1.5110016-4.9509993
				c0.3377228-0.6630001,0.7287292-1.2870007,1.1417236-1.8880005
				C160.7176361,11.3711214,160.3269043,11.995122,159.9889069,12.6571217z M119.0809097,20.2351227
				c-0.6730042,0.8989983-1.0782776,1.8439999-1.2140045,2.8289986c-0.1182709,0.8540001,0.0057297,1.7440014,0.2937317,2.6540012
				h-0.0007248c-0.2872772-0.9099998-0.4112778-1.7989998-0.2930069-2.6540012
				c0.1357269-0.9849987,0.5410004-1.9300003,1.2140045-2.8299999c0.2050018-0.2729988,0.4280014-0.4799995,0.670723-0.6199989
				c0.2272797-0.1310005,0.4792786-0.1820011,0.7450027-0.1960011L119.0809097,20.2351227z M174.0999146,25.002121
				c-4.2340088-9.421999-8.8832855-11.1399994-12.9090118-8.9469986c0.1477356-0.8730001,0.3880005-1.750001,0.8300018-2.618001
				c0.8110046-1.592,2.0660095-2.9529991,3.3877258-3.7959995l6.1482849,3.5500002l2.6079865-2.007
				c-0.4199982-2.665-1.4202728-4.473-2.8759918-5.3130002l-0.0032806-0.0009999l-13.2167206-7.631
				c-0.9952698-0.5759999-2.2039948-0.6980001-3.5839996-0.331c-2.8679962,0.76-5.901001,3.5549998-7.7160034,7.1169996
				c-1.2019958,2.3600001-1.7220001,4.7630005-1.5662689,6.9800005l-1.6457214-0.9500008l-3.6700134,2.1190004
				c-3.2449951-3.71-6.5302734-5.7309999-8.7829895-4.4300003l-13.2200012,7.6329994
				c-0.3880005,0.2240009-0.7450027,0.5460014-1.0660019,0.9750004c-1.9962769,2.6650009-2.1520004,5.9209995-0.625,9.5020008
				l-2.8932724,1.6709995l-0.996727,0.5750008l0,0L88.7739105,42.6841202v16.1760025l3.3429947,1.9300003v22.9349976
				l25.7200012,14.8499985l3.8639984,2.2310028l21.8570023,12.6179962l21.859726-12.6199951v0.0019989l7.7279968-4.461998
				v-0.0009995l21.8562775-12.6180038V60.790123l3.3430023-1.9300003V42.6841202l-22.7929993-13.157999
				C175.2419128,28.047121,174.7879028,26.5331211,174.0999146,25.002121z"/>
			<path opacity="0.3030303" fill="#A6A2AA" d="M168.2797852,5.5261216
				c-0.5493011-0.1729999-1.1490021-0.2309999-1.7939911-0.1689997
				C167.1307831,5.2951217,167.7307892,5.3531218,168.2797852,5.5261216z M157.7657928,12.6571217
				c-0.8433075,1.6560001-1.3339996,3.3310003-1.5110016,4.9519997l0,0
				c0.1759949-1.6199999,0.6669922-3.2949991,1.5110016-4.9509993c0.3376923-0.6630001,0.7286987-1.2870007,1.1416931-1.8880005
				C158.4944916,11.3711214,158.1037903,11.995122,157.7657928,12.6571217z M116.8577881,20.2351227
				c-0.6730042,0.8989983-1.0783005,1.8439999-1.2139969,2.8289986c-0.118309,0.8540001,0.0056915,1.7440014,0.2936935,2.6540012
				h-0.0006943c-0.2873077-0.9099998-0.4113083-1.7989998-0.2929993-2.6540012
				c0.1356964-0.9849987,0.5409927-1.9300003,1.2139969-2.8299999c0.2050018-0.2729988,0.4280014-0.4799995,0.6707001-0.6199989
				c0.2273026-0.1310005,0.4793015-0.1820011,0.7449951-0.1960011L116.8577881,20.2351227z M171.8767853,25.002121
				c-4.2339935-9.421999-8.8833008-11.1399994-12.9089966-8.9469986c0.1476898-0.8730001,0.3880005-1.750001,0.8300018-2.618001
				c0.8109894-1.592,2.0659943-2.9529991,3.3876953-3.7959995l6.1483002,3.5500002l2.6080017-2.007
				c-0.4199982-2.665-1.4203033-4.473-2.8760071-5.3130002l-0.0032959-0.0009999l-13.2166901-7.631
				c-0.9953156-0.5759999-2.20401-0.6980001-3.5839996-0.331c-2.8680115,0.76-5.901001,3.5549998-7.7160034,7.1169996
				c-1.2020111,2.3600001-1.7220001,4.7630005-1.5663147,6.9800005l-1.6456909-0.9500008l-3.6699982,2.1190004
				c-3.2449951-3.71-6.530304-5.7309999-8.7830048-4.4300003l-13.2199936,7.6329994
				c-0.3880005,0.2240009-0.7450027,0.5460014-1.0660019,0.9750004c-1.9962997,2.6650009-2.1520004,5.9209995-0.625,9.5020008
				l-2.8933029,1.6709995l-0.9966965,0.5750008l0,0L86.5507889,42.6841202v16.1760025l3.3430023,1.9300003v22.9349976
				l25.7199936,14.8499985l3.864006,2.2310028l21.8570023,12.6179962l21.8596954-12.6199951v0.0019989l7.7279968-4.461998
				v-0.0009995l21.856308-12.6180038V60.790123l3.3429871-1.9300003V42.6841202l-22.7929993-13.157999
				C173.0187836,28.047121,172.5647888,26.5331211,171.8767853,25.002121z"/>
			<path opacity="0.3333333" fill="#9E99A3" d="M166.0566711,5.5261216
				c-0.5493317-0.1729999-1.1490021-0.2309999-1.7940063-0.1689997
				C164.9076691,5.2951217,165.5076599,5.3531218,166.0566711,5.5261216z M155.5426636,12.6571217
				c-0.843338,1.6560001-1.3339996,3.3310003-1.5110016,4.9519997l0,0c0.1760101-1.6199999,0.6670074-3.2949991,1.5110016-4.9509993
				c0.3376617-0.6630001,0.7286682-1.2870007,1.1416626-1.8880005
				C156.2713318,11.3711214,155.880661,11.995122,155.5426636,12.6571217z M114.6346664,20.2351227
				c-0.6729965,0.8989983-1.078331,1.8439999-1.2139969,2.8289986c-0.1183395,0.8540001,0.005661,1.7440014,0.293663,2.6540012
				h-0.0006638c-0.2873383-0.9099998-0.4113388-1.7989998-0.2929993-2.6540012
				c0.1356659-0.9849987,0.5410004-1.9300003,1.2139969-2.8299999c0.2050018-0.2729988,0.4280014-0.4799995,0.6706696-0.6199989
				c0.2273331-0.1310005,0.479332-0.1820011,0.7449951-0.1960011L114.6346664,20.2351227z M169.6536713,25.002121
				c-4.2340088-9.421999-8.8833313-11.1399994-12.9090118-8.9469986c0.1476746-0.8730001,0.3880005-1.750001,0.8300018-2.618001
				c0.8110046-1.592,2.0660095-2.9529991,3.3876648-3.7959995l6.1483459,3.5500002l2.6080017-2.007
				c-0.4200134-2.665-1.4203339-4.473-2.8760071-5.3130002l-0.0033264-0.0009999l-13.2166748-7.631
				c-0.9953308-0.5759999-2.2039948-0.6980001-3.5839996-0.331c-2.8679962,0.76-5.901001,3.5549998-7.7160034,7.1169996
				c-1.2019958,2.3600001-1.7220001,4.7630005-1.56633,6.9800005l-1.6456604-0.9500008l-3.6699982,2.1190004
				c-3.2450104-3.71-6.5303345-5.7309999-8.7830048-4.4300003l-13.2200012,7.6329994
				c-0.3880005,0.2240009-0.7450027,0.5460014-1.0660019,0.9750004c-1.9963303,2.6650009-2.1520004,5.9209995-0.625,9.5020008
				l-2.8933334,1.6709995l-0.996666,0.5750008l0,0L84.3276672,42.6841202v16.1760025l3.3430023,1.9300003v22.9349976
				l25.7199936,14.8499985l3.864006,2.2310028l21.8569946,12.6179962l21.8596649-12.6199951v0.0019989l7.7279968-4.461998
				v-0.0009995l21.8563385-12.6180038V60.790123l3.3430023-1.9300003V42.6841202l-22.7929993-13.157999
				C170.7956696,28.047121,170.3416595,26.5331211,169.6536713,25.002121z"/>
			<path opacity="0.3636364" fill="#96919B" d="M163.8335419,5.5261216
				c-0.5493622-0.1729999-1.1490021-0.2309999-1.7939911-0.1689997
				C162.6845398,5.2951217,163.2845459,5.3531218,163.8335419,5.5261216z M153.3195496,12.6571217
				c-0.8433685,1.6560001-1.3339996,3.3310003-1.5110016,4.9519997l0,0
				c0.1759949-1.6199999,0.6669922-3.2949991,1.5110016-4.9509993c0.3376312-0.6630001,0.7286377-1.2870007,1.1416321-1.8880005
				C154.0481873,11.3711214,153.657547,11.995122,153.3195496,12.6571217z M112.4115448,20.2351227
				c-0.6729965,0.8989983-1.0783615,1.8439999-1.2139969,2.8289986c-0.1183701,0.8540001,0.0056305,1.7440014,0.2936325,2.6540012
				h-0.0006332c-0.2873688-0.9099998-0.4113693-1.7989998-0.2929993-2.6540012
				c0.1356354-0.9849987,0.5410004-1.9300003,1.2139969-2.8299999c0.2050018-0.2729988,0.4280014-0.4799995,0.670639-0.6199989
				c0.2273636-0.1310005,0.4793625-0.1820011,0.7449951-0.1960011L112.4115448,20.2351227z M167.430542,25.002121
				c-4.2339935-9.421999-8.8833618-11.1399994-12.9089966-8.9469986c0.1476288-0.8730001,0.3880005-1.750001,0.8300018-2.618001
				c0.8110046-1.592,2.0659943-2.9529991,3.3876343-3.7959995l6.1483612,3.5500002l2.6080017-2.007
				c-0.4199982-2.665-1.4203644-4.473-2.8759918-5.3130002l-0.0033722-0.0009999l-13.216629-7.631
				c-0.9953766-0.5759999-2.20401-0.6980001-3.5839996-0.331c-2.8680115,0.76-5.901001,3.5549998-7.7160034,7.1169996
				c-1.2019958,2.3600001-1.7220001,4.7630005-1.5663605,6.9800005l-1.6456451-0.9500008l-3.6699982,2.1190004
				c-3.2449951-3.71-6.530365-5.7309999-8.7829971-4.4300003l-13.2200012,7.6329994
				c-0.3880005,0.2240009-0.7450027,0.5460014-1.0660019,0.9750004c-1.9963608,2.6650009-2.1520004,5.9209995-0.625,9.5020008
				l-2.893364,1.6709995l-0.9966354,0.5750008l0,0L82.1045456,42.6841202v16.1760025l3.3430023,1.9300003v22.9349976
				l25.7199936,14.8499985l3.864006,2.2310028l21.8570023,12.6179962l21.8596344-12.6199951v0.0019989l7.7279968-4.461998
				v-0.0009995l21.856369-12.6180038V60.790123l3.3430023-1.9300003V42.6841202l-22.7930145-13.157999
				C168.5725403,28.047121,168.1185455,26.5331211,167.430542,25.002121z"/>
			<path opacity="0.3939394" fill="#8E8994" d="M161.6104279,5.5261216
				c-0.5493927-0.1729999-1.1490021-0.2309999-1.7940063-0.1689997
				C160.4614258,5.2951217,161.0614166,5.3531218,161.6104279,5.5261216z M151.0964203,12.6571217
				c-0.8433838,1.6560001-1.3339996,3.3310003-1.5110016,4.9519997l0,0
				c0.1760101-1.6199999,0.6670074-3.2949991,1.5110016-4.9509993c0.337616-0.6630001,0.7286072-1.2870007,1.1416168-1.8880005
				C151.8250275,11.3711214,151.4344177,11.995122,151.0964203,12.6571217z M110.1884232,20.2351227
				c-0.6729965,0.8989983-1.078392,1.8439999-1.2139969,2.8289986c-0.1183929,0.8540001,0.0056,1.7440014,0.293602,2.6540012
				h-0.0006027c-0.2873993-0.9099998-0.4113922-1.7989998-0.2929993-2.6540012
				c0.1356049-0.9849987,0.5410004-1.9300003,1.2139969-2.8299999c0.2050018-0.2729988,0.4280014-0.4799995,0.6706085-0.6199989
				c0.2273941-0.1310005,0.479393-0.1820011,0.7449951-0.1960011L110.1884232,20.2351227z M165.207428,25.002121
				c-4.2340088-9.421999-8.8833923-11.1399994-12.9089966-8.9469986c0.1475983-0.8730001,0.3879852-1.750001,0.8299866-2.618001
				c0.8110046-1.592,2.0660095-2.9529991,3.387619-3.7959995l6.1483917,3.5500002l2.6080017-2.007
				c-0.4200134-2.665-1.4203949-4.473-2.8760071-5.3130002l-0.0033875-0.0009999l-13.2166138-7.631
				c-0.9953918-0.5759999-2.2039948-0.6980001-3.5839996-0.331c-2.8679962,0.76-5.901001,3.5549998-7.7160034,7.1169996
				c-1.2019958,2.3600001-1.7220001,4.7630005-1.566391,6.9800005l-1.6455994-0.9500008l-3.6699982,2.1190004
				c-3.2450104-3.71-6.5304031-5.7309999-8.7830048-4.4300003l-13.2200012,7.6329994
				c-0.3880005,0.2240009-0.7450027,0.5460014-1.0660019,0.9750004c-1.9963913,2.6650009-2.1520004,5.9209995-0.625,9.5020008
				l-2.8933945,1.6709995l-0.9966049,0.5750008l0,0L79.881424,42.6841202v16.1760025l3.3430023,1.9300003v22.9349976
				l25.7200012,14.8499985l3.8639984,2.2310028l21.8569946,12.6179962l21.8596039-12.6199951v0.0019989l7.7280121-4.461998
				v-0.0009995l21.8563843-12.6180038V60.790123l3.3430023-1.9300003V42.6841202l-22.7929993-13.157999
				C166.3494263,28.047121,165.8954163,26.5331211,165.207428,25.002121z"/>
			<path opacity="0.4242424" fill="#86828D" d="M159.3872986,5.5261216
				c-0.5494232-0.1729999-1.1490021-0.2309999-1.7939911-0.1689997
				C158.2382965,5.2951217,158.8383026,5.3531218,159.3872986,5.5261216z M148.8733063,12.6571217
				c-0.8434296,1.6560001-1.3339996,3.3310003-1.5110016,4.9519997l0,0
				c0.1759949-1.6199999,0.6669922-3.2949991,1.5110016-4.9509993c0.3375702-0.6630001,0.7285767-1.2870007,1.141571-1.8880005
				C149.6018829,11.3711214,149.2113037,11.995122,148.8733063,12.6571217z M107.9653015,20.2351227
				c-0.6729965,0.8989983-1.0784225,1.8439999-1.2139969,2.8289986c-0.1184235,0.8540001,0.0055771,1.7440014,0.2935715,2.6540012
				h-0.0005722c-0.2874222-0.9099998-0.4114227-1.7989998-0.2929993-2.6540012
				c0.1355743-0.9849987,0.5410004-1.9300003,1.2139969-2.8299999c0.2050018-0.2729988,0.4280014-0.4799995,0.670578-0.6199989
				c0.2274246-0.1310005,0.4794235-0.1820011,0.7449951-0.1960011L107.9653015,20.2351227z M162.9842987,25.002121
				c-4.2339935-9.421999-8.8834229-11.1399994-12.9089966-8.9469986c0.147583-0.8730001,0.3880005-1.750001,0.8300018-2.618001
				c0.8110046-1.592,2.0659943-2.9529991,3.3875732-3.7959995l6.1484222,3.5500002l2.6080017-2.007
				c-0.4199982-2.665-1.4204254-4.473-2.8759918-5.3130002l-0.0034332-0.0009999l-13.216568-7.631
				c-0.9954224-0.5759999-2.20401-0.6980001-3.5839996-0.331c-2.8680115,0.76-5.901001,3.5549998-7.7160034,7.1169996
				c-1.2019958,2.3600001-1.7220001,4.7630005-1.5664215,6.9800005l-1.6455841-0.9500008l-3.6699982,2.1190004
				c-3.2449951-3.71-6.530426-5.7309999-8.7829971-4.4300003l-13.2200012,7.6329994
				c-0.3880005,0.2240009-0.7450027,0.5460014-1.0660019,0.9750004c-1.9964218,2.6650009-2.1520004,5.9209995-0.625,9.5020008
				l-2.893425,1.6709995l-0.9965744,0.5750008l0,0L77.6583023,42.6841202v16.1760025l3.3430023,1.9300003v22.9349976
				l25.7200012,14.8499985l3.8639984,2.2310028l21.8570023,12.6179962l21.8595734-12.6199951v0.0019989l7.7279968-4.461998
				v-0.0009995l21.8564301-12.6180038V60.790123l3.3430023-1.9300003V42.6841202l-22.7929993-13.157999
				C164.126297,28.047121,163.6723022,26.5331211,162.9842987,25.002121z"/>
			<path opacity="0.4545455" fill="#7F7A86" d="M157.1641846,5.5261216
				c-0.5494537-0.1729999-1.1490021-0.2309999-1.7940063-0.1689997
				C156.0151825,5.2951217,156.6151886,5.3531218,157.1641846,5.5261216z M146.650177,12.6571217
				c-0.8434448,1.6560001-1.3339996,3.3310003-1.5110016,4.9519997l0,0
				c0.1760101-1.6199999,0.6670074-3.2949991,1.5110016-4.9509993c0.3375549-0.6630001,0.7285461-1.2870007,1.1415558-1.8880005
				C147.3787231,11.3711214,146.9881744,11.995122,146.650177,12.6571217z M105.7421799,20.2351227
				c-0.6729965,0.8989983-1.0784531,1.8439999-1.2139969,2.8289986c-0.118454,0.8540001,0.0055466,1.7440014,0.293541,2.6540012
				h-0.0005417c-0.2874527-0.9099998-0.4114532-1.7989998-0.2929993-2.6540012
				c0.1355438-0.9849987,0.5410004-1.9300003,1.2139969-2.8299999c0.2050018-0.2729988,0.4280014-0.4799995,0.6705475-0.6199989
				c0.2274551-0.1310005,0.479454-0.1820011,0.7450027-0.1960011L105.7421799,20.2351227z M160.7611847,25.002121
				c-4.2340088-9.421999-8.8834534-11.1399994-12.9089966-8.9469986c0.1475372-0.8730001,0.3880005-1.750001,0.8299866-2.618001
				c0.8110046-1.592,2.0660095-2.9529991,3.387558-3.7959995l6.1484528,3.5500002l2.6080017-2.007
				c-0.4199982-2.665-1.4204559-4.473-2.8760071-5.3130002l-0.0034485-0.0009999l-13.2165527-7.631
				c-0.9954529-0.5759999-2.2039948-0.6980001-3.5839996-0.331c-2.8679962,0.76-5.901001,3.5549998-7.7160034,7.1169996
				c-1.2019958,2.3600001-1.7220001,4.7630005-1.566452,6.9800005l-1.6455383-0.9500008l-3.6700058,2.1190004
				c-3.2449951-3.71-6.5304565-5.7309999-8.7829971-4.4300003l-13.2200012,7.6329994
				c-0.3880005,0.2240009-0.7450027,0.5460014-1.0660019,0.9750004c-1.9964523,2.6650009-2.1520004,5.9209995-0.625,9.5020008
				l-2.8934555,1.6709995L98.96418,29.1001225l0,0L75.4351807,42.6841202v16.1760025l3.3430023,1.9300003v22.9349976
				l25.7200012,14.8499985l3.8639984,2.2310028l21.8569946,12.6179962l21.8595428-12.6199951v0.0019989l7.7280121-4.461998
				v-0.0009995l21.8564453-12.6180038V60.790123l3.3430023-1.9300003V42.6841202l-22.7929993-13.157999
				C161.903183,28.047121,161.4491882,26.5331211,160.7611847,25.002121z"/>
			<path opacity="0.4848485" fill="#78737F" d="M154.9410553,5.5261216
				c-0.5494843-0.1729999-1.1490021-0.2309999-1.7939911-0.1689997
				C153.7920532,5.2951217,154.3920593,5.3531218,154.9410553,5.5261216z M144.427063,12.6571217
				c-0.8434906,1.6560001-1.3339996,3.3310003-1.5110016,4.9519997l0,0
				c0.1759949-1.6199999,0.6669922-3.2949991,1.5110016-4.9509993c0.3375092-0.6630001,0.7285156-1.2870007,1.14151-1.8880005
				C145.1555786,11.3711214,144.7650604,11.995122,144.427063,12.6571217z M103.5190582,20.2351227
				c-0.6729965,0.8989983-1.0784836,1.8439999-1.2139969,2.8289986c-0.1184845,0.8540001,0.0055161,1.7440014,0.2935104,2.6540012
				h-0.0005112c-0.2874832-0.9099998-0.4114838-1.7989998-0.2929993-2.6540012
				c0.1355133-0.9849987,0.5410004-1.9300003,1.2139969-2.8299999c0.2050018-0.2729988,0.4280014-0.4799995,0.670517-0.6199989
				c0.2274857-0.1310005,0.4794846-0.1820011,0.7450027-0.1960011L103.5190582,20.2351227z M158.5380554,25.002121
				c-4.2339935-9.421999-8.8834839-11.1399994-12.9089966-8.9469986c0.147522-0.8730001,0.3880005-1.750001,0.8300018-2.618001
				c0.8110046-1.592,2.0659943-2.9529991,3.3875122-3.7959995l6.1484833,3.5500002l2.6080017-2.007
				c-0.4199982-2.665-1.4204865-4.473-2.8759918-5.3130002l-0.0034943-0.0009999l-13.216507-7.631
				c-0.9954834-0.5759999-2.20401-0.6980001-3.5839996-0.331c-2.8680115,0.76-5.901001,3.5549998-7.7160034,7.1169996
				c-1.2019958,2.3600001-1.7220001,4.7630005-1.5664825,6.9800005l-1.6455154-0.9500008l-3.6700058,2.1190004
				c-3.2449951-3.71-6.5304794-5.7309999-8.7829971-4.4300003l-13.2200012,7.6329994
				c-0.3880005,0.2240009-0.7450027,0.5460014-1.0660019,0.9750004c-1.9964828,2.6650009-2.1520004,5.9209995-0.625,9.5020008
				l-2.893486,1.6709995l-0.9965134,0.5750008l0,0L73.212059,42.6841202v16.1760025l3.3430023,1.9300003v22.9349976
				l25.7200012,14.8499985l3.8639984,2.2310028l21.8570023,12.6179962l21.8595123-12.6199951v0.0019989l7.7279968-4.461998
				v-0.0009995l21.8564911-12.6180038V60.790123l3.3430023-1.9300003V42.6841202l-22.7929993-13.157999
				C159.6800537,28.047121,159.226059,26.5331211,158.5380554,25.002121z"/>
			<path opacity="0.5151515" fill="#716D79" d="M152.7179413,5.5261216
				c-0.5495148-0.1729999-1.1490021-0.2309999-1.7940063-0.1689997
				C151.5689392,5.2951217,152.1689453,5.3531218,152.7179413,5.5261216z M142.2039337,12.6571217
				c-0.8435059,1.6560001-1.3339996,3.3310003-1.5110016,4.9519997l0,0
				c0.1760101-1.6199999,0.6670074-3.2949991,1.5110016-4.9509993c0.3374939-0.6630001,0.7284851-1.2870007,1.1414948-1.8880005
				C142.9324188,11.3711214,142.5419464,11.995122,142.2039337,12.6571217z M101.2959366,20.2351227
				c-0.6729965,0.8989983-1.0785141,1.8439999-1.2139969,2.8289986c-0.118515,0.8540001,0.0054855,1.7440014,0.2934875,2.6540012
				h-0.0004883c-0.2875137-0.9099998-0.4115143-1.7989998-0.2929993-2.6540012
				c0.1354828-0.9849987,0.5410004-1.9300003,1.2139969-2.8299999c0.2050018-0.2729988,0.4280014-0.4799995,0.6704865-0.6199989
				c0.2275162-0.1310005,0.4795151-0.1820011,0.7450027-0.1960011L101.2959366,20.2351227z M156.3149414,25.002121
				c-4.2340088-9.421999-8.8835144-11.1399994-12.9089966-8.9469986c0.1474762-0.8730001,0.3880005-1.750001,0.8299866-2.618001
				c0.8110046-1.592,2.0660095-2.9529991,3.3874969-3.7959995l6.1485138,3.5500002l2.6080017-2.007
				c-0.4199982-2.665-1.420517-4.473-2.8760071-5.3130002l-0.0035095-0.0009999l-13.2164917-7.631
				c-0.9955139-0.5759999-2.2039948-0.6980001-3.5839996-0.331c-2.8679962,0.76-5.901001,3.5549998-7.7160034,7.1169996
				c-1.2019958,2.3600001-1.7219925,4.7630005-1.5665054,6.9800005l-1.6454849-0.9500008l-3.6700058,2.1190004
				c-3.2449951-3.71-6.5305099-5.7309999-8.7829971-4.4300003L100.098938,16.377121
				c-0.3880005,0.2240009-0.7450027,0.5460014-1.0660019,0.9750004c-1.9965134,2.6650009-2.1520004,5.9209995-0.625,9.5020008
				l-2.8935089,1.6709995l-0.9964905,0.5750008l0,0L70.9889374,42.6841202v16.1760025l3.3430023,1.9300003v22.9349976
				l25.7200012,14.8499985l3.8639984,2.2310028l21.8570023,12.6179962l21.8594894-12.6199951v0.0019989l7.7279968-4.461998
				v-0.0009995l21.8565063-12.6180038V60.790123l3.3430023-1.9300003V42.6841202l-22.7929993-13.157999
				C157.4569397,28.047121,157.0029449,26.5331211,156.3149414,25.002121z"/>
			<path opacity="0.5454546" fill="#6B6673" d="M150.494812,5.5261216
				c-0.5495453-0.1729999-1.1489868-0.2309999-1.7939911-0.1689997
				C149.3458252,5.2951217,149.945816,5.3531218,150.494812,5.5261216z M139.9808197,12.6571217
				c-0.8435516,1.6560001-1.3339996,3.3310003-1.5110016,4.9519997l0,0
				c0.1759949-1.6199999,0.6669922-3.2949991,1.5110016-4.9509993c0.3374481-0.6630001,0.7284546-1.2870007,1.141449-1.8880005
				C140.7092743,11.3711214,140.3188171,11.995122,139.9808197,12.6571217z M99.0728149,20.2351227
				c-0.6729965,0.8989983-1.0785446,1.8439999-1.2139969,2.8289986c-0.1185455,0.8540001,0.005455,1.7440014,0.293457,2.6540012
				h-0.0004578c-0.2875443-0.9099998-0.4115448-1.7989998-0.2929993-2.6540012
				c0.1354523-0.9849987,0.5410004-1.9300003,1.2139969-2.8299999c0.2050018-0.2729988,0.4280014-0.4799995,0.6704559-0.6199989
				c0.2275467-0.1310005,0.4795456-0.1820011,0.7450027-0.1960011L99.0728149,20.2351227z M154.0918121,25.002121
				c-4.2339935-9.421999-8.8835449-11.1399994-12.9089966-8.9469986c0.1474609-0.8730001,0.3880005-1.750001,0.8300018-2.618001
				c0.8110046-1.592,2.0659943-2.9529991,3.3874512-3.7959995l6.1485443,3.5500002l2.6080017-2.007
				c-0.4199982-2.665-1.4205475-4.473-2.8759918-5.3130002l-0.0035553-0.0009999l-13.2164459-7.631
				c-0.9955444-0.5759999-2.20401-0.6980001-3.5839996-0.331c-2.8680115,0.76-5.901001,3.5549998-7.7160034,7.1169996
				c-1.2020035,2.3600001-1.7220001,4.7630005-1.5665436,6.9800005l-1.6454544-0.9500008l-3.6700058,2.1190004
				c-3.2449951-3.71-6.5305405-5.7309999-8.7829971-4.4300003L97.8758163,16.377121
				c-0.3880005,0.2240009-0.7449951,0.5460014-1.0660019,0.9750004c-1.9965439,2.6650009-2.1520004,5.9209995-0.625,9.5020008
				l-2.8935394,1.6709995l-0.99646,0.5750008l0,0L68.7658157,42.6841202v16.1760025l3.3430023,1.9300003v22.9349976
				L97.8288193,98.575119l3.8639984,2.2310028l21.8570023,12.6179962l21.8594513-12.6199951v0.0019989l7.7279968-4.461998
				v-0.0009995l21.8565521-12.6180038V60.790123l3.3430023-1.9300003V42.6841202l-22.7929993-13.157999
				C155.2338104,28.047121,154.7798157,26.5331211,154.0918121,25.002121z"/>
			<path opacity="0.5757576" fill="#645F6C" d="M148.271698,5.5261216
				c-0.5495758-0.1729999-1.1490021-0.2309999-1.7940063-0.1689997
				C147.1226959,5.2951217,147.722702,5.3531218,148.271698,5.5261216z M137.7576904,12.6571217
				c-0.8435669,1.6560001-1.3339996,3.3310003-1.5109863,4.9519997l0,0
				c0.1759949-1.6199999,0.6669922-3.2949991,1.5109863-4.9509993c0.3374329-0.6630001,0.7284241-1.2870007,1.1414337-1.8880005
				C138.4861145,11.3711214,138.0957031,11.995122,137.7576904,12.6571217z M96.8496933,20.2351227
				c-0.6729965,0.8989983-1.0785751,1.8439999-1.2139969,2.8289986c-0.118576,0.8540001,0.0054245,1.7440014,0.2934265,2.6540012
				h-0.0004272c-0.2875748-0.9099998-0.4115753-1.7989998-0.2929993-2.6540012
				c0.1354218-0.9849987,0.5410004-1.9300003,1.2139969-2.8299999c0.2050018-0.2729988,0.4280014-0.4799995,0.6704254-0.6199989
				c0.2275772-0.1310005,0.4795761-0.1820011,0.7450027-0.1960011L96.8496933,20.2351227z M151.8686981,25.002121
				c-4.2340088-9.421999-8.8835754-11.1399994-12.9089966-8.9469986c0.1474152-0.8730001,0.3880005-1.750001,0.8300018-2.618001
				c0.8109894-1.592,2.0659943-2.9529991,3.3874207-3.7959995l6.1485748,3.5500002l2.6080017-2.007
				c-0.4199982-2.665-1.420578-4.473-2.8760071-5.3130002l-0.0035706-0.0009999l-13.2164307-7.631
				c-0.995575-0.5759999-2.2039948-0.6980001-3.5839996-0.331c-2.8679962,0.76-5.9009933,3.5549998-7.7159958,7.1169996
				c-1.2020035,2.3600001-1.7220001,4.7630005-1.5665741,6.9800005l-1.6454239-0.9500008l-3.6700058,2.1190004
				c-3.2449951-3.71-6.530571-5.7309999-8.7829971-4.4300003L95.6526947,16.377121
				c-0.3880005,0.2240009-0.7449951,0.5460014-1.0660019,0.9750004c-1.9965744,2.6650009-2.1519928,5.9209995-0.625,9.5020008
				l-2.8935699,1.6709995l-0.9964294,0.5750008l0,0L66.5426941,42.6841202v16.1760025l3.3430023,1.9300003v22.9349976
				L95.6056976,98.575119l3.8639984,2.2310028l21.8570023,12.6179962l21.8594284-12.6199951v0.0019989l7.7279968-4.461998
				v-0.0009995l21.8565674-12.6180038V60.790123l3.3430023-1.9300003V42.6841202l-22.7929993-13.157999
				C153.0106964,28.047121,152.5567017,26.5331211,151.8686981,25.002121z"/>
			<path opacity="0.6060606" fill="#5E5966" d="M146.0485687,5.5261216
				c-0.5496063-0.1729999-1.1489868-0.2309999-1.7939911-0.1689997
				C144.8995819,5.2951217,145.4995728,5.3531218,146.0485687,5.5261216z M135.5345764,12.6571217
				c-0.8436127,1.6560001-1.3339996,3.3310003-1.5110016,4.9519997l0,0
				c0.1759949-1.6199999,0.6670074-3.2949991,1.5110016-4.9509993c0.3373871-0.6630001,0.7283936-1.2870007,1.1413879-1.8880005
				C136.26297,11.3711214,135.8725739,11.995122,135.5345764,12.6571217z M94.6265717,20.2351227
				c-0.6729965,0.8989983-1.0786057,1.8439999-1.2139969,2.8289986c-0.1186066,0.8540001,0.005394,1.7440014,0.293396,2.6540012
				H93.705574c-0.2876053-0.9099998-0.4116058-1.7989998-0.2929993-2.6540012
				c0.1353912-0.9849987,0.5410004-1.9300003,1.2139969-2.8299999c0.2050018-0.2729988,0.4280014-0.4799995,0.6703949-0.6199989
				c0.2276077-0.1310005,0.4796066-0.1820011,0.7450027-0.1960011L94.6265717,20.2351227z M149.6455688,25.002121
				c-4.2339935-9.421999-8.883606-11.1399994-12.9089966-8.9469986c0.1473999-0.8730001,0.3880005-1.750001,0.8300018-2.618001
				c0.8110046-1.592,2.0659943-2.9529991,3.3873901-3.7959995l6.1486053,3.5500002l2.6080017-2.007
				c-0.4199982-2.665-1.4206085-4.473-2.8759918-5.3130002l-0.0036163-0.0009999l-13.2163849-7.631
				c-0.9956055-0.5759999-2.20401-0.6980001-3.5839996-0.331c-2.8680038,0.76-5.901001,3.5549998-7.7160034,7.1169996
				c-1.2020035,2.3600001-1.7220001,4.7630005-1.5666046,6.9800005l-1.6453934-0.9500008l-3.6699982,2.1190004
				c-3.2450027-3.71-6.5306091-5.7309999-8.7830048-4.4300003L93.4295731,16.377121
				c-0.3880005,0.2240009-0.7449951,0.5460014-1.0659943,0.9750004c-1.9966125,2.6650009-2.1520004,5.9209995-0.625,9.5020008
				l-2.8936081,1.6709995l-0.9963989,0.5750008l0,0L64.3195724,42.6841202v16.1760025l3.3430023,1.9300003v22.9349976
				L93.382576,98.575119l3.8639984,2.2310028l21.8570023,12.6179962l21.8593903-12.6199951v0.0019989l7.7279968-4.461998v-0.0009995
				l21.8566132-12.6180038V60.790123l3.3430023-1.9300003V42.6841202L151.09758,29.5261211
				C150.7875824,28.047121,150.3335724,26.5331211,149.6455688,25.002121z"/>
			<path opacity="0.6363636" fill="#575360" d="M143.8254547,5.5261216
				c-0.5496368-0.1729999-1.1490021-0.2309999-1.7940063-0.1689997
				C142.6764526,5.2951217,143.2764587,5.3531218,143.8254547,5.5261216z M133.3114471,12.6571217
				c-0.8436279,1.6560001-1.3339996,3.3310003-1.5109863,4.9519997l0,0
				c0.1759949-1.6199999,0.6669922-3.2949991,1.5109863-4.9509993c0.3373718-0.6630001,0.728363-1.2870007,1.1413727-1.8880005
				C134.0398102,11.3711214,133.6494598,11.995122,133.3114471,12.6571217z M92.4034576,20.2351227
				c-0.6730042,0.8989983-1.0786362,1.8439999-1.2140045,2.8289986c-0.1186371,0.8540001,0.0053635,1.7440014,0.2933655,2.6540012
				h-0.0003662c-0.2876358-0.9099998-0.4116364-1.7989998-0.2929993-2.6540012
				c0.1353683-0.9849987,0.5410004-1.9300003,1.2140045-2.8299999c0.2049942-0.2729988,0.4279938-0.4799995,0.6703568-0.6199989
				c0.2276382-0.1310005,0.4796371-0.1820011,0.7450027-0.1960011L92.4034576,20.2351227z M147.4224548,25.002121
				c-4.2339935-9.421999-8.8836365-11.1399994-12.9089966-8.9469986c0.1473541-0.8730001,0.3880005-1.750001,0.8300018-2.618001
				c0.8109894-1.592,2.0659943-2.9529991,3.3873596-3.7959995l6.1486359,3.5500002l2.6080017-2.007
				c-0.4199982-2.665-1.420639-4.473-2.8760071-5.3130002l-0.0036316-0.0009999l-13.2163696-7.631
				c-0.995636-0.5759999-2.2039948-0.6980001-3.583992-0.331c-2.8680038,0.76-5.901001,3.5549998-7.7160034,7.1169996
				c-1.2019958,2.3600001-1.7220001,4.7630005-1.5666351,6.9800005l-1.6453629-0.9500008l-3.6699982,2.1190004
				c-3.2450027-3.71-6.5306396-5.7309999-8.7830048-4.4300003L91.2064514,16.377121
				c-0.3880005,0.2240009-0.7449951,0.5460014-1.0659943,0.9750004c-1.9966431,2.6650009-2.1520004,5.9209995-0.625,9.5020008
				l-2.8936386,1.6709995l-0.9963608,0.5750008l0,0L62.0964546,42.6841202v16.1760025l3.3429985,1.9300003v22.9349976
				L91.1594543,98.575119l3.8639984,2.2310028l21.8570023,12.6179962l21.8593674-12.6199951v0.0019989l7.7279968-4.461998
				v-0.0009995l21.8566284-12.6180038V60.790123l3.3430023-1.9300003V42.6841202l-22.7929993-13.157999
				C148.5644531,28.047121,148.1104584,26.5331211,147.4224548,25.002121z"/>
			<path opacity="0.6666667" fill="#514D5B" d="M141.6023254,5.5261216
				c-0.5496521-0.1729999-1.1489868-0.2309999-1.7939911-0.1689997
				C140.4533386,5.2951217,141.0533295,5.3531218,141.6023254,5.5261216z M131.0883331,12.6571217
				c-0.8436737,1.6560001-1.3339996,3.3310003-1.5110016,4.9519997l0,0
				c0.1759949-1.6199999,0.6670074-3.2949991,1.5110016-4.9509993c0.337326-0.6630001,0.7283325-1.2870007,1.1413269-1.8880005
				C131.8166656,11.3711214,131.4263306,11.995122,131.0883331,12.6571217z M90.180336,20.2351227
				c-0.6730042,0.8989983-1.0786667,1.8439999-1.2140045,2.8289986c-0.1186676,0.8540001,0.0053329,1.7440014,0.293335,2.6540012
				h-0.0003357c-0.2876663-0.9099998-0.4116669-1.7989998-0.2929993-2.6540012
				c0.1353378-0.9849987,0.5410004-1.9300003,1.2140045-2.8299999c0.2049942-0.2729988,0.4279938-0.4799995,0.6703339-0.6199989
				c0.2276611-0.1310005,0.47966-0.1820011,0.7449951-0.1960011L90.180336,20.2351227z M145.1993256,25.002121
				c-4.2339935-9.421999-8.8836517-11.1399994-12.9089966-8.9469986c0.1473389-0.8730001,0.3880005-1.750001,0.8300018-2.618001
				c0.8110046-1.592,2.0660095-2.9529991,3.3873291-3.7959995l6.1486664,3.5500002l2.6080017-2.007
				c-0.4199982-2.665-1.4206543-4.473-2.8759918-5.3130002l-0.0036774-0.0009999l-13.2163239-7.631
				c-0.9956665-0.5759999-2.2040024-0.6980001-3.5839996-0.331c-2.8680038,0.76-5.901001,3.5549998-7.7160034,7.1169996
				c-1.2019958,2.3600001-1.7220001,4.7630005-1.5666656,6.9800005l-1.6453323-0.9500008l-3.6699982,2.1190004
				c-3.2450027-3.71-6.5306702-5.7309999-8.7830048-4.4300003L88.9833298,16.377121
				c-0.3880005,0.2240009-0.7449951,0.5460014-1.0659943,0.9750004c-1.996666,2.6650009-2.1520004,5.9209995-0.625,9.5020008
				l-2.8936691,1.6709995l-0.9963303,0.5750008l0,0L59.873333,42.6841202v16.1760025l3.3429985,1.9300003v22.9349976
				L88.9363327,98.575119l3.8639984,2.2310028l21.8570023,12.6179962l21.8593292-12.6199951v0.0019989l7.7279968-4.461998
				v-0.0009995l21.8566742-12.6180038V60.790123l3.3430023-1.9300003V42.6841202l-22.7929993-13.157999
				C146.3413391,28.047121,145.8873291,26.5331211,145.1993256,25.002121z"/>
			<path opacity="0.6969697" fill="#4B4755" d="M139.3792114,5.5261216
				c-0.5496979-0.1729999-1.1490021-0.2309999-1.7940063-0.1689997
				C138.2302094,5.2951217,138.8302155,5.3531218,139.3792114,5.5261216z M128.8652191,12.6571217
				c-0.8437042,1.6560001-1.3340073,3.3310003-1.5110092,4.9519997l0,0
				c0.1760025-1.6199999,0.6669998-3.2949991,1.5110092-4.9509993c0.3372955-0.6630001,0.728302-1.2870007,1.1412964-1.8880005
				C129.5935211,11.3711214,129.2032166,11.995122,128.8652191,12.6571217z M87.9572144,20.2351227
				c-0.6730042,0.8989983-1.0786972,1.8439999-1.2140045,2.8289986c-0.1186981,0.8540001,0.0053024,1.7440014,0.2933044,2.6540012
				h-0.0003052c-0.2876968-0.9099998-0.4116974-1.7989998-0.2929993-2.6540012
				c0.1353073-0.9849987,0.5410004-1.9300003,1.2140045-2.8299999c0.2049942-0.2729988,0.4279938-0.4799995,0.6703033-0.6199989
				c0.2276917-0.1310005,0.4796906-0.1820011,0.7449951-0.1960011L87.9572144,20.2351227z M142.9762115,25.002121
				c-4.2339935-9.421999-8.8836975-11.1399994-12.9089966-8.9469986c0.1472931-0.8730001,0.3880005-1.750001,0.8300018-2.618001
				c0.8109894-1.592,2.0659943-2.9529991,3.3872986-3.7959995l6.1486969,3.5500002l2.6080017-2.007
				c-0.4199982-2.665-1.4207001-4.473-2.8760071-5.3130002l-0.0036926-0.0009999l-13.216301-7.631
				c-0.995697-0.5759999-2.2040024-0.6980001-3.5839996-0.331c-2.8680038,0.76-5.901001,3.5549998-7.7160034,7.1169996
				c-1.2019958,2.3600001-1.7220001,4.7630005-1.5666962,6.9800005l-1.6453018-0.9500008l-3.6699982,2.1190004
				c-3.2450027-3.71-6.5307007-5.7309999-8.7830048-4.4300003L86.7602081,16.377121
				c-0.3879929,0.2240009-0.7449951,0.5460014-1.0659943,0.9750004c-1.9966965,2.6650009-2.1520004,5.9209995-0.625,9.5020008
				l-2.8936996,1.6709995l-0.9962997,0.5750008l0,0L57.6502113,42.6841202v16.1760025l3.3429985,1.9300003v22.9349976
				L86.7132111,98.575119l3.8639984,2.2310028l21.8570023,12.6179962l21.8593063-12.6199951v0.0019989l7.7279968-4.461998
				v-0.0009995l21.8566895-12.6180038V60.790123l3.3430023-1.9300003V42.6841202l-22.7929993-13.157999
				C144.1182098,28.047121,143.6642151,26.5331211,142.9762115,25.002121z"/>
			<path opacity="0.7272727" fill="#454250" d="M137.1560974,5.5261216
				c-0.5497284-0.1729999-1.1490021-0.2309999-1.7940063-0.1689997
				C136.0070953,5.2951217,136.6070862,5.3531218,137.1560974,5.5261216z M126.6420898,12.6571217
				c-0.8437271,1.6560001-1.3339996,3.3310003-1.5110016,4.9519997l0,0
				c0.1760025-1.6199999,0.6669998-3.2949991,1.5110016-4.9509993c0.3372726-0.6630001,0.7282715-1.2870007,1.1412735-1.8880005
				C127.3703613,11.3711214,126.9800873,11.995122,126.6420898,12.6571217z M85.7340927,20.2351227
				c-0.6730042,0.8989983-1.0787277,1.8439999-1.2140045,2.8289986c-0.1187286,0.8540001,0.0052719,1.7440014,0.2932739,2.6540012
				h-0.0002747c-0.2877274-0.9099998-0.4117279-1.7989998-0.2929993-2.6540012
				c0.1352768-0.9849987,0.5410004-1.9300003,1.2140045-2.8299999c0.2049942-0.2729988,0.4280014-0.4799995,0.6702728-0.6199989
				c0.2277222-0.1310005,0.4797287-0.1820011,0.7449951-0.1960011L85.7340927,20.2351227z M140.7530975,25.002121
				c-4.2340088-9.421999-8.883728-11.1399994-12.9090042-8.9469986c0.1472702-0.8730001,0.3879929-1.750001,0.8299942-2.618001
				c0.8110046-1.592,2.0660095-2.9529991,3.3872833-3.7959995l6.1487122,3.5500002l2.6080017-2.007
				c-0.4199982-2.665-1.4207153-4.473-2.8759918-5.3130002l-0.0037231-0.0009999l-13.2162781-7.631
				c-0.9957275-0.5759999-2.2040024-0.6980001-3.5839996-0.331c-2.8680038,0.76-5.901001,3.5549998-7.7160034,7.1169996
				c-1.2019958,2.3600001-1.7220001,4.7630005-1.5667267,6.9800005l-1.6452713-0.9500008l-3.6699982,2.1190004
				c-3.2450027-3.71-6.5307312-5.7309999-8.7830048-4.4300003L84.5370941,16.377121
				c-0.3880005,0.2240009-0.7450027,0.5460014-1.0660019,0.9750004c-1.996727,2.6650009-2.1520004,5.9209995-0.625,9.5020008
				l-2.8937302,1.6709995l-0.9962692,0.5750008l0,0L55.4270897,42.6841202v16.1760025l3.3430023,1.9300003v22.9349976
				L84.4900894,98.575119l3.8639984,2.2310028l21.8570023,12.6179962l21.8592682-12.6199951v0.0019989l7.7280121-4.461998
				v-0.0009995l21.85672-12.6180038V60.790123l3.3430023-1.9300003V42.6841202l-22.7929993-13.157999
				C141.8950958,28.047121,141.4410858,26.5331211,140.7530975,25.002121z"/>
			<path opacity="0.7575758" fill="#403D4B" d="M134.9329681,5.5261216
				c-0.5497589-0.1729999-1.1490021-0.2309999-1.7940063-0.1689997
				C133.7839661,5.2951217,134.3839722,5.3531218,134.9329681,5.5261216z M124.4189682,12.6571217
				c-0.8437576,1.6560001-1.3339996,3.3310003-1.5110016,4.9519997l0,0
				c0.1760025-1.6199999,0.6669998-3.2949991,1.5110016-4.9509993c0.3372421-0.6630001,0.728241-1.2870007,1.141243-1.8880005
				C125.1472092,11.3711214,124.7569656,11.995122,124.4189682,12.6571217z M83.5109711,20.2351227
				c-0.6730042,0.8989983-1.0787582,1.8439999-1.2140045,2.8289986c-0.1187515,0.8540001,0.0052414,1.7440014,0.2932434,2.6540012
				h-0.0002441c-0.2877579-0.9099998-0.4117508-1.7989998-0.2929993-2.6540012
				c0.1352463-0.9849987,0.5410004-1.9300003,1.2140045-2.8299999c0.2050018-0.2729988,0.4280014-0.4799995,0.6702423-0.6199989
				c0.2277527-0.1310005,0.4797592-0.1820011,0.7449951-0.1960011L83.5109711,20.2351227z M138.5299683,25.002121
				c-4.2339935-9.421999-8.8837585-11.1399994-12.9089966-8.9469986c0.1472397-0.8730001,0.3880005-1.750001,0.8299942-2.618001
				c0.8110046-1.592,2.0660019-2.9529991,3.3872452-3.7959995l6.1487579,3.5500002l2.6080017-2.007
				c-0.4199982-2.665-1.4207611-4.473-2.8760071-5.3130002L135.71521,5.870122l-13.2162399-7.631
				c-0.9957581-0.5759999-2.2040024-0.6980001-3.5839996-0.331c-2.8680038,0.76-5.901001,3.5549998-7.7160034,7.1169996
				c-1.2019958,2.3600001-1.7220001,4.7630005-1.5667572,6.9800005l-1.6452408-0.9500008l-3.6699982,2.1190004
				c-3.2450027-3.71-6.5307617-5.7309999-8.7830048-4.4300003L82.3139725,16.377121
				c-0.3880005,0.2240009-0.7450027,0.5460014-1.0660019,0.9750004c-1.9967575,2.6650009-2.1520004,5.9209995-0.625,9.5020008
				l-2.8937607,1.6709995l-0.9962387,0.5750008l0,0L53.203968,42.6841202v16.1760025l3.3430023,1.9300003v22.9349976
				L82.2669678,98.575119l3.8639984,2.2310028l21.8570023,12.6179962l21.8592453-12.6199951v0.0019989l7.7279968-4.461998
				v-0.0009995l21.8567657-12.6180038V60.790123l3.3429871-1.9300003V42.6841202l-22.7929993-13.157999
				C139.6719666,28.047121,139.2179718,26.5331211,138.5299683,25.002121z"/>
			<path opacity="0.7878788" fill="#3A3847" d="M132.7098541,5.5261216
				c-0.5497894-0.1729999-1.1490021-0.2309999-1.7940063-0.1689997
				C131.5608521,5.2951217,132.1608429,5.3531218,132.7098541,5.5261216z M122.1958466,12.6571217
				c-0.8437881,1.6560001-1.3339996,3.3310003-1.5110016,4.9519997l0,0
				c0.1760025-1.6199999,0.6669998-3.2949991,1.5110016-4.9509993c0.3372116-0.6630001,0.7282104-1.2870007,1.1412125-1.8880005
				C122.924057,11.3711214,122.5338516,11.995122,122.1958466,12.6571217z M81.2878494,20.2351227
				c-0.6730042,0.8989983-1.0787888,1.8439999-1.2140045,2.8289986c-0.118782,0.8540001,0.0052185,1.7440014,0.2932129,2.6540012
				h-0.000206c-0.2877884-0.9099998-0.4117889-1.7989998-0.2930069-2.6540012
				c0.1352158-0.9849987,0.5410004-1.9300003,1.2140045-2.8299999c0.2050018-0.2729988,0.4280014-0.4799995,0.6702118-0.6199989
				c0.2277832-0.1310005,0.4797897-0.1820011,0.7450027-0.1960011L81.2878494,20.2351227z M136.3068542,25.002121
				c-4.2340088-9.421999-8.8837967-11.1399994-12.9090042-8.9469986c0.1472092-0.8730001,0.3880005-1.750001,0.8300018-2.618001
				c0.810997-1.592,2.0659943-2.9529991,3.387207-3.7959995l6.1487961,3.5500002l2.6079865-2.007
				c-0.4199982-2.665-1.4207764-4.473-2.8759918-5.3130002l-0.0037842-0.0009999l-13.216217-7.631
				c-0.9957886-0.5759999-2.2040024-0.6980001-3.5839996-0.331c-2.8680038,0.76-5.901001,3.5549998-7.7160034,7.1169996
				c-1.2019958,2.3600001-1.7220001,4.7630005-1.5667877,6.9800005l-1.6452103-0.9500008l-3.6699982,2.1190004
				c-3.2450027-3.71-6.5307922-5.7309999-8.7830048-4.4300003L80.0908508,16.377121
				c-0.3880005,0.2240009-0.7450027,0.5460014-1.0660019,0.9750004c-1.996788,2.6650009-2.1520004,5.9209995-0.625,9.5020008
				l-2.8937912,1.6709995l-0.9962082,0.5750008l0,0L50.9808464,42.6841202v16.1760025l3.3430023,1.9300003v22.9349976
				L80.0438461,98.575119l3.8639984,2.2310028l21.8570023,12.6179962l21.8592148-12.6199951v0.0019989l7.7280045-4.461998
				v-0.0009995l21.856781-12.6180038V60.790123l3.3430023-1.9300003V42.6841202l-22.7929993-13.157999
				C137.4488525,28.047121,136.9948425,26.5331211,136.3068542,25.002121z"/>
			<path opacity="0.8181818" fill="#353442" d="M130.4867249,5.5261216
				c-0.5498199-0.1729999-1.1490021-0.2309999-1.7939911-0.1689997
				C129.3377228,5.2951217,129.9377289,5.3531218,130.4867249,5.5261216z M119.9727249,12.6571217
				c-0.8438187,1.6560001-1.3339996,3.3310003-1.5110016,4.9519997l0,0
				c0.1760025-1.6199999,0.6669998-3.2949991,1.5110016-4.9509993c0.3371811-0.6630001,0.7281876-1.2870007,1.1411819-1.8880005
				C120.7009125,11.3711214,120.31073,11.995122,119.9727249,12.6571217z M79.0647278,20.2351227
				c-0.6730042,0.8989983-1.0788193,1.8439999-1.2140045,2.8289986c-0.1188126,0.8540001,0.005188,1.7440014,0.2931824,2.6540012
				h-0.0001755c-0.2878189-0.9099998-0.4118195-1.7989998-0.2930069-2.6540012
				c0.1351852-0.9849987,0.5410004-1.9300003,1.2140045-2.8299999c0.2050018-0.2729988,0.4280014-0.4799995,0.6701813-0.6199989
				c0.2278214-0.1310005,0.4798203-0.1820011,0.7450027-0.1960011L79.0647278,20.2351227z M134.083725,25.002121
				c-4.2339935-9.421999-8.8838196-11.1399994-12.9089966-8.9469986c0.1471786-0.8730001,0.3880005-1.750001,0.8300018-2.618001
				c0.810997-1.592,2.0659943-2.9529991,3.3871765-3.7959995l6.148819,3.5500002l2.6080017-2.007
				c-0.4199982-2.665-1.4208221-4.473-2.8760071-5.3130002l-0.0038147-0.0009999l-13.2161789-7.631
				c-0.9958191-0.5759999-2.2040024-0.6980001-3.5839996-0.331c-2.8680038,0.76-5.901001,3.5549998-7.7160034,7.1169996
				c-1.2019958,2.3600001-1.7220001,4.7630005-1.5668182,6.9800005l-1.6451797-0.9500008l-3.6699982,2.1190004
				c-3.2450027-3.71-6.5308151-5.7309999-8.7829971-4.4300003L77.8677292,16.377121
				c-0.3880005,0.2240009-0.7450027,0.5460014-1.0660019,0.9750004c-1.9968185,2.6650009-2.1520004,5.9209995-0.625,9.5020008
				l-2.8938217,1.6709995l-0.9961777,0.5750008l0,0L48.7577286,42.6841202v16.1760025l3.3429985,1.9300003v22.9349976
				L77.8207245,98.575119l3.864006,2.2310028l21.8569946,12.6179962l21.8591843-12.6199951v0.0019989l7.7279968-4.461998v-0.0009995
				l21.8568268-12.6180038V60.790123l3.3429871-1.9300003V42.6841202l-22.7929993-13.157999
				C135.2257233,28.047121,134.7717285,26.5331211,134.083725,25.002121z"/>
			<path opacity="0.8484849" fill="#302F3D" d="M128.2636108,5.5261216
				c-0.5498505-0.1729999-1.1490021-0.2309999-1.7940063-0.1689997
				C127.1146088,5.2951217,127.7146072,5.3531218,128.2636108,5.5261216z M117.7496033,12.6571217
				c-0.8438492,1.6560001-1.3339996,3.3310003-1.510994,4.9519997l0,0c0.1759949-1.6199999,0.6669998-3.2949991,1.510994-4.9509993
				c0.3371506-0.6630001,0.728157-1.2870007,1.1411514-1.8880005
				C118.4777603,11.3711214,118.0876083,11.995122,117.7496033,12.6571217z M76.8416061,20.2351227
				c-0.6730042,0.8989983-1.0788498,1.8439999-1.2139969,2.8289986c-0.1188507,0.8540001,0.0051498,1.7440014,0.2931442,2.6540012
				h-0.000145c-0.2878494-0.9099998-0.41185-1.7989998-0.2929993-2.6540012
				c0.1351471-0.9849987,0.5409927-1.9300003,1.2139969-2.8299999c0.2050018-0.2729988,0.4280014-0.4799995,0.6701508-0.6199989
				c0.2278519-0.1310005,0.4798508-0.1820011,0.7450027-0.1960011L76.8416061,20.2351227z M131.860611,25.002121
				c-4.2340088-9.421999-8.8838501-11.1399994-12.9090042-8.9469986c0.1471481-0.8730001,0.3880005-1.750001,0.8300018-2.618001
				c0.810997-1.592,2.0659943-2.9529991,3.387146-3.7959995l6.1488571,3.5500002l2.6079865-2.007
				c-0.4199982-2.665-1.4208374-4.473-2.8759918-5.3130002l-0.0038452-0.0009999l-13.216156-7.631
				c-0.9958496-0.5759999-2.2040024-0.6980001-3.5839996-0.331c-2.8679962,0.76-5.901001,3.5549998-7.7160034,7.1169996
				c-1.2019958,2.3600001-1.7220001,4.7630005-1.5668411,6.9800005l-1.6451569-0.9500008l-3.6699982,2.1190004
				c-3.2450027-3.71-6.5308456-5.7309999-8.7829971-4.4300003L75.6446075,16.377121
				c-0.3880005,0.2240009-0.7450027,0.5460014-1.0660019,0.9750004c-1.9968491,2.6650009-2.1520004,5.9209995-0.625,9.5020008
				l-2.8938522,1.6709995l-0.9961472,0.5750008l0,0L46.5346069,42.6841202v16.1760025l3.3429985,1.9300003v22.9349976
				L75.5976028,98.575119l3.864006,2.2310028l21.8569946,12.6179962l21.8591537-12.6199951v0.0019989l7.7280045-4.461998v-0.0009995
				l21.856842-12.6180038V60.790123l3.3430023-1.9300003V42.6841202l-22.7929993-13.157999
				C133.0026093,28.047121,132.5485992,26.5331211,131.860611,25.002121z"/>
			<path opacity="0.8787879" fill="#2B2B39" d="M126.0404816,5.5261216
				c-0.5498734-0.1729999-1.1489944-0.2309999-1.7939987-0.1689997
				C124.8914871,5.2951217,125.4914856,5.3531218,126.0404816,5.5261216z M115.5264816,12.6571217
				c-0.8438797,1.6560001-1.3339996,3.3310003-1.510994,4.9519997l0,0c0.1759949-1.6199999,0.6669998-3.2949991,1.510994-4.9509993
				c0.3371277-0.6630001,0.7281265-1.2870007,1.1411209-1.8880005
				C116.2546082,11.3711214,115.8644867,11.995122,115.5264816,12.6571217z M74.6184845,20.2351227
				c-0.6729965,0.8989983-1.0788803,1.8439999-1.2139969,2.8289986c-0.1188812,0.8540001,0.0051193,1.7440014,0.2931213,2.6540012
				h-0.0001221c-0.2878799-0.9099998-0.4118805-1.7989998-0.2929993-2.6540012
				c0.1351166-0.9849987,0.5410004-1.9300003,1.2139969-2.8299999c0.2050018-0.2729988,0.4280014-0.4799995,0.6701202-0.6199989
				c0.2278824-0.1310005,0.4798813-0.1820011,0.7450027-0.1960011L74.6184845,20.2351227z M129.6374817,25.002121
				c-4.2339935-9.421999-8.883873-11.1399994-12.9089966-8.9469986c0.1471176-0.8730001,0.3880005-1.750001,0.8300018-2.618001
				c0.810997-1.592,2.0659943-2.9529991,3.3871155-3.7959995l6.14888,3.5500002l2.6080017-2.007
				c-0.4199982-2.665-1.4208832-4.473-2.8759995-5.3130002l-0.0038757-0.0009999l-13.2161255-7.631
				c-0.9958801-0.5759999-2.2040024-0.6980001-3.5839996-0.331c-2.8679962,0.76-5.901001,3.5549998-7.7159958,7.1169996
				c-1.2020035,2.3600001-1.7220001,4.7630005-1.5668793,6.9800005l-1.6451263-0.9500008l-3.6699982,2.1190004
				c-3.2450027-3.71-6.5308762-5.7309999-8.7829971-4.4300003L73.4214859,16.377121
				c-0.3880005,0.2240009-0.7450027,0.5460014-1.0660019,0.9750004c-1.9968796,2.6650009-2.1520004,5.9209995-0.625,9.5020008
				l-2.8938751,1.6709995l-0.9961243,0.5750008l0,0L44.3114853,42.6841202v16.1760025l3.3429985,1.9300003v22.9349976
				L73.3744812,98.575119l3.864006,2.2310028l21.8569946,12.6179962l21.8591232-12.6199951v0.0019989l7.7279968-4.461998v-0.0009995
				l21.8568878-12.6180038V60.790123l3.3430023-1.9300003V42.6841202l-22.7930145-13.157999
				C130.77948,28.047121,130.3254852,26.5331211,129.6374817,25.002121z"/>
			<path opacity="0.9090909" fill="#272634" d="M123.8173599,5.5261216
				c-0.5499039-0.1729999-1.1489944-0.2309999-1.7939987-0.1689997
				C122.6683655,5.2951217,123.268364,5.3531218,123.8173599,5.5261216z M113.30336,12.6571217
				c-0.8439026,1.6560001-1.3339996,3.3310003-1.510994,4.9519997l0,0c0.1759949-1.6199999,0.6669998-3.2949991,1.510994-4.9509993
				c0.3370972-0.6630001,0.728096-1.2870007,1.141098-1.8880005C114.031456,11.3711214,113.6413651,11.995122,113.30336,12.6571217z
				 M72.3953629,20.2351227c-0.6729965,0.8989983-1.0789108,1.8439999-1.2139969,2.8289986
				c-0.1189117,0.8540001,0.0050888,1.7440014,0.2930908,2.6540012h-0.0000916
				c-0.2879105-0.9099998-0.411911-1.7989998-0.2929993-2.6540012c0.1350861-0.9849987,0.5410004-1.9300003,1.2139969-2.8299999
				c0.2050018-0.2729988,0.4280014-0.4799995,0.6700897-0.6199989c0.2279129-0.1310005,0.4799118-0.1820011,0.7450027-0.1960011
				L72.3953629,20.2351227z M127.41436,25.002121c-4.2339935-9.421999-8.8839035-11.1399994-12.9089966-8.9469986
				c0.1470871-0.8730001,0.3880005-1.750001,0.8300018-2.618001c0.810997-1.592,2.0659943-2.9529991,3.3870926-3.7959995
				l6.1489029,3.5500002l2.6080017-2.007c-0.4199982-2.665-1.4209061-4.473-2.8759995-5.3130002l-0.0039063-0.0009999
				l-13.216095-7.631c-0.9959106-0.5759999-2.2039948-0.6980001-3.5839996-0.331
				c-2.8679962,0.76-5.901001,3.5549998-7.7159958,7.1169996c-1.2020035,2.3600001-1.7220001,4.7630005-1.5669098,6.9800005
				l-1.6450958-0.9500008l-3.6699982,2.1190004c-3.2450027-3.71-6.5309067-5.7309999-8.7829971-4.4300003L71.1983643,16.377121
				c-0.3880005,0.2240009-0.7450027,0.5460014-1.0660019,0.9750004c-1.9969101,2.6650009-2.1520004,5.9209995-0.625,9.5020008
				l-2.8939056,1.6709995l-0.9960938,0.5750008l0,0L42.0883636,42.6841202v16.1760025l3.3429985,1.9300003v22.9349976
				L71.1513596,98.575119l3.864006,2.2310028l21.8569946,12.6179962l21.8590927-12.6199951v0.0019989l7.7280045-4.461998v-0.0009995
				l21.8569031-12.6180038V60.790123l3.3430023-1.9300003V42.6841202l-22.7929993-13.157999
				C128.556366,28.047121,128.102356,26.5331211,127.41436,25.002121z"/>
			<path opacity="0.9393939" fill="#222230" d="M121.5942383,5.5261216
				c-0.5499344-0.1729999-1.1489944-0.2309999-1.7939987-0.1689997
				C120.4452438,5.2951217,121.0452423,5.3531218,121.5942383,5.5261216z M111.0802383,12.6571217
				c-0.8439331,1.6560001-1.3339996,3.3310003-1.510994,4.9519997l0,0c0.1759949-1.6199999,0.6669998-3.2949991,1.510994-4.9509993
				c0.3370667-0.6630001,0.7280655-1.2870007,1.1410675-1.8880005
				C111.8083038,11.3711214,111.4182434,11.995122,111.0802383,12.6571217z M70.1722412,20.2351227
				c-0.6729965,0.8989983-1.0789413,1.8439999-1.2139969,2.8289986c-0.1189423,0.8540001,0.0050583,1.7440014,0.2930603,2.6540012
				h-0.000061c-0.287941-0.9099998-0.4119415-1.7989998-0.2929993-2.6540012
				c0.1350555-0.9849987,0.5410004-1.9300003,1.2139969-2.8299999c0.2050018-0.2729988,0.4280014-0.4799995,0.6700592-0.6199989
				c0.2279434-0.1310005,0.4799423-0.1820011,0.7450027-0.1960011L70.1722412,20.2351227z M125.1912384,25.002121
				c-4.2339935-9.421999-8.883934-11.1399994-12.9089966-8.9469986c0.1470642-0.8730001,0.3880005-1.750001,0.8300018-2.618001
				c0.810997-1.592,2.0660019-2.9529991,3.3870621-3.7959995l6.1489334,3.5500002l2.6080017-2.007
				c-0.4199982-2.665-1.4209366-4.473-2.8759995-5.3130002l-0.0039368-0.0009999l-13.2160645-7.631
				c-0.9959412-0.5759999-2.2039948-0.6980001-3.5839996-0.331c-2.8679962,0.76-5.901001,3.5549998-7.7159958,7.1169996
				c-1.2020035,2.3600001-1.7220001,4.7630005-1.5669403,6.9800005l-1.6450653-0.9500008l-3.6699982,2.1190004
				c-3.2449951-3.71-6.5309372-5.7309999-8.7829971-4.4300003L68.9752426,16.377121
				c-0.3880005,0.2240009-0.7450027,0.5460014-1.0660019,0.9750004c-1.9969406,2.6650009-2.1520004,5.9209995-0.625,9.5020008
				l-2.8939362,1.6709995l-0.9960632,0.5750008l0,0L39.865242,42.6841202v16.1760025l3.3429985,1.9300003v22.9349976
				l25.720005,14.8499985l3.8639984,2.2310028l21.8569946,12.6179962l21.8590622-12.6199951v0.0019989l7.7280045-4.461998
				v-0.0009995l21.8569412-12.6180038V60.790123l3.3430023-1.9300003V42.6841202l-22.7930069-13.157999
				C126.3332443,28.047121,125.8792419,26.5331211,125.1912384,25.002121z"/>
			<path opacity="0.969697" fill="#1E1E2C" d="M119.3711243,5.5261216
				c-0.5499725-0.1729999-1.1490021-0.2309999-1.7940063-0.1689997
				C118.2221222,5.2951217,118.8221207,5.3531218,119.3711243,5.5261216z M108.8571243,12.6571217
				c-0.8439713,1.6560001-1.3340073,3.3310003-1.5110016,4.9519997l0,0
				c0.1759949-1.6199999,0.6669998-3.2949991,1.5110016-4.9509993c0.3370285-0.6630001,0.7280273-1.2870007,1.1410294-1.8880005
				C109.5851517,11.3711214,109.1951218,11.995122,108.8571243,12.6571217z M67.9491196,20.2351227
				c-0.6729965,0.8989983-1.0789719,1.8439999-1.2139969,2.8289986c-0.1189728,0.8540001,0.0050278,1.7440014,0.2930298,2.6540012
				h-0.0000305c-0.2879715-0.9099998-0.411972-1.7989998-0.2929993-2.6540012
				c0.135025-0.9849987,0.5410004-1.9300003,1.2139969-2.8299999c0.2050018-0.2729988,0.4280014-0.4799995,0.6700287-0.6199989
				c0.2279739-0.1310005,0.4799728-0.1820011,0.7450027-0.1960011L67.9491196,20.2351227z M122.9681244,25.002121
				c-4.2340012-9.421999-8.8839722-11.1399994-12.9090042-8.9469986c0.1470337-0.8730001,0.3880005-1.750001,0.8300018-2.618001
				c0.810997-1.592,2.0660019-2.9529991,3.3870316-3.7959995l6.1489639,3.5500002l2.6080017-2.007
				c-0.4199982-2.665-1.4209671-4.473-2.8759995-5.3130002l-0.0039673-0.0009999l-13.2160339-7.631
				c-0.9959641-0.5759999-2.2039948-0.6980001-3.5839996-0.331c-2.8679962,0.76-5.901001,3.5549998-7.7159958,7.1169996
				c-1.2020035,2.3600001-1.7220001,4.7630005-1.5669708,6.9800005l-1.6450348-0.9500008l-3.6699982,2.1190004
				c-3.2449951-3.71-6.5309677-5.7309999-8.7829971-4.4300003L66.752121,16.377121
				c-0.3880005,0.2240009-0.7450027,0.5460014-1.0660019,0.9750004c-1.9969673,2.6650009-2.1519966,5.9209995-0.625,9.5020008
				l-2.8939667,1.6709995l-0.9960327,0.5750008l0,0L37.6421204,42.6841202v16.1760025l3.3430023,1.9300003v22.9349976
				L66.7051239,98.575119l3.8639984,2.2310028l21.8570023,12.6179962l21.859024-12.6199951v0.0019989l7.7280045-4.461998v-0.0009995
				l21.8569641-12.6180038V60.790123l3.3430023-1.9300003V42.6841202l-22.7929993-13.157999
				C124.1101227,28.047121,123.6561203,26.5331211,122.9681244,25.002121z"/>
			<path fill="#1A1B28" d="M117.1480026,5.5261216c-0.5500031-0.1729999-1.1490021-0.2309999-1.7940063-0.1689997
				C115.9990005,5.2951217,116.598999,5.3531218,117.1480026,5.5261216z M106.6340027,12.6571217
				c-0.8440018,1.6560001-1.3339996,3.3310003-1.5110016,4.9519997l0,0
				c0.1759949-1.6199999,0.6669998-3.2949991,1.5110016-4.9509993c0.336998-0.6630001,0.7279968-1.2870007,1.1409988-1.8880005
				C107.3619995,11.3711214,106.9720001,11.995122,106.6340027,12.6571217z M65.7259979,20.2351227
				c-0.6729965,0.8989983-1.0789948,1.8439999-1.2139969,2.8289986c-0.1190033,0.8540001,0.0049973,1.7440014,0.2929993,2.6540012
				l0,0c-0.288002-0.9099998-0.4120026-1.7989998-0.2929993-2.6540012c0.1350021-0.9849987,0.5410004-1.9300003,1.2139969-2.8299999
				c0.2050018-0.2729988,0.4280014-0.4799995,0.6699982-0.6199989c0.2280045-0.1310005,0.4800034-0.1820011,0.7450027-0.1960011
				L65.7259979,20.2351227z M120.7450027,25.002121c-4.2340012-9.421999-8.8840027-11.1399994-12.9090042-8.9469986
				c0.1470032-0.8730001,0.3880005-1.750001,0.8300018-2.618001c0.810997-1.592,2.0660019-2.9529991,3.387001-3.7959995
				l6.1489944,3.5500002l2.6080017-2.007c-0.4199982-2.665-1.4209976-4.473-2.8759995-5.3130002l-0.0039978-0.0009999
				l-13.2160034-7.631c-0.9959946-0.5759999-2.2039948-0.6980001-3.5839996-0.331
				c-2.8679962,0.76-5.901001,3.5549998-7.7159958,7.1169996c-1.2020035,2.3600001-1.7220001,4.7630005-1.5670013,6.9800005
				l-1.6450043-0.9500008l-3.6699982,2.1190004c-3.2449951-3.71-6.5309982-5.7309999-8.7829971-4.4300003L64.5289993,16.377121
				c-0.3880005,0.2240009-0.7449989,0.5460014-1.0659981,0.9750004c-1.9970016,2.6650009-2.1520004,5.9209995-0.625,9.5020008
				l-2.894001,1.6709995l-0.9960022,0.5750008l0,0L35.4189987,42.6841202v16.1760025l3.3430023,1.9300003v22.9349976
				L64.4820023,98.575119l3.8639984,2.2310028l21.8570023,12.6179962l21.8589935-12.6199951v0.0019989l7.7280045-4.461998
				v-0.0009995l21.8570023-12.6180038V60.790123l3.3430023-1.9300003V42.6841202l-22.7930069-13.157999
				C121.887001,28.047121,121.4329987,26.5331211,120.7450027,25.002121z"/>
		</g>
	</g>
	<g>
		<g>
			<g>
				<radialGradient id="SVGID_4_" cx="77.3401871" cy="55.3412209" r="85.1864624" gradientUnits="userSpaceOnUse">
					<stop  offset="0" style="stop-color:#CA1517"/>
					<stop  offset="1" style="stop-color:#72160E"/>
				</radialGradient>
				<polygon fill="url(#SVGID_4_)" points="138.7385254,45.1014214 138.7385254,84.538269 88.7020645,113.4241257 
					88.7020645,73.9872818 				"/>
				<radialGradient id="SVGID_5_" cx="31.0067291" cy="41.9452553" r="89.8388367" gradientUnits="userSpaceOnUse">
					<stop  offset="0" style="stop-color:#FFF2DA"/>
					<stop  offset="0.0040553" style="stop-color:#FEECD1"/>
					<stop  offset="0.0255293" style="stop-color:#FBD1A6"/>
					<stop  offset="0.048733" style="stop-color:#F8B780"/>
					<stop  offset="0.0734037" style="stop-color:#F5A05F"/>
					<stop  offset="0.1000091" style="stop-color:#F28D46"/>
					<stop  offset="0.1292565" style="stop-color:#F07E33"/>
					<stop  offset="0.162545" style="stop-color:#EE7327"/>
					<stop  offset="0.2033231" style="stop-color:#ED6D1F"/>
					<stop  offset="0.273329" style="stop-color:#ED6B1D"/>
					<stop  offset="1" style="stop-color:#E52613"/>
				</radialGradient>
				<polygon fill="url(#SVGID_5_)" points="88.7020645,73.9872818 88.7020645,113.4241257 38.6704712,84.538269 
					38.6704712,45.1014214 				"/>
			</g>
			<g>
				<radialGradient id="SVGID_6_" cx="93.1480942" cy="53.0708199" r="119.3845444" gradientUnits="userSpaceOnUse">
					<stop  offset="0" style="stop-color:#D71016"/>
					<stop  offset="1" style="stop-color:#8A1812"/>
				</radialGradient>
				<polygon fill="url(#SVGID_6_)" points="141.9900055,44.6209488 141.9900055,60.3550301 88.7020645,91.118042 
					88.7020645,75.3849335 				"/>
				<radialGradient id="SVGID_7_" cx="29.9975548" cy="25.9400425" r="94.3666229" gradientUnits="userSpaceOnUse">
					<stop  offset="0" style="stop-color:#FFF2DA"/>
					<stop  offset="0.0040553" style="stop-color:#FEECD1"/>
					<stop  offset="0.0255293" style="stop-color:#FBD1A6"/>
					<stop  offset="0.048733" style="stop-color:#F8B780"/>
					<stop  offset="0.0734037" style="stop-color:#F5A05F"/>
					<stop  offset="0.1000091" style="stop-color:#F28D46"/>
					<stop  offset="0.1292565" style="stop-color:#F07E33"/>
					<stop  offset="0.162545" style="stop-color:#EE7327"/>
					<stop  offset="0.2033231" style="stop-color:#ED6D1F"/>
					<stop  offset="0.273329" style="stop-color:#ED6B1D"/>
					<stop  offset="1" style="stop-color:#E52613"/>
				</radialGradient>
				<polygon fill="url(#SVGID_7_)" points="88.7020645,75.3849335 88.7020645,91.118042 35.4189987,60.3540573 
					35.4189987,44.6209488 				"/>
				<radialGradient id="SVGID_8_" cx="27.6608448" cy="34.13908" r="99.1669769" gradientUnits="userSpaceOnUse">
					<stop  offset="0" style="stop-color:#F49848"/>
					<stop  offset="1" style="stop-color:#EA5643"/>
				</radialGradient>
				<polygon fill="url(#SVGID_8_)" points="35.4189987,44.6209488 88.7020645,13.857935 141.9900055,44.6209488 
					88.7020645,75.3849335 				"/>
			</g>
		</g>
		<g>
			<polygon fill="#F59C51" points="109.9635544,101.1515961 117.4799652,96.8117676 117.4799652,74.504715 109.9635544,78.8435745 
							"/>
			<polygon fill="#FBC36E" points="67.4444733,101.1515961 59.9280624,96.8117676 59.9280624,74.504715 67.4444733,78.8445435 			
				"/>
			<g>
				<polygon fill="#FFE689" points="111.5878296,27.0700111 58.3037872,57.8330269 65.8201981,62.1728592 119.1052094,31.4088707 
									"/>
				<polygon fill="#FFD87F" points="65.8201981,77.9059677 58.3037872,73.5671082 58.3037872,57.8330269 65.8201981,62.1728592 				
					"/>
			</g>
			<g>
				<polygon fill="#FFD87F" points="65.8211746,27.0700111 119.1052094,57.8330269 111.5887985,62.1728592 58.3037872,31.4088707 
									"/>
				<polygon fill="#FABA6A" points="111.5887985,77.9059677 119.1052094,73.5671082 119.1052094,57.8330269 111.5887985,62.1728592 
									"/>
			</g>
			<g>
				<polygon fill="#F0833B" points="57.446907,50.4090118 70.3049545,57.8330269 68.9316101,56.1153755 56.0735703,48.6913643 				
					"/>
				
					<linearGradient id="SVGID_9_" gradientUnits="userSpaceOnUse" x1="68.2353134" y1="55.7133713" x2="77.0567856" y2="40.4341316">
					<stop  offset="0" style="stop-color:#FFEA8E"/>
					<stop  offset="1" style="stop-color:#F59C4D"/>
				</linearGradient>
				<path fill="url(#SVGID_9_)" d="M76.3604889,40.0321236c-3.7922516,2.1893692-6.0905533,1.9676132-8.3120193,1.7546082
					c-3.2086716-0.3141556-6.2364388-0.6039963-11.9748993,6.9046326l12.8580399,7.4240112
					c5.7384644-7.5096016,8.7662277-7.2197609,11.9739304-6.9046326c2.2234116,0.2130051,4.5207443,0.434761,8.3129883-1.7546043
					L76.3604889,40.0321236z"/>
				<g>
					<path fill="#F7A95A" d="M89.2185287,50.4255486c-4.4876709,2.5910606-7.3267517,2.3158073-9.6085205,2.0969696
						c-3.0452728-0.2927589-4.883522-0.4726944-9.3050537,5.3105087l-1.3733444-1.7176514
						c5.7384644-7.5096016,8.7662277-7.2187881,11.9739304-6.9046326c2.2234116,0.2130051,4.5207443,0.434761,8.3129883-1.7546043
						V50.4255486z"/>
				</g>
			</g>
			<g>
				
					<linearGradient id="SVGID_10_" gradientUnits="userSpaceOnUse" x1="107.8658829" y1="11.2764921" x2="109.0567932" y2="9.2137794">
					<stop  offset="0" style="stop-color:#F8AE60"/>
					<stop  offset="0.0034021" style="stop-color:#F8AE5F"/>
					<stop  offset="0.2021669" style="stop-color:#F49C53"/>
					<stop  offset="0.4179906" style="stop-color:#F28E4A"/>
					<stop  offset="0.6634368" style="stop-color:#F18645"/>
					<stop  offset="1" style="stop-color:#F18344"/>
				</linearGradient>
				<path fill="url(#SVGID_10_)" d="M103.0774002,8.5114403l12.8580399,7.4240122
					c-0.3161011-2.0035982-1.0445938-3.352623-2.0901566-3.9566202L100.987236,4.5548196
					C102.0328064,5.1588168,102.7612991,6.5078416,103.0774002,8.5114403z"/>
				
					<linearGradient id="SVGID_11_" gradientUnits="userSpaceOnUse" x1="90.4562149" y1="34.8705902" x2="108.0424652" y2="4.4103208">
					<stop  offset="0" style="stop-color:#F9B667"/>
					<stop  offset="0.043302" style="stop-color:#FABF6F"/>
					<stop  offset="0.1204877" style="stop-color:#FED686"/>
					<stop  offset="0.158335" style="stop-color:#FFE293"/>
					<stop  offset="0.1839666" style="stop-color:#FFDC8C"/>
					<stop  offset="0.3003486" style="stop-color:#FBC171"/>
					<stop  offset="0.36211" style="stop-color:#F9B667"/>
					<stop  offset="0.4161413" style="stop-color:#FABF6D"/>
					<stop  offset="0.5550079" style="stop-color:#FDD37C"/>
					<stop  offset="0.697213" style="stop-color:#FFE086"/>
					<stop  offset="0.8434677" style="stop-color:#FFE78C"/>
					<stop  offset="1" style="stop-color:#FFEA8E"/>
				</linearGradient>
				<path fill="url(#SVGID_11_)" d="M102.8157654,1.3928305c-0.9677582-0.5602294-2.1426849-0.6788892-3.4849014-0.3219374
					c-2.7894745,0.7391917-5.7394333,3.4576657-7.5047379,6.9221401c-1.9112015,3.7504249-2.0707092,7.620482-0.4396286,10.6122627
					c1.5523071,2.8449154,1.8275604,5.5215664,0.8189468,7.9511719c-1.096138,2.6416378-3.7650146,4.8961716-5.7160873,6.0234394
					l12.8580399,7.4240112c1.9510803-1.1272659,4.6199493-3.3818016,5.716095-6.0234375
					c1.0076294-2.4305782,0.7333527-5.1072311-0.8189468-7.9521446c-1.6310883-2.9908085-1.4715729-6.8608665,0.439621-10.61129
					c1.7653046-3.4644747,4.7152634-6.1829491,7.5037689-6.9221401c1.3431854-0.3569517,2.5181122-0.2382917,3.4868469,0.3219376
					L102.8157654,1.3928305z"/>
				<g>
					<path fill="#F7A95A" d="M99.3473969,42.9723549v-2.9694099c1.9510803-1.1262932,4.6199493-3.3798561,5.716095-6.0224648
						c1.008606-2.4296055,0.7333527-5.1072311-0.8189468-7.9521446c-1.6310883-2.9898357-1.4715729-6.8608665,0.439621-10.6122627
						c1.7653046-3.4635019,4.7152634-6.1819763,7.5037689-6.9221401c1.3431854-0.355979,2.5181122-0.237319,3.4868469,0.3219376
						c1.4151611,0.8170013,2.3887558,2.5754986,2.7972565,5.1675329l-2.5365982,1.9520493
						c-0.3161011-2.0035982-1.0445938-3.352623-2.0901566-3.9566202c-0.6584702-0.3802948-1.4423981-0.4649134-2.3294296-0.2314844
						c-1.8003235,0.4765844-3.7494507,2.2545347-4.8553238,4.4273691c-1.2585678,2.4694824-1.2916336,5.0381737-0.095314,7.2324066
						c1.9578857,3.5909138,2.1845093,7.2586651,0.6740265,10.9001579
						C105.1588058,39.322113,100.6730804,42.2069054,99.3473969,42.9723549z"/>
				</g>
			</g>
			<g>
				<g>
					
						<linearGradient id="SVGID_12_" gradientUnits="userSpaceOnUse" x1="70.896637" y1="19.3212643" x2="83.7002411" y2="41.4977646">
						<stop  offset="0" style="stop-color:#EE7533"/>
						<stop  offset="0.1406285" style="stop-color:#EF7A36"/>
						<stop  offset="0.3286012" style="stop-color:#F18941"/>
						<stop  offset="0.5423586" style="stop-color:#F5A154"/>
						<stop  offset="0.699396" style="stop-color:#F9B667"/>
						<stop  offset="0.895569" style="stop-color:#F9B364"/>
						<stop  offset="1" style="stop-color:#F8AE60"/>
					</linearGradient>
					<path fill="url(#SVGID_12_)" d="M76.9625397,21.0961761c-0.7839355-2.0561199-0.5184097-3.9848251,0.790741-5.7335978
						l-12.8570709,7.4240122c-1.3101196,1.7487717-1.5756454,3.676506-0.7926865,5.732626
						c1.6437302,4.3106518,7.5115509,9.8409748,15.9305496,15.0940952l12.8590164-7.4230385
						C84.473114,30.937151,78.6052933,25.4068298,76.9625397,21.0961761z"/>
					
						<linearGradient id="SVGID_13_" gradientUnits="userSpaceOnUse" x1="72.7515411" y1="13.8263607" x2="90.216011" y2="44.0757217">
						<stop  offset="0" style="stop-color:#FFEA8E"/>
						<stop  offset="0.1302989" style="stop-color:#FEDB82"/>
						<stop  offset="0.303559" style="stop-color:#FCCB76"/>
						<stop  offset="0.4924088" style="stop-color:#FABF6D"/>
						<stop  offset="0.7064875" style="stop-color:#F9B868"/>
						<stop  offset="1" style="stop-color:#F9B667"/>
					</linearGradient>
					<path fill="url(#SVGID_13_)" d="M95.7584305,40.8753853l-12.8580399,7.424015
						c0-12.5584755-13.2490387-32.6839409-19.1684074-29.2651787l12.8580437-7.4240131
						C82.5093918,8.1914473,95.7584305,28.3178844,95.7584305,40.8753853z"/>
					<path fill="#FFE186" d="M62.6951675,19.9825268c-5.2142181,6.9610443,2.4441986,18.0625362,20.2052231,28.3168736
						c0-12.5584755-13.2490387-32.6839409-19.1684074-29.2651787
						C63.3546066,19.2520885,63.0073814,19.5652714,62.6951675,19.9825268z M64.1035233,28.5201893
						c-0.782959-2.0561199-0.5174332-3.984827,0.7926865-5.7345715c0.1993866-0.2655258,0.4162827-0.4668579,0.6516571-0.6030235
						c0.6292801-0.3627892,1.3966827-0.2645531,2.3566589,0.2898407
						c4.1336365,2.3868103,10.6745071,12.6703262,12.1305237,21.1408768
						C71.6150742,38.3601913,65.7472534,32.8298683,64.1035233,28.5201893z"/>
				</g>
				<g>
					
						<linearGradient id="SVGID_14_" gradientUnits="userSpaceOnUse" x1="97.4875412" y1="39.9795723" x2="102.0499725" y2="47.8819389">
						<stop  offset="0.0010267" style="stop-color:#FFE186"/>
						<stop  offset="0.0320346" style="stop-color:#FFDE84"/>
						<stop  offset="0.224908" style="stop-color:#FDCF7A"/>
						<stop  offset="0.4350798" style="stop-color:#FBC373"/>
						<stop  offset="0.6733335" style="stop-color:#FABC6F"/>
						<stop  offset="1" style="stop-color:#F9BA6E"/>
					</linearGradient>
					<path fill="url(#SVGID_14_)" d="M113.8773804,41.0524025l-12.8570709,7.424015
						c-3.0715408,1.7730865-8.1388931,1.8791008-15.3605957-1.668045l12.8580399-7.4230385
						C105.7394638,42.9315071,110.8068161,42.825489,113.8773804,41.0524025z"/>
					
						<linearGradient id="SVGID_15_" gradientUnits="userSpaceOnUse" x1="93.912796" y1="29.757061" x2="99.2332001" y2="38.9722672">
						<stop  offset="0" style="stop-color:#EE7635"/>
						<stop  offset="0.219798" style="stop-color:#EF7B39"/>
						<stop  offset="0.5135452" style="stop-color:#F28A43"/>
						<stop  offset="0.8476918" style="stop-color:#F5A255"/>
						<stop  offset="1" style="stop-color:#F8AE60"/>
					</linearGradient>
					<path fill="url(#SVGID_15_)" d="M98.5177536,39.385334l-12.8580399,7.4230385
						c0.893837-7.2985458,4.8319778-15.0756187,8.9685287-17.4643745l12.8580475-7.4230385
						C103.3497314,24.3097153,99.4115906,32.0858154,98.5177536,39.385334z"/>
					
						<linearGradient id="SVGID_16_" gradientUnits="userSpaceOnUse" x1="100.4786377" y1="21.8114643" x2="113.991272" y2="45.2160301">
						<stop  offset="0" style="stop-color:#FFEA8E"/>
						<stop  offset="0.1302989" style="stop-color:#FEDB82"/>
						<stop  offset="0.303559" style="stop-color:#FCCB76"/>
						<stop  offset="0.4924088" style="stop-color:#FABF6D"/>
						<stop  offset="0.7064875" style="stop-color:#F9B868"/>
						<stop  offset="1" style="stop-color:#F9B667"/>
					</linearGradient>
					<path fill="url(#SVGID_16_)" d="M118.4088135,27.4230728c-4.1812897-9.3050594-8.7817917-10.8933487-12.7374344-8.6096363
						l-12.8580475,7.4240112c3.9556503-2.2837124,8.5561447-0.6963959,12.7364655,8.6096363
						c3.1794968,7.0748405,2.1777039,13.9833641-2.7447281,16.8273087l12.8580399-7.4240112
						C120.5865097,41.4064369,121.5873413,34.4979134,118.4088135,27.4230728z"/>
					<path fill="#FFE186" d="M105.5507736,34.8461113c-4.1812973-9.3050594-8.7817917-10.8914032-12.737442-8.6076908
						c-5.6022873,3.233963-9.912941,14.2313824-9.912941,22.0609798c9.1815338,5.3007813,15.8634338,5.7073364,19.9046783,3.3740196
						C107.7284698,48.8314209,108.7292938,41.9219246,105.5507736,34.8461113z M103.568573,46.0040131
						c-0.5952454,0.9784584-1.4423981,1.8333893-2.5482635,2.4724045c-3.0715408,1.7730865-8.1388931,1.8791008-15.3605957-1.668045
						c0.893837-7.2985458,4.8319778-15.0756187,8.9685287-17.4643745c1.4900589-0.8607693,3.0073471-1.0222244,4.4166718-0.2081413
						c1.4462891,0.8354816,2.9256439,2.9188347,4.3991623,6.2004547
						C105.2045212,39.2520828,105.2512054,43.2427444,103.568573,46.0040131z"/>
				</g>
			</g>
		</g>
	</g>
</g>
</svg>
