<?xml version="1.0" encoding="utf-8"?>
<!-- Generator: Adobe Illustrator 18.0.0, SVG Export Plug-In . SVG Version: 6.00 Build 0)  -->
<!DOCTYPE svg PUBLIC "-//W3C//DTD SVG 1.1//EN" "http://www.w3.org/Graphics/SVG/1.1/DTD/svg11.dtd">
<svg version="1.1" id="Слой_1" xmlns="http://www.w3.org/2000/svg" xmlns:xlink="http://www.w3.org/1999/xlink" x="0px" y="0px"
	 viewBox="0 0 178 154" enable-background="new 0 0 178 154" xml:space="preserve">
<g>
	<g>
		<g>
			<path fill="#949494" d="M148.3146667,69.0072479c-38.9239883-22.4729958-79.0949936-22.4729958-118.0188828,0l0,0
				C10.8336773,80.243248,1.1026779,91.6592484,1.1026779,103.0762482c0,11.4160004,9.7319994,22.8320007,29.1939983,34.0690002
				c38.923996,22.4730072,79.0940018,22.4730072,118.0179901,0c19.4620056-11.2360001,29.1930084-22.6529999,29.1930084-34.0690002
				S167.7766724,80.243248,148.3146667,69.0072479z"/>
		</g>
		<g>
			<path fill="#2E2F2F" d="M148.3146667,69.0072479c-38.9249878-22.4729958-79.0949936-22.4729958-118.0179901,0l0,0
				C10.8346777,80.243248,1.103678,91.6602478,1.103678,103.0762482s9.7309999,22.8320007,29.1929989,34.0690002
				c38.923996,22.4730072,79.0940018,22.4730072,118.0179901,0c19.4620056-11.2360001,29.1930084-22.6529999,29.1930084-34.0690002
				S167.7766724,80.2442474,148.3146667,69.0072479z"/>
			
				<linearGradient id="SVGID_1_" gradientUnits="userSpaceOnUse" x1="1.103678" y1="120.0376282" x2="177.5076752" y2="120.0376282">
				<stop  offset="0" style="stop-color:#ED6935"/>
				<stop  offset="0.0715795" style="stop-color:#ED6B38"/>
				<stop  offset="0.300604" style="stop-color:#ED6D3A"/>
				<stop  offset="0.3697063" style="stop-color:#EC6834"/>
				<stop  offset="0.5836908" style="stop-color:#EB5D27"/>
				<stop  offset="0.744144" style="stop-color:#EA5822"/>
				<stop  offset="1" style="stop-color:#CA3417"/>
			</linearGradient>
			<path fill="url(#SVGID_1_)" d="M148.3146667,120.1452484c-38.9239883,22.4720001-79.0939941,22.4720001-118.0179901-0.0009995
				C10.8346777,108.9082489,1.103678,97.4922485,1.103678,86.0752487v17.0009995
				c0,11.4160004,9.7309999,22.8320007,29.1929989,34.0690002c38.923996,22.4730072,79.0940018,22.4730072,118.0179901,0
				c19.4620056-11.2360001,29.1930084-22.6529999,29.1930084-34.0690002v-17
				C177.5076752,97.4922485,167.7766724,108.9082489,148.3146667,120.1452484z"/>
			<path fill="#EA581E" d="M148.3146667,52.0072517c-38.9249878-22.4730015-79.0949936-22.4730015-118.0179901,0l0,0
				C10.8346777,63.2432518,1.103678,74.6592484,1.103678,86.0752487c0,11.4169998,9.7309999,22.8330002,29.1929989,34.0690002
				c38.923996,22.4729996,79.0940018,22.4729996,118.0179901,0.0009995
				c19.4620056-11.2369995,29.1930084-22.6529999,29.1930084-34.0690002
				C177.5076752,74.6592484,167.7766724,63.2432518,148.3146667,52.0072517z"/>
		</g>
		<g>
			<defs>
				<path id="SVGID_2_" d="M148.7566681,52.2005005c-38.923996-22.4729996-79.0939941-22.4729996-118.0179977,0l0,0
					C11.2766714,63.4365005,1.5456717,74.8525009,1.5456717,86.2685013c0,11.4169998,9.7320004,22.8330002,29.1940002,34.0690002
					c38.9240036,22.4729996,79.0940018,22.4729996,118.0180054,0.0009995
					c19.4619904-11.2369995,29.1929932-22.6529999,29.1929932-34.0690002
					C177.9506683,74.8525009,168.2196655,63.4365005,148.7566681,52.2005005z"/>
			</defs>
			<clipPath id="SVGID_3_">
				<use xlink:href="#SVGID_2_"  overflow="visible"/>
			</clipPath>
			<g clip-path="url(#SVGID_3_)">
				<path opacity="0" fill="#FFFFFF" d="M211.7176666,65.588501c-0.5299988-9.2649994-6.9889984-20.0769997-14.8860016-24.637001
					c-1.2759857-0.7369995-2.5169983-1.2659988-3.6989899-1.6009979
					c-5.0010071-11.4140015-13.4580078-21.9000015-23.0469971-27.4370003
					c-7.6809998-4.4340005-14.6320038-4.8530006-19.6640015-1.948l-17.2640076,9.9680004
					c-3.098999,1.7889996-5.4459991,4.8669987-6.810997,9.0179996l-11.2559967,6.4989986
					c-3.0610046,1.7670021-4.9540024,5.5550003-4.9540024,10.9500008c0,3.4280014,0.7699966,7.0900002,2.112999,10.6660004
					c-1.3980026,1.9630013-2.112999,4.0079994-2.112999,5.8409996c0,4.7750015,3.8710022,8.6460037,8.6469955,8.6460037
					c0.8650055,0,1.6830063-0.1650009,2.4710007-0.4020004c1.8130035,1.8119965,3.762001,3.3759995,5.8040009,4.5550003
					l2.2870026,1.3209991c-1.7040024,3.1339951-2.5459976,6.2919998-2.5459976,9.1819992
					c0,9.6520004,7.8239975,17.4759979,17.4759903,17.4759979c6.6420135,0,12.4179993-3.7050018,15.375-9.1620026
					l10.1210022,5.8440018c-0.1599884,0.788002-0.2460022,1.564003-0.2460022,2.3120041
					c0,6.7659988,5.4850006,12.25,12.2510071,12.25c3.0639954,0,5.8309937-1.1640015,7.9790039-3.0240021l4.1729889,2.4089966
					c4.6720123,2.6970062,8.9029999,2.9530029,11.9660034,1.1850052v-0.0009995l17.2640076-9.9670029
					c3.0619965-1.7679977,4.9559937-5.5579987,4.9559937-10.9520035
					C228.1146698,83.9905014,220.8176727,71.161499,211.7176666,65.588501z"/>
				<path opacity="0.030303" fill="#FFFBF8" d="M209.4945221,65.588501
					c-0.5299683-9.2649994-6.9889679-20.0769997-14.8859711-24.637001
					c-1.2760315-0.7369995-2.5169983-1.2659988-3.6990051-1.6009979
					c-5.0009918-11.4140015-13.4579926-21.9000015-23.0470276-27.4370003
					c-7.6809692-4.4340005-14.6319733-4.8530006-19.6639709-1.948l-17.2639923,9.9680004
					c-3.0990372,1.7889996-5.4460068,4.8669987-6.8110046,9.0179996l-11.2559967,6.4989986
					c-3.0610046,1.7670021-4.9540024,5.5550003-4.9540024,10.9500008c0,3.4280014,0.7699966,7.0900002,2.112999,10.6660004
					c-1.3980331,1.9630013-2.112999,4.0079994-2.112999,5.8409996c0,4.7750015,3.8710022,8.6460037,8.646965,8.6460037
					c0.8650055,0,1.6830368-0.1650009,2.4710312-0.4020004c1.8130035,1.8119965,3.7619705,3.3759995,5.8040009,4.5550003
					l2.2870026,1.3209991c-1.7040024,3.1339951-2.5460281,6.2919998-2.5460281,9.1819992
					c0,9.6520004,7.8240204,17.4759979,17.4760284,17.4759979c6.6419983,0,12.4179993-3.7050018,15.375-9.1620026
					l10.1209717,5.8440018c-0.1599731,0.788002-0.2459717,1.564003-0.2459717,2.3120041
					c0,6.7659988,5.4850006,12.25,12.2509918,12.25c3.0640106,0,5.8310089-1.1640015,7.9790039-3.0240021l4.1730042,2.4089966
					c4.6719971,2.6970062,8.9029999,2.9530029,11.9659729,1.1850052l0.0000305-0.0009995l17.2639618-9.9670029
					c3.0619965-1.7679977,4.9560394-5.5579987,4.9560394-10.9520035
					C225.8915558,83.9905014,218.5945435,71.161499,209.4945221,65.588501z"/>
				<path opacity="0.0606061" fill="#FFF6F1" d="M207.2713623,65.588501
					c-0.5299377-9.2649994-6.9889374-20.0769997-14.8859406-24.637001
					c-1.2760468-0.7369995-2.5169983-1.2659988-3.6989899-1.6009979
					c-5.0010071-11.4140015-13.4580078-21.9000015-23.0470581-27.4370003
					c-7.6809387-4.4340005-14.6319427-4.8530006-19.6639404-1.948l-17.2640076,9.9680004
					c-3.0990601,1.7889996-5.4459991,4.8669987-6.810997,9.0179996l-11.2559967,6.4989986
					c-3.0610046,1.7670021-4.9540024,5.5550003-4.9540024,10.9500008c0,3.4280014,0.7699966,7.0900002,2.112999,10.6660004
					c-1.3980637,1.9630013-2.112999,4.0079994-2.112999,5.8409996c0,4.7750015,3.8710022,8.6460037,8.6469421,8.6460037
					c0.8649979,0,1.6830597-0.1650009,2.4710541-0.4020004c1.8130035,1.8119965,3.76194,3.3759995,5.8040009,4.5550003
					l2.2870026,1.3209991c-1.7040024,3.1339951-2.5460587,6.2919998-2.5460587,9.1819992
					c0,9.6520004,7.8240585,17.4759979,17.4760513,17.4759979c6.6420135,0,12.4180145-3.7050018,15.375-9.1620026
					l10.1209412,5.8440018c-0.1599274,0.788002-0.2459412,1.564003-0.2459412,2.3120041
					c0,6.7659988,5.4850006,12.25,12.2510071,12.25c3.0639954,0,5.8309937-1.1640015,7.9790039-3.0240021l4.1729889,2.4089966
					c4.6720123,2.6970062,8.9029999,2.9530029,11.9659424,1.1850052l0.000061-0.0009995l17.2639465-9.9670029
					c3.0619965-1.7679977,4.9560547-5.5579987,4.9560547-10.9520035
					C223.6684265,83.9905014,216.3714294,71.161499,207.2713623,65.588501z"/>
				<path opacity="0.0909091" fill="#FEF2E9" d="M205.0482178,65.588501
					c-0.5299072-9.2649994-6.9889069-20.0769997-14.88591-24.637001c-1.2760925-0.7369995-2.5169983-1.2659988-3.6990051-1.6009979
					c-5.0009918-11.4140015-13.4579926-21.9000015-23.0470886-27.4370003
					c-7.6809082-4.4340005-14.6319122-4.8530006-19.6639099-1.948l-17.2639923,9.9680004
					c-3.0990982,1.7889996-5.4460068,4.8669987-6.8110046,9.0179996l-11.2559967,6.4989986
					c-3.0610046,1.7670021-4.9540024,5.5550003-4.9540024,10.9500008c0,3.4280014,0.7699966,7.0900002,2.112999,10.6660004
					c-1.3980865,1.9630013-2.112999,4.0079994-2.112999,5.8409996c0,4.7750015,3.8710022,8.6460037,8.6469116,8.6460037
					c0.8649979,0,1.6830902-0.1650009,2.4710846-0.4020004c1.8130035,1.8119965,3.7619095,3.3759995,5.8040009,4.5550003
					l2.2870026,1.3209991c-1.7040024,3.1339951-2.5460892,6.2919998-2.5460892,9.1819992
					c0,9.6520004,7.8240891,17.4759979,17.4760895,17.4759979c6.6419983,0,12.4179993-3.7050018,15.375-9.1620026
					l10.1209106,5.8440018c-0.1599121,0.788002-0.2459106,1.564003-0.2459106,2.3120041
					c0,6.7659988,5.4850006,12.25,12.2510071,12.25c3.0639954,0,5.8309937-1.1640015,7.9789886-3.0240021l4.1730042,2.4089966
					c4.6719971,2.6970062,8.9029999,2.9530029,11.9659119,1.1850052l0.0000916-0.0009995l17.2639008-9.9670029
					c3.0620117-1.7679977,4.9561005-5.5579987,4.9561005-10.9520035
					C221.4453125,83.9905014,214.1483154,71.161499,205.0482178,65.588501z"/>
				<path opacity="0.1212121" fill="#FEEDE2" d="M202.8250732,65.588501
					c-0.529892-9.2649994-6.9888916-20.0769997-14.8858795-24.637001c-1.276123-0.7369995-2.5170135-1.2659988-3.6990051-1.6009979
					c-5.0010071-11.4140015-13.4580078-21.9000015-23.0471191-27.4370003
					c-7.6808777-4.4340005-14.6318817-4.8530006-19.6638794-1.948l-17.2639999,9.9680004
					c-3.0991211,1.7889996-5.4460068,4.8669987-6.8110046,9.0179996l-11.2559967,6.4989986
					c-3.0610046,1.7670021-4.9540024,5.5550003-4.9540024,10.9500008c0,3.4280014,0.7699966,7.0900002,2.112999,10.6660004
					c-1.3981171,1.9630013-2.112999,4.0079994-2.112999,5.8409996c0,4.7750015,3.8710022,8.6460037,8.6468811,8.6460037
					c0.8649979,0,1.6831207-0.1650009,2.4711227-0.4020004c1.8129959,1.8119965,3.761879,3.3759995,5.8039932,4.5550003
					l2.2870026,1.3209991c-1.7040024,3.1339951-2.5461197,6.2919998-2.5461197,9.1819992
					c0,9.6520004,7.8241196,17.4759979,17.4761276,17.4759979c6.6419983,0,12.4179993-3.7050018,15.375-9.1620026
					l10.1208649,5.8440018c-0.1598663,0.788002-0.2458649,1.564003-0.2458649,2.3120041
					c0,6.7659988,5.4849854,12.25,12.2509918,12.25c3.0639954,0,5.8309937-1.1640015,7.9790039-3.0240021l4.1730042,2.4089966
					c4.6719971,2.6970062,8.9029999,2.9530029,11.9658661,1.1850052l0.0001221-0.0009995l17.2638855-9.9670029
					c3.0619965-1.7679977,4.9561157-5.5579987,4.9561157-10.9520035
					C219.2221832,83.9905014,211.9251862,71.161499,202.8250732,65.588501z"/>
				<path opacity="0.1515152" fill="#FDE9DA" d="M200.6019135,65.588501
					c-0.5298462-9.2649994-6.9888458-20.0769997-14.885849-24.637001c-1.2761536-0.7369995-2.5169983-1.2659988-3.6990051-1.6009979
					c-5.0009918-11.4140015-13.4579926-21.9000015-23.0471497-27.4370003
					c-7.6808472-4.4340005-14.6318512-4.8530006-19.6638489-1.948l-17.2639923,9.9680004
					c-3.0991516,1.7889996-5.4459991,4.8669987-6.8110046,9.0179996l-11.2559967,6.4989986
					c-3.0610046,1.7670021-4.9540024,5.5550003-4.9540024,10.9500008c0,3.4280014,0.7700043,7.0900002,2.112999,10.6660004
					c-1.3981476,1.9630013-2.112999,4.0079994-2.112999,5.8409996c0,4.7750015,3.8710022,8.6460037,8.6468506,8.6460037
					c0.8649979,0,1.6831512-0.1650009,2.4711533-0.4020004c1.8129959,1.8119965,3.7618484,3.3759995,5.8039932,4.5550003
					l2.2870026,1.3209991c-1.7040024,3.1339951-2.5461502,6.2919998-2.5461502,9.1819992
					c0,9.6520004,7.8241501,17.4759979,17.4761505,17.4759979c6.6419983,0,12.4179993-3.7050018,15.375-9.1620026
					l10.1208496,5.8440018c-0.1598511,0.788002-0.2458496,1.564003-0.2458496,2.3120041
					c0,6.7659988,5.4850006,12.25,12.2510071,12.25c3.0639954,0,5.8309937-1.1640015,7.9789886-3.0240021l4.1730042,2.4089966
					c4.6719971,2.6970062,8.9029999,2.9530029,11.9658508,1.1850052l0.0001526-0.0009995l17.2638397-9.9670029
					c3.0620117-1.7679977,4.9561615-5.5579987,4.9561615-10.9520035
					C216.9990692,83.9905014,209.7020721,71.161499,200.6019135,65.588501z"/>
				<path opacity="0.1818182" fill="#FDE5D3" d="M198.3787689,65.588501
					c-0.5298309-9.2649994-6.9888306-20.0769997-14.8858185-24.637001
					c-1.2761841-0.7369995-2.5170135-1.2659988-3.6990051-1.6009979
					c-5.0010071-11.4140015-13.4580078-21.9000015-23.0471802-27.4370003
					c-7.6808167-4.4340005-14.6318207-4.8530006-19.6638184-1.948l-17.2639999,9.9680004
					c-3.0991821,1.7889996-5.4459991,4.8669987-6.8110046,9.0179996l-11.2559967,6.4989986
					c-3.0610046,1.7670021-4.9540024,5.5550003-4.9540024,10.9500008c0,3.4280014,0.7700043,7.0900002,2.112999,10.6660004
					c-1.3981781,1.9630013-2.112999,4.0079994-2.112999,5.8409996c0,4.7750015,3.8710022,8.6460037,8.6468201,8.6460037
					c0.8649979,0,1.6831818-0.1650009,2.4711838-0.4020004c1.8129959,1.8119965,3.7618179,3.3759995,5.8040009,4.5550003
					l2.2869949,1.3209991c-1.7039948,3.1339951-2.5461807,6.2919998-2.5461807,9.1819992
					c0,9.6520004,7.8241806,17.4759979,17.4761887,17.4759979c6.6419983,0,12.4179993-3.7050018,15.375-9.1620026
					l10.1208191,5.8440018c-0.1598206,0.788002-0.2458191,1.564003-0.2458191,2.3120041
					c0,6.7659988,5.4850006,12.25,12.2509918,12.25c3.0639954,0,5.8310089-1.1640015,7.9790039-3.0240021l4.1730042,2.4089966
					c4.6719971,2.6970062,8.9029999,2.9530029,11.9658051,1.1850052l0.0001831-0.0009995l17.2638245-9.9670029
					c3.0619965-1.7679977,4.9561768-5.5579987,4.9561768-10.9520035
					C214.7759399,83.9905014,207.4789429,71.161499,198.3787689,65.588501z"/>
				<path opacity="0.2121212" fill="#FDE0CC" d="M196.1556091,65.588501
					c-0.5297852-9.2649994-6.9887848-20.0769997-14.885788-24.637001c-1.2762146-0.7369995-2.5169983-1.2659988-3.6990051-1.6009979
					c-5.0009918-11.4140015-13.4579926-21.9000015-23.0472107-27.4370003
					c-7.6807861-4.4340005-14.6317749-4.8530006-19.6637878-1.948l-17.2639923,9.9680004
					c-3.0992126,1.7889996-5.4459991,4.8669987-6.8110046,9.0179996l-11.2559967,6.4989986
					c-3.060997,1.7670021-4.9540024,5.5550003-4.9540024,10.9500008c0,3.4280014,0.7700043,7.0900002,2.112999,10.6660004
					c-1.3982086,1.9630013-2.112999,4.0079994-2.112999,5.8409996c0,4.7750015,3.8710022,8.6460037,8.6467896,8.6460037
					c0.8649979,0,1.6832123-0.1650009,2.4712143-0.4020004c1.8129959,1.8119965,3.7617874,3.3759995,5.8040009,4.5550003
					l2.2869949,1.3209991c-1.7039948,3.1339951-2.5462112,6.2919998-2.5462112,9.1819992
					c0,9.6520004,7.8242111,17.4759979,17.4762115,17.4759979c6.6419983,0,12.4179993-3.7050018,15.375-9.1620026
					l10.1207886,5.8440018c-0.15979,0.788002-0.2457886,1.564003-0.2457886,2.3120041c0,6.7659988,5.4850006,12.25,12.2510071,12.25
					c3.0639954,0,5.8309937-1.1640015,7.9789886-3.0240021l4.1730042,2.4089966
					c4.6719971,2.6970062,8.9029999,2.9530029,11.9657898,1.1850052l0.0002136-0.0009995l17.2637939-9.9670029
					c3.0619965-1.7679977,4.9562073-5.5579987,4.9562073-10.9520035
					C212.5528259,83.9905014,205.2558289,71.161499,196.1556091,65.588501z"/>
				<path opacity="0.2424242" fill="#FCDCC4" d="M193.9324646,65.588501
					c-0.5297699-9.2649994-6.9887695-20.0769997-14.8857574-24.637001
					c-1.2762451-0.7369995-2.5169983-1.2659988-3.6990051-1.6009979
					c-5.0010071-11.4140015-13.4579926-21.9000015-23.0472412-27.4370003
					c-7.6807556-4.4340005-14.6317596-4.8530006-19.6637573-1.948l-17.2639999,9.9680004
					c-3.0992432,1.7889996-5.4459991,4.8669987-6.8110046,9.0179996l-11.2559967,6.4989986
					c-3.060997,1.7670021-4.9540024,5.5550003-4.9540024,10.9500008c0,3.4280014,0.7700043,7.0900002,2.112999,10.6660004
					c-1.3982391,1.9630013-2.112999,4.0079994-2.112999,5.8409996c0,4.7750015,3.8710022,8.6460037,8.646759,8.6460037
					c0.8649979,0,1.6832428-0.1650009,2.4712448-0.4020004c1.8129959,1.8119965,3.7617569,3.3759995,5.8040009,4.5550003
					l2.2869949,1.3209991c-1.7039948,3.1339951-2.5462418,6.2919998-2.5462418,9.1819992
					c0,9.6520004,7.8242416,17.4759979,17.4762421,17.4759979c6.6420059,0,12.4180069-3.7050018,15.3750076-9.1620026
					l10.1207581,5.8440018c-0.1597595,0.788002-0.2457581,1.564003-0.2457581,2.3120041
					c0,6.7659988,5.4850006,12.25,12.2509918,12.25c3.0639954,0,5.8310089-1.1640015,7.9790039-3.0240021l4.1730042,2.4089966
					c4.6719971,2.6970062,8.9029999,2.9530029,11.9657593,1.1850052l0.0002289-0.0009995l17.2637634-9.9670029
					c3.0619965-1.7679977,4.9562378-5.5579987,4.9562378-10.9520035
					C210.3296967,83.9905014,203.0326996,71.161499,193.9324646,65.588501z"/>
				<path opacity="0.2727273" fill="#FCD7BD" d="M191.7093048,65.588501
					c-0.5297241-9.2649994-6.9887238-20.0769997-14.8857269-24.637001
					c-1.2762756-0.7369995-2.5169983-1.2659988-3.6989899-1.6009979
					c-5.0010071-11.4140015-13.4580078-21.9000015-23.047287-27.4370003
					c-7.6807251-4.4340005-14.6317139-4.8530006-19.6637268-1.948l-17.2639923,9.9680004
					c-3.0992737,1.7889996-5.4459991,4.8669987-6.8110046,9.0179996l-11.2559967,6.4989986
					c-3.060997,1.7670021-4.9540024,5.5550003-4.9540024,10.9500008c0,3.4280014,0.7700043,7.0900002,2.112999,10.6660004
					c-1.3982697,1.9630013-2.112999,4.0079994-2.112999,5.8409996c0,4.7750015,3.8710022,8.6460037,8.6467285,8.6460037
					c0.8649979,0,1.6832733-0.1650009,2.4712753-0.4020004c1.8129959,1.8119965,3.7617264,3.3759995,5.8040009,4.5550003
					l2.2869949,1.3209991c-1.7039948,3.1339951-2.5462723,6.2919998-2.5462723,9.1819992
					c0,9.6520004,7.8242722,17.4759979,17.4762726,17.4759979c6.6419983,0,12.4179993-3.7050018,15.375-9.1620026
					l10.1207275,5.8440018c-0.159729,0.788002-0.2457275,1.564003-0.2457275,2.3120041
					c0,6.7659988,5.4850006,12.25,12.2510071,12.25c3.0639954,0,5.8309937-1.1640015,7.9789886-3.0240021l4.1730042,2.4089966
					c4.6719971,2.6970062,8.9029999,2.9530029,11.9657288,1.1850052l0.0002747-0.0009995l17.2637329-9.9670029
					c3.0619965-1.7679977,4.9562683-5.5579987,4.9562683-10.9520035
					C208.1065826,83.9905014,200.8095856,71.161499,191.7093048,65.588501z"/>
				<path opacity="0.3030303" fill="#FBD2B5" d="M189.4861603,65.588501
					c-0.5296936-9.2649994-6.9886932-20.0769997-14.8856964-24.637001
					c-1.2763062-0.7369995-2.5169983-1.2659988-3.6990051-1.6009979
					c-5.0009918-11.4140015-13.4579926-21.9000015-23.0473022-27.4370003
					c-7.6806946-4.4340005-14.6316986-4.8530006-19.6636963-1.948l-17.2639999,9.9680004
					c-3.0993042,1.7889996-5.4459991,4.8669987-6.810997,9.0179996l-11.2560043,6.4989986
					c-3.060997,1.7670021-4.9540024,5.5550003-4.9540024,10.9500008c0,3.4280014,0.7700043,7.0900002,2.1130066,10.6660004
					c-1.3983078,1.9630013-2.1130066,4.0079994-2.1130066,5.8409996c0,4.7750015,3.8710022,8.6460037,8.646698,8.6460037
					c0.8650055,0,1.6833038-0.1650009,2.4713058-0.4020004c1.8129959,1.8119965,3.7616959,3.3759995,5.8040009,4.5550003
					l2.2869949,1.3209991c-1.7039948,3.1339951-2.5463028,6.2919998-2.5463028,9.1819992
					c0,9.6520004,7.8243027,17.4759979,17.4763031,17.4759979c6.6420059,0,12.4180069-3.7050018,15.3750076-9.1620026
					l10.120697,5.8440018c-0.1596985,0.788002-0.245697,1.564003-0.245697,2.3120041c0,6.7659988,5.4850006,12.25,12.2509918,12.25
					c3.0640106,0,5.8310089-1.1640015,7.9790039-3.0240021l4.1730042,2.4089966
					c4.6719971,2.6970062,8.9029999,2.9530029,11.9656982,1.1850052l0.0002899-0.0009995l17.2637024-9.9670029
					c3.0619965-1.7679977,4.9562988-5.5579987,4.9562988-10.9520035
					C205.8834534,83.9905014,198.5864563,71.161499,189.4861603,65.588501z"/>
				<path opacity="0.3333333" fill="#FBCDAE" d="M187.2630005,65.588501
					c-0.5296631-9.2649994-6.9886627-20.0769997-14.8856659-24.637001
					c-1.2763367-0.7369995-2.5169983-1.2659988-3.6989899-1.6009979
					c-5.0010071-11.4140015-13.4580078-21.9000015-23.0473328-27.4370003
					c-7.6806793-4.4340005-14.6316681-4.8530006-19.6636734-1.948l-17.2639999,9.9680004
					c-3.0993347,1.7889996-5.4459991,4.8669987-6.810997,9.0179996l-11.2560043,6.4989986
					c-3.060997,1.7670021-4.9540024,5.5550003-4.9540024,10.9500008c0,3.4280014,0.7700043,7.0900002,2.1130066,10.6660004
					c-1.3983383,1.9630013-2.1130066,4.0079994-2.1130066,5.8409996c0,4.7750015,3.8710022,8.6460037,8.6466675,8.6460037
					c0.8650055,0,1.6833344-0.1650009,2.4713364-0.4020004c1.8129959,1.8119965,3.7616653,3.3759995,5.8040009,4.5550003
					l2.2870026,1.3209991c-1.7040024,3.1339951-2.5463333,6.2919998-2.5463333,9.1819992
					c0,9.6520004,7.8243332,17.4759979,17.476326,17.4759979c6.6420059,0,12.4179993-3.7050018,15.375-9.1620026
					l10.1206665,5.8440018c-0.159668,0.788002-0.2456665,1.564003-0.2456665,2.3120041
					c0,6.7659988,5.4850006,12.25,12.2510071,12.25c3.0639954,0,5.8309937-1.1640015,7.9790039-3.0240021l4.1729889,2.4089966
					c4.6719971,2.6970062,8.9029999,2.9530029,11.9656677,1.1850052l0.0003357-0.0009995l17.2636719-9.9670029
					c3.0619965-1.7679977,4.9563293-5.5579987,4.9563293-10.9520035
					C203.6603394,83.9905014,196.3633423,71.161499,187.2630005,65.588501z"/>
				<path opacity="0.3636364" fill="#FAC9A6" d="M185.039856,65.588501
					c-0.5296326-9.2649994-6.9886322-20.0769997-14.8856354-24.637001
					c-1.2763672-0.7369995-2.5169983-1.2659988-3.6990051-1.6009979
					c-5.0009918-11.4140015-13.4579926-21.9000015-23.0473633-27.4370003
					c-7.6806335-4.4340005-14.6316376-4.8530006-19.6636353-1.948l-17.2639999,9.9680004
					c-3.0993652,1.7889996-5.4459991,4.8669987-6.810997,9.0179996l-11.2560043,6.4989986
					c-3.060997,1.7670021-4.9539948,5.5550003-4.9539948,10.9500008c0,3.4280014,0.7699966,7.0900002,2.112999,10.6660004
					c-1.3983688,1.9630013-2.112999,4.0079994-2.112999,5.8409996c0,4.7750015,3.8709946,8.6460037,8.6466293,8.6460037
					c0.8650055,0,1.6833649-0.1650009,2.4713669-0.4020004c1.8130035,1.8119965,3.7616348,3.3759995,5.8040009,4.5550003
					l2.2870026,1.3209991c-1.7040024,3.1339951-2.5463638,6.2919998-2.5463638,9.1819992
					c0,9.6520004,7.8243637,17.4759979,17.4763641,17.4759979c6.6419983,0,12.4179993-3.7050018,15.375-9.1620026
					l10.120636,5.8440018c-0.1596375,0.788002-0.245636,1.564003-0.245636,2.3120041c0,6.7659988,5.4850006,12.25,12.2509918,12.25
					c3.0640106,0,5.8310089-1.1640015,7.9790039-3.0240021l4.1730042,2.4089966
					c4.6719971,2.6970062,8.9029999,2.9530029,11.9656372,1.1850052l0.0003662-0.0009995l17.2636261-9.9670029
					c3.0619965-1.7679977,4.9563599-5.5579987,4.9563599-10.9520035
					C201.4372101,83.9905014,194.140213,71.161499,185.039856,65.588501z"/>
				<path opacity="0.3939394" fill="#FAC49F" d="M182.8166962,65.588501
					c-0.5296021-9.2649994-6.9886017-20.0769997-14.8856049-24.637001
					c-1.2763824-0.7369995-2.5169983-1.2659988-3.6989899-1.6009979
					c-5.0010071-11.4140015-13.4580078-21.9000015-23.0473938-27.4370003
					c-7.6806183-4.4340005-14.6316147-4.8530006-19.6636124-1.948l-17.2639999,9.9680004
					c-3.0993958,1.7889996-5.4459991,4.8669987-6.810997,9.0179996L86.190094,35.4505005
					c-3.060997,1.7670021-4.9539948,5.5550003-4.9539948,10.9500008c0,3.4280014,0.7699966,7.0900002,2.112999,10.6660004
					c-1.3983994,1.9630013-2.112999,4.0079994-2.112999,5.8409996c0,4.7750015,3.8709946,8.6460037,8.6466064,8.6460037
					c0.8649979,0,1.6833878-0.1650009,2.4713898-0.4020004c1.8130035,1.8119965,3.7616043,3.3759995,5.8040009,4.5550003
					l2.2870026,1.3209991c-1.7040024,3.1339951-2.5463943,6.2919998-2.5463943,9.1819992
					c0,9.6520004,7.8243942,17.4759979,17.4763947,17.4759979c6.6419983,0,12.4179993-3.7050018,15.3749924-9.1620026
					l10.1206055,5.8440018c-0.1596069,0.788002-0.2456055,1.564003-0.2456055,2.3120041
					c0,6.7659988,5.4850006,12.25,12.2510071,12.25c3.0639954,0,5.8309937-1.1640015,7.9790039-3.0240021l4.1729889,2.4089966
					c4.6719971,2.6970062,8.9029999,2.9530029,11.9656067,1.1850052l0.0003967-0.0009995l17.2636108-9.9670029
					c3.0619965-1.7679977,4.9563904-5.5579987,4.9563904-10.9520035
					C199.2140961,83.9905014,191.917099,71.161499,182.8166962,65.588501z"/>
				<path opacity="0.4242424" fill="#F9BF97" d="M180.5935516,65.588501
					c-0.5295715-9.2649994-6.9885712-20.0769997-14.8855743-24.637001
					c-1.2764282-0.7369995-2.5169983-1.2659988-3.6990051-1.6009979
					c-5.0009918-11.4140015-13.4579926-21.9000015-23.0474243-27.4370003
					c-7.6805725-4.4340005-14.6315765-4.8530006-19.6635742-1.948l-17.2639999,9.9680004
					c-3.0994263,1.7889996-5.4459991,4.8669987-6.810997,9.0179996l-11.2560043,6.4989986
					c-3.060997,1.7670021-4.9539948,5.5550003-4.9539948,10.9500008c0,3.4280014,0.7699966,7.0900002,2.112999,10.6660004
					c-1.3984222,1.9630013-2.112999,4.0079994-2.112999,5.8409996c0,4.7750015,3.8709946,8.6460037,8.6465759,8.6460037
					c0.8649979,0,1.6834183-0.1650009,2.4714203-0.4020004c1.8130035,1.8119965,3.7615738,3.3759995,5.8040009,4.5550003
					l2.2870026,1.3209991c-1.7040024,3.1339951-2.5464249,6.2919998-2.5464249,9.1819992
					c0,9.6520004,7.8244247,17.4759979,17.4764252,17.4759979c6.6419983,0,12.4179993-3.7050018,15.375-9.1620026
					l10.120575,5.8440018c-0.1595764,0.788002-0.245575,1.564003-0.245575,2.3120041c0,6.7659988,5.4850006,12.25,12.2509918,12.25
					c3.0640106,0,5.8310089-1.1640015,7.9790039-3.0240021l4.1730042,2.4089966
					c4.6719971,2.6970062,8.9029999,2.9530029,11.9655762,1.1850052l0.0004272-0.0009995l17.2635651-9.9670029
					c3.0620117-1.7679977,4.9564362-5.5579987,4.9564362-10.9520035
					C196.9909821,83.9905014,189.6939697,71.161499,180.5935516,65.588501z"/>
				<path opacity="0.4545455" fill="#F8BA90" d="M178.3703918,65.588501
					c-0.529541-9.2649994-6.9885406-20.0769997-14.8855438-24.637001c-1.2764435-0.7369995-2.5169983-1.2659988-3.6989899-1.6009979
					c-5.0010071-11.4140015-13.4580078-21.9000015-23.0474548-27.4370003
					c-7.6805573-4.4340005-14.631546-4.8530006-19.6635513-1.948l-17.2639999,9.9680004
					c-3.0994568,1.7889996-5.4459991,4.8669987-6.810997,9.0179996l-11.2560043,6.4989986
					c-3.060997,1.7670021-4.9539948,5.5550003-4.9539948,10.9500008c0,3.4280014,0.7699966,7.0900002,2.112999,10.6660004
					c-1.3984528,1.9630013-2.112999,4.0079994-2.112999,5.8409996c0,4.7750015,3.8709946,8.6460037,8.6465454,8.6460037
					c0.8649979,0,1.6834488-0.1650009,2.4714508-0.4020004c1.8130035,1.8119965,3.7615433,3.3759995,5.8040009,4.5550003
					l2.2870026,1.3209991c-1.7040024,3.1339951-2.5464554,6.2919998-2.5464554,9.1819992
					c0,9.6520004,7.8244553,17.4759979,17.4764557,17.4759979c6.6419983,0,12.4179993-3.7050018,15.375-9.1620026
					l10.1205368,5.8440018c-0.1595459,0.788002-0.2455444,1.564003-0.2455444,2.3120041
					c0,6.7659988,5.4850006,12.25,12.2510071,12.25c3.0639954,0,5.8309937-1.1640015,7.9790039-3.0240021l4.1729889,2.4089966
					c4.6720123,2.6970062,8.9029999,2.9530029,11.9655457,1.1850052l0.0004578-0.0009995l17.2635498-9.9670029
					c3.0619965-1.7679977,4.9564514-5.5579987,4.9564514-10.9520035
					C194.7678528,83.9905014,187.4708557,71.161499,178.3703918,65.588501z"/>
				<path opacity="0.4848485" fill="#F8B588" d="M176.1472473,65.588501
					c-0.5295105-9.2649994-6.9885101-20.0769997-14.8855133-24.637001
					c-1.2764893-0.7369995-2.5169983-1.2659988-3.6990051-1.6009979
					c-5.0009918-11.4140015-13.4579926-21.9000015-23.0474854-27.4370003
					c-7.6805115-4.4340005-14.6315079-4.8530006-19.6635132-1.948l-17.2639999,9.9680004
					c-3.0994797,1.7889996-5.4459991,4.8669987-6.810997,9.0179996l-11.2560043,6.4989986
					c-3.060997,1.7670021-4.9539948,5.5550003-4.9539948,10.9500008c0,3.4280014,0.7699966,7.0900002,2.112999,10.6660004
					c-1.3984833,1.9630013-2.112999,4.0079994-2.112999,5.8409996c0,4.7750015,3.8709946,8.6460037,8.6465149,8.6460037
					c0.8649979,0,1.6834869-0.1650009,2.4714813-0.4020004c1.8130035,1.8119965,3.7615204,3.3759995,5.8040009,4.5550003
					l2.2870026,1.3209991c-1.7040024,3.1339951-2.5464859,6.2919998-2.5464859,9.1819992
					c0,9.6520004,7.8244858,17.4759979,17.4764862,17.4759979c6.6419983,0,12.4179993-3.7050018,15.375-9.1620026
					l10.1205139,5.8440018c-0.1595154,0.788002-0.2455139,1.564003-0.2455139,2.3120041
					c0,6.7659988,5.4850006,12.25,12.2509918,12.25c3.0640106,0,5.8310089-1.1640015,7.9790039-3.0240021l4.1730042,2.4089966
					c4.6719971,2.6970062,8.9029999,2.9530029,11.9655151,1.1850052l0.0004883-0.0009995l17.263504-9.9670029
					c3.0620117-1.7679977,4.9564972-5.5579987,4.9564972-10.9520035
					C192.5447388,83.9905014,185.2477264,71.161499,176.1472473,65.588501z"/>
				<path opacity="0.5151515" fill="#F7B081" d="M173.9241028,65.588501
					c-0.5294952-9.2649994-6.9884949-20.0769997-14.885498-24.637001c-1.2765045-0.7369995-2.5169983-1.2659988-3.6989899-1.6009979
					c-5.0010071-11.4140015-13.4580078-21.9000015-23.0475159-27.4370003
					c-7.6804886-4.4340005-14.631485-4.8530006-19.6634903-1.948l-17.2639999,9.9680004
					c-3.0995102,1.7889996-5.4459991,4.8669987-6.810997,9.0179996l-11.2560043,6.4989986
					c-3.060997,1.7670021-4.9539948,5.5550003-4.9539948,10.9500008c0,3.4280014,0.7699966,7.0900002,2.112999,10.6660004
					c-1.3985138,1.9630013-2.112999,4.0079994-2.112999,5.8409996c0,4.7750015,3.8710022,8.6460037,8.6464844,8.6460037
					c0.8649979,0,1.6835175-0.1650009,2.4715118-0.4020004c1.8130035,1.8119965,3.7614899,3.3759995,5.8040009,4.5550003
					l2.2870026,1.3209991c-1.7040024,3.1339951-2.5465164,6.2919998-2.5465164,9.1819992
					c0,9.6520004,7.8245163,17.4759979,17.4765167,17.4759979c6.6419983,0,12.4179993-3.7050018,15.375-9.1620026
					l10.1204758,5.8440018c-0.1594696,0.788002-0.2454834,1.564003-0.2454834,2.3120041
					c0,6.7659988,5.4850006,12.25,12.2510071,12.25c3.0639954,0,5.8309937-1.1640015,7.9790039-3.0240021l4.1729889,2.4089966
					c4.6720123,2.6970062,8.9029999,2.9530029,11.9654846,1.1850052l0.0005188-0.0009995l17.2634888-9.9670029
					c3.0619965-1.7679977,4.9565125-5.5579987,4.9565125-10.9520035
					C190.3216095,83.9905014,183.0246124,71.161499,173.9241028,65.588501z"/>
				<path opacity="0.5454546" fill="#F6AB79" d="M171.700943,65.588501
					c-0.5294495-9.2649994-6.9884491-20.0769997-14.8854523-24.637001
					c-1.2765503-0.7369995-2.5169983-1.2659988-3.6990051-1.6009979
					c-5.0009918-11.4140015-13.4579926-21.9000015-23.0475464-27.4370003
					c-7.6804504-4.4340005-14.6314468-4.8530006-19.6634521-1.948l-17.2639999,9.9680004
					c-3.0995407,1.7889996-5.4459991,4.8669987-6.810997,9.0179996l-11.2559967,6.4989986
					c-3.0610046,1.7670021-4.9540024,5.5550003-4.9540024,10.9500008c0,3.4280014,0.7699966,7.0900002,2.112999,10.6660004
					c-1.3985443,1.9630013-2.112999,4.0079994-2.112999,5.8409996c0,4.7750015,3.8710022,8.6460037,8.6464539,8.6460037
					c0.8649979,0,1.683548-0.1650009,2.4715424-0.4020004c1.8130035,1.8119965,3.7614594,3.3759995,5.8040009,4.5550003
					l2.2870026,1.3209991c-1.7040024,3.1339951-2.5465469,6.2919998-2.5465469,9.1819992
					c0,9.6520004,7.8245468,17.4759979,17.4765472,17.4759979c6.6419983,0,12.4179993-3.7050018,15.375-9.1620026
					l10.1204529,5.8440018c-0.1594543,0.788002-0.2454529,1.564003-0.2454529,2.3120041
					c0,6.7659988,5.4850006,12.25,12.2509918,12.25c3.0640106,0,5.8310089-1.1640015,7.9790039-3.0240021l4.1730042,2.4089966
					c4.6719971,2.6970062,8.9029999,2.9530029,11.9654541,1.1850052l0.0005493-0.0009995l17.263443-9.9670029
					c3.0620117-1.7679977,4.9565582-5.5579987,4.9565582-10.9520035
					C188.0984955,83.9905014,180.8014832,71.161499,171.700943,65.588501z"/>
				<path opacity="0.5757576" fill="#F5A672" d="M169.4777985,65.588501
					c-0.5294342-9.2649994-6.9884338-20.0769997-14.885437-24.637001c-1.2765656-0.7369995-2.5169983-1.2659988-3.6989899-1.6009979
					c-5.0010071-11.4140015-13.4580078-21.9000015-23.0475769-27.4370003
					c-7.6804276-4.4340005-14.631424-4.8530006-19.6634293-1.948l-17.2639999,9.9680004
					c-3.0995712,1.7889996-5.4459991,4.8669987-6.810997,9.0179996l-11.2559967,6.4989986
					c-3.0610046,1.7670021-4.9540024,5.5550003-4.9540024,10.9500008c0,3.4280014,0.7699966,7.0900002,2.112999,10.6660004
					c-1.3985748,1.9630013-2.112999,4.0079994-2.112999,5.8409996c0,4.7750015,3.8710022,8.6460037,8.6464233,8.6460037
					c0.8649979,0,1.6835785-0.1650009,2.4715729-0.4020004c1.8130035,1.8119965,3.7614288,3.3759995,5.8040009,4.5550003
					l2.2870026,1.3209991c-1.7040024,3.1339951-2.5465775,6.2919998-2.5465775,9.1819992
					c0,9.6520004,7.8245773,17.4759979,17.4765778,17.4759979c6.6419983,0,12.4179993-3.7050018,15.375-9.1620026
					l10.1204224,5.8440018c-0.1594238,0.788002-0.2454224,1.564003-0.2454224,2.3120041
					c0,6.7659988,5.484993,12.25,12.2509995,12.25c3.0639954,0,5.8309937-1.1640015,7.9790039-3.0240021l4.1729889,2.4089966
					c4.6720123,2.6970062,8.9029999,2.9530029,11.9654388,1.1850052l0.0005646-0.0009995l17.2634277-9.9670029
					c3.0619965-1.7679977,4.9565735-5.5579987,4.9565735-10.9520035
					C185.8753662,83.9905014,178.5783691,71.161499,169.4777985,65.588501z"/>
				<path opacity="0.6060606" fill="#F5A16A" d="M167.2546387,65.588501
					c-0.5293884-9.2649994-6.9883881-20.0769997-14.8853912-24.637001
					c-1.2766113-0.7369995-2.5169983-1.2659988-3.6990051-1.6009979
					c-5.0009918-11.4140015-13.4579926-21.9000015-23.0475998-27.4370003
					c-7.680397-4.4340005-14.6313934-4.8530006-19.6633987-1.948l-17.2639999,9.9680004
					c-3.0996017,1.7889996-5.4459991,4.8669987-6.810997,9.0179996l-11.2559967,6.4989986
					c-3.0610046,1.7670021-4.9540024,5.5550003-4.9540024,10.9500008c0,3.4280014,0.7699966,7.0900002,2.112999,10.6660004
					c-1.3986053,1.9630013-2.112999,4.0079994-2.112999,5.8409996c0,4.7750015,3.8710022,8.6460037,8.6463928,8.6460037
					c0.8649979,0,1.683609-0.1650009,2.4716034-0.4020004c1.8130035,1.8119965,3.7613983,3.3759995,5.8040009,4.5550003
					l2.2870026,1.3209991c-1.7040024,3.1339951-2.546608,6.2919998-2.546608,9.1819992
					c0,9.6520004,7.8246078,17.4759979,17.4766083,17.4759979c6.6419983,0,12.4179993-3.7050018,15.375-9.1620026
					l10.1203918,5.8440018c-0.1593933,0.788002-0.2453918,1.564003-0.2453918,2.3120041
					c0,6.7659988,5.4850006,12.25,12.2510071,12.25c3.0639954,0,5.8309937-1.1640015,7.9789886-3.0240021l4.1730042,2.4089966
					c4.6719971,2.6970062,8.9029999,2.9530029,11.9653931,1.1850052l0.0006104-0.0009995l17.2633972-9.9670029
					c3.0619965-1.7679977,4.956604-5.5579987,4.956604-10.9520035
					C183.6522522,83.9905014,176.3552551,71.161499,167.2546387,65.588501z"/>
				<path opacity="0.6363636" fill="#F49C63" d="M165.0314941,65.588501
					c-0.5293732-9.2649994-6.9883728-20.0769997-14.8853607-24.637001
					c-1.2766418-0.7369995-2.5170135-1.2659988-3.6990051-1.6009979
					c-5.0010071-11.4140015-13.4580078-21.9000015-23.0476379-27.4370003
					c-7.6803665-4.4340005-14.6313629-4.8530006-19.6633606-1.948l-17.2639999,9.9680004
					c-3.0996399,1.7889996-5.4460068,4.8669987-6.8110046,9.0179996l-11.2559967,6.4989986
					c-3.0610046,1.7670021-4.9540024,5.5550003-4.9540024,10.9500008c0,3.4280014,0.7699966,7.0900002,2.112999,10.6660004
					c-1.3986359,1.9630013-2.112999,4.0079994-2.112999,5.8409996c0,4.7750015,3.8710022,8.6460037,8.6463623,8.6460037
					c0.8649979,0,1.6836395-0.1650009,2.4716415-0.4020004c1.8129959,1.8119965,3.7613602,3.3759995,5.8039932,4.5550003
					l2.2870026,1.3209991c-1.7040024,3.1339951-2.5466385,6.2919998-2.5466385,9.1819992
					c0,9.6520004,7.8246384,17.4759979,17.4766388,17.4759979c6.6419983,0,12.4179993-3.7050018,15.375-9.1620026
					l10.1203613,5.8440018c-0.1593628,0.788002-0.2453613,1.564003-0.2453613,2.3120041
					c0,6.7659988,5.484993,12.25,12.2509995,12.25c3.0639954,0,5.8309937-1.1640015,7.9790039-3.0240021l4.1730042,2.4089966
					c4.6719971,2.6970062,8.9029999,2.9530029,11.9653625,1.1850052l0.0006256-0.0009995l17.2633667-9.9670029
					c3.0619965-1.7679977,4.9566345-5.5579987,4.9566345-10.9520035
					C181.4291229,83.9905014,174.1321259,71.161499,165.0314941,65.588501z"/>
				<path opacity="0.6666667" fill="#F3975C" d="M162.8083344,65.588501
					c-0.5293274-9.2649994-6.988327-20.0769997-14.8853302-24.637001c-1.2766724-0.7369995-2.5169983-1.2659988-3.6990051-1.6009979
					c-5.0009918-11.4140015-13.4579926-21.9000015-23.0476608-27.4370003
					c-7.680336-4.4340005-14.6313324-4.8530006-19.6633301-1.948l-17.2639999,9.9680004
					c-3.0996704,1.7889996-5.4460068,4.8669987-6.8110046,9.0179996l-11.2559967,6.4989986
					c-3.0610008,1.7670021-4.9540024,5.5550003-4.9540024,10.9500008c0,3.4280014,0.7700005,7.0900002,2.112999,10.6660004
					c-1.3986664,1.9630013-2.112999,4.0079994-2.112999,5.8409996c0,4.7750015,3.8710022,8.6460037,8.6463318,8.6460037
					c0.8650055,0,1.68367-0.1650009,2.4716721-0.4020004c1.8129959,1.8119965,3.7613297,3.3759995,5.8039932,4.5550003
					l2.2870026,1.3209991c-1.7040024,3.1339951-2.546669,6.2919998-2.546669,9.1819992
					c0,9.6520004,7.8246689,17.4759979,17.4766693,17.4759979c6.6419983,0,12.4179993-3.7050018,15.375-9.1620026
					l10.1203308,5.8440018c-0.1593323,0.788002-0.2453308,1.564003-0.2453308,2.3120041
					c0,6.7659988,5.4850006,12.25,12.2510071,12.25c3.0639954,0,5.8309937-1.1640015,7.9789886-3.0240021l4.1730042,2.4089966
					c4.6719971,2.6970062,8.9029999,2.9530029,11.965332,1.1850052l0.0006714-0.0009995l17.2633362-9.9670029
					c3.0619965-1.7679977,4.956665-5.5579987,4.956665-10.9520035
					C179.2060089,83.9905014,171.9090118,71.161499,162.8083344,65.588501z"/>
				<path opacity="0.6969697" fill="#F39154" d="M160.5851898,65.588501
					c-0.5293121-9.2649994-6.9883118-20.0769997-14.8852997-24.637001
					c-1.2767029-0.7369995-2.5170135-1.2659988-3.6990051-1.6009979
					c-5.0010071-11.4140015-13.4580078-21.9000015-23.047699-27.4370003
					c-7.6803055-4.4340005-14.6313019-4.8530006-19.6632996-1.948l-17.2639999,9.9680004
					c-3.0997009,1.7889996-5.4459991,4.8669987-6.8110046,9.0179996l-11.2559967,6.4989986
					c-3.0610008,1.7670021-4.9540024,5.5550003-4.9540024,10.9500008c0,3.4280014,0.7700005,7.0900002,2.1130028,10.6660004
					c-1.3986969,1.9630013-2.1130028,4.0079994-2.1130028,5.8409996c0,4.7750015,3.8710022,8.6460037,8.6463013,8.6460037
					c0.8650055,0,1.6837006-0.1650009,2.4717026-0.4020004c1.8129959,1.8119965,3.7612991,3.3759995,5.8040009,4.5550003
					l2.2869949,1.3209991c-1.7039948,3.1339951-2.5466919,6.2919998-2.5466919,9.1819992
					c0,9.6520004,7.8246918,17.4759979,17.4766922,17.4759979c6.6419983,0,12.4179993-3.7050018,15.375-9.1620026
					l10.1203079,5.8440018c-0.1593094,0.788002-0.2453079,1.564003-0.2453079,2.3120041
					c0,6.7659988,5.4850006,12.25,12.2509995,12.25c3.0639954,0,5.8310089-1.1640015,7.9790039-3.0240021l4.1730042,2.4089966
					c4.6719971,2.6970062,8.9029999,2.9530029,11.9653015,1.1850052l0.0006866-0.0009995l17.2633057-9.9670029
					c3.0619965-1.7679977,4.9566956-5.5579987,4.9566956-10.9520035
					C176.9828796,83.9905014,169.6858826,71.161499,160.5851898,65.588501z"/>
				<path opacity="0.7272727" fill="#F28C4D" d="M158.36203,65.588501
					c-0.5292664-9.2649994-6.988266-20.0769997-14.8852692-24.637001c-1.2767181-0.7369995-2.5169983-1.2659988-3.6990051-1.6009979
					c-5.0009918-11.4140015-13.4579926-21.9000015-23.0477219-27.4370003c-7.680275-4.4340005-14.6312714-4.8530006-19.663269-1.948
					l-17.2639999,9.9680004c-3.0997314,1.7889996-5.4459991,4.8669987-6.8110046,9.0179996l-11.2559967,6.4989986
					c-3.0610008,1.7670021-4.9540024,5.5550003-4.9540024,10.9500008c0,3.4280014,0.7700005,7.0900002,2.1130028,10.6660004
					c-1.3987274,1.9630013-2.1130028,4.0079994-2.1130028,5.8409996c0,4.7750015,3.8710022,8.6460037,8.6462708,8.6460037
					c0.8650055,0,1.6837311-0.1650009,2.4717331-0.4020004c1.8129959,1.8119965,3.7612686,3.3759995,5.8040009,4.5550003
					l2.2869949,1.3209991c-1.7039948,3.1339951-2.5467224,6.2919998-2.5467224,9.1819992
					c0,9.6520004,7.8247223,17.4759979,17.4767227,17.4759979c6.6419983,0,12.4179993-3.7050018,15.375-9.1620026
					l10.1202774,5.8440018c-0.1592789,0.788002-0.2452774,1.564003-0.2452774,2.3120041
					c0,6.7659988,5.4850006,12.25,12.2510071,12.25c3.0639954,0,5.8309937-1.1640015,7.9789886-3.0240021l4.1730042,2.4089966
					c4.6719971,2.6970062,8.9029999,2.9530029,11.965271,1.1850052l0.0007324-0.0009995l17.2632751-9.9670029
					c3.0619965-1.7679977,4.9567261-5.5579987,4.9567261-10.9520035
					C174.7597656,83.9905014,167.4627686,71.161499,158.36203,65.588501z"/>
				<path opacity="0.7575758" fill="#F18646" d="M156.1388855,65.588501
					c-0.5292511-9.2649994-6.9882507-20.0769997-14.8852386-24.637001
					c-1.2767639-0.7369995-2.5169983-1.2659988-3.6990051-1.6009979
					c-5.0010071-11.4140015-13.4580002-21.9000015-23.04776-27.4370003c-7.6802368-4.4340005-14.6312408-4.8530006-19.6632385-1.948
					l-17.2639999,9.9680004c-3.099762,1.7889996-5.4459991,4.8669987-6.8110046,9.0179996l-11.2559967,6.4989986
					c-3.0610008,1.7670021-4.9539986,5.5550003-4.9539986,10.9500008c0,3.4280014,0.7699966,7.0900002,2.112999,10.6660004
					c-1.3987579,1.9630013-2.112999,4.0079994-2.112999,5.8409996c0,4.7750015,3.8709984,8.6460037,8.6462402,8.6460037
					c0.8650017,0,1.6837578-0.1650009,2.4717598-0.4020004c1.8129959,1.8119965,3.7612381,3.3759995,5.8040009,4.5550003
					l2.2869949,1.3209991c-1.7039948,3.1339951-2.5467529,6.2919998-2.5467529,9.1819992
					c0,9.6520004,7.8247528,17.4759979,17.4767532,17.4759979c6.6419983,0,12.4179993-3.7050018,15.375-9.1620026
					l10.1202469,5.8440018c-0.1592484,0.788002-0.2452469,1.564003-0.2452469,2.3120041
					c0,6.7659988,5.4850006,12.25,12.2509995,12.25c3.0639954,0,5.8310089-1.1640015,7.9790039-3.0240021l4.1730042,2.4089966
					c4.6719971,2.6970062,8.9029999,2.9530029,11.9652405,1.1850052l0.0007477-0.0009995l17.2632446-9.9670029
					c3.0620117-1.7679977,4.9567566-5.5579987,4.9567566-10.9520035
					C172.5366364,83.9905014,165.2396393,71.161499,156.1388855,65.588501z"/>
				<path opacity="0.7878788" fill="#F0813F" d="M153.9157257,65.588501
					c-0.5292053-9.2649994-6.988205-20.0769997-14.8852081-24.637001c-1.2767792-0.7369995-2.5169983-1.2659988-3.6989899-1.6009979
					c-5.0010071-11.4140015-13.4580078-21.9000015-23.0477982-27.4370003
					c-7.6802063-4.4340005-14.6312103-4.8530006-19.663208-1.948l-17.2639999,9.9680004
					c-3.0997925,1.7889996-5.4459991,4.8669987-6.8110046,9.0179996l-11.2559967,6.4989986
					c-3.0610008,1.7670021-4.9539986,5.5550003-4.9539986,10.9500008c0,3.4280014,0.7700005,7.0900002,2.112999,10.6660004
					c-1.3987885,1.9630013-2.112999,4.0079994-2.112999,5.8409996c0,4.7750015,3.8709984,8.6460037,8.6462097,8.6460037
					c0.8650017,0,1.6837883-0.1650009,2.4717903-0.4020004c1.8129959,1.8119965,3.7612076,3.3759995,5.8040009,4.5550003
					l2.2869949,1.3209991c-1.7039948,3.1339951-2.5467834,6.2919998-2.5467834,9.1819992
					c0,9.6520004,7.8247833,17.4759979,17.4767838,17.4759979c6.6420059,0,12.4179993-3.7050018,15.375-9.1620026
					l10.1202164,5.8440018c-0.1592102,0.788002-0.2452164,1.564003-0.2452164,2.3120041
					c0,6.7659988,5.4850006,12.25,12.2509995,12.25c3.064003,0,5.8310013-1.1640015,7.9789963-3.0240021l4.1730042,2.4089966
					c4.6719971,2.6970062,8.9029999,2.9530029,11.96521,1.1850052l0.0007935-0.0009995l17.2632141-9.9670029
					c3.0619965-1.7679977,4.9567871-5.5579987,4.9567871-10.9520035
					C170.3135223,83.9905014,163.0165253,71.161499,153.9157257,65.588501z"/>
				<path opacity="0.8181818" fill="#EF7C38" d="M151.6925812,65.588501
					c-0.5291748-9.2649994-6.9881897-20.0769997-14.8851776-24.637001c-1.276825-0.7369995-2.5169983-1.2659988-3.6990051-1.6009979
					c-5.0009918-11.4140015-13.4580002-21.9000015-23.047821-27.4370003
					c-7.6801758-4.4340005-14.6311798-4.8530006-19.6631775-1.948L73.1334,19.9335022
					c-3.0998154,1.7889996-5.4459991,4.8669987-6.8110046,9.0179996l-11.2559967,6.4989986
					c-3.0610008,1.7670021-4.9539986,5.5550003-4.9539986,10.9500008c0,3.4280014,0.7700005,7.0900002,2.112999,10.6660004
					c-1.398819,1.9630013-2.112999,4.0079994-2.112999,5.8409996c0,4.7750015,3.8709984,8.6460037,8.6461792,8.6460037
					c0.8650017,0,1.6838188-0.1650009,2.4718208-0.4020004c1.8129997,1.8119965,3.7611771,3.3759995,5.8040009,4.5550003
					l2.2869949,1.3209991c-1.7039948,3.1339951-2.546814,6.2919998-2.546814,9.1819992
					c0,9.6520004,7.8248138,17.4759979,17.4768143,17.4759979c6.6420059,0,12.4179993-3.7050018,15.375-9.1620026
					l10.1201859,5.8440018c-0.1591797,0.788002-0.2451859,1.564003-0.2451859,2.3120041
					c0,6.7659988,5.4850006,12.25,12.2509995,12.25c3.064003,0,5.8310013-1.1640015,7.9790039-3.0240021l4.1730042,2.4089966
					c4.6719971,2.6970062,8.9029999,2.9530029,11.9651794,1.1850052l0.0008087-0.0009995l17.2631836-9.9670029
					c3.0620117-1.7679977,4.9568176-5.5579987,4.9568176-10.9520035
					C168.0903931,83.9905014,160.793396,71.161499,151.6925812,65.588501z"/>
				<path opacity="0.8484849" fill="#EE7631" d="M149.4694366,65.588501
					c-0.5291595-9.2649994-6.9881592-20.0769997-14.8851624-24.637001
					c-1.2768402-0.7369995-2.5169983-1.2659988-3.6989899-1.6009979
					c-5.0010071-11.4140015-13.4580078-21.9000015-23.0478516-27.4370003
					c-7.6801529-4.4340005-14.6311569-4.8530006-19.6631546-1.948l-17.2639999,9.9680004
					c-3.0998459,1.7889996-5.4459991,4.8669987-6.810997,9.0179996L52.843277,35.4505005
					c-3.0610008,1.7670021-4.9539986,5.5550003-4.9539986,10.9500008c0,3.4280014,0.7700005,7.0900002,2.112999,10.6660004
					c-1.3988495,1.9630013-2.112999,4.0079994-2.112999,5.8409996c0,4.7750015,3.8709984,8.6460037,8.6461525,8.6460037
					c0.8649979,0,1.6838455-0.1650009,2.4718475-0.4020004c1.8129997,1.8119965,3.7611504,3.3759995,5.8040009,4.5550003
					l2.2869949,1.3209991c-1.7039948,3.1339951-2.5468445,6.2919998-2.5468445,9.1819992
					c0,9.6520004,7.8248444,17.4759979,17.4768448,17.4759979c6.6420059,0,12.4180069-3.7050018,15.375-9.1620026
					l10.1201553,5.8440018c-0.1591492,0.788002-0.2451553,1.564003-0.2451553,2.3120041
					c0,6.7659988,5.4850006,12.25,12.2510071,12.25c3.0639954,0,5.8309937-1.1640015,7.9789963-3.0240021l4.1729965,2.4089966
					c4.6719971,2.6970062,8.9029999,2.9530029,11.9651489,1.1850052l0.0008545-0.0009995l17.2631531-9.9670029
					c3.0619965-1.7679977,4.9568481-5.5579987,4.9568481-10.9520035
					C165.8672791,83.9905014,158.570282,71.161499,149.4694366,65.588501z"/>
				<path opacity="0.8787879" fill="#EE712A" d="M147.2462769,65.588501
					c-0.5291138-9.2649994-6.9881134-20.0769997-14.8851166-24.637001c-1.276886-0.7369995-2.5169983-1.2659988-3.6990051-1.6009979
					c-5.0009995-11.4140015-13.4580002-21.9000015-23.0478745-27.4370003
					c-7.6801224-4.4340005-14.6311264-4.8530006-19.6631241-1.948l-17.2639999,9.9680004
					c-3.0998764,1.7889996-5.4459991,4.8669987-6.8110008,9.0179996l-11.2560005,6.4989986
					c-3.060997,1.7670021-4.9539986,5.5550003-4.9539986,10.9500008c0,3.4280014,0.7700005,7.0900002,2.112999,10.6660004
					c-1.3988762,1.9630013-2.112999,4.0079994-2.112999,5.8409996c0,4.7750015,3.8709984,8.6460037,8.646122,8.6460037
					c0.8649979,0,1.683876-0.1650009,2.4718781-0.4020004c1.8129997,1.8119965,3.7611198,3.3759995,5.8040009,4.5550003
					l2.2870026,1.3209991c-1.7040024,3.1339951-2.5468826,6.2919998-2.5468826,9.1819992
					c0,9.6520004,7.8248825,17.4759979,17.4768753,17.4759979c6.6420059,0,12.4180069-3.7050018,15.375-9.1620026
					l10.1201248,5.8440018c-0.1591187,0.788002-0.2451248,1.564003-0.2451248,2.3120041
					c0,6.7659988,5.4850006,12.25,12.2510071,12.25c3.0639954,0,5.8309937-1.1640015,7.9789963-3.0240021l4.1730042,2.4089966
					c4.6719971,2.6970062,8.9029999,2.9530029,11.9651184,1.1850052l0.000885-0.0009995l17.2631073-9.9670029
					c3.0620117-1.7679977,4.9568787-5.5579987,4.9568787-10.9520035
					C163.6441498,83.9905014,156.3471527,71.161499,147.2462769,65.588501z"/>
				<path opacity="0.9090909" fill="#ED6B24" d="M145.0231323,65.588501
					c-0.5290985-9.2649994-6.9880981-20.0769997-14.8851013-24.637001
					c-1.2769012-0.7369995-2.5169983-1.2659988-3.6989975-1.6009979
					c-5.0009995-11.4140015-13.4580002-21.9000015-23.047905-27.4370003
					c-7.6800919-4.4340005-14.6310959-4.8530006-19.6630936-1.948L66.464035,19.9335022
					c-3.0999069,1.7889996-5.4459991,4.8669987-6.8110008,9.0179996l-11.2560005,6.4989986
					c-3.060997,1.7670021-4.9539986,5.5550003-4.9539986,10.9500008c0,3.4280014,0.7700005,7.0900002,2.112999,10.6660004
					c-1.3989067,1.9630013-2.112999,4.0079994-2.112999,5.8409996c0,4.7750015,3.8710022,8.6460037,8.6460915,8.6460037
					c0.8649979,0,1.6839104-0.1650009,2.4719086-0.4020004c1.8129997,1.8119965,3.7610893,3.3759995,5.8040009,4.5550003
					l2.2869987,1.3209991c-1.7039986,3.1339951-2.5469093,6.2919998-2.5469093,9.1819992
					c0,9.6520004,7.824913,17.4759979,17.4769135,17.4759979c6.6419983,0,12.4179993-3.7050018,15.375-9.1620026
					l10.1200867,5.8440018c-0.1590881,0.788002-0.2450867,1.564003-0.2450867,2.3120041
					c0,6.7659988,5.484993,12.25,12.2509995,12.25c3.0639954,0,5.8309937-1.1640015,7.9789963-3.0240021l4.1730042,2.4089966
					c4.6719894,2.6970062,8.9029922,2.9530029,11.9650803,1.1850052l0.0009155-0.0009995l17.263092-9.9670029
					c3.0619965-1.7679977,4.9569092-5.5579987,4.9569092-10.9520035
					C161.4210358,83.9905014,154.1240387,71.161499,145.0231323,65.588501z"/>
				<path opacity="0.9393939" fill="#EC661D" d="M142.7999725,65.588501
					c-0.5290527-9.2649994-6.9880524-20.0769997-14.8850555-24.637001
					c-1.2769394-0.7369995-2.5170059-1.2659988-3.6990051-1.6009979
					c-5.0009995-11.4140015-13.4580002-21.9000015-23.0479355-27.4370003
					c-7.6800613-4.4340005-14.6310654-4.8530006-19.663063-1.948l-17.2639999,9.9680004
					c-3.0999374,1.7889996-5.4459991,4.8669987-6.8110008,9.0179996l-11.2559967,6.4989986
					c-3.0610008,1.7670021-4.9540024,5.5550003-4.9540024,10.9500008c0,3.4280014,0.7700005,7.0900002,2.112999,10.6660004
					c-1.3989372,1.9630013-2.112999,4.0079994-2.112999,5.8409996c0,4.7750015,3.8710022,8.6460037,8.6460609,8.6460037
					c0.8650017,0,1.6839409-0.1650009,2.4719391-0.4020004c1.8129997,1.8119965,3.7610626,3.3759995,5.8040009,4.5550003
					l2.2869987,1.3209991c-1.7039986,3.1339951-2.5469398,6.2919998-2.5469398,9.1819992
					c0,9.6520004,7.8249435,17.4759979,17.476944,17.4759979c6.6419983,0,12.4179993-3.7050018,15.375-9.1620026
					l10.1200562,5.8440018c-0.1590576,0.788002-0.2450562,1.564003-0.2450562,2.3120041
					c0,6.7659988,5.4850006,12.25,12.2509995,12.25c3.0639954,0,5.8310013-1.1640015,7.9789963-3.0240021l4.1730042,2.4089966
					c4.6719971,2.6970062,8.9029999,2.9530029,11.9650574,1.1850052l0.000946-0.0009995l17.2630615-9.9670029
					c3.0619965-1.7679977,4.9569397-5.5579987,4.9569397-10.9520035
					C159.1979218,83.9905014,151.9009094,71.161499,142.7999725,65.588501z"/>
				<path opacity="0.969697" fill="#EB6015" d="M140.576828,65.588501
					c-0.5290375-9.2649994-6.9880371-20.0769997-14.8850327-24.637001
					c-1.2769699-0.7369995-2.5170059-1.2659988-3.6990051-1.6009979
					c-5.0009995-11.4140015-13.4580002-21.9000015-23.047966-27.4370003
					c-7.6800308-4.4340005-14.6310349-4.8530006-19.6630325-1.948l-17.2639999,9.9680004
					c-3.099968,1.7889996-5.4459991,4.8669987-6.810997,9.0179996l-11.2560005,6.4989986
					c-3.0610008,1.7670021-4.9540024,5.5550003-4.9540024,10.9500008c0,3.4280014,0.7700005,7.0900002,2.1130028,10.6660004
					c-1.3989716,1.9630013-2.1130028,4.0079994-2.1130028,5.8409996c0,4.7750015,3.8710022,8.6460037,8.6460304,8.6460037
					c0.8650017,0,1.6839714-0.1650009,2.4719696-0.4020004c1.8129997,1.8119965,3.7610321,3.3759995,5.8040009,4.5550003
					l2.2869987,1.3209991c-1.7039986,3.1339951-2.5469666,6.2919998-2.5469666,9.1819992
					c0,9.6520004,7.8249664,17.4759979,17.4769707,17.4759979c6.6419983,0,12.4179993-3.7050018,15.375-9.1620026
					l10.1200256,5.8440018c-0.1590271,0.788002-0.2450256,1.564003-0.2450256,2.3120041
					c0,6.7659988,5.4850006,12.25,12.2509995,12.25c3.0639954,0,5.8310013-1.1640015,7.9789963-3.0240021l4.1730042,2.4089966
					c4.6719971,2.6970062,8.9029922,2.9530029,11.9650345,1.1850052l0.0009613-0.0009995l17.263031-9.9670029
					c3.0619965-1.7679977,4.9569702-5.5579987,4.9569702-10.9520035
					C156.9747925,83.9905014,149.6777954,71.161499,140.576828,65.588501z"/>
				<path fill="#EA5B0C" d="M138.3536682,65.588501c-0.5289917-9.2649994-6.9879913-20.0769997-14.8849945-24.637001
					c-1.2770004-0.7369995-2.5169983-1.2659988-3.6990051-1.6009979
					c-5.0009995-11.4140015-13.4580002-21.9000015-23.0479965-27.4370003
					c-7.6800003-4.4340005-14.6309967-4.8530006-19.663002-1.948l-17.2639999,9.9680004
					c-3.0999985,1.7889996-5.4459991,4.8669987-6.810997,9.0179996l-11.2560005,6.4989986
					c-3.0610008,1.7670021-4.9540024,5.5550003-4.9540024,10.9500008c0,3.4280014,0.7700005,7.0900002,2.1130028,10.6660004
					c-1.3990021,1.9630013-2.1130028,4.0079994-2.1130028,5.8409996c0,4.7750015,3.8710022,8.6460037,8.6459999,8.6460037
					c0.8650017,0,1.6840019-0.1650009,2.4720001-0.4020004c1.8129997,1.8119965,3.7610016,3.3759995,5.8040009,4.5550003
					l2.2870026,1.3209991c-1.7040024,3.1339951-2.5470009,6.2919998-2.5470009,9.1819992
					c0,9.6520004,7.8250008,17.4759979,17.4770012,17.4759979c6.6419983,0,12.4179993-3.7050018,15.375-9.1620026
					l10.1199951,5.8440018c-0.1589966,0.788002-0.2449951,1.564003-0.2449951,2.3120041
					c0,6.7659988,5.4850006,12.25,12.2509995,12.25c3.0639954,0,5.8310013-1.1640015,7.9789963-3.0240021l4.1730042,2.4089966
					c4.6719971,2.6970062,8.9029999,2.9530029,11.9649963,1.1850052l0.0010071-0.0009995l17.2630005-9.9670029
					c3.0619965-1.7679977,4.9570007-5.5579987,4.9570007-10.9520035
					C154.7516785,83.9905014,147.4546661,71.161499,138.3536682,65.588501z"/>
			</g>
		</g>
		<g>
			<g>
				
					<linearGradient id="SVGID_4_" gradientUnits="userSpaceOnUse" x1="121.0896683" y1="90.5439987" x2="154.7516785" y2="90.5439987">
					<stop  offset="0" style="stop-color:#F0F7F7"/>
					<stop  offset="0.2408935" style="stop-color:#ECF5F6"/>
					<stop  offset="0.500166" style="stop-color:#E1EEF4"/>
					<stop  offset="0.7670555" style="stop-color:#CFE3EF"/>
					<stop  offset="1" style="stop-color:#B7D6EA"/>
				</linearGradient>
				<path fill="url(#SVGID_4_)" d="M138.3536682,65.588501l-17.2639999,9.9680023
					c9.1010056,5.572998,16.3970108,18.4020004,16.3970108,28.9909973c0,5.3939972-1.8940125,9.1839981-4.9560089,10.9520035
					l17.2640076-9.9680023c3.0619965-1.7679977,4.9570007-5.5579987,4.9570007-10.9520035
					C154.7516785,83.9905014,147.4546661,71.161499,138.3536682,65.588501z"/>
				
					<linearGradient id="SVGID_5_" gradientUnits="userSpaceOnUse" x1="103.5794296" y1="47.4576988" x2="137.5109711" y2="67.0480881">
					<stop  offset="0" style="stop-color:#F0F7F7"/>
					<stop  offset="0.2408935" style="stop-color:#ECF5F6"/>
					<stop  offset="0.500166" style="stop-color:#E1EEF4"/>
					<stop  offset="0.7670555" style="stop-color:#CFE3EF"/>
					<stop  offset="1" style="stop-color:#B7D6EA"/>
				</linearGradient>
				<path fill="url(#SVGID_5_)" d="M123.4686737,40.9514999c-1.276001-0.7369995-2.5169983-1.2659988-3.6990051-1.6009979
					l-17.2639999,9.9669991c1.1820068,0.3359985,2.4220047,0.8650017,3.6980057,1.6020012
					c7.897995,4.5589981,14.3559952,15.3720016,14.885994,24.637001l17.2639999-9.9680023
					C137.8246765,56.3235016,131.3656769,45.5115013,123.4686737,40.9514999z"/>
				<path fill="#F0F7F7" d="M58.9916725,25.482502l-17.2639999,9.9679985
					c2.6240005-1.5159988,6.1069984-1.5439987,9.9909973,0.177002l17.2650032-9.9680004
					C65.0996704,23.9385014,61.6156731,23.9665012,58.9916725,25.482502z"/>
				<linearGradient id="SVGID_6_" gradientUnits="userSpaceOnUse" x1="59.7946701" y1="28.716507" x2="119.7696686" y2="28.716507">
					<stop  offset="0" style="stop-color:#F0F7F7"/>
					<stop  offset="0.2408935" style="stop-color:#ECF5F6"/>
					<stop  offset="0.500166" style="stop-color:#E1EEF4"/>
					<stop  offset="0.7670555" style="stop-color:#CFE3EF"/>
					<stop  offset="1" style="stop-color:#B7D6EA"/>
				</linearGradient>
				<path fill="url(#SVGID_6_)" d="M96.7216721,11.9145012C89.0416718,7.4795012,82.0906754,7.0605011,77.05867,9.9655018
					l-17.2639999,9.9680004c5.0320053-2.9050007,11.9820023-2.4860001,19.663002,1.948
					c9.5899963,5.5369987,18.0459976,16.0230007,23.0479965,27.4359989l17.2639999-9.9669991
					C114.7686691,27.9365005,106.3116684,17.4505005,96.7216721,11.9145012z"/>
				<g>
					<g>
						<g>
							<g>
								<g>
									<g>
										<path fill="#F0F7F7" d="M36.7736702,46.4005013c0-5.3950005,1.8930016-9.1829987,4.9540024-10.9500008
											c2.6240005-1.5159988,6.1069984-1.5439987,9.9909973,0.177002
											c0.5010033-7.6420002,3.4920006-13.0480003,8.0760002-15.6940002
											c5.0320053-2.9050007,11.9820023-2.4860001,19.663002,1.948
											c9.5899963,5.5369987,18.0459976,16.0230007,23.0479965,27.4359989
											c1.1820068,0.3359985,2.4220047,0.8650017,3.6980057,1.6020012
											c7.897995,4.5589981,14.3559952,15.3720016,14.885994,24.637001
											c9.0999985,5.572998,16.3970108,18.4020004,16.3970108,28.9909973c0,5.3939972-1.8940125,9.1839981-4.9560089,10.9520035
											c-3.0619965,1.7679977-7.2929993,1.512001-11.9649963-1.1850052L53.6956711,75.7065048
											C44.3496704,70.3105011,36.7736702,57.1895027,36.7736702,46.4005013z"/>
									</g>
								</g>
							</g>
						</g>
					</g>
				</g>
			</g>
			<g>
				<path fill="#3D7EC0" d="M88.3896713,86.2095032c0,5.5719986-7.8249969,10.0899963-17.4769974,10.0899963
					s-17.4760017-4.5179977-17.4760017-10.0899963h-0.0009995c0,9.6520004,7.8250008,17.4759979,17.4770012,17.4759979
					S88.3896713,95.8615036,88.3896713,86.2095032L88.3896713,86.2095032L88.3896713,86.2095032z"/>
				<path fill="#ABC711" d="M82.2806702,72.1805038h-0.1809998c0.0550003,0.0769958,0.1070023,0.1549988,0.1610031,0.2319946
					C82.2656708,72.3355026,82.2806702,72.2584991,82.2806702,72.1805038z"/>
				<path fill="#459DD7" d="M82.2606735,72.4124985c-0.2140045,3.5170059-5.2050018,6.3320007-11.3479996,6.3310013
					c-6.2789993,0-11.3680038-2.9379959-11.3680038-6.5629959h-0.1819992
					c-4.0179977,4.6079941-5.9269981,9.6299973-5.9269981,14.0289993h0.0009995
					c0,5.5719986,7.8240013,10.0899963,17.4760017,10.0899963s17.4769974-4.5179977,17.4769974-10.0899963l0,0
					C88.3896713,82.5654984,85.7506714,77.414505,82.2606735,72.4124985z"/>
				<polygon fill="#AFCA13" points="82.0996704,72.1805038 59.5446701,72.1805038 82.0996704,72.1805038 				"/>
				<path fill="#3FBBED" d="M82.0996704,72.1805038L82.0996704,72.1805038L82.0996704,72.1805038
					c-5.7419968-8.1600037-13.6900024-15.8520012-16.1100006-15.8520012c-6.586998,0,1.538002,7.5779991-5.185997,14.3009987
					c-0.5100021,0.5100021-0.9850006,1.0289993-1.4410019,1.5510025h0.1819992c0,3.625,5.0890045,6.5629959,11.3680038,6.5629959
					c6.1429977,0.0009995,11.1339951-2.8139954,11.3479996-6.3310013
					C82.2066727,72.3355026,82.1546707,72.2574997,82.0996704,72.1805038z"/>
			</g>
			<g>
				<path fill="#3D7EC0" d="M54.0666733,62.9075012c0,2.7570038-3.8710022,4.9919968-8.6470032,4.9919968
					c-4.7749977,0-8.6459999-2.234993-8.6459999-4.9919968l0,0c0,4.7750015,3.8710022,8.6460037,8.6459999,8.6460037
					C50.1956711,71.5535049,54.0666733,67.6825027,54.0666733,62.9075012L54.0666733,62.9075012L54.0666733,62.9075012z"/>
				<path fill="#ABC711" d="M51.0446701,55.9665031H50.95467c0.0270004,0.0379982,0.0530014,0.0769997,0.0800018,0.1149979
					C51.0366707,56.0424995,51.0446701,56.0055008,51.0446701,55.9665031z"/>
				<path fill="#459DD7" d="M51.0346718,56.081501c-0.105999,1.7400017-2.5750008,3.132-5.6150017,3.132
					c-3.105999,0-5.6239967-1.4539986-5.6239967-3.2469978h-0.0900002c-1.9880028,2.2799988-2.932003,4.7639999-2.932003,6.9409981
					l0,0c0,2.7570038,3.8710022,4.9919968,8.6459999,4.9919968c4.776001,0,8.6470032-2.234993,8.6470032-4.9919968l0,0
					C54.0666733,61.1044998,52.7606735,58.5555,51.0346718,56.081501z"/>
				<polygon fill="#AFCA13" points="50.95467,55.9665031 39.7956734,55.9665031 50.95467,55.9665031 				"/>
				<path fill="#3FBBED" d="M50.95467,55.9665031L50.95467,55.9665031L50.95467,55.9665031
					c-2.8399963-4.0370026-6.7729988-7.8420029-7.9699974-7.8420029c-3.2590027,0,0.7609978,3.7480011-2.5660019,7.0750008
					c-0.2519989,0.2519989-0.4869995,0.5089989-0.7129974,0.7670021h0.0900002c0,1.7929993,2.5179977,3.2469978,5.6239967,3.2469978
					c3.0400009,0,5.5090027-1.3919983,5.6150017-3.132C51.0076714,56.0435028,50.9816704,56.0045013,50.95467,55.9665031z"/>
			</g>
			<g>
				<path fill="#3D7EC0" d="M120.6636734,102.6795044c0,3.9059982-5.4850006,7.072998-12.25,7.072998
					c-6.7659988,0-12.2509995-3.1669998-12.2509995-7.072998l0,0c0,6.7659988,5.4850006,12.25,12.2509995,12.25
					S120.6636734,109.4455032,120.6636734,102.6795044L120.6636734,102.6795044L120.6636734,102.6795044z"/>
				<path fill="#ABC711" d="M116.3826752,92.8455048h-0.1270065c0.038002,0.0539932,0.0750046,0.1079941,0.1119995,0.1629944
					C116.3716736,92.9534988,116.3826752,92.9005051,116.3826752,92.8455048z"/>
				<path fill="#459DD7" d="M116.3676682,93.0084991c-0.1499939,2.465004-3.6489944,4.4380035-7.9539948,4.4380035
					c-4.4020004,0-7.9690018-2.0599976-7.9690018-4.6009979h-0.1269989c-2.8170013,3.2299957-4.1549988,6.75-4.1549988,9.8339996
					l0,0c0,3.9059982,5.4850006,7.072998,12.2509995,7.072998c6.7649994,0,12.25-3.1669998,12.25-7.072998l0,0
					C120.6636734,100.1245041,118.8146744,96.5145035,116.3676682,93.0084991z"/>
				<polygon fill="#AFCA13" points="116.2556686,92.8455048 100.4446716,92.8455048 116.2556686,92.8455048 				"/>
				<path fill="#3FBBED" d="M116.2556686,92.8455048L116.2556686,92.8455048L116.2556686,92.8455048
					c-4.0249939-5.7200012-9.5970001-11.1120071-11.2929993-11.1120071c-4.6179962,0,1.0770035,5.3120041-3.635994,10.0250015
					c-0.3570023,0.3570023-0.6900024,0.7210007-1.0090027,1.0870056h0.1269989c0,2.5410004,3.5670013,4.6009979,7.9690018,4.6009979
					c4.3050003,0,7.8040009-1.9729996,7.9539948-4.4380035C116.3306732,92.9534988,116.2936707,92.899498,116.2556686,92.8455048z"
					/>
			</g>
		</g>
	</g>
</g>
</svg>
