<?xml version="1.0" encoding="utf-8"?>
<!-- Generator: Adobe Illustrator 18.0.0, SVG Export Plug-In . SVG Version: 6.00 Build 0)  -->
<!DOCTYPE svg PUBLIC "-//W3C//DTD SVG 1.1//EN" "http://www.w3.org/Graphics/SVG/1.1/DTD/svg11.dtd">
<svg version="1.1" id="Слой_1" xmlns="http://www.w3.org/2000/svg" xmlns:xlink="http://www.w3.org/1999/xlink" x="0px" y="0px"
	 viewBox="0 0 178 154" enable-background="new 0 0 178 154" xml:space="preserve">
<g>
	<g>
		<path fill="#949494" d="M147.2120056,69.064003c-38.9250031-22.4730034-79.0950089-22.4730034-118.0190048,0l0,0
			C9.7309999,80.3000031,0.0000004,91.7160034,0.0000004,103.1330032c0,11.4160004,9.7309999,22.8319931,29.1940002,34.0689926
			c38.9240036,22.4730072,79.0940018,22.4730072,118.0180054,0c19.4619904-11.2359924,29.1929932-22.6529922,29.1929932-34.0689926
			S166.673996,80.3000031,147.2120056,69.064003z"/>
	</g>
	<g>
		<path fill="#2E2F2F" d="M147.2120056,69.064003c-38.9250031-22.4730034-79.0950089-22.4730034-118.0190048,0l0,0
			C9.7309999,80.3000031,0.0000004,91.7170029,0.0000004,103.1330032c0.001,11.4160004,9.7320004,22.8319931,29.1940002,34.0689926
			c38.9240036,22.4730072,79.0940018,22.4730072,118.0180054,0c19.4619904-11.2359924,29.1929932-22.6529922,29.1929932-34.0689926
			S166.673996,80.3010025,147.2120056,69.064003z"/>
		
			<linearGradient id="SVGID_1_" gradientUnits="userSpaceOnUse" x1="-14.4196997" y1="114.5407715" x2="161.9853058" y2="114.5407715" gradientTransform="matrix(1 0 0 1 14.4196997 5.5535998)">
			<stop  offset="0" style="stop-color:#45A2DA"/>
			<stop  offset="0.1118452" style="stop-color:#459FD8"/>
			<stop  offset="0.352396" style="stop-color:#459DD7"/>
			<stop  offset="0.5617753" style="stop-color:#2A7EC1"/>
			<stop  offset="0.744144" style="stop-color:#1966B0"/>
			<stop  offset="1" style="stop-color:#1E4999"/>
		</linearGradient>
		<path fill="url(#SVGID_1_)" d="M147.2120056,120.2020035c-38.9240036,22.4719925-79.0940018,22.4719925-118.0180054-0.0010071
			C9.7320004,108.9649963,0.0010004,97.5490036,0.0000004,86.1320038v17.0009995
			c0.001,11.4160004,9.7320004,22.8319931,29.1940002,34.0689926c38.9240036,22.4730072,79.0940018,22.4730072,118.0180054,0
			c19.4619904-11.2359924,29.1929932-22.6529922,29.1929932-34.0689926v-17
			C176.4049988,97.5490036,166.673996,108.9649963,147.2120056,120.2020035z"/>
		<path fill="#407FC1" d="M147.2120056,52.0639992c-38.9250031-22.4729996-79.0950089-22.4729996-118.0190048,0l0,0
			C9.7309999,63.2999992,0.0000004,74.7160034,0.0000004,86.1320038c0.001,11.4169998,9.7320004,22.8329926,29.1940002,34.0689926
			c38.9240036,22.4729996,79.0940018,22.4729996,118.0180054,0.0010071
			c19.4619904-11.2370071,29.1929932-22.6529999,29.1929932-34.0690002
			C176.4049988,74.7160034,166.673996,63.2999992,147.2120056,52.0639992z"/>
	</g>
	<g>
		<defs>
			<path id="SVGID_2_" d="M147.2120056,52.0639992c-38.9250031-22.4729996-79.0950089-22.4729996-118.0190048,0l0,0
				C9.7309999,63.2999992,0.0000004,74.7160034,0.0000004,86.1320038c0.001,11.4169998,9.7320004,22.8329926,29.1940002,34.0689926
				c38.9240036,22.4729996,79.0940018,22.4729996,118.0180054,0.0010071
				c19.4619904-11.2370071,29.1929932-22.6529999,29.1929932-34.0690002
				C176.4049988,74.7160034,166.673996,63.2999992,147.2120056,52.0639992z"/>
		</defs>
		<clipPath id="SVGID_3_">
			<use xlink:href="#SVGID_2_"  overflow="visible"/>
		</clipPath>
	</g>
</g>
<g>
	<g>
		<defs>
			<path id="SVGID_4_" d="M146.2079926,52.4290009c-38.923996-22.4729996-79.0939941-22.4729996-118.0179901-0.0009995l0,0
				C8.7279997,63.6650009-1.003,75.0810013-1.003,86.4970016c0,11.4169998,9.7309999,22.8330002,29.1930008,34.0690002
				c38.923996,22.4729996,79.0939941,22.4729996,118.0179901,0.0009995
				c19.4620056-11.2369995,29.1930084-22.6529999,29.1930084-34.0690002
				C175.401001,75.0810013,165.6699982,63.6650009,146.2079926,52.4290009z"/>
		</defs>
		<clipPath id="SVGID_5_">
			<use xlink:href="#SVGID_4_"  overflow="visible"/>
		</clipPath>
		<g clip-path="url(#SVGID_5_)">
			<polygon opacity="0" fill="#FFFFFF" points="110.9540024,27.8890018 110.9540024,86.5550003 160.5610046,115.1949997 
				210.1710052,86.5550003 210.1710052,27.8900013 160.5599976,-0.7509982 			"/>
			<polygon opacity="0.030303" fill="#FDFDFD" points="108.7308502,27.8890018 108.7308502,86.5550003 158.3378754,115.1949997 
				207.9478455,86.5550003 207.9478455,27.8900013 158.336853,-0.7509982 			"/>
			<polygon opacity="0.0606061" fill="#FAFAFB" points="106.5076981,27.8890018 106.5076981,86.5550003 156.1147614,115.1949997 
				205.7247009,86.5550003 205.7247009,27.8900013 156.1136932,-0.7509982 			"/>
			<polygon opacity="0.0909091" fill="#F8F8F8" points="104.2845459,27.8890018 104.2845459,86.5550003 153.8916321,115.1949997 
				203.5015411,86.5550003 203.5015411,27.8900013 153.8905487,-0.7509982 			"/>
			<polygon opacity="0.1212121" fill="#F6F5F6" points="102.0613937,27.8890018 102.0613937,86.5550003 151.6685181,115.1949997 
				201.2783966,86.5550003 201.2783966,27.8900013 151.6673889,-0.7509982 			"/>
			<polygon opacity="0.1515152" fill="#F3F3F3" points="99.8382416,27.8890018 99.8382416,86.5550003 149.4453888,115.1949997 
				199.0552368,86.5550003 199.0552368,27.8900013 149.4442444,-0.7509982 			"/>
			<polygon opacity="0.1818182" fill="#F1F0F1" points="97.6150894,27.8890018 97.6150894,86.5550003 147.2222748,115.1949997 
				196.8320923,86.5550003 196.8320923,27.8900013 147.2210846,-0.7509982 			"/>
			<polygon opacity="0.2121212" fill="#EEEDEE" points="95.3919373,27.8890018 95.3919373,86.5550003 144.9991455,115.1949997 
				194.6089325,86.5550003 194.6089325,27.8900013 144.9979401,-0.7509982 			"/>
			<polygon opacity="0.2424242" fill="#ECEBEC" points="93.1687851,27.8890018 93.1687851,86.5550003 142.7760315,115.1949997 
				192.385788,86.5550003 192.385788,27.8900013 142.7747803,-0.7509982 			"/>
			<polygon opacity="0.2727273" fill="#E9E8E9" points="90.9456329,27.8890018 90.9456329,86.5550003 140.5529022,115.1949997 
				190.1626434,86.5550003 190.1626434,27.8900013 140.5516357,-0.7509982 			"/>
			<polygon opacity="0.3030303" fill="#E7E6E7" points="88.7224884,27.8890018 88.7224884,86.5550003 138.3297882,115.1949997 
				187.9394836,86.5550003 187.9394836,27.8900013 138.3284912,-0.7509982 			"/>
			<polygon opacity="0.3333333" fill="#E4E3E4" points="86.4993362,27.8890018 86.4993362,86.5550003 136.1066742,115.1949997 
				185.7163391,86.5550003 185.7163391,27.8900013 136.1053314,-0.7509982 			"/>
			<polygon opacity="0.3636364" fill="#E2E1E2" points="84.2761841,27.8890018 84.2761841,86.5550003 133.8835449,115.1949997 
				183.4931793,86.5550003 183.4931793,27.8900013 133.8821869,-0.7509982 			"/>
			<polygon opacity="0.3939394" fill="#E0DFDF" points="82.0530319,27.8890018 82.0530319,86.5550003 131.6604309,115.1949997 
				181.2700348,86.5550003 181.2700348,27.8900013 131.6590271,-0.7509982 			"/>
			<polygon opacity="0.4242424" fill="#DDDCDD" points="79.8298798,27.8890018 79.8298798,86.5550003 129.4373016,115.1949997 
				179.046875,86.5550003 179.046875,27.8900013 129.4358826,-0.7509982 			"/>
			<polygon opacity="0.4545455" fill="#DBDADA" points="77.6067276,27.8890018 77.6067276,86.5550003 127.21418,115.1949997 
				176.8237305,86.5550003 176.8237305,27.8900013 127.2127304,-0.7509982 			"/>
			<polygon opacity="0.4848485" fill="#D8D7D8" points="75.3835754,27.8890018 75.3835754,86.5550003 124.9910583,115.1949997 
				174.6005707,86.5550003 174.6005707,27.8900013 124.9895782,-0.7509982 			"/>
			<polygon opacity="0.5151515" fill="#D6D5D5" points="73.1604233,27.8890018 73.1604233,86.5550003 122.7679367,115.1949997 
				172.3774261,86.5550003 172.3774261,27.8900013 122.7664261,-0.7509982 			"/>
			<polygon opacity="0.5454546" fill="#D4D3D3" points="70.9372711,27.8890018 70.9372711,86.5550003 120.5448151,115.1949997 
				170.1542664,86.5550003 170.1542664,27.8900013 120.5432739,-0.7509982 			"/>
			<polygon opacity="0.5757576" fill="#D1D0D1" points="68.714119,27.8890018 68.714119,86.5550003 118.3216934,115.1949997 
				167.9311218,86.5550003 167.9311218,27.8900013 118.3201218,-0.7509982 			"/>
			<polygon opacity="0.6060606" fill="#CFCECE" points="66.4909668,27.8890018 66.4909668,86.5550003 116.0985794,115.1949997 
				165.7079773,86.5550003 165.7079773,27.8900013 116.0969696,-0.7509982 			"/>
			<polygon opacity="0.6363636" fill="#CDCBCC" points="64.2678146,27.8890018 64.2678146,86.5550003 113.8754578,115.1949997 
				163.4848175,86.5550003 163.4848175,27.8900013 113.8738174,-0.7509982 			"/>
			<polygon opacity="0.6666667" fill="#CAC9CA" points="62.0446663,27.8890018 62.0446663,86.5550003 111.6523361,115.1949997 
				161.261673,86.5550003 161.261673,27.8900013 111.6506653,-0.7509982 			"/>
			<polygon opacity="0.6969697" fill="#C8C7C7" points="59.8215141,27.8890018 59.8215141,86.5550003 109.4292145,115.1949997 
				159.0385132,86.5550003 159.0385132,27.8900013 109.4275131,-0.7509982 			"/>
			<polygon opacity="0.7272727" fill="#C6C5C5" points="57.598362,27.8890018 57.598362,86.5550003 107.2060928,115.1949997 
				156.8153687,86.5550003 156.8153687,27.8900013 107.204361,-0.7509982 			"/>
			<polygon opacity="0.7575758" fill="#C4C2C3" points="55.3752136,27.8890018 55.3752136,86.5550003 104.9829712,115.1949997 
				154.5922089,86.5550003 154.5922089,27.8900013 104.9812088,-0.7509982 			"/>
			<polygon opacity="0.7878788" fill="#C1C0C0" points="53.1520615,27.8890018 53.1520615,86.5550003 102.7598495,115.1949997 
				152.3690643,86.5550003 152.3690643,27.8900013 102.7580643,-0.7509982 			"/>
			<polygon opacity="0.8181818" fill="#BFBEBE" points="50.9289093,27.8890018 50.9289093,86.5550003 100.5367279,115.1949997 
				150.1459045,86.5550003 150.1459045,27.8900013 100.5349121,-0.7509982 			"/>
			<polygon opacity="0.8484849" fill="#BCBCBC" points="48.7057571,27.8890018 48.7057571,86.5550003 98.3136063,115.1949997 
				147.92276,86.5550003 147.92276,27.8900013 98.3117599,-0.7509982 			"/>
			<polygon opacity="0.8787879" fill="#BAB9B9" points="46.482605,27.8890018 46.482605,86.5550003 96.0904846,115.1949997 
				145.6996002,86.5550003 145.6996002,27.8900013 96.0886078,-0.7509982 			"/>
			<polygon opacity="0.9090909" fill="#B8B7B7" points="44.2594528,27.8890018 44.2594528,86.5550003 93.867363,115.1949997 
				143.4764557,86.5550003 143.4764557,27.8900013 93.8654556,-0.7509982 			"/>
			<polygon opacity="0.9393939" fill="#B5B5B5" points="42.0363045,27.8890018 42.0363045,86.5550003 91.6442413,115.1949997 
				141.2532959,86.5550003 141.2532959,27.8900013 91.6423035,-0.7509982 			"/>
			<polygon opacity="0.969697" fill="#B3B2B2" points="39.8131523,27.8890018 39.8131523,86.5550003 89.4211197,115.1949997 
				139.0301514,86.5550003 139.0301514,27.8900013 89.4191513,-0.7509982 			"/>
			<polygon fill="#B0B0B0" points="37.5900002,27.8890018 37.5900002,86.5550003 87.197998,115.1949997 136.8070068,86.5550003 
				136.8070068,27.8900013 87.1959991,-0.7509982 			"/>
		</g>
	</g>
	<g>
		<g>
			<polygon fill="#EA581E" points="135.0955658,29.3959599 135.0955658,87.0490265 86.3413086,115.1949997 86.3413086,57.5419388 
							"/>
			<polygon fill="#ABC711" points="86.3413086,57.5419388 86.3413086,115.1949997 37.5900002,87.0490265 37.5900002,29.3949776 			
				"/>
			<polygon fill="#FFDB34" points="37.5900002,29.3949776 86.3413086,1.2490019 135.0955658,29.3959599 86.3413086,57.5419388 			
				"/>
		</g>
	</g>
	<path fill="#19381D" d="M76.4489975,96.0589981l-5.1619949-2.9799957
		c-0.5770035-0.3330002-1.0540009-0.7639999-1.4290009-1.2919998c-0.3720016-0.5250015-0.6320038-1.0710068-0.776001-1.6430054
		l-1.6959991-6.7539978l-10.9090004-6.2979965l-1.6949997,4.7949982c-0.132,0.3499985-0.3880005,0.586998-0.7670021,0.7089996
		c-0.3810005,0.1210022-0.848999,0.0209961-1.401001-0.2980042l-5.1989975-3.0019989L58.526001,52.5740013L65.3379974,56.507
		L76.4489975,96.0589981z M58.0130005,72.7480011l7.8379974,4.5250015l-2.6389961-10.598999
		C63.0390015,66,62.8409996,65.2040024,62.6100006,64.2900009c-0.2280006-0.9090004-0.4550018-1.8880005-0.6800003-2.9280014
		c-0.2080002,0.8050003-0.4259987,1.538002-0.6469994,2.1990013c-0.2250023,0.6590004-0.4360008,1.2179985-0.632,1.682003
		L58.0130005,72.7480011z"/>
	<path fill="#EE741C" d="M62.394001,29.7550011l28.6970024-16.5680008l10.5559998,6.0940008
		c1.9839935,1.1459999,3.4850006,2.2269993,4.5099945,3.2409992c1.026001,1.0179996,1.6420059,1.9729996,1.8500061,2.8670006
		c0.2149963,0.8939991,0.034996,1.7339993-0.5190048,2.5170002c-0.5579987,0.7849998-1.427002,1.5199986-2.6100006,2.2029991
		c-0.6439972,0.3719997-1.3559952,0.6749992-2.1380005,0.9160004c-0.7819977,0.2369995-1.6309967,0.3939991-2.5509949,0.4699993
		c-0.9169998,0.0769997-1.8980026,0.059-2.9430008-0.052c-1.0419998-0.1089993-2.1580048-0.3239994-3.3370056-0.6420002
		c1.4290009,1.3579998,2.0830002,2.5949993,1.9580002,3.7139988c-0.125,1.1160011-0.9929962,2.1430016-2.6089935,3.0760002
		c-1.2210007,0.7050018-2.5930023,1.2240028-4.1160049,1.5590019c-1.522995,0.3309975-3.1319962,0.4599991-4.8279953,0.3849983
		c-1.6920013-0.0739975-3.4300003-0.3740005-5.2060013-0.8929977c-1.7789993-0.5200005-3.5289993-1.2750015-5.2509995-2.269001
		L62.394001,29.7550011z M85.6760025,24.0010014l3.4659958,2.0009995c0.7369995,0.4250011,1.4520035,0.7790012,2.1480026,1.0580006
		c0.6920013,0.2819996,1.3809967,0.4650002,2.0579987,0.552c0.6760025,0.0869999,1.348999,0.0609989,2.0289993-0.0799999
		c0.6730042-0.1400013,1.3590012-0.4110012,2.0550003-0.8120003c0.6819992-0.3950005,1.163002-0.7719994,1.4489975-1.1329994
		c0.2820053-0.3590012,0.3840027-0.7220001,0.3070068-1.085001c-0.0800018-0.3640003-0.3330002-0.7360001-0.7590027-1.1189995
		c-0.427002-0.3829994-1.0169983-0.7910004-1.7669983-1.2240009l-3.8980026-2.25L85.6760025,24.0010014z M81.223999,26.5720005
		l-7.1490021,4.1270008l4.6870041,2.7060013c0.8809967,0.5089989,1.7080002,0.8599968,2.4909973,1.0529976
		c0.7820053,0.1920013,1.5060043,0.2770004,2.1800003,0.2550011c0.6660004-0.0219994,1.2819977-0.1290016,1.8460007-0.3180008
		s1.0800018-0.4169998,1.5390015-0.6809998c0.5250015-0.3040009,0.9260025-0.6160011,1.2109985-0.9399986
		c0.2829971-0.3220024,0.3980026-0.663002,0.3530045-1.0220013c-0.0480042-0.3610001-0.2660065-0.7460003-0.6600037-1.1550007
		c-0.3949966-0.4089985-1.0100021-0.8569984-1.8499985-1.3419991L81.223999,26.5720005z"/>
	<path fill="#6A140F" d="M120.5100021,75.1940002c0.1569977-0.090004,0.3170013-0.1500015,0.4749985-0.1740036
		c0.1569977-0.0199966,0.3069992,0.0110016,0.4519958,0.0950012l2.6380005,1.6819992
		c-1.1539993,2.4100037-2.6029968,4.5600052-4.3409958,6.4520035c-1.7399979,1.8899994-3.7980042,3.5219955-6.177002,4.8949966
		c-2.1800003,1.2590027-4.1319962,1.9599991-5.8570023,2.0970001c-1.7279968,0.1430054-3.1929932-0.1959991-4.3949966-1.0079956
		c-1.1989975-0.8180008-2.1220016-2.0730057-2.7659988-3.7710037c-0.6409988-1.6989975-0.965004-3.762001-0.965004-6.1869965
		c0-2.4720001,0.3690033-4.9540024,1.1030045-7.4469986c0.7369995-2.4950027,1.7630005-4.875,3.0839996-7.137001
		c1.3170013-2.2639999,2.8969955-4.3420029,4.7340012-6.2350006c1.8399963-1.8959999,3.8699951-3.4850006,6.0879974-4.7660027
		c1.0770035-0.6219978,2.0899963-1.0959969,3.0419998-1.4269981s1.8430023-0.5419998,2.6699982-0.6310005
		c0.8270035-0.0929985,1.5870056-0.0690002,2.2830048,0.0699997c0.6949997,0.1350021,1.3139954,0.3740005,1.8529968,0.7150002
		l-2.2480011,4.776001c-0.1439972,0.2949982-0.3139954,0.5849991-0.5089951,0.8759995
		c-0.1990051,0.2890015-0.4750061,0.5330009-0.8270035,0.7369995c-0.237999,0.1360016-0.461998,0.2070007-0.6699982,0.2050018
		c-0.2120056,0-0.4329987-0.0200005-0.6699982-0.057003c-0.2370071-0.0369987-0.4970016-0.0759964-0.779007-0.1169968
		c-0.2819977-0.0440025-0.6159973-0.0410004-1.0039978,0.0089989c-0.387001,0.0499992-0.8389969,0.1629982-1.3590012,0.3409996
		c-0.5189972,0.1769981-1.125,0.4679985-1.8209991,0.8699989c-1.2080002,0.6970024-2.310997,1.5820007-3.310997,2.6520004
		c-0.9970016,1.0680008-1.8530045,2.2649994-2.5680008,3.5960007c-0.7180023,1.3320007-1.276001,2.7649994-1.6760025,4.298996
		c-0.401001,1.538002-0.5999985,3.1150055-0.5999985,4.7360001c0,1.7000046,0.1989975,3.0910034,0.5999985,4.1809998
		c0.4000015,1.0870056,0.9449997,1.8830032,1.6350021,2.3880005c0.689003,0.5050049,1.4929962,0.7260056,2.413002,0.6640015
		c0.9199982-0.060997,1.9049988-0.3959961,2.9559937-1.0029984c0.6030045-0.3479996,1.154007-0.6989975,1.654007-1.0550003
		c0.496994-0.3570023,0.961998-0.7399979,1.3880005-1.1559982c0.4269943-0.413002,0.8339996-0.862999,1.2220001-1.3530045
		c0.3869934-0.4869995,0.7749939-1.0399933,1.1699982-1.6639938c0.1569977-0.2430038,0.3300018-0.4680023,0.5130005-0.6700058
		C120.1220016,75.4660034,120.3150024,75.3069992,120.5100021,75.1940002z"/>
</g>
</svg>
