<?xml version="1.0" encoding="utf-8"?>
<!-- Generator: Adobe Illustrator 19.1.0, SVG Export Plug-In . SVG Version: 6.00 Build 0)  -->
<svg version="1.1" id="Слой_1" xmlns="http://www.w3.org/2000/svg" xmlns:xlink="http://www.w3.org/1999/xlink" x="0px" y="0px"
	 viewBox="0 0 841.9 595.3" style="enable-background:new 0 0 841.9 595.3;" xml:space="preserve">
<style type="text/css">
	.st0{fill:url(#SVGID_1_);}
	.st1{fill:#841212;}
	.st2{fill:url(#SVGID_2_);}
	.st3{fill:url(#SVGID_3_);}
	.st4{fill:url(#SVGID_4_);}
	.st5{fill:url(#SVGID_5_);}
	.st6{fill:url(#SVGID_6_);}
	.st7{fill:url(#SVGID_7_);}
	.st8{fill:url(#SVGID_8_);}
	.st9{fill:url(#SVGID_9_);}
	.st10{fill:url(#SVGID_10_);}
	.st11{fill:url(#SVGID_11_);}
	.st12{fill:url(#SVGID_12_);}
	.st13{fill:url(#SVGID_13_);}
	.st14{fill:url(#SVGID_14_);}
	.st15{fill:url(#SVGID_15_);}
	.st16{fill:url(#SVGID_16_);}
	.st17{fill:#1D71B8;}
	.st18{fill:url(#SVGID_17_);}
	.st19{fill:url(#SVGID_18_);}
	.st20{fill:url(#SVGID_19_);}
	.st21{fill:url(#SVGID_20_);}
	.st22{fill:url(#SVGID_21_);}
	.st23{fill:#FFFFFF;}
	.st24{fill:url(#SVGID_22_);}
	.st25{fill:url(#SVGID_23_);}
	.st26{fill:url(#SVGID_24_);}
	.st27{fill:url(#SVGID_25_);}
	.st28{fill:url(#SVGID_26_);}
</style>
<linearGradient id="SVGID_1_" gradientUnits="userSpaceOnUse" x1="230.6401" y1="210.277" x2="230.6401" y2="91.3858">
	<stop  offset="0" style="stop-color:#1D71B8"/>
	<stop  offset="1" style="stop-color:#36A9E1"/>
</linearGradient>
<path class="st0" d="M251.6,210.3c0.9-0.9,2-1.7,2.8-2.7c4.6-5.5,6.7-12,7.1-19.1c0.3-6.4-1.1-12.5-3.7-18.2
	c-0.4-0.9-0.4-1.6,0.1-2.5c2.3-3.6,4.3-7.4,5.4-11.6c1.8-6.6,0.8-12.8-2.4-18.8c-2-3.8-4.6-7.1-7.5-10.2c-0.1-0.1-0.3-0.2-0.7-0.5
	c4.7,11,3.3,21.3-2.4,31.3c-1.9-2.1-3.7-4.1-5.4-6.2c-5.3-6.2-9.7-12.8-12-20.7c-3-10.3-1.8-19.8,5-28.4c0.3-0.4,0.7-0.8,1-1.2
	c0,0,0-0.1,0-0.2c-7.2,4.2-13.9,8.8-17,17c-1.9,4.8-1.7,9.7-0.5,14.6c1.1,4.4,2.4,8.8,3.6,13.2c0.6,2.4,1,5,0.4,7.5
	c-0.4,1.8-1.3,3.4-2.7,4.7c-4.7-9.1-12.2-15.9-17.9-16.3c1,2.6,2,5.1,2.8,7.7c1.9,5.8,3.3,11.8,3,18c-0.2,4.5-1.5,8.6-4.3,12.3
	c-2,2.6-4,5.2-5.7,8c-3.2,5.1-4,10.5-2.2,16.3c0.1,0.2,0.1,0.4,0.2,0.7c-20.6-12.3-34.9-39.5-26.7-68.7c7.9-28.4,35.3-47.9,66-44.4
	c30.4,3.5,53.6,28.5,54.6,58.6C293.2,181.6,272,203.7,251.6,210.3z"/>
<path class="st1" d="M49.2,401.8c0,38.1,30.3,69.1,68,70.2c0.8-0.8,1.1-1.7,1.1-2.8c0-2-1.2-4.3-3.2-6.1
	c-20-18.7-11.8-27.1-9.7-30.9c0,6.4,6.3,9.1,10.4,10.3c-11-15.6-0.2-30.8,3.6-33.9c-2.2,9-0.5,16.6,12.3,25.8
	c12.4,8.9,12.2,17.7,7.8,25.5c-2.2,4-5.5,7.8-8.8,11.3c33.5-5.4,59-34.4,59-69.4c0-38.8-31.5-70.3-70.3-70.3
	C80.7,331.5,49.2,363,49.2,401.8z M58,401.8c0-34,27.5-61.5,61.5-61.5c34,0,61.5,27.5,61.5,61.5c0,22.2-11.7,41.6-29.3,52.4
	c0.6-1.6,1.2-4.1,1.2-7.1c-0.1-9.2-6.8-14.9-9.9-19.8c-3.8-6-5.8-16.6,2.7-36.6c-6.5,1.1-15.3,8.8-18,16.6
	c-13-12.1,21.6-36.4-16.9-57.3c7,7,16.9,26.3-7.6,53c-1.2,1.3-2.3,2.6-3.3,3.9c-8.2-13.5-5.4-25.7-2.3-31.7
	c-18.2,18.8-11.3,31.8-4.7,42.6c-9.9,20.4-0.9,37.1,6.4,42C75.3,451.6,58,428.7,58,401.8z"/>
<g>
	<linearGradient id="SVGID_2_" gradientUnits="userSpaceOnUse" x1="451.2988" y1="433.8491" x2="451.2988" y2="382.3344">
		<stop  offset="0" style="stop-color:#841212"/>
		<stop  offset="1" style="stop-color:#E30613"/>
	</linearGradient>
	<path class="st2" d="M461.1,433.8l-16,0v-36h-3.6l3.6-15.4h16v35.5"/>
	<linearGradient id="SVGID_3_" gradientUnits="userSpaceOnUse" x1="378.5993" y1="433.8026" x2="378.5993" y2="380.3333">
		<stop  offset="0" style="stop-color:#841212"/>
		<stop  offset="1" style="stop-color:#E30613"/>
	</linearGradient>
	<path class="st3" d="M394.4,398.3h-16.2v2.9h18.8l-3.4,13.3h-15.4v3.1h18.5l-3.8,16.1h-30.7v-35.9h-3.6l3.6-15.6h21.3l0.6-2h14.3
		L394.4,398.3z"/>
	<linearGradient id="SVGID_4_" gradientUnits="userSpaceOnUse" x1="341.0698" y1="433.8119" x2="341.0698" y2="380.3333">
		<stop  offset="0" style="stop-color:#841212"/>
		<stop  offset="1" style="stop-color:#E30613"/>
	</linearGradient>
	<path class="st4" d="M340.8,433.8l-16.1,0v-35.9h-3.6l3.6-15.6H346l0.6-2H361l-4.1,18h-16.2v2.9 M340.7,414.6v3.1"/>
	<linearGradient id="SVGID_5_" gradientUnits="userSpaceOnUse" x1="419.667" y1="433.8026" x2="419.667" y2="382.3344">
		<stop  offset="0" style="stop-color:#841212"/>
		<stop  offset="1" style="stop-color:#E30613"/>
	</linearGradient>
	<path class="st5" d="M434.3,417.7c-2.1,1.8-3.9,3-5.6,3.8c-1.7,0.7-3.6,1.1-5.6,1.1h-4.9v11.2h-16v-36.2h-3.6l3.6-15.3h19
		c0.7,0,1.3,0,1.7,0.1c0.4,0,1,0.1,1.9,0.3c8.7,1.6,14,6.7,15.7,15.3c0.2,0.8,0.3,1.5,0.4,2.2c0,0.7,0.1,1.5,0.1,2.5
		c0,3.3-0.5,6.1-1.6,8.6C438.1,413.7,436.5,415.9,434.3,417.7z M421.7,398.1h-3.6v9.4h3.1c0.8,0,1.5-0.3,2.3-1
		c0.7-0.7,1.2-1.5,1.3-2.3c0.1-0.8,0.2-1.4,0.2-1.7c0-1.4-0.3-2.5-1-3.3C423.3,398.5,422.6,398.1,421.7,398.1z"/>
	<linearGradient id="SVGID_6_" gradientUnits="userSpaceOnUse" x1="466.3796" y1="434.223" x2="466.3796" y2="393.9756">
		<stop  offset="0" style="stop-color:#841212"/>
		<stop  offset="1" style="stop-color:#E30613"/>
	</linearGradient>
	<path class="st6" d="M447,394h19c0.7,0,1.3,0,1.7,0.1c0.4,0,1,0.1,1.9,0.3c8.7,1.6,14,6.7,15.7,15.3c0.2,0.8,0.3,1.5,0.4,2.2
		c0,0.7,0.1,1.5,0.1,2.5c0,3.3-0.5,6.1-1.6,8.6c-1.1,2.4-2.7,4.6-4.9,6.4c-2.1,1.8-3.9,3-5.6,3.8c-1.7,0.7-3.6,1.1-5.6,1.1H463l0,0
		l-16,0l0-24.9 M466.6,409.7H463v9.4h3.1c0.8,0,1.5-0.3,2.3-1c0.7-0.7,1.2-1.5,1.3-2.3c0.1-0.8,0.2-1.4,0.2-1.7c0-1.4-0.3-2.5-1-3.3
		C468.3,410.1,467.5,409.7,466.6,409.7z"/>
	<linearGradient id="SVGID_7_" gradientUnits="userSpaceOnUse" x1="297.4762" y1="433.8026" x2="297.4762" y2="382.3344">
		<stop  offset="0" style="stop-color:#841212"/>
		<stop  offset="1" style="stop-color:#E30613"/>
	</linearGradient>
	<path class="st7" d="M306.2,433.8l-1.4-7.1h-14.5l-2.1,7.1h-16.5l10-37.6l-3.6,0l5-13.9h25.5l14.5,51.5H306.2z M297.5,397.8
		l-3.9,15.2h8L297.5,397.8z"/>
	<linearGradient id="SVGID_8_" gradientUnits="userSpaceOnUse" x1="244.7577" y1="433.7033" x2="244.7577" y2="382.2352">
		<stop  offset="0" style="stop-color:#841212"/>
		<stop  offset="1" style="stop-color:#E30613"/>
	</linearGradient>
	<path class="st8" d="M252.1,426.6l1.4,7.1h17L256,382.2h-25.5l-5,13.9l3.6,0l-10,37.6h16.5l2.1-7.1l0.7-3.2
		c1.8-7.5,1.1-4.5,2.6-10.4l0,0l3.9-15.2l4.1,15.2"/>
</g>
<g>
	<linearGradient id="SVGID_9_" gradientUnits="userSpaceOnUse" x1="547.0468" y1="433.8026" x2="547.0468" y2="382.3344">
		<stop  offset="0" style="stop-color:#841212"/>
		<stop  offset="1" style="stop-color:#E30613"/>
	</linearGradient>
	<path class="st9" d="M554.6,433.8v-17.9h-11.4v17.9h-16v-36.3h-3.6l3.6-15.2h16v17.2h11.4v-17.2h15.9v51.5H554.6z"/>
	<linearGradient id="SVGID_10_" gradientUnits="userSpaceOnUse" x1="597.3003" y1="433.8026" x2="597.3003" y2="382.3344">
		<stop  offset="0" style="stop-color:#841212"/>
		<stop  offset="1" style="stop-color:#E30613"/>
	</linearGradient>
	<path class="st10" d="M606.1,433.8l-1.4-7.1h-14.5l-2.1,7.1h-16.5l10-37.6l-3.6,0l5-13.9h25.5l14.5,51.5H606.1z M597.3,397.8
		l-3.9,15.2h8L597.3,397.8z"/>
	<linearGradient id="SVGID_11_" gradientUnits="userSpaceOnUse" x1="643.122" y1="433.8026" x2="643.122" y2="382.3344">
		<stop  offset="0" style="stop-color:#841212"/>
		<stop  offset="1" style="stop-color:#E30613"/>
	</linearGradient>
	<path class="st11" d="M658.7,431.4c-1.2,0.8-2.5,1.4-3.9,1.8c-1.3,0.4-2.8,0.6-4.5,0.6h-25.8v-36.5H621l3.6-15H651
		c2.6,0,4.9,0.7,7.1,2c3.9,2.5,5.9,6,5.9,10.4c0,0.4,0,0.6,0,0.8c0,0.3,0,0.8-0.1,1.4c-0.6,4.2-2.7,7.4-6.3,9.6l1.3,0.9
		c2.5,1.9,4.2,3.8,5.1,5.6c0.9,1.8,1.4,4.2,1.4,7C665.2,424.8,663.1,428.6,658.7,431.4z M642.9,396.2H640v6h3.5c0.5,0,1,0,1.5-0.1
		s0.9-0.2,1.3-0.3c1.3-0.5,1.9-1.4,1.9-2.6c0-0.6-0.2-1.1-0.6-1.6c-0.4-0.5-1-0.9-1.6-1C645.5,396.3,644.4,396.2,642.9,396.2z
		 M642.5,412.5H640v6.9h2.8h2.3c0.9,0,1.6-0.4,2.1-1.1c0.5-0.7,0.8-1.6,0.7-2.5C647.9,413.6,646.1,412.5,642.5,412.5z"/>
	<linearGradient id="SVGID_12_" gradientUnits="userSpaceOnUse" x1="718.8943" y1="433.8026" x2="718.8943" y2="382.3344">
		<stop  offset="0" style="stop-color:#841212"/>
		<stop  offset="1" style="stop-color:#E30613"/>
	</linearGradient>
	<path class="st12" d="M712.7,433.8v-36.2h-3.6l3.7-15.2h15.8v51.5H712.7z"/>
	<linearGradient id="SVGID_13_" gradientUnits="userSpaceOnUse" x1="754.6704" y1="433.8026" x2="754.6704" y2="382.3344">
		<stop  offset="0" style="stop-color:#841212"/>
		<stop  offset="1" style="stop-color:#E30613"/>
	</linearGradient>
	<path class="st13" d="M760.2,433.8l-9.9-18.1v18.1h-16v-36.4h-3.6l3.6-15.1h16v17.3l9.9-17.3h17.2l-13.7,24.5l14.8,26.9H760.2z"/>
	<linearGradient id="SVGID_14_" gradientUnits="userSpaceOnUse" x1="801.2414" y1="433.8026" x2="801.2414" y2="382.3344">
		<stop  offset="0" style="stop-color:#841212"/>
		<stop  offset="1" style="stop-color:#E30613"/>
	</linearGradient>
	<path class="st14" d="M810,433.8l-1.4-7.1h-14.5l-2.1,7.1h-16.5l10-37.6l-3.6,0l5-13.9h25.5l14.5,51.5H810z M801.3,397.8l-3.9,15.2
		h8L801.3,397.8z"/>
	<linearGradient id="SVGID_15_" gradientUnits="userSpaceOnUse" x1="675.4628" y1="433.8491" x2="675.4628" y2="382.3344">
		<stop  offset="0" style="stop-color:#841212"/>
		<stop  offset="1" style="stop-color:#E30613"/>
	</linearGradient>
	<path class="st15" d="M685.2,433.8l-16,0v-36h-3.6l3.6-15.4h16v35.5"/>
	<linearGradient id="SVGID_16_" gradientUnits="userSpaceOnUse" x1="688.6571" y1="433.6273" x2="688.6571" y2="393.3799">
		<stop  offset="0" style="stop-color:#841212"/>
		<stop  offset="1" style="stop-color:#E30613"/>
	</linearGradient>
	<path class="st16" d="M669.3,393.4h19c0.7,0,1.3,0,1.7,0.1c0.4,0,1,0.1,1.9,0.3c8.7,1.6,14,6.7,15.7,15.3c0.2,0.8,0.3,1.5,0.4,2.2
		c0,0.7,0.1,1.5,0.1,2.5c0,3.3-0.5,6.1-1.6,8.6c-1.1,2.4-2.7,4.6-4.9,6.4c-2.1,1.8-3.9,3-5.6,3.8c-1.7,0.7-3.6,1.1-5.6,1.1h-4.9l0,0
		l-16,0l0-24.9 M688.9,409.1h-3.6v9.4h3.1c0.8,0,1.5-0.3,2.3-1c0.7-0.7,1.2-1.5,1.3-2.3c0.1-0.8,0.2-1.4,0.2-1.7
		c0-1.4-0.3-2.5-1-3.3C690.6,409.5,689.8,409.1,688.9,409.1z"/>
</g>
<g>
	<path class="st17" d="M619,147.4l-16,0v-36h-3.6l3.6-15.4h16v35.5"/>
	<path class="st17" d="M552.3,111.9h-16.2v2.9H555l-3.4,13.3h-15.4v3.1h18.5l-3.8,16.1h-30.7v-35.9h-3.6l3.6-15.6h21.3l0.6-2h14.3
		L552.3,111.9z"/>
	<path class="st17" d="M498.7,147.4l-16.1,0v-35.9H479l3.6-15.6h21.3l0.6-2h14.3l-4.1,18h-16.2v2.9 M498.6,128.2v3.1"/>
	<path class="st17" d="M592.2,131.3c-2.1,1.8-3.9,3-5.6,3.8c-1.7,0.7-3.6,1.1-5.6,1.1H576v11.2h-16v-36.2h-3.6l3.6-15.3h19
		c0.7,0,1.3,0,1.7,0.1c0.4,0,1,0.1,1.9,0.3c8.7,1.6,14,6.7,15.7,15.3c0.2,0.8,0.3,1.5,0.4,2.2c0,0.7,0.1,1.5,0.1,2.5
		c0,3.3-0.5,6.1-1.6,8.6C596,127.3,594.4,129.4,592.2,131.3z M579.5,111.6H576v9.4h3.1c0.8,0,1.5-0.3,2.3-1c0.7-0.7,1.2-1.5,1.3-2.3
		c0.1-0.8,0.2-1.4,0.2-1.7c0-1.4-0.3-2.5-1-3.3C581.2,112,580.5,111.6,579.5,111.6z"/>
	<path class="st17" d="M604.9,107.6h19c0.7,0,1.3,0,1.7,0.1c0.4,0,1,0.1,1.9,0.3c8.7,1.6,14,6.7,15.7,15.3c0.2,0.8,0.3,1.5,0.4,2.2
		c0,0.7,0.1,1.5,0.1,2.5c0,3.3-0.5,6.1-1.6,8.6c-1.1,2.4-2.7,4.6-4.9,6.4c-2.1,1.8-3.9,3-5.6,3.8c-1.7,0.7-3.6,1.1-5.6,1.1h-4.9l0,0
		l-16,0l0-24.9 M624.5,123.3h-3.6v9.4h3.1c0.8,0,1.5-0.3,2.3-1c0.7-0.7,1.2-1.5,1.3-2.3c0.1-0.8,0.2-1.4,0.2-1.7
		c0-1.4-0.3-2.5-1-3.3C626.2,123.7,625.4,123.3,624.5,123.3z"/>
	<path class="st17" d="M464.1,147.4l-1.4-7.1h-14.5l-2.1,7.1h-16.5l10-37.6l-3.6,0l5-13.9h25.5l14.5,51.5H464.1z M455.4,111.4
		l-3.9,15.2h8L455.4,111.4z"/>
	<path class="st17" d="M410,140.1l1.4,7.1h17l-14.5-51.5h-25.5l-5,13.9l3.6,0l-10,37.6h16.5l2.1-7.1l0.7-3.2
		c1.8-7.5,1.1-4.5,2.6-10.4l0,0l3.9-15.2l4.1,15.2"/>
</g>
<g>
	<path class="st17" d="M371.2,206.4v-17.9h-11.4v17.9h-16v-36.3h-3.6l3.6-15.2h16v17.2h11.4v-17.2h15.9v51.5H371.2z"/>
	<path class="st17" d="M422.7,206.4l-1.4-7.1h-14.5l-2.1,7.1h-16.5l10-37.6l-3.6,0l5-13.9h25.5l14.5,51.5H422.7z M414,170.4
		l-3.9,15.2h8L414,170.4z"/>
	<path class="st17" d="M475.4,204c-1.2,0.8-2.5,1.4-3.9,1.8c-1.3,0.4-2.8,0.6-4.5,0.6h-25.8v-36.5h-3.6l3.6-15h26.4
		c2.6,0,4.9,0.7,7.1,2c3.9,2.5,5.9,6,5.9,10.4c0,0.4,0,0.6,0,0.8c0,0.3,0,0.8-0.1,1.4c-0.6,4.2-2.7,7.4-6.3,9.6l1.3,0.9
		c2.5,1.9,4.2,3.8,5.1,5.6c0.9,1.8,1.4,4.2,1.4,7C481.9,197.4,479.7,201.2,475.4,204z M459.6,168.8h-2.9v6h3.5c0.5,0,1,0,1.5-0.1
		c0.5-0.1,0.9-0.2,1.3-0.3c1.3-0.5,1.9-1.4,1.9-2.6c0-0.6-0.2-1.1-0.6-1.6c-0.4-0.5-1-0.9-1.6-1C462.1,168.9,461,168.8,459.6,168.8z
		 M459.1,185.1h-2.5v6.9h2.8h2.3c0.9,0,1.6-0.4,2.1-1.1c0.5-0.7,0.8-1.6,0.7-2.5C464.5,186.2,462.7,185.1,459.1,185.1z"/>
	<path class="st17" d="M529.3,206.4v-36.2h-3.6l3.7-15.2h15.8v51.5H529.3z"/>
	<path class="st17" d="M576.9,206.4l-9.9-18.1v18.1h-16V170h-3.6l3.6-15.1h16v17.3l9.9-17.3h17.2l-13.7,24.5l14.8,26.9H576.9z"/>
	<path class="st17" d="M626.6,206.4l-1.4-7.1h-14.5l-2.1,7.1h-16.5l10-37.6l-3.6,0l5-13.9h25.5l14.5,51.5H626.6z M617.9,170.4
		l-3.9,15.2h8L617.9,170.4z"/>
	<path class="st17" d="M501.9,206.4l-16,0v-36h-3.6l3.6-15.4h16v35.5"/>
	<path class="st17" d="M485.9,166h19c0.7,0,1.3,0,1.7,0.1c0.4,0,1,0.1,1.9,0.3c8.7,1.6,14,6.7,15.7,15.3c0.2,0.8,0.3,1.5,0.4,2.2
		c0,0.7,0.1,1.5,0.1,2.5c0,3.3-0.5,6.1-1.6,8.6c-1.1,2.4-2.7,4.6-4.9,6.4c-2.1,1.8-3.9,3-5.6,3.8c-1.7,0.7-3.6,1.1-5.6,1.1h-4.9l0,0
		l-16,0l0-24.9 M505.5,181.7h-3.6v9.4h3.1c0.8,0,1.5-0.3,2.3-1c0.7-0.7,1.2-1.5,1.3-2.3c0.1-0.8,0.2-1.4,0.2-1.7
		c0-1.4-0.3-2.5-1-3.3C507.2,182.1,506.4,181.7,505.5,181.7z"/>
</g>
<g>
	<g>
		
			<radialGradient id="SVGID_17_" cx="-246.5541" cy="239.9035" r="142.3828" gradientTransform="matrix(0.9887 0 0 0.9887 3.2333 -0.3699)" gradientUnits="userSpaceOnUse">
			<stop  offset="0" style="stop-color:#FED685"/>
			<stop  offset="0.2064" style="stop-color:#F4981A"/>
			<stop  offset="0.5939" style="stop-color:#E84234"/>
			<stop  offset="0.9908" style="stop-color:#BC1818"/>
		</radialGradient>
		<path class="st18" d="M-302,194.9c-38.8,0-70.3,31.5-70.3,70.3c0,35,25.6,64,59,69.4c-3.3-3.5-6.6-7.3-8.8-11.2
			c-24.1-8.3-41.4-31.2-41.4-58.1c0-34,27.5-61.5,61.5-61.5c34,0,61.5,27.5,61.5,61.5c0,32.5-25.2,59.1-57.1,61.3l0,0
			c-3,2.8-4.3,6.7-2.1,8.9c37.8-1.2,68-32.2,68-70.2C-231.7,226.4-263.2,194.9-302,194.9z"/>
		
			<radialGradient id="SVGID_18_" cx="-310.8254" cy="261.2857" r="68.7254" gradientTransform="matrix(0.9887 0 0 0.9887 3.2333 -0.3699)" gradientUnits="userSpaceOnUse">
			<stop  offset="0" style="stop-color:#FED685"/>
			<stop  offset="0.2064" style="stop-color:#F4981A"/>
			<stop  offset="0.5939" style="stop-color:#E84234"/>
			<stop  offset="0.6739" style="stop-color:#E13B2F"/>
			<stop  offset="0.7954" style="stop-color:#CF2B22"/>
			<stop  offset="0.8981" style="stop-color:#BC1818"/>
			<stop  offset="0.95" style="stop-color:#BB1818"/>
			<stop  offset="0.9687" style="stop-color:#B51817"/>
			<stop  offset="0.982" style="stop-color:#AB1916"/>
			<stop  offset="0.9927" style="stop-color:#9E1915"/>
			<stop  offset="1" style="stop-color:#911913"/>
		</radialGradient>
		<path class="st19" d="M-285.8,266.5c-24.5-26.7-14.6-46.1-7.6-53c-38.4,20.9-3.8,45.2-16.9,57.3c-2.7-7.9-11.5-15.5-18-16.6
			c5.6,5.4,17.3,26.5,2.9,39.1c-11,9.6-11.3,17.9-8.9,24.3c3.8,2.3,7.9,4.3,12.1,5.8c-4.4-7.9-4.6-16.6,7.8-25.6
			c12.8-9.2,14.5-16.9,12.3-25.8c3.9,3.1,14.6,18.3,3.6,33.9c4-1.1,10.4-3.9,10.4-10.2c2.1,3.8,10.3,12.3-9.7,30.9
			c5.5-0.4,10.7-1.5,15.7-3.2c0,0,0,0,0,0C-272.9,317.2-261.3,293.2-285.8,266.5z"/>
	</g>
</g>
<radialGradient id="SVGID_19_" cx="-278.8905" cy="259.3735" r="29.9525" gradientUnits="userSpaceOnUse">
	<stop  offset="0" style="stop-color:#FED685"/>
	<stop  offset="0.2064" style="stop-color:#F4981A"/>
	<stop  offset="0.5939" style="stop-color:#E84234"/>
	<stop  offset="0.6739" style="stop-color:#E13B2F"/>
	<stop  offset="0.7954" style="stop-color:#CF2B22"/>
	<stop  offset="0.8981" style="stop-color:#BC1818"/>
	<stop  offset="0.95" style="stop-color:#BB1818"/>
	<stop  offset="0.9687" style="stop-color:#B51817"/>
	<stop  offset="0.982" style="stop-color:#AB1916"/>
	<stop  offset="0.9927" style="stop-color:#9E1915"/>
	<stop  offset="1" style="stop-color:#911913"/>
</radialGradient>
<path class="st20" d="M-280.2,238.7c3.7,7.2,7,23.3-8.6,40c2.2,4.3,4.6,8.5,7.4,12.6c0.1,0,0.3,0,0.4,0
	C-276.1,278.4-256,263.6-280.2,238.7z"/>
<radialGradient id="SVGID_20_" cx="304.9006" cy="237.5613" r="0" gradientUnits="userSpaceOnUse">
	<stop  offset="0" style="stop-color:#FED685"/>
	<stop  offset="0.2064" style="stop-color:#F4981A"/>
	<stop  offset="0.5939" style="stop-color:#E84234"/>
	<stop  offset="0.6739" style="stop-color:#E13B2F"/>
	<stop  offset="0.7954" style="stop-color:#CF2B22"/>
	<stop  offset="0.8981" style="stop-color:#BC1818"/>
	<stop  offset="0.95" style="stop-color:#BB1818"/>
	<stop  offset="0.9687" style="stop-color:#B51817"/>
	<stop  offset="0.982" style="stop-color:#AB1916"/>
	<stop  offset="0.9927" style="stop-color:#9E1915"/>
	<stop  offset="1" style="stop-color:#911913"/>
</radialGradient>
<path class="st21" d="M304.9,237.6"/>
<path class="st1" d="M231.3,82.8c-38.8,0-70.3,31.5-70.3,70.3c0,35,25.6,64,59,69.4c-3.3-3.5-6.6-7.3-8.8-11.3
	c-4.4-7.9-4.6-16.6,7.8-25.5c12.8-9.2,14.5-16.9,12.3-25.8c3.8,3.1,14.6,18.3,3.6,33.9c4-1.1,10.4-3.9,10.4-10.3
	c2.1,3.8,10.3,12.3-9.7,30.9c-2,1.8-3.2,4.1-3.2,6.1c0,1,0.3,2,1.1,2.8c37.8-1.2,68-32.2,68-70.2C301.6,114.2,270.1,82.8,231.3,82.8
	z M251.4,211.2c7.3-5,16.3-21.6,6.4-42c6.6-10.8,13.5-23.8-4.7-42.6c3.1,6,5.9,18.2-2.3,31.7c-1-1.3-2.1-2.6-3.3-3.9
	c-24.5-26.7-14.6-46.1-7.6-53c-38.4,20.9-3.8,45.2-16.9,57.3c-2.7-7.9-11.5-15.5-18-16.6c8.5,20,6.5,30.5,2.7,36.6
	c-3.1,4.9-9.8,10.6-9.9,19.8c0,3,0.6,5.4,1.2,7.1c-17.6-10.8-29.3-30.2-29.3-52.4c0-34,27.5-61.5,61.5-61.5
	c34,0,61.5,27.5,61.5,61.5C292.8,180,275.5,202.9,251.4,211.2z"/>
<radialGradient id="SVGID_21_" cx="230.5564" cy="152.6631" r="70.265" gradientUnits="userSpaceOnUse">
	<stop  offset="0" style="stop-color:#FED685"/>
	<stop  offset="0.2064" style="stop-color:#F4981A"/>
	<stop  offset="0.5939" style="stop-color:#E84234"/>
	<stop  offset="0.6739" style="stop-color:#E13B2F"/>
	<stop  offset="0.7954" style="stop-color:#CF2B22"/>
	<stop  offset="0.8981" style="stop-color:#BC1818"/>
	<stop  offset="0.95" style="stop-color:#BB1818"/>
	<stop  offset="0.9687" style="stop-color:#B51817"/>
	<stop  offset="0.982" style="stop-color:#AB1916"/>
	<stop  offset="0.9927" style="stop-color:#9E1915"/>
	<stop  offset="1" style="stop-color:#911913"/>
</radialGradient>
<path class="st22" d="M230.6,82.4c-38.8,0-70.3,31.5-70.3,70.3c0,35,25.6,64,59,69.4c-3.3-3.5-6.6-7.3-8.8-11.3
	c-4.4-7.9-4.6-16.6,7.8-25.5c12.8-9.2,14.5-16.9,12.3-25.8c3.8,3.1,14.6,18.3,3.6,33.9c4-1.1,10.4-3.9,10.4-10.3
	c2.1,3.8,10.3,12.3-9.7,30.9c-2,1.8-3.2,4.1-3.2,6.1c0,1,0.3,2,1.1,2.8c37.8-1.2,68-32.2,68-70.2C300.8,113.9,269.4,82.4,230.6,82.4
	z M250.7,210.8c7.3-5,16.3-21.6,6.4-42c6.6-10.8,13.5-23.8-4.7-42.6c3.1,6,5.9,18.2-2.3,31.7c-1-1.3-2.1-2.6-3.3-3.9
	c-24.5-26.7-14.6-46.1-7.6-53c-38.4,20.9-3.8,45.2-16.9,57.3c-2.7-7.9-11.5-15.5-18-16.6c8.5,20,6.5,30.5,2.7,36.6
	c-3.1,4.9-9.8,10.6-9.9,19.8c0,3,0.6,5.4,1.2,7.1c-17.6-10.8-29.3-30.2-29.3-52.4c0-34,27.5-61.5,61.5-61.5
	c34,0,61.5,27.5,61.5,61.5C292.1,179.6,274.8,202.5,250.7,210.8z"/>
<g>
	<path d="M-179.2,151.3c0,2.3,0,4.6,0,7c-0.1,0.3-0.2,0.5-0.2,0.8c-0.5,3.5-0.7,7-1.4,10.4c-3,14.2-9.8,26.4-20.3,36.3
		c-11,10.4-24.1,16.7-39.1,18.7c-2,0.3-3.9,0.5-5.9,0.7c-0.4,0-0.8,0-1.2,0c-1.3-1.6-1.5-3.5-0.5-5.3c0.7-1.3,1.6-2.6,2.6-3.7
		c1.8-2,3.7-3.7,5.5-5.7c3.2-3.6,6-7.5,7.2-12.3c1.2-4.6,0-8.7-2.8-12.5c-1.2,5.2-5.3,9-10.5,9.6c3.6-5.3,5.3-10.9,4.5-17.3
		c-0.8-6.2-3.4-11.5-7.8-16c-0.1,0.4,0,0.8,0,1.2c1.2,6-0.1,11.4-4,16.2c-2.4,2.9-5.2,5.3-8.2,7.6c-2,1.5-3.9,3-5.7,4.8
		c-6.1,6.2-7.1,13.2-2.9,20.7c1.3,2.4,3,4.5,4.6,6.7c1.3,1.7,2.8,3.2,4.3,4.9c-0.2,0-0.3,0-0.5,0c-15.5-2.8-28.8-9.8-39.6-21.3
		c-10.1-10.8-16.1-23.5-18.2-38.1c-0.2-1.6-0.4-3.2-0.7-4.8c0-3.4,0-6.7,0-10.1c0.1-0.3,0.2-0.5,0.2-0.8c0.5-3.1,0.7-6.2,1.4-9.2
		c3.1-14.1,9.9-26.1,20.3-36.1c10.4-9.8,22.6-15.9,36.7-18.3c2.2-0.4,4.4-0.6,6.6-0.9c3.4,0,6.7,0,10.1,0c1.3,0.2,2.7,0.3,4,0.5
		c16.7,2.3,31,9.6,42.5,21.9c10.1,10.9,16.2,23.8,18.2,38.6C-179.6,147.5-179.4,149.4-179.2,151.3z M-228.6,212.3
		c20.4-6.6,41.5-28.7,40.5-59.9c-1-30.1-24.2-55.1-54.6-58.6c-30.6-3.5-58,16-66,44.4c-8.2,29.2,6.2,56.5,26.7,68.7
		c-0.1-0.3-0.1-0.5-0.2-0.7c-1.7-5.8-0.9-11.3,2.2-16.3c1.7-2.8,3.8-5.3,5.7-8c2.7-3.6,4-7.8,4.3-12.3c0.3-6.2-1-12.2-3-18
		c-0.9-2.6-1.9-5.1-2.8-7.7c5.8,0.4,13.3,7.2,17.9,16.3c1.5-1.2,2.3-2.8,2.7-4.7c0.6-2.5,0.3-5-0.4-7.5c-1.1-4.4-2.5-8.8-3.6-13.2
		c-1.2-4.9-1.3-9.8,0.5-14.6c3.2-8.2,9.8-12.8,17-17c0,0.2,0.1,0.2,0,0.2c-0.3,0.4-0.7,0.8-1,1.2c-6.8,8.6-8.1,18.1-5,28.4
		c2.3,7.9,6.8,14.5,12,20.7c1.8,2.1,3.6,4.1,5.4,6.2c5.8-10,7.1-20.3,2.4-31.3c0.4,0.3,0.5,0.4,0.7,0.5c2.9,3.1,5.5,6.4,7.5,10.2
		c3.2,5.9,4.2,12.2,2.4,18.8c-1.1,4.2-3.1,7.9-5.4,11.6c-0.6,0.9-0.5,1.6-0.1,2.5c2.6,5.8,4.1,11.9,3.7,18.2
		c-0.3,7.1-2.5,13.6-7.1,19.1C-226.6,210.6-227.7,211.4-228.6,212.3z"/>
	<path class="st23" d="M-319.9,159.9c0.2,1.6,0.4,3.2,0.7,4.8c2.1,14.6,8.2,27.3,18.2,38.1c10.8,11.5,24,18.6,39.6,21.3
		c0.1,0,0.2,0,0.5,0c-1.5-1.7-3-3.2-4.3-4.9c-1.6-2.2-3.3-4.3-4.6-6.7c-4.3-7.6-3.3-14.6,2.9-20.7c1.7-1.7,3.7-3.3,5.7-4.8
		c2.9-2.3,5.8-4.7,8.2-7.6c3.9-4.8,5.1-10.2,4-16.2c-0.1-0.4-0.1-0.7,0-1.2c4.4,4.5,7,9.8,7.8,16c0.8,6.3-1,12-4.5,17.3
		c5.2-0.6,9.3-4.4,10.5-9.6c2.8,3.8,4,7.9,2.8,12.5c-1.3,4.8-4,8.7-7.2,12.3c-1.7,2-3.7,3.7-5.5,5.7c-1,1.1-1.9,2.4-2.6,3.7
		c-0.9,1.8-0.8,3.6,0.5,5.3c-24.1,0-48.3,0-72.5,0C-319.9,203.5-319.9,181.7-319.9,159.9z"/>
	<path class="st23" d="M-246.2,225.2c2-0.2,3.9-0.4,5.9-0.7c15-2,28.1-8.3,39.1-18.7c10.5-10,17.3-22.1,20.3-36.3
		c0.7-3.4,1-7,1.4-10.4c0-0.3,0.1-0.5,0.2-0.8c0,22.3,0,44.6,0,67C-201.5,225.2-223.9,225.2-246.2,225.2z"/>
	<path class="st23" d="M-179.2,151.3c-0.2-1.9-0.4-3.8-0.7-5.7c-2-14.8-8-27.7-18.2-38.6c-11.5-12.4-25.7-19.6-42.5-21.9
		c-1.3-0.2-2.7-0.4-4-0.5c21.8,0,43.5,0,65.3,0C-179.2,106.8-179.2,129.1-179.2,151.3z"/>
	<path class="st23" d="M-254.6,84.6c-2.2,0.3-4.4,0.6-6.6,0.9c-14.1,2.4-26.4,8.5-36.7,18.3c-10.5,9.9-17.3,22-20.3,36.1
		c-0.7,3-0.9,6.1-1.4,9.2c0,0.3-0.1,0.5-0.2,0.8c0-21.7,0-43.5,0-65.3C-298.1,84.6-276.3,84.6-254.6,84.6z"/>
	<path class="st23" d="M-228.6,212.3c0.9-0.9,2-1.7,2.8-2.7c4.6-5.5,6.7-12,7.1-19.1c0.3-6.4-1.1-12.5-3.7-18.2
		c-0.4-0.9-0.4-1.6,0.1-2.5c2.3-3.6,4.3-7.4,5.4-11.6c1.8-6.6,0.8-12.8-2.4-18.8c-2-3.8-4.6-7.1-7.5-10.2c-0.1-0.1-0.3-0.2-0.7-0.5
		c4.7,11,3.3,21.3-2.4,31.3c-1.9-2.1-3.7-4.1-5.4-6.2c-5.3-6.2-9.7-12.8-12-20.7c-3-10.3-1.8-19.8,5-28.4c0.3-0.4,0.7-0.8,1-1.2
		c0,0,0-0.1,0-0.2c-7.2,4.2-13.9,8.8-17,17c-1.9,4.8-1.7,9.7-0.5,14.6c1.1,4.4,2.4,8.8,3.6,13.2c0.6,2.4,1,5,0.4,7.5
		c-0.4,1.8-1.3,3.4-2.7,4.7c-4.7-9.1-12.2-15.9-17.9-16.3c1,2.6,2,5.1,2.8,7.7c1.9,5.8,3.3,11.8,3,18c-0.2,4.5-1.5,8.6-4.3,12.3
		c-2,2.6-4,5.2-5.7,8c-3.2,5.1-4,10.5-2.2,16.3c0.1,0.2,0.1,0.4,0.2,0.7c-20.6-12.3-34.9-39.5-26.7-68.7c7.9-28.4,35.3-47.9,66-44.4
		c30.4,3.5,53.6,28.5,54.6,58.6C-187.1,183.6-208.2,205.7-228.6,212.3z"/>
</g>
<radialGradient id="SVGID_22_" cx="96.351" cy="401.0882" r="70.265" gradientTransform="matrix(-1 0 0 1 214.8226 0)" gradientUnits="userSpaceOnUse">
	<stop  offset="0" style="stop-color:#FED685"/>
	<stop  offset="0.2064" style="stop-color:#F4981A"/>
	<stop  offset="0.5939" style="stop-color:#E84234"/>
	<stop  offset="0.6739" style="stop-color:#E13B2F"/>
	<stop  offset="0.7954" style="stop-color:#CF2B22"/>
	<stop  offset="0.8981" style="stop-color:#BC1818"/>
	<stop  offset="0.95" style="stop-color:#BB1818"/>
	<stop  offset="0.9687" style="stop-color:#B51817"/>
	<stop  offset="0.982" style="stop-color:#AB1916"/>
	<stop  offset="0.9927" style="stop-color:#9E1915"/>
	<stop  offset="1" style="stop-color:#911913"/>
</radialGradient>
<path class="st24" d="M48.2,401.1c0,38.1,30.3,69.1,68,70.2c0.8-0.8,1.1-1.7,1.1-2.8c0-2-1.2-4.3-3.2-6.1
	c-20-18.7-11.8-27.1-9.7-30.9c0,6.4,6.3,9.1,10.4,10.3c-11-15.6-0.2-30.8,3.6-33.9c-2.2,9-0.5,16.6,12.3,25.8
	c12.4,8.9,12.2,17.7,7.8,25.5c-2.2,4-5.5,7.8-8.8,11.3c33.5-5.4,59-34.4,59-69.4c0-38.8-31.5-70.3-70.3-70.3
	C79.7,330.8,48.2,362.3,48.2,401.1z M57,401.1c0-34,27.5-61.5,61.5-61.5c34,0,61.5,27.5,61.5,61.5c0,22.2-11.7,41.6-29.3,52.4
	c0.6-1.6,1.2-4.1,1.2-7.1c-0.1-9.2-6.8-14.9-9.9-19.8c-3.8-6-5.8-16.6,2.7-36.6c-6.5,1.1-15.3,8.8-18,16.6
	c-13-12.1,21.6-36.4-16.9-57.3c7,7,16.9,26.3-7.6,53c-1.2,1.3-2.3,2.6-3.3,3.9c-8.2-13.5-5.4-25.7-2.3-31.7
	c-18.2,18.8-11.3,31.8-4.7,42.6c-9.9,20.4-0.9,37.1,6.4,42C74.3,450.9,57,428,57,401.1z"/>
<radialGradient id="SVGID_23_" cx="290.9839" cy="224.9779" r="0" gradientUnits="userSpaceOnUse">
	<stop  offset="0" style="stop-color:#FED685"/>
	<stop  offset="0.2064" style="stop-color:#F4981A"/>
	<stop  offset="0.5939" style="stop-color:#E84234"/>
	<stop  offset="0.6739" style="stop-color:#E13B2F"/>
	<stop  offset="0.7954" style="stop-color:#CF2B22"/>
	<stop  offset="0.8981" style="stop-color:#BC1818"/>
	<stop  offset="0.95" style="stop-color:#BB1818"/>
	<stop  offset="0.9687" style="stop-color:#B51817"/>
	<stop  offset="0.982" style="stop-color:#AB1916"/>
	<stop  offset="0.9927" style="stop-color:#9E1915"/>
	<stop  offset="1" style="stop-color:#911913"/>
</radialGradient>
<path class="st25" d="M291,225"/>
<g>
	<linearGradient id="SVGID_24_" gradientUnits="userSpaceOnUse" x1="-85.0042" y1="177.5603" x2="-85.0042" y2="12.8408">
		<stop  offset="9.174040e-003" style="stop-color:#74160D"/>
		<stop  offset="0.242" style="stop-color:#831A11"/>
		<stop  offset="0.7407" style="stop-color:#A02215"/>
		<stop  offset="1" style="stop-color:#AB2517"/>
	</linearGradient>
	<path class="st26" d="M-85,12.8c-45.5,0-82.4,36.9-82.4,82.4c0,41,30,75,69.2,81.3c-0.3-0.7-0.5-1.5-0.9-2.6
		c-3.4-3.6-7.2-6.5-9.5-10.6l0,0c-5.2-9.3-5.4-19.5,9.1-30c15-10.8,17.1-19.8,14.5-30.3c4.3,3.5,19.5,21.5,3.4,37.2
		c0.2,0.7,0.5,1.9,0.9,2.6c4.7-1.3,12.2-4.5,12.2-12c2.5,4.5,12.1,14.4-11.3,36.2l0,0c0,0,0,0,0,0c-1.8,1.6-4.1,3.1-4.6,4.9
		c0.2,2.6,0.8,4.2,2.2,5.5c44.3-1.4,79.8-37.7,79.8-82.3C-2.6,49.7-39.5,12.8-85,12.8z M-61.5,163.4
		C-61.5,163.4-61.5,163.4-61.5,163.4c10.6-7.2,24.2-35.2-4.5-66.6c-28.7-31.4-17.1-54-9-62.2c-0.3-0.9-0.6-1.7-0.9-2.6
		c-39.8,24.1-4,55.9-18.9,69.8c-3-8.8-14.4-20.2-21.9-22.1c0.1,0.7,0.6,2,0.9,2.6c6.6,6.3,20.3,31.1,3.4,45.8
		c-12.9,11.3-13.3,20.9-10.4,28.5c-20.6-12.7-34.3-35.4-34.3-61.4c0-39.8,32.3-72.1,72.1-72.1c39.8,0,72.1,32.3,72.1,72.1
		C-12.9,126.8-33.2,153.6-61.5,163.4z"/>
	<g>
		
			<radialGradient id="SVGID_25_" cx="-17.2315" cy="60.4615" r="166.9106" gradientTransform="matrix(0.9887 0 0 0.9887 3.2333 -0.3699)" gradientUnits="userSpaceOnUse">
			<stop  offset="0" style="stop-color:#FED685"/>
			<stop  offset="0.2064" style="stop-color:#F4981A"/>
			<stop  offset="0.5939" style="stop-color:#E84234"/>
			<stop  offset="0.9908" style="stop-color:#BC1818"/>
		</radialGradient>
		<path class="st27" d="M-85.9,10.3c-45.5,0-82.4,36.9-82.4,82.4c0,41,30,75,69.2,81.3c-3.9-4.1-7.8-8.5-10.4-13.2
			c-28.2-9.8-48.5-36.6-48.5-68.1c0-39.8,32.3-72.1,72.1-72.1c39.8,0,72.1,32.3,72.1,72.1c0,38.1-29.6,69.3-67,71.9l0,0
			c-3.5,3.3-5.1,7.9-2.5,10.4c44.3-1.4,79.8-37.7,79.8-82.3C-3.5,47.1-40.4,10.3-85.9,10.3z"/>
		
			<radialGradient id="SVGID_26_" cx="-92.5746" cy="85.5272" r="80.5644" gradientTransform="matrix(0.9887 0 0 0.9887 3.2333 -0.3699)" gradientUnits="userSpaceOnUse">
			<stop  offset="0" style="stop-color:#FED685"/>
			<stop  offset="0.2064" style="stop-color:#F4981A"/>
			<stop  offset="0.5939" style="stop-color:#E84234"/>
			<stop  offset="0.6739" style="stop-color:#E13B2F"/>
			<stop  offset="0.7954" style="stop-color:#CF2B22"/>
			<stop  offset="0.8981" style="stop-color:#BC1818"/>
			<stop  offset="0.95" style="stop-color:#BB1818"/>
			<stop  offset="0.9687" style="stop-color:#B51817"/>
			<stop  offset="0.982" style="stop-color:#AB1916"/>
			<stop  offset="0.9927" style="stop-color:#9E1915"/>
			<stop  offset="1" style="stop-color:#911913"/>
		</radialGradient>
		<path class="st28" d="M-66.9,94.2c-28.7-31.4-17.1-54-9-62.2c-45.1,24.5-4.5,53-19.8,67.2C-98.7,90-109,81-116.7,79.7
			c6.6,6.3,20.3,31.1,3.4,45.8c-12.9,11.3-13.3,20.9-10.4,28.5c4.4,2.7,9.2,5,14.2,6.7c-5.2-9.3-5.4-19.5,9.1-30
			c15-10.8,17.1-19.8,14.5-30.3c4.5,3.7,17.1,21.5,4.3,39.8c4.7-1.3,12.2-4.5,12.2-12c2.5,4.5,12.1,14.4-11.3,36.2
			c6.4-0.4,12.6-1.7,18.4-3.8c0,0,0,0,0,0C-51.7,153.6-38.1,125.6-66.9,94.2z"/>
	</g>
</g>
</svg>
