<?xml version="1.0" encoding="utf-8"?>
<!-- Generator: Adobe Illustrator 18.0.0, SVG Export Plug-In . SVG Version: 6.00 Build 0)  -->
<!DOCTYPE svg PUBLIC "-//W3C//DTD SVG 1.1//EN" "http://www.w3.org/Graphics/SVG/1.1/DTD/svg11.dtd">
<svg version="1.1" id="Слой_1" xmlns="http://www.w3.org/2000/svg" xmlns:xlink="http://www.w3.org/1999/xlink" x="0px" y="0px"
	 viewBox="0 0 178 154" enable-background="new 0 0 178 154" xml:space="preserve">
<g>
	<path fill="#949494" d="M147.9386597,69.0076141c-38.9240036-22.4729996-79.0940018-22.4729996-118.0180054-0.0009995l0,0
		C10.4586563,80.2436142,0.7276565,91.6596146,0.7276565,103.0756149c0,11.4169998,9.7309999,22.8330002,29.1929989,34.0699997
		c38.9240036,22.4720001,79.0950012,22.4730072,118.0189972,0c19.4620056-11.2369995,29.1930084-22.6529999,29.1930084-34.0690002
		C177.1326599,91.6596146,167.40065,80.2436142,147.9386597,69.0076141z"/>
</g>
<g>
	<path fill="#F5991A" d="M147.9926605,69.1016159c-38.8880005-22.5349998-79.0580063-22.598999-118.0180054-0.189003l0,0
		C10.4946566,80.1186142,0.7456565,91.5186157,0.7276565,102.9346161c-0.018,11.4169998,9.6950006,22.848999,29.1389999,34.1159973
		c38.8879967,22.5350037,79.0579987,22.6000061,118.0180054,0.1889954
		c19.4799957-11.2049942,29.2290039-22.6059952,29.246994-34.0219955
		C177.1496582,91.8016129,167.4366608,80.3696136,147.9926605,69.1016159z"/>
	
		<linearGradient id="SVGID_1_" gradientUnits="userSpaceOnUse" x1="-5.082387" y1="120.1847" x2="171.3218079" y2="120.1847" gradientTransform="matrix(1 0.0016 -0.0016 1 5.9749999 -0.2802)">
		<stop  offset="0" style="stop-color:#C0D121"/>
		<stop  offset="0.0954072" style="stop-color:#C5D320"/>
		<stop  offset="0.300604" style="stop-color:#C7D420"/>
		<stop  offset="0.5368598" style="stop-color:#BACF14"/>
		<stop  offset="0.744144" style="stop-color:#B5CC0C"/>
		<stop  offset="1" style="stop-color:#8BA626"/>
	</linearGradient>
	<path fill="url(#SVGID_1_)" d="M147.9116516,120.2386169c-38.9599915,22.4109955-79.1299973,22.3470001-118.0179977-0.1880035
		C10.4496565,108.7826157,0.7366565,97.3506165,0.7546566,85.9346161l-0.027,17
		c-0.018,11.4169998,9.6950006,22.8479996,29.1389999,34.1159973c38.8879967,22.5350037,79.0579987,22.598999,118.0180054,0.1889954
		c19.4799957-11.2049942,29.2290039-22.6059952,29.246994-34.0219955l0.0270081-17.0009995
		C177.1406555,97.6336136,167.3916626,109.0336151,147.9116516,120.2386169z"/>
	<path fill="#ABC711" d="M148.0206604,52.1016159c-38.8890076-22.5349998-79.0590057-22.6000004-118.0190048-0.1889992h0.0009995
		C10.5226564,63.1176147,0.7726566,74.5186157,0.7546566,85.9346161s9.6949997,22.8479996,29.1389999,34.1159973
		c38.8880005,22.5350037,79.0580063,22.598999,118.0179977,0.189003
		c19.480011-11.2060013,29.2290039-22.6060028,29.2470093-34.0230026
		C177.176651,74.8006134,167.4646606,63.3686142,148.0206604,52.1016159z"/>
</g>
<g>
	<defs>
		<path id="SVGID_2_" d="M147.2109985,52.0066147c-38.923996-22.4720001-79.0940018-22.4729996-118.0179977,0l0,0
			C9.7309999,63.2436142,0.0000001,74.6596146,0.0000001,86.0756149s9.7309999,22.8330002,29.1930008,34.0690002
			c38.923996,22.4729996,79.0940018,22.4729996,118.0179977,0c19.4620056-11.2360001,29.1930084-22.6520004,29.1930084-34.0690002
			C176.404007,74.6596146,166.6730042,63.2436142,147.2109985,52.0066147z"/>
	</defs>
	<clipPath id="SVGID_3_">
		<use xlink:href="#SVGID_2_"  overflow="visible"/>
	</clipPath>
	<g clip-path="url(#SVGID_3_)">
		<path opacity="0" fill="#8BA626" d="M193.2949982,94.4446182l2.2250061-3.1669998l-11.2870026-14.0440063l-2.7770081,1.5950012
			l-2.2249908,3.1679993l11.2879944,14.0440063L193.2949982,94.4446182z M175.4920044,84.1656189l6.5149994,16.7929993
			l-2.776001,1.5949936l-3.8529968,0.3490067l-6.5180054-16.8010025l2.776001-1.5950012L175.4920044,84.1656189z
			 M146.6060028,18.4636154l2.776001-1.5949993l-6.5180054-16.7950001l-3.8529968,0.342l-2.776001,1.5960001l6.5160065,16.7989998
			L146.6060028,18.4636154z M136.7859955,24.1406155l2.2230072-3.1650009L127.723999,6.9356155l-2.7770004,1.5959997
			l-2.2249985,3.1640005l11.2879944,14.0410004L136.7859955,24.1406155z M129.9880066,42.6546173
			c0,2.5,0.3249969,5.0959969,0.9019928,7.7129974l-5.3909988,0.4830017l-2.7770004,1.5960007l2.2249985,5.7360001
			l8.137001-0.7290001c1.9120026,4.8389969,4.6139984,9.5180016,7.8500061,13.5919991l-4.6990051,6.6849976l3.8529968,4.7970047
			l2.776001-1.5960007l3.1190033-4.4380035c1.9729919,1.802002,4.0529938,3.3759995,6.2109985,4.6220016
			c1.1289978,0.6520004,2.2290039,1.1589966,3.3119965,1.5970001v13.4869995l4.451004,2.5690002l2.776001-1.5960007V84.1306152
			c1.8950043-0.0879974,3.6239929-0.5800018,5.1369934-1.4489975c0.0080109-0.0040054,0.0160065-0.0090027,0.0250092-0.0139999
			c1.5059967-0.8710022,2.79599-2.114006,3.8209991-3.7020035c-1.0250092,1.5879974-2.3150024,2.8310013-3.8209991,3.7020035
			l2.7769928-1.5950012l11.0480042-6.3830032c1.522995-0.8809967,2.822998-2.1469955,3.8529968-3.7610016L196.875,77.4536133
			l2.776001-1.5960007v-5.1380005l-11.7019958-6.7569962c0.1599884-1.1520004,0.2709961-2.3520012,0.2709961-3.6479988
			c0-2.4980011-0.3249969-5.0920029-0.901001-7.7080002l5.4250031-0.4840012l2.776001-1.5950012l-2.2250061-5.7339973
			l-8.1679993,0.7289963c-1.9089966-4.8309975-4.6049957-9.5029984-7.8339996-13.572998l4.7140045-6.710001l-3.852005-4.789999
			l-2.7769928,1.5949993l-3.1320038,4.453001c-1.9779968-1.8080006-4.0630035-3.387001-6.227005-4.6359997
			c-1.1199951-0.6459999-2.2109985-1.1500015-3.2859955-1.5860004V6.7746153l-4.4499969-2.5689998l-2.7770081,1.5959997v13.0440006
			c-1.9179993,0.0849991-3.6679993,0.5790005-5.1949921,1.4619999l-11.0490112,6.382l-2.75,1.5809994l-0.0009918,0.0010014
			c0,0-0.0169983,0.0089989-0.0250092,0.0139999c-1.5189972,0.8780003-2.8159943,2.1379986-3.844986,3.7450008
			l-11.2760086-6.5100021l-2.7770004,1.5960007v5.1389999l11.6730042,6.7389984
			C130.098999,40.1496162,129.9880066,41.3536148,129.9880066,42.6546173z"/>
		<path opacity="0.030303" fill="#8BA626" d="M191.0718842,94.4446182l2.2249908-3.1669998l-11.2870331-14.0440063
			l-2.7769623,1.5950012l-2.2250061,3.1679993l11.2879791,14.0440063L191.0718842,94.4446182z M173.2688446,84.1656189
			l6.5150299,16.7929993l-2.776001,1.5949936l-3.8529968,0.3490067l-6.5180206-16.8010025l2.7760162-1.5950012
			L173.2688446,84.1656189z M144.3828735,18.4636154l2.776001-1.5949993l-6.5179901-16.7950001l-3.8530121,0.342
			l-2.776001,1.5960001l6.515976,16.7989998L144.3828735,18.4636154z M134.5628815,24.1406155l2.2229614-3.1650009
			l-11.2849655-14.039999l-2.7770004,1.5959997l-2.2249985,3.1640005l11.288002,14.0410004L134.5628815,24.1406155z
			 M127.7648773,42.6546173c0,2.5,0.3249664,5.0959969,0.9020081,7.7129974l-5.391037,0.4830017l-2.7769699,1.5960007
			l2.2249985,5.7360001l8.1370087-0.7290001c1.9119568,4.8389969,4.6139984,9.5180016,7.8499603,13.5919991l-4.6989746,6.6849976
			l3.8529816,4.7970047l2.7760315-1.5960007l3.118988-4.4380035c1.9730072,1.802002,4.053009,3.3759995,6.2110138,4.6220016
			c1.1289673,0.6520004,2.2289886,1.1589966,3.3119965,1.5970001v13.4869995l4.4509583,2.5690002l2.7760315-1.5960007V84.1306152
			c1.8949738-0.0879974,3.598938-0.6251755,5.1369781-1.4489975c0.0079041-0.0042419,0.0160675-0.0089264,0.0250244-0.0139999
			c1.5134583-0.8579788,2.7960052-2.114006,3.8209991-3.7020035c-1.0249939,1.5879974-2.3150024,2.8310013-3.8210297,3.7020035
			l2.7770081-1.5950012l11.0480194-6.3830032c1.5230103-0.8809967,2.8230133-2.1469955,3.8530121-3.7610016l11.302002,6.5250015
			l2.7759857-1.5960007v-5.1380005l-11.7020264-6.7569962c0.1600342-1.1520004,0.2709961-2.3520012,0.2709961-3.6479988
			c0-2.4980011-0.3249664-5.0920029-0.9009857-7.7080002l5.4249878-0.4840012l2.7760315-1.5950012l-2.2249908-5.7339973
			l-8.1680298,0.7289963c-1.9089813-4.8309975-4.6049805-9.5029984-7.8339691-13.572998l4.7139893-6.710001l-3.8520203-4.789999
			l-2.7769775,1.5949993l-3.1320038,4.453001c-1.9779968-1.8080006-4.0629883-3.387001-6.2269897-4.6359997
			c-1.1200104-0.6459999-2.2109985-1.1500015-3.2860107-1.5860004V6.7746153l-4.4499969-2.5689998l-2.7769928,1.5959997v13.0440006
			c-1.9179993,0.0849991-3.6680298,0.5790005-5.1950378,1.4619999l-11.0489655,6.382l-2.75,1.5809994l-0.0010376,0.0010014
			c-0.0002289,0.0001507-0.0168762,0.0091343-0.0247192,0.0138474c-1.5038757,0.9042263-2.8162689,2.1381512-3.8452454,3.7451534
			l-11.276001-6.5100021l-2.7770004,1.5960007v5.1389999l11.6729965,6.7389984
			C127.8758774,40.1496162,127.7648773,41.3536148,127.7648773,42.6546173z"/>
		<path opacity="0.0606061" fill="#8BA626" d="M188.8487549,94.4446182l2.2250061-3.1669998l-11.2870636-14.0440063
			l-2.776947,1.5950012l-2.2249908,3.1679993l11.2879333,14.0440063L188.8487549,94.4446182z M171.0457001,84.1656189
			l6.5150604,16.7929993l-2.776001,1.5949936l-3.8529968,0.3490067l-6.5180664-16.8010025l2.776062-1.5950012
			L171.0457001,84.1656189z M142.1597595,18.4636154l2.776001-1.5949993l-6.5180054-16.7950001l-3.8529968,0.342
			l-2.776001,1.5960001l6.5159454,16.7989998L142.1597595,18.4636154z M132.3397522,24.1406155l2.2229462-3.1650009
			l-11.2849426-14.039999l-2.7770004,1.5959997l-2.2249985,3.1640005l11.2879944,14.0410004L132.3397522,24.1406155z
			 M125.5417557,42.6546173c0,2.5,0.3249435,5.0959969,0.9020004,7.7129974l-5.3910599,0.4830017l-2.7769394,1.5960007
			l2.2249985,5.7360001l8.137001-0.7290001c1.9119415,4.8389969,4.6139984,9.5180016,7.8499451,13.5919991l-4.6989441,6.6849976
			l3.8529358,4.7970047l2.776062-1.5960007l3.1190033-4.4380035c1.9729919,1.802002,4.0529938,3.3759995,6.2109985,4.6220016
			c1.1289368,0.6520004,2.2290039,1.1589966,3.3119965,1.5970001v13.4869995l4.450943,2.5690002l2.776062-1.5960007V84.1306152
			c1.8949432-0.0879974,3.5983124-0.6263351,5.1369324-1.4489975c0.0079346-0.0042419,0.0161133-0.0089264,0.0250702-0.0139999
			c1.5134583-0.8579788,2.79599-2.114006,3.8209991-3.7020035c-1.0250092,1.5879974-2.3150024,2.8310013-3.8210602,3.7020035
			l2.7769928-1.5950012l11.0480652-6.3830032c1.522995-0.8809967,2.822998-2.1469955,3.8529968-3.7610016l11.302002,6.5250015
			l2.776001-1.5960007v-5.1380005l-11.7020569-6.7569962c0.1600494-1.1520004,0.2709961-2.3520012,0.2709961-3.6479988
			c0-2.4980011-0.3249359-5.0920029-0.901001-7.7080002l5.4250031-0.4840012l2.776062-1.5950012l-2.2250061-5.7339973
			l-8.1680603,0.7289963c-1.9089355-4.8309975-4.6049347-9.5029984-7.8339386-13.572998l4.7140045-6.710001l-3.852066-4.789999
			l-2.7769318,1.5949993l-3.1320038,4.453001c-1.9779968-1.8080006-4.0630035-3.387001-6.227005-4.6359997
			c-1.1199951-0.6459999-2.2109985-1.1500015-3.2859955-1.5860004V6.7746153l-4.4499969-2.5689998l-2.7770081,1.5959997v13.0440006
			c-1.9179993,0.0849991-3.6680603,0.5790005-5.1950531,1.4619999l-11.0489502,6.382l-2.75,1.5809994l-0.0010529,0.0010014
			c-0.0004883,0.0003033-0.016861,0.0091305-0.0244598,0.0136967c-1.5041046,0.904377-2.8165436,2.1383018-3.8454742,3.7453041
			l-11.2760086-6.5100021l-2.7770004,1.5960007v5.1389999l11.6730042,6.7389984
			C125.6527557,40.1496162,125.5417557,41.3536148,125.5417557,42.6546173z"/>
		<path opacity="0.0909091" fill="#8BA626" d="M186.6256409,94.4446182l2.2249908-3.1669998l-11.2870789-14.0440063
			l-2.7769165,1.5950012l-2.2250061,3.1679993l11.2879181,14.0440063L186.6256409,94.4446182z M168.8225403,84.1656189
			l6.5150909,16.7929993l-2.776001,1.5949936l-3.8529968,0.3490067l-6.5180817-16.8010025l2.7760773-1.5950012
			L168.8225403,84.1656189z M139.9366302,18.4636154l2.776001-1.5949993l-6.5179901-16.7950001l-3.8530121,0.342
			l-2.7759857,1.5960001l6.5158997,16.7989998L139.9366302,18.4636154z M130.1166382,24.1406155l2.2229004-3.1650009
			l-11.2849045-14.039999l-2.7770004,1.5959997l-2.2249985,3.1640005l11.288002,14.0410004L130.1166382,24.1406155z
			 M123.318634,42.6546173c0,2.5,0.324913,5.0959969,0.9020004,7.7129974l-5.3910904,0.4830017l-2.7769089,1.5960007
			l2.2249985,5.7360001l8.137001-0.7290001c1.9119034,4.8389969,4.614006,9.5180016,7.8499069,13.5919991l-4.6988983,6.6849976
			l3.8529053,4.7970047l2.7760925-1.5960007l3.118988-4.4380035c1.9730072,1.802002,4.053009,3.3759995,6.2110138,4.6220016
			c1.1289063,0.6520004,2.2289886,1.1589966,3.3119965,1.5970001v13.4869995l4.4509125,2.5690002l2.7760773-1.5960007V84.1306152
			c1.8949127-0.0879974,3.597702-0.6274872,5.1369171-1.4489975c0.0079651-0.0042496,0.0161285-0.0089264,0.0250854-0.0139999
			c1.5134583-0.8579788,2.7960052-2.114006,3.8209991-3.7020035c-1.0249939,1.5879974-2.3149872,2.8310013-3.8210907,3.7020035
			l2.7770081-1.5950012l11.0480957-6.3830032c1.522995-0.8809967,2.822998-2.1469955,3.8529968-3.7610016l11.302002,6.5250015
			l2.776001-1.5960007v-5.1380005L181.279541,63.962616c0.1600952-1.1520004,0.2710114-2.3520012,0.2710114-3.6479988
			c0-2.4980011-0.3249207-5.0920029-0.901001-7.7080002l5.4249878-0.4840012l2.7760925-1.5950012l-2.2249908-5.7339973
			l-8.1680908,0.7289963c-1.9089203-4.8309975-4.6049194-9.5029984-7.8339081-13.572998l4.7139893-6.710001l-3.8520813-4.789999
			l-2.7769165,1.5949993l-3.1320038,4.453001c-1.9779968-1.8080006-4.0629883-3.387001-6.2269897-4.6359997
			c-1.1200104-0.6459999-2.2109985-1.1500015-3.2860107-1.5860004V6.7746153l-4.4499969-2.5689998l-2.7769928,1.5959997v13.0440006
			c-1.9179993,0.0849991-3.6680908,0.5790005-5.1950989,1.4619999l-11.0489044,6.382l-2.75,1.5809994l-0.0010834,0.0010014
			c-0.0007324,0.0004539-0.0168457,0.0091248-0.0241852,0.0135441c-1.504364,0.9045296-2.8168259,2.1384544-3.8457336,3.7454567
			l-11.276001-6.5100021l-2.7769928,1.5960007v5.1389999l11.6729965,6.7389984
			C123.4296341,40.1496162,123.318634,41.3536148,123.318634,42.6546173z"/>
		<path opacity="0.1212121" fill="#8BA626" d="M184.4025116,94.4446182l2.2250061-3.1669998l-11.2871246-14.0440063
			l-2.7768707,1.5950012l-2.2250061,3.1679993l11.2878723,14.0440063L184.4025116,94.4446182z M166.5993958,84.1656189
			l6.5151215,16.7929993l-2.776001,1.5949936l-3.8529968,0.3490067l-6.5181274-16.8010025l2.776123-1.5950012
			L166.5993958,84.1656189z M137.7135162,18.4636154l2.776001-1.5949993l-6.5180054-16.7950001l-3.8529968,0.342
			l-2.776001,1.5960001l6.5158844,16.7989998L137.7135162,18.4636154z M127.8935165,24.1406155l2.2228775-3.1650009
			l-11.2848816-14.039999l-2.7770004,1.5959997l-2.2249985,3.1640005l11.288002,14.0410004L127.8935165,24.1406155z
			 M121.0955124,42.6546173c0,2.5,0.3248825,5.0959969,0.9020004,7.7129974l-5.3911209,0.4830017l-2.7768784,1.5960007
			l2.2249985,5.7360001l8.137001-0.7290001c1.9118805,4.8389969,4.6139984,9.5180016,7.849884,13.5919991l-4.6988831,6.6849976
			l3.8528748,4.7970047l2.776123-1.5960007l3.1190033-4.4380035c1.9730072,1.802002,4.0529938,3.3759995,6.2109985,4.6220016
			c1.1288757,0.6520004,2.2290039,1.1589966,3.3119965,1.5970001v13.4869995l4.450882,2.5690002l2.776123-1.5960007V84.1306152
			c1.8948822-0.0879974,3.5970917-0.6286392,5.1368713-1.4489975c0.0079956-0.0042572,0.0161743-0.0089264,0.0251312-0.0139999
			c1.5134583-0.8579788,2.79599-2.114006,3.8209991-3.7020035c-1.0250092,1.5879974-2.3150024,2.8310013-3.8211212,3.7020035
			l2.7769928-1.5950012l11.0481262-6.3830032c1.522995-0.8809967,2.822998-2.1469955,3.8529968-3.7610016l11.302002,6.5250015
			l2.776001-1.5960007v-5.1380005l-11.7021179-6.7569962c0.1601257-1.1520004,0.2709961-2.3520012,0.2709961-3.6479988
			c0-2.4980011-0.3248749-5.0920029-0.901001-7.7080002l5.4250031-0.4840012l2.776123-1.5950012l-2.2250061-5.7339973
			l-8.1681213,0.7289963c-1.9088745-4.8309975-4.6048737-9.5029984-7.8338776-13.572998l4.7140045-6.710001l-3.8521271-4.789999
			l-2.7768707,1.5949993l-3.1320038,4.453001c-1.9779968-1.8080006-4.0630035-3.387001-6.227005-4.6359997
			c-1.1199951-0.6459999-2.2109985-1.1500015-3.2859955-1.5860004V6.7746153l-4.4499969-2.5689998l-2.7770081,1.5959997v13.0440006
			c-1.9179993,0.0849991-3.6681213,0.5790005-5.1951141,1.4619999l-11.0488739,6.382l-2.7500076,1.5809994l-0.0011215,0.0010014
			c-0.0009689,0.0006046-0.0167999,0.0091209-0.0239105,0.0133934c-1.5045929,0.9046803-2.8170853,2.1386051-3.8459702,3.7456074
			l-11.2759933-6.5100021l-2.7770004,1.5960007v5.1389999l11.6729965,6.7389984
			C121.2065125,40.1496162,121.0955124,41.3536148,121.0955124,42.6546173z"/>
		<path opacity="0.1515152" fill="#8BA626" d="M182.1793976,94.4446182l2.2249908-3.1669998l-11.2871399-14.0440063
			l-2.7768555,1.5950012l-2.2250061,3.1679993l11.2878571,14.0440063L182.1793976,94.4446182z M164.376236,84.1656189
			l6.515152,16.7929993l-2.776001,1.5949936l-3.8529968,0.3490067l-6.5181427-16.8010025l2.7761536-1.5950012L164.376236,84.1656189
			z M135.490387,18.4636154l2.776001-1.5949993l-6.5179901-16.7950001l-3.8530045,0.342l-2.776001,1.5960001l6.5158463,16.7989998
			L135.490387,18.4636154z M125.6703949,24.1406155l2.222847-3.1650009l-11.2848511-14.039999l-2.7770004,1.5959997
			l-2.2249985,3.1640005l11.288002,14.0410004L125.6703949,24.1406155z M118.8723907,42.6546173
			c0,2.5,0.324852,5.0959969,0.9020004,7.7129974l-5.3911514,0.4830017l-2.7768478,1.5960007l2.2249985,5.7360001
			l8.137001-0.7290001c1.91185,4.8389969,4.614006,9.5180016,7.8498459,13.5919991l-4.6988449,6.6849976l3.8528519,4.7970047
			l2.7761536-1.5960007l3.1190033-4.4380035c1.9729919,1.802002,4.0529938,3.3759995,6.2109985,4.6220016
			c1.1288452,0.6520004,2.2289886,1.1589966,3.3119965,1.5970001v13.4869995l4.4508514,2.5690002l2.7761536-1.5960007V84.1306152
			c1.8948364-0.0879974,3.5964661-0.629776,5.1368408-1.4489975c0.0080109-0.0042648,0.0161896-0.0089264,0.0251465-0.0139999
			c1.5134583-0.8579788,2.7960052-2.114006,3.8209991-3.7020035c-1.0249939,1.5879974-2.3149872,2.8310013-3.8211517,3.7020035
			l2.7770081-1.5950012l11.0481567-6.3830032c1.522995-0.8809967,2.822998-2.1469955,3.8529968-3.7610016l11.302002,6.5250015
			l2.776001-1.5960007v-5.1380005l-11.7021637-6.7569962c0.1601563-1.1520004,0.2710114-2.3520012,0.2710114-3.6479988
			c0-2.4980011-0.3248596-5.0920029-0.901001-7.7080002l5.4249878-0.4840012l2.7761536-1.5950012l-2.2249908-5.7339973
			l-8.1681519,0.7289963c-1.9088593-4.8309975-4.6048584-9.5029984-7.833847-13.572998l4.7139893-6.710001l-3.8521423-4.789999
			l-2.7768555,1.5949993l-3.1320038,4.453001c-1.9779968-1.8080006-4.0629883-3.387001-6.2269897-4.6359997
			c-1.1199951-0.6459999-2.2109985-1.1500015-3.2859955-1.5860004V6.7746153l-4.4500122-2.5689998l-2.7769928,1.5959997v13.0440006
			c-1.9179993,0.0849991-3.6681519,0.5790005-5.1951599,1.4619999l-11.0488434,6.382l-2.75,1.5809994l-0.001152,0.0010014
			c-0.0012131,0.0007572-0.016777,0.0091171-0.0236359,0.0132427c-1.504837,0.9048309-2.8173599,2.1387558-3.8462143,3.7457581
			l-11.2759933-6.5100021l-2.7770004,1.5960007v5.1389999l11.6729965,6.7389984
			C118.9833908,40.1496162,118.8723907,41.3536148,118.8723907,42.6546173z"/>
		<path opacity="0.1818182" fill="#8BA626" d="M179.9562683,94.4446182l2.2250061-3.1669998l-11.2871857-14.0440063
			l-2.7768097,1.5950012l-2.2250061,3.1679993l11.2878113,14.0440063L179.9562683,94.4446182z M162.1530914,84.1656189
			l6.5151825,16.7929993l-2.776001,1.5949936l-3.8529968,0.3490067l-6.5181885-16.8010025l2.7761841-1.5950012
			L162.1530914,84.1656189z M133.2672729,18.4636154l2.776001-1.5949993l-6.5180054-16.7950001l-3.8529968,0.342
			l-2.776001,1.5960001l6.5158234,16.7989998L133.2672729,18.4636154z M123.4472733,24.1406155l2.2228165-3.1650009
			l-11.2848206-14.039999l-2.7769928,1.5959997l-2.2250061,3.1640005l11.288002,14.0410004L123.4472733,24.1406155z
			 M116.6492691,42.6546173c0,2.5,0.3248215,5.0959969,0.9020004,7.7129974l-5.3911819,0.4830017l-2.7768173,1.5960007
			l2.2250061,5.7360001l8.1369934-0.7290001c1.9118195,4.8389969,4.614006,9.5180016,7.849823,13.5919991l-4.698822,6.6849976
			l3.8528214,4.7970047l2.7761765-1.5960007l3.1190033-4.4380035c1.9730072,1.802002,4.0529938,3.3759995,6.2109985,4.6220016
			c1.1288147,0.6520004,2.2290039,1.1589966,3.3119965,1.5970001v13.4869995l4.4508209,2.5690002l2.7761841-1.5960007V84.1306152
			c1.8948212-0.0879974,3.595871-0.6309128,5.1368256-1.4489975c0.0080414-0.0042725,0.0162201-0.0089264,0.025177-0.0139999
			c1.5134583-0.8579788,2.7960052-2.114006,3.8209991-3.7020035c-1.0249939,1.5879974-2.3150024,2.8310013-3.8211823,3.7020035
			l2.7769928-1.5950012l11.0481873-6.3830032c1.522995-0.8809967,2.822998-2.1469955,3.8529968-3.7610016l11.302002,6.5250015
			l2.776001-1.5960007v-5.1380005l-11.702179-6.7569962c0.1601868-1.1520004,0.2709961-2.3520012,0.2709961-3.6479988
			c0-2.4980011-0.3248138-5.0920029-0.901001-7.7080002l5.4250031-0.4840012l2.7761841-1.5950012l-2.2250061-5.7339973
			l-8.1681824,0.7289963c-1.9088135-4.8309975-4.6048126-9.5029984-7.8338165-13.572998l4.7140045-6.710001l-3.8521881-4.789999
			l-2.7768097,1.5949993l-3.1320038,4.453001c-1.9779968-1.8080006-4.0630035-3.387001-6.227005-4.6359997
			c-1.1199951-0.6459999-2.2109985-1.1500015-3.2859955-1.5860004V6.7746153l-4.4499969-2.5689998l-2.7770081,1.5959997v13.0440006
			c-1.9179993,0.0849991-3.6681824,0.5790005-5.1951752,1.4619999l-11.0488205,6.382l-2.75,1.5809994l-0.0011826,0.0010014
			c-0.0014496,0.0009079-0.0167465,0.0091133-0.0233612,0.0130901c-1.5050812,0.9049835-2.8176346,2.1389084-3.8464584,3.7459106
			l-11.2759933-6.5100021l-2.7770004,1.5960007v5.1389999l11.6729965,6.7389984
			C116.7602692,40.1496162,116.6492691,41.3536148,116.6492691,42.6546173z"/>
		<path opacity="0.2121212" fill="#8BA626" d="M177.7331543,94.4446182l2.2249908-3.1669998l-11.2872009-14.0440063
			l-2.7767944,1.5950012l-2.2249908,3.1679993l11.2877808,14.0440063L177.7331543,94.4446182z M159.9299469,84.1656189
			l6.5151978,16.7929993l-2.7759857,1.5949936l-3.8530121,0.3490067l-6.5182037-16.8010025l2.7762146-1.5950012
			L159.9299469,84.1656189z M131.0441589,18.4636154l2.7759857-1.5949993l-6.5179901-16.7950001l-3.8530045,0.342
			l-2.776001,1.5960001l6.5157928,16.7989998L131.0441589,18.4636154z M121.2241516,24.1406155l2.2227859-3.1650009
			l-11.2847824-14.039999l-2.7770004,1.5959997l-2.2250061,3.1640005l11.288002,14.0410004L121.2241516,24.1406155z
			 M114.4261551,42.6546173c0,2.5,0.3247833,5.0959969,0.9019928,7.7129974l-5.3912048,0.4830017l-2.7767944,1.5960007
			l2.2250061,5.7360001l8.1369934-0.7290001c1.9117889,4.8389969,4.614006,9.5180016,7.8497925,13.5919991l-4.6987915,6.6849976
			l3.8527908,4.7970047l2.7762146-1.5960007l3.1190033-4.4380035c1.9729919,1.802002,4.0529938,3.3759995,6.2109985,4.6220016
			c1.1287842,0.6520004,2.2289886,1.1589966,3.3119965,1.5970001v13.4869995l4.4507904,2.5690002l2.7762146-1.5960007V84.1306152
			c1.8947754-0.0879974,3.5952606-0.6320419,5.1367798-1.4489975c0.0080719-0.0042801,0.0162506-0.0089264,0.0252075-0.0139999
			c1.5134583-0.8579788,2.7960052-2.114006,3.8209991-3.7020035c-1.0249939,1.5879974-2.3149872,2.8310013-3.8211975,3.7020035
			l2.7769928-1.5950012l11.0482178-6.3830032c1.522995-0.8809967,2.822998-2.1469955,3.8529968-3.7610016l11.302002,6.5250015
			l2.776001-1.5960007v-5.1380005l-11.7022247-6.7569962c0.1602173-1.1520004,0.2710114-2.3520012,0.2710114-3.6479988
			c0-2.4980011-0.3247986-5.0920029-0.901001-7.7080002l5.4250031-0.4840012l2.7761993-1.5950012l-2.2249908-5.7339973
			l-8.1682129,0.7289963c-1.908783-4.8309975-4.6047974-9.5029984-7.833786-13.572998l4.7139893-6.710001l-3.8522034-4.789999
			l-2.7767944,1.5949993l-3.1319885,4.453001c-1.9780121-1.8080006-4.0630035-3.387001-6.227005-4.6359997
			c-1.1199951-0.6459999-2.2109985-1.1500015-3.2859955-1.5860004V6.7746153l-4.4500122-2.5689998l-2.7769928,1.5959997v13.0440006
			c-1.9179993,0.0849991-3.6682129,0.5790005-5.1952209,1.4619999l-11.0487823,6.382l-2.75,1.5809994l-0.0012131,0.0010014
			c-0.0016937,0.0010605-0.016716,0.0091095-0.0230865,0.0129395c-1.5053253,0.9051342-2.8179092,2.1390591-3.8466949,3.7460613
			l-11.276001-6.5100021l-2.7770004,1.5960007v5.1389999l11.6729965,6.7389984
			C114.5371552,40.1496162,114.4261551,41.3536148,114.4261551,42.6546173z"/>
		<path opacity="0.2424242" fill="#8BA626" d="M175.510025,94.4446182l2.2250061-3.1669998l-11.2872467-14.0440063
			l-2.7767487,1.5950012l-2.2250061,3.1679993l11.2877655,14.0440063L175.510025,94.4446182z M157.7067871,84.1656189
			l6.5152435,16.7929993l-2.776001,1.5949936l-3.8529968,0.3490067l-6.5182495-16.8010025l2.7762451-1.5950012
			L157.7067871,84.1656189z M128.8210297,18.4636154l2.776001-1.5949993l-6.5179977-16.7950001l-3.8530045,0.342
			l-2.776001,1.5960001l6.5157623,16.7989998L128.8210297,18.4636154z M119.00103,24.1406155l2.2227554-3.1650009
			l-11.2847519-14.039999l-2.7770004,1.5959997l-2.2250061,3.1640005l11.288002,14.0410004L119.00103,24.1406155z
			 M112.2030334,42.6546173c0,2.5,0.3247528,5.0959969,0.9020004,7.7129974l-5.391243,0.4830017l-2.7767639,1.5960007
			l2.2250061,5.7360001l8.137001-0.7290001c1.9117508,4.8389969,4.6139984,9.5180016,7.8497543,13.5919991l-4.698761,6.6849976
			l3.8527603,4.7970047l2.7762451-1.5960007l3.1189957-4.4380035c1.9730072,1.802002,4.053009,3.3759995,6.2109985,4.6220016
			c1.1287537,0.6520004,2.2290039,1.1589966,3.3119965,1.5970001v13.4869995l4.4507599,2.5690002l2.7762451-1.5960007V84.1306152
			c1.8947601-0.0879974,3.5946808-0.6331635,5.1367645-1.4489975c0.0080872-0.0042877,0.0162811-0.0089264,0.025238-0.0139999
			c1.5134583-0.8579788,2.7960052-2.114006,3.8209991-3.7020035c-1.0249939,1.5879974-2.3150024,2.8310013-3.8212433,3.7020035
			l2.7770081-1.5950012l11.048233-6.3830032c1.522995-0.8809967,2.822998-2.1469955,3.8529968-3.7610016l11.302002,6.5250015
			l2.776001-1.5960007v-5.1380005l-11.70224-6.7569962c0.1602478-1.1520004,0.2709961-2.3520012,0.2709961-3.6479988
			c0-2.4980011-0.3247528-5.0920029-0.901001-7.7080002l5.4250031-0.4840012l2.7762451-1.5950012l-2.2250061-5.7339973
			l-8.1682434,0.7289963c-1.9087524-4.8309975-4.6047516-9.5029984-7.8337555-13.572998l4.7140045-6.710001l-3.8522491-4.789999
			l-2.7767487,1.5949993l-3.1320038,4.453001c-1.9779968-1.8080006-4.0630035-3.387001-6.227005-4.6359997
			c-1.1199951-0.6459999-2.2109985-1.1500015-3.2859955-1.5860004V6.7746153l-4.4499969-2.5689998l-2.7770081,1.5959997v13.0440006
			c-1.9179993,0.0849991-3.6682281,0.5790005-5.1952362,1.4619999l-11.0487595,6.382l-2.75,1.5809994l-0.0012436,0.0010014
			c-0.0019379,0.0012112-0.0166931,0.0091038-0.0228119,0.0127869c-1.5055695,0.9052868-2.8181839,2.1392117-3.8469391,3.7462139
			l-11.276001-6.5100021l-2.7770004,1.5960007v5.1389999l11.6729965,6.7389984
			C112.3140335,40.1496162,112.2030334,41.3536148,112.2030334,42.6546173z"/>
		<path opacity="0.2727273" fill="#8BA626" d="M173.286911,94.4446182l2.2249908-3.1669998l-11.287262-14.0440063
			l-2.7767334,1.5950012l-2.2249908,3.1679993l11.2877197,14.0440063L173.286911,94.4446182z M155.4836426,84.1656189
			l6.515274,16.7929993l-2.776001,1.5949936l-3.8530121,0.3490067l-6.5182648-16.8010025l2.7762756-1.5950012
			L155.4836426,84.1656189z M126.597908,18.4636154l2.7760086-1.5949993l-6.5180054-16.7950001l-3.8530045,0.342
			l-2.776001,1.5960001l6.5157318,16.7989998L126.597908,18.4636154z M116.7779083,24.1406155l2.2227249-3.1650009
			l-11.2847214-14.039999l-2.7770004,1.5959997l-2.2250061,3.1640005l11.288002,14.0410004L116.7779083,24.1406155z
			 M109.9799118,42.6546173c0,2.5,0.3247223,5.0959969,0.9020004,7.7129974l-5.3912735,0.4830017l-2.7767334,1.5960007
			l2.2250061,5.7360001l8.137001-0.7290001c1.9117203,4.8389969,4.6139984,9.5180016,7.8497238,13.5919991l-4.6987305,6.6849976
			l3.8527298,4.7970047l2.7762756-1.5960007l3.1189957-4.4380035c1.9729996,1.802002,4.0530014,3.3759995,6.2110062,4.6220016
			c1.1287231,0.6520004,2.2289886,1.1589966,3.3119965,1.5970001v13.4869995l4.4507294,2.5690002l2.7762756-1.5960007V84.1306152
			c1.8947144-0.0879974,3.5940857-0.6342773,5.1367188-1.4489975c0.0081329-0.0042953,0.0163116-0.0089264,0.0252686-0.0139999
			c1.5134583-0.8579788,2.7960052-2.114006,3.8210144-3.7020035c-1.0250092,1.5879974-2.3150024,2.8310013-3.8212738,3.7020035
			l2.7769928-1.5950012l11.0482788-6.3830032c1.522995-0.8809967,2.822998-2.1469955,3.8529968-3.7610016l11.302002,6.5250015
			l2.776001-1.5960007v-5.1380005l-11.7022705-6.7569962c0.1602631-1.1520004,0.2709961-2.3520012,0.2709961-3.6479988
			c0-2.4980011-0.3247375-5.0920029-0.901001-7.7080002l5.4250031-0.4840012l2.7762604-1.5950012l-2.2249908-5.7339973
			l-8.1682739,0.7289963c-1.9087219-4.8309975-4.6047211-9.5029984-7.833725-13.572998l4.7140045-6.710001l-3.8522797-4.789999
			l-2.7767334,1.5949993l-3.1319885,4.453001c-1.9780121-1.8080006-4.0630035-3.387001-6.227005-4.6359997
			c-1.1199951-0.6459999-2.2109985-1.1500015-3.2859955-1.5860004V6.7746153l-4.4500122-2.5689998l-2.7769928,1.5959997v13.0440006
			c-1.9179993,0.0849991-3.6682739,0.5790005-5.1952667,1.4619999l-11.0487366,6.382l-2.75,1.5809994l-0.0012665,0.0010014
			c-0.002182,0.0013638-0.0166702,0.0091-0.0225525,0.0126362c-1.505806,0.9054375-2.8184509,2.1393623-3.8471756,3.7463646
			l-11.276001-6.5100021l-2.7770004,1.5960007v5.1389999l11.6729965,6.7389984
			C110.0909119,40.1496162,109.9799118,41.3536148,109.9799118,42.6546173z"/>
		<path opacity="0.3030303" fill="#8BA626" d="M171.0637817,94.4446182l2.2250061-3.1669998l-11.2873077-14.0440063
			l-2.7766876,1.5950012l-2.2250061,3.1679993l11.2877045,14.0440063L171.0637817,94.4446182z M153.2604828,84.1656189
			l6.5153046,16.7929993l-2.776001,1.5949936l-3.8529968,0.3490067l-6.5183105-16.8010025l2.7763062-1.5950012
			L153.2604828,84.1656189z M124.3747864,18.4636154l2.776001-1.5949993l-6.5179977-16.7950001l-3.8530045,0.342
			l-2.776001,1.5960001l6.5157013,16.7989998L124.3747864,18.4636154z M114.5547867,24.1406155l2.2226944-3.1650009
			l-11.2846909-14.039999l-2.7770004,1.5959997l-2.2249985,3.1640005l11.2879944,14.0410004L114.5547867,24.1406155z
			 M107.7567902,42.6546173c0,2.5,0.3246918,5.0959969,0.9020004,7.7129974l-5.391304,0.4830017l-2.7766953,1.5960007
			l2.2249985,5.7360001l8.137001-0.7290001c1.9116974,4.8389969,4.6139984,9.5180016,7.8496933,13.5919991l-4.6987,6.6849976
			l3.8526993,4.7970047l2.7763062-1.5960007l3.1189957-4.4380035c1.9729996,1.802002,4.0530014,3.3759995,6.2109985,4.6220016
			c1.1287079,0.6520004,2.2290039,1.1589966,3.3119965,1.5970001v13.4869995l4.4506989,2.5690002l2.7763062-1.5960007V84.1306152
			c1.8946991-0.0879974,3.5935059-0.6353912,5.1367035-1.4489975c0.0081482-0.004303,0.0163422-0.0089264,0.0252991-0.0139999
			c1.5134583-0.8579788,2.7960052-2.114006,3.8209991-3.7020035c-1.0249939,1.5879974-2.3150024,2.8310013-3.8213043,3.7020035
			l2.7770081-1.5950012l11.0482941-6.3830032c1.5230103-0.8809967,2.822998-2.1469955,3.8529968-3.7610016l11.302002,6.5250015
			l2.776001-1.5960007v-5.1380005l-11.702301-6.7569962c0.1603088-1.1520004,0.2709961-2.3520012,0.2709961-3.6479988
			c0-2.4980011-0.3246918-5.0920029-0.901001-7.7080002l5.4250031-0.4840012l2.7763062-1.5950012l-2.2250061-5.7339973
			l-8.1683044,0.7289963c-1.9086914-4.8309975-4.6046906-9.5029984-7.8336945-13.572998l4.7140045-6.710001l-3.8522949-4.789999
			l-2.7767029,1.5949993l-3.1320038,4.453001c-1.9779968-1.8080006-4.0630035-3.387001-6.227005-4.6359997
			c-1.1199951-0.6459999-2.2109985-1.1500015-3.2859955-1.5860004V6.7746153l-4.4499969-2.5689998l-2.7770081,1.5959997v13.0440006
			c-1.9179993,0.0849991-3.6682892,0.5790005-5.1952972,1.4619999l-11.0486984,6.382l-2.75,1.5809994l-0.001297,0.0010014
			c-0.0024261,0.0015144-0.0166397,0.0090961-0.0222778,0.0124836c-1.5060501,0.9055901-2.8187256,2.1395149-3.8474197,3.7465172
			l-11.276001-6.5100021l-2.7770004,1.5960007v5.1389999l11.6729965,6.7389984
			C107.8677902,40.1496162,107.7567902,41.3536148,107.7567902,42.6546173z"/>
		<path opacity="0.3333333" fill="#8BA626" d="M168.8406677,94.4446182l2.2250061-3.1669998l-11.2873383-14.0440063
			l-2.7766724,1.5950012l-2.2249908,3.1679993l11.2876587,14.0440063L168.8406677,94.4446182z M151.0373383,84.1656189
			l6.5153351,16.7929993l-2.776001,1.5949936l-3.8530121,0.3490067l-6.5183258-16.8010025l2.7763367-1.5950012
			L151.0373383,84.1656189z M122.1516647,18.4636154l2.776001-1.5949993L118.409668,0.0736154l-3.8530045,0.342
			l-2.7759933,1.5960001l6.5156631,16.7989998L122.1516647,18.4636154z M112.331665,24.1406155l2.2226715-3.1650009
			l-11.284668-14.039999l-2.7770004,1.5959997l-2.2249985,3.1640005l11.2879944,14.0410004L112.331665,24.1406155z
			 M105.5336685,42.6546173c0,2.5,0.3246613,5.0959969,0.9020004,7.7129974l-5.3913345,0.4830017l-2.7766647,1.5960007
			l2.2249985,5.7360001l8.137001-0.7290001c1.9116669,4.8389969,4.6139984,9.5180016,7.8496628,13.5919991l-4.6986618,6.6849976
			l3.8526611,4.7970047l2.7763367-1.5960007l3.1189957-4.4380035c1.9729996,1.802002,4.0530014,3.3759995,6.2110062,4.6220016
			c1.1286621,0.6520004,2.2290039,1.1589966,3.3119965,1.5970001v13.4869995l4.4506683,2.5690002l2.7763367-1.5960007V84.1306152
			c1.8946686-0.0879974,3.5929108-0.6364899,5.1366577-1.4489975c0.0081787-0.0043106,0.0163879-0.0089264,0.0253448-0.0139999
			c1.513443-0.8579788,2.79599-2.114006,3.8209991-3.7020035c-1.0250092,1.5879974-2.3150024,2.8310013-3.8213348,3.7020035
			l2.7769928-1.5950012l11.0483398-6.3830032c1.522995-0.8809967,2.822998-2.1469955,3.8529968-3.7610016l11.302002,6.5250015
			l2.776001-1.5960007v-5.1380005L163.494339,63.962616c0.1603241-1.1520004,0.2709961-2.3520012,0.2709961-3.6479988
			c0-2.4980011-0.3246613-5.0920029-0.901001-7.7080002l5.4250031-0.4840012l2.7763367-1.5950012l-2.2250061-5.7339973
			l-8.168335,0.7289963c-1.9086609-4.8309975-4.60466-9.5029984-7.8336639-13.572998l4.7140045-6.710001l-3.8523407-4.789999
			l-2.7766724,1.5949993l-3.1319885,4.453001c-1.9780121-1.8080006-4.0630035-3.387001-6.227005-4.6359997
			c-1.1199951-0.6459999-2.2109985-1.1500015-3.2859955-1.5860004V6.7746153l-4.4499969-2.5689998l-2.7770081,1.5959997v13.0440006
			c-1.9179993,0.0849991-3.668335,0.5790005-5.1953354,1.4619999l-11.0486679,6.382l-2.75,1.5809994l-0.0013275,0.0010014
			c-0.0026703,0.001667-0.0166092,0.0090923-0.0220032,0.0123329c-1.5062943,0.9057407-2.8190002,2.1396656-3.8476639,3.7466679
			l-11.276001-6.5100021l-2.7770004,1.5960007v5.1389999l11.6729965,6.7389984
			C105.6446686,40.1496162,105.5336685,41.3536148,105.5336685,42.6546173z"/>
		<path opacity="0.3636364" fill="#8BA626" d="M166.6175385,94.4446182l2.2250061-3.1669998l-11.2873688-14.0440063
			l-2.7766266,1.5950012l-2.2250061,3.1679993l11.2876434,14.0440063L166.6175385,94.4446182z M148.8141785,84.1656189
			l6.5153656,16.7929993l-2.776001,1.5949936l-3.8529968,0.3490067l-6.5183716-16.8010025l2.7763672-1.5950012
			L148.8141785,84.1656189z M119.9285431,18.4636154l2.776001-1.5949993l-6.5179977-16.7950001l-3.8530045,0.342
			l-2.7759933,1.5960001l6.5156326,16.7989998L119.9285431,18.4636154z M110.1085434,24.1406155l2.222641-3.1650009
			l-11.2846375-14.039999l-2.7770004,1.5959997l-2.2249985,3.1640005l11.2879944,14.0410004L110.1085434,24.1406155z
			 M103.3105469,42.6546173c0,2.5,0.3246384,5.0959969,0.9020004,7.7129974l-5.3913651,0.4830017l-2.7766342,1.5960007
			l2.2249985,5.7360001l8.137001-0.7290001c1.9116364,4.8389969,4.6139984,9.5180016,7.8496323,13.5919991l-4.6986313,6.6849976
			l3.8526306,4.7970047l2.7763672-1.5960007l3.1189957-4.4380035c1.9730072,1.802002,4.0530014,3.3759995,6.2110062,4.6220016
			c1.1286316,0.6520004,2.2289963,1.1589966,3.3120041,1.5970001v13.4869995l4.4506226,2.5690002l2.7763672-1.5960007V84.1306152
			c1.8946381-0.0879974,3.5923462-0.6375885,5.1366425-1.4489975c0.0082092-0.0043182,0.0164032-0.0089264,0.0253601-0.0139999
			c1.5134583-0.8579788,2.7960052-2.114006,3.8209991-3.7020035c-1.0249939,1.5879974-2.3150024,2.8310013-3.8213654,3.7020035
			l2.7770081-1.5950012l11.0483551-6.3830032c1.5230103-0.8809967,2.822998-2.1469955,3.8529968-3.7610016l11.302002,6.5250015
			l2.776001-1.5960007v-5.1380005l-11.7023621-6.7569962c0.1603699-1.1520004,0.2709961-2.3520012,0.2709961-3.6479988
			c0-2.4980011-0.3246307-5.0920029-0.901001-7.7080002l5.4250031-0.4840012l2.7763672-1.5950012l-2.2250061-5.7339973
			l-8.1683502,0.7289963c-1.9086456-4.8309975-4.6046448-9.5029984-7.8336487-13.572998l4.7140045-6.710001l-3.852356-4.789999
			l-2.7766418,1.5949993l-3.1320038,4.453001c-1.9779968-1.8080006-4.0630035-3.387001-6.2269897-4.6359997
			c-1.1200104-0.6459999-2.2110138-1.1500015-3.2860107-1.5860004V6.7746153l-4.4499969-2.5689998l-2.7769928,1.5959997v13.0440006
			c-1.9180069,0.0849991-3.6683731,0.5790005-5.1953735,1.4619999l-11.0486298,6.382l-2.75,1.5809994l-0.0013657,0.0010014
			c-0.0029068,0.0018177-0.0165863,0.0090885-0.0217285,0.0121803c-1.5065384,0.9058933-2.8192749,2.1398182-3.847908,3.7468204
			l-11.276001-6.5100021l-2.7770004,1.5960007v5.1389999l11.6729965,6.7389984
			C103.4215469,40.1496162,103.3105469,41.3536148,103.3105469,42.6546173z"/>
		<path opacity="0.3939394" fill="#8BA626" d="M164.3944244,94.4446182l2.2250061-3.1669998l-11.2873993-14.0440063
			l-2.7766113,1.5950012l-2.2249908,3.1679993l11.2875977,14.0440063L164.3944244,94.4446182z M146.5910339,84.1656189
			l6.5153961,16.7929993l-2.776001,1.5949936l-3.8530121,0.3490067l-6.5183868-16.8010025l2.7763977-1.5950012
			L146.5910339,84.1656189z M117.7054214,18.4636154l2.776001-1.5949993l-6.5179977-16.7950001l-3.8529968,0.342
			l-2.776001,1.5960001l6.5156021,16.7989998L117.7054214,18.4636154z M107.8854218,24.1406155l2.2226105-3.1650009
			L98.8234253,6.9356155l-2.7770004,1.5959997l-2.2249985,3.1640005l11.2879944,14.0410004L107.8854218,24.1406155z
			 M101.0874252,42.6546173c0,2.5,0.3246078,5.0959969,0.9020004,7.7129974l-5.3913956,0.4830017l-2.7766037,1.5960007
			l2.2249985,5.7360001l8.137001-0.7290001c1.9116058,4.8389969,4.6139984,9.5180016,7.8496017,13.5919991l-4.6986008,6.6849976
			l3.8526001,4.7970047l2.7763977-1.5960007l3.1190033-4.4380035c1.9729996,1.802002,4.0529938,3.3759995,6.2109985,4.6220016
			c1.1286011,0.6520004,2.2289963,1.1589966,3.3119965,1.5970001v13.4869995l4.4506073,2.5690002l2.7763977-1.5960007V84.1306152
			c1.8946075-0.0879974,3.5917664-0.6386795,5.1365967-1.4489975c0.0082397-0.0043182,0.016449-0.0089264,0.0254059-0.0139999
			c1.5134583-0.8579788,2.79599-2.114006,3.8209991-3.7020035c-1.0250092,1.5879974-2.3150024,2.8310013-3.8213959,3.7020035
			l2.7769928-1.5950012l11.0484009-6.3830032c1.522995-0.8809967,2.822998-2.1469955,3.8529968-3.7610016l11.302002,6.5250015
			l2.776001-1.5960007v-5.1380005l-11.7023926-6.7569962c0.1603851-1.1520004,0.2709961-2.3520012,0.2709961-3.6479988
			c0-2.4980011-0.3246002-5.0920029-0.901001-7.7080002l5.4250031-0.4840012l2.7763977-1.5950012l-2.2250061-5.7339973
			l-8.168396,0.7289963c-1.9085999-4.8309975-4.604599-9.5029984-7.8336029-13.572998l4.7140045-6.710001l-3.8524017-4.789999
			l-2.7766113,1.5949993l-3.1319885,4.453001c-1.9779968-1.8080006-4.0630035-3.387001-6.227005-4.6359997
			c-1.1199951-0.6459999-2.2109985-1.1500015-3.2859955-1.5860004V6.7746153l-4.4499969-2.5689998l-2.7770081,1.5959997v13.0440006
			c-1.9179993,0.0849991-3.668396,0.5790005-5.1953964,1.4619999l-11.0485992,6.382l-2.75,1.5809994l-0.0013962,0.0010014
			c-0.0031509,0.0019684-0.0165558,0.0090828-0.0214539,0.0120296c-1.5067825,0.906044-2.8195496,2.1399689-3.8481522,3.7469711
			l-11.276001-6.5100021l-2.7770004,1.5960007v5.1389999l11.6730042,6.7389984
			C101.1984253,40.1496162,101.0874252,41.3536148,101.0874252,42.6546173z"/>
		<path opacity="0.4242424" fill="#8BA626" d="M162.1713104,94.4446182l2.2249908-3.1669998l-11.2874298-14.0440063
			l-2.7765656,1.5950012l-2.2250061,3.1679993l11.2875824,14.0440063L162.1713104,94.4446182z M144.3678741,84.1656189
			l6.5154266,16.7929993l-2.776001,1.5949936l-3.8529968,0.3490067l-6.5184174-16.8010025l2.776413-1.5950012
			L144.3678741,84.1656189z M115.4822998,18.4636154l2.776001-1.5949993L111.740303,0.0736154l-3.8529968,0.342l-2.776001,1.5960001
			l6.5155716,16.7989998L115.4822998,18.4636154z M105.6623001,24.1406155l2.22258-3.1650009L96.6003036,6.9356155
			l-2.7770004,1.5959997l-2.2249985,3.1640005l11.288002,14.0410004L105.6623001,24.1406155z M98.8643036,42.6546173
			c0,2.5,0.3245773,5.0959969,0.9020004,7.7129974l-5.3914261,0.4830017l-2.7765732,1.5960007l2.2249985,5.7360001
			l8.137001-0.7290001c1.9115753,4.8389969,4.6139984,9.5180016,7.8495712,13.5919991l-4.6985703,6.6849976l3.8525772,4.7970047
			l2.7764206-1.5960007l3.1190033-4.4380035c1.9729996,1.802002,4.0529938,3.3759995,6.2109985,4.6220016
			c1.1285706,0.6520004,2.2289963,1.1589966,3.3119965,1.5970001v13.4869995l4.4505844,2.5690002l2.776413-1.5960007V84.1306152
			c1.894577-0.0879974,3.5912018-0.6397705,5.1365814-1.4489975c0.008255-0.0043259,0.0164642-0.0089264,0.0254211-0.0139999
			c1.5134583-0.8579788,2.7960052-2.114006,3.8209991-3.7020035c-1.0249939,1.5879974-2.3150024,2.8310013-3.8214264,3.7020035
			l2.7770081-1.5950012l11.0484161-6.3830032c1.5230103-0.8809967,2.822998-2.1469955,3.8530121-3.7610016l11.3019867,6.5250015
			l2.776001-1.5960007v-5.1380005l-11.7024231-6.7569962c0.1604309-1.1520004,0.2710114-2.3520012,0.2710114-3.6479988
			c0-2.4980011-0.324585-5.0920029-0.901001-7.7080002l5.4249878-0.4840012l2.7764282-1.5950012l-2.2249908-5.7339973
			l-8.1684265,0.7289963c-1.9085846-4.8309975-4.6045837-9.5029984-7.8335876-13.572998l4.7140045-6.710001l-3.852417-4.789999
			l-2.7765808,1.5949993l-3.1320038,4.453001c-1.9779968-1.8080006-4.0630035-3.387001-6.2269897-4.6359997
			c-1.1200104-0.6459999-2.2110138-1.1500015-3.2860107-1.5860004V6.7746153l-4.4499969-2.5689998l-2.7770004,1.5959997v13.0440006
			c-1.9179993,0.0849991-3.6684189,0.5790005-5.1954193,1.4619999l-11.0485764,6.382l-2.75,1.5809994l-0.0014267,0.0010014
			c-0.0033951,0.002121-0.0165253,0.009079-0.0211792,0.011879c-1.507019,0.9061947-2.8198242,2.1401196-3.8483963,3.7471218
			l-11.276001-6.5100021l-2.7770004,1.5960007v5.1389999l11.6730042,6.7389984
			C98.9753036,40.1496162,98.8643036,41.3536148,98.8643036,42.6546173z"/>
		<path opacity="0.4545455" fill="#8BA626" d="M159.9481812,94.4446182l2.2250061-3.1669998l-11.2874603-14.0440063
			l-2.7765503,1.5950012l-2.2249908,3.1679993l11.2875366,14.0440063L159.9481812,94.4446182z M142.1447296,84.1656189
			l6.5154572,16.7929993l-2.776001,1.5949936l-3.8529968,0.3490067l-6.5184631-16.8010025l2.7764587-1.5950012
			L142.1447296,84.1656189z M113.2591782,18.4636154l2.776001-1.5949993l-6.5179977-16.7950001l-3.8529968,0.342
			l-2.776001,1.5960001l6.5155411,16.7989998L113.2591782,18.4636154z M103.4391785,24.1406155l2.2225494-3.1650009
			L94.377182,6.9356155l-2.7770004,1.5959997l-2.2249985,3.1640005l11.288002,14.0410004L103.4391785,24.1406155z
			 M96.6411819,42.6546173c0,2.5,0.3245468,5.0959969,0.9020004,7.7129974l-5.3914566,0.4830017l-2.7765427,1.5960007
			l2.2249985,5.7360001l8.137001-0.7290001c1.9115448,4.8389969,4.6139984,9.5180016,7.8495483,13.5919991l-4.6985474,6.6849976
			l3.8525467,4.7970047l2.7764511-1.5960007l3.1190033-4.4380035c1.9729996,1.802002,4.0529938,3.3759995,6.2109985,4.6220016
			c1.1285477,0.6520004,2.2289963,1.1589966,3.3119965,1.5970001v13.4869995l4.4505463,2.5690002l2.7764587-1.5960007V84.1306152
			c1.8945465-0.0879974,3.5906372-0.6408463,5.1365356-1.4489975c0.0083008-0.0043335,0.01651-0.0089264,0.0254669-0.0139999
			c1.5134583-0.8579788,2.79599-2.114006,3.8209991-3.7020035c-1.0250092,1.5879974-2.3150024,2.8310013-3.8214569,3.7020035
			l2.7769928-1.5950012l11.0484619-6.3830032c1.522995-0.8809967,2.822998-2.1469955,3.8529968-3.7610016l11.302002,6.5250015
			l2.776001-1.5960007v-5.1380005l-11.7024536-6.7569962c0.1604462-1.1520004,0.2709961-2.3520012,0.2709961-3.6479988
			c0-2.4980011-0.3245392-5.0920029-0.901001-7.7080002l5.4250031-0.4840012l2.7764587-1.5950012l-2.2250061-5.7339973
			l-8.168457,0.7289963c-1.9085388-4.8309975-4.604538-9.5029984-7.8335419-13.572998l4.7140045-6.710001l-3.8524628-4.789999
			l-2.776535,1.5949993l-3.1320038,4.453001c-1.9779968-1.8080006-4.0630035-3.387001-6.227005-4.6359997
			c-1.1199951-0.6459999-2.2109985-1.1500015-3.2859955-1.5860004V6.7746153l-4.4500046-2.5689998l-2.7770004,1.5959997v13.0440006
			c-1.9179993,0.0849991-3.6684494,0.5790005-5.1954498,1.4619999l-11.0485458,6.382l-2.75,1.5809994l-0.0014572,0.0010014
			c-0.0036392,0.0022717-0.0165024,0.0090752-0.0209122,0.0117264c-1.5072556,0.9063454-2.8200836,2.1402721-3.8486328,3.7472744
			l-11.276001-6.5100021l-2.7770004,1.5960007v5.1389999l11.6730042,6.7389984
			C96.752182,40.1496162,96.6411819,41.3536148,96.6411819,42.6546173z"/>
		<path opacity="0.4848485" fill="#8BA626" d="M157.7250671,94.4446182l2.2249908-3.1669998l-11.2874756-14.0440063
			l-2.7765198,1.5950012l-2.2250061,3.1679993l11.2875214,14.0440063L157.7250671,94.4446182z M139.9215698,84.1656189
			l6.5154877,16.7929993l-2.776001,1.5949936l-3.8529968,0.3490067l-6.5184784-16.8010025l2.776474-1.5950012
			L139.9215698,84.1656189z M111.0360641,18.4636154l2.7759933-1.5949993l-6.5179977-16.7950001l-3.8529968,0.342
			l-2.776001,1.5960001l6.5155106,16.7989998L111.0360641,18.4636154z M101.2160645,24.1406155l2.2225113-3.1650009
			L92.1540604,6.9356155l-2.7770004,1.5959997l-2.2249985,3.1640005l11.288002,14.0410004L101.2160645,24.1406155z
			 M94.4180603,42.6546173c0,2.5,0.3245163,5.0959969,0.9020004,7.7129974l-5.3914871,0.4830017l-2.7765121,1.5960007
			l2.2249985,5.7360001l8.137001-0.7290001c1.9115143,4.8389969,4.6139984,9.5180016,7.8495178,13.5919991l-4.6985168,6.6849976
			l3.8525162,4.7970047l2.7764816-1.5960007l3.1190033-4.4380035c1.9729996,1.802002,4.0530014,3.3759995,6.2109985,4.6220016
			c1.1285172,0.6520004,2.2289963,1.1589966,3.3119965,1.5970001v13.4869995l4.4505157,2.5690002l2.7764893-1.5960007V84.1306152
			c1.8945084-0.0879974,3.590065-0.641922,5.1365128-1.4489975c0.008316-0.0043411,0.0165253-0.0089264,0.0254822-0.0139999
			c1.5134583-0.8579788,2.7960052-2.114006,3.8209991-3.7020035c-1.0249939,1.5879974-2.3150024,2.8310013-3.8214874,3.7020035
			l2.7770081-1.5950012l11.0484772-6.3830032c1.5230103-0.8809967,2.8230133-2.1469955,3.8530121-3.7610016l11.3019867,6.5250015
			l2.776001-1.5960007v-5.1380005l-11.7024841-6.7569962c0.1604919-1.1520004,0.2710114-2.3520012,0.2710114-3.6479988
			c0-2.4980011-0.3245239-5.0920029-0.901001-7.7080002l5.4249878-0.4840012l2.7764893-1.5950012l-2.2249908-5.7339973
			l-8.1684875,0.7289963c-1.9085236-4.8309975-4.6045227-9.5029984-7.8335114-13.572998l4.7139893-6.710001l-3.852478-4.789999
			l-2.7765198,1.5949993l-3.1320038,4.453001c-1.9779968-1.8080006-4.0629883-3.387001-6.2269897-4.6359997
			c-1.1200104-0.6459999-2.2109985-1.1500015-3.2860031-1.5860004V6.7746153l-4.4500046-2.5689998l-2.7770004,1.5959997v13.0440006
			c-1.9179993,0.0849991-3.6684799,0.5790005-5.1954803,1.4619999l-11.0485153,6.382l-2.75,1.5809994l-0.0014877,0.0010014
			c-0.0038757,0.0024242-0.0164719,0.0090714-0.0206375,0.0115757c-1.5074997,0.906496-2.8203583,2.1404228-3.848877,3.7474251
			l-11.276001-6.5100021l-2.7770004,1.5960007v5.1389999l11.6730042,6.7389984
			C94.5290604,40.1496162,94.4180603,41.3536148,94.4180603,42.6546173z"/>
		<path opacity="0.5151515" fill="#8BA626" d="M155.5019379,94.4446182l2.2250061-3.1669998l-11.2875214-14.0440063
			l-2.7764893,1.5950012l-2.2249908,3.1679993l11.2874756,14.0440063L155.5019379,94.4446182z M137.6984253,84.1656189
			l6.5155182,16.7929993l-2.776001,1.5949936l-3.8529968,0.3490067l-6.5185242-16.8010025l2.7765198-1.5950012
			L137.6984253,84.1656189z M108.8129425,18.4636154l2.7759933-1.5949993l-6.5179977-16.7950001l-3.8529968,0.342
			l-2.776001,1.5960001l6.5154877,16.7989998L108.8129425,18.4636154z M98.9929428,24.1406155l2.2224808-3.1650009
			L89.9309387,6.9356155l-2.7770004,1.5959997l-2.2249985,3.1640005l11.288002,14.0410004L98.9929428,24.1406155z
			 M92.1949387,42.6546173c0,2.5,0.3244858,5.0959969,0.9020004,7.7129974l-5.3915176,0.4830017l-2.7764816,1.5960007
			l2.2249985,5.7360001l8.137001-0.7290001c1.9114838,4.8389969,4.6139984,9.5180016,7.8494873,13.5919991l-4.6984863,6.6849976
			l3.8524857,4.7970047l2.7765121-1.5960007l3.1190033-4.4380035c1.9729996,1.802002,4.0530014,3.3759995,6.2109985,4.6220016
			c1.1284866,0.6520004,2.2289963,1.1589966,3.3119965,1.5970001v13.4869995l4.4504852,2.5690002l2.7765198-1.5960007V84.1306152
			c1.8944855-0.0879974,3.5895081-0.6429901,5.1364899-1.4489975c0.0083313-0.0043488,0.0165558-0.0089264,0.0255127-0.0139999
			c1.5134583-0.8579788,2.79599-2.114006,3.8209991-3.7020035c-1.0250092,1.5879974-2.3150024,2.8310013-3.8215179,3.7020035
			l2.7769928-1.5950012l11.0485229-6.3830032c1.522995-0.8809967,2.822998-2.1469955,3.8529968-3.7610016l11.302002,6.5250015
			l2.776001-1.5960007v-5.1380005L150.155426,63.962616c0.1605072-1.1520004,0.2709961-2.3520012,0.2709961-3.6479988
			c0-2.4980011-0.3244781-5.0920029-0.901001-7.7080002l5.4250031-0.4840012l2.7765198-1.5950012l-2.2250061-5.7339973
			l-8.1685181,0.7289963c-1.9084778-4.8309975-4.6044769-9.5029984-7.8334808-13.572998l4.7140045-6.710001l-3.8525238-4.789999
			l-2.776474,1.5949993l-3.1320038,4.453001c-1.9779968-1.8080006-4.0630035-3.387001-6.227005-4.6359997
			c-1.1199951-0.6459999-2.2109985-1.1500015-3.2859955-1.5860004V6.7746153l-4.4500046-2.5689998l-2.7770004,1.5959997v13.0440006
			c-1.9179993,0.0849991-3.6685104,0.5790005-5.1955109,1.4619999l-11.0484848,6.382l-2.75,1.5809994l-0.0015182,0.0010014
			c-0.0041199,0.0025749-0.0164413,0.0090656-0.0203629,0.0114231c-1.5077438,0.9066486-2.8206329,2.1405754-3.8491211,3.7475777
			l-11.276001-6.5100021l-2.7770004,1.5960007v5.1389999l11.6730042,6.7389984
			C92.3059387,40.1496162,92.1949387,41.3536148,92.1949387,42.6546173z"/>
		<path opacity="0.5454546" fill="#8BA626" d="M153.2788239,94.4446182l2.2249908-3.1669998l-11.2875366-14.0440063
			l-2.7764587,1.5950012l-2.2250061,3.1679993l11.2874603,14.0440063L153.2788239,94.4446182z M135.4752655,84.1656189
			l6.5155487,16.7929993l-2.776001,1.5949936l-3.8529968,0.3490067l-6.5185394-16.8010025l2.776535-1.5950012
			L135.4752655,84.1656189z M106.5898209,18.4636154l2.776001-1.5949993l-6.5180054-16.7950001l-3.8529968,0.342
			l-2.776001,1.5960001l6.5154572,16.7989998L106.5898209,18.4636154z M96.7698212,24.1406155l2.2224503-3.1650009
			L87.7078171,6.9356155l-2.7770004,1.5959997l-2.2249985,3.1640005l11.288002,14.0410004L96.7698212,24.1406155z
			 M89.971817,42.6546173c0,2.5,0.3244553,5.0959969,0.9020004,7.7129974l-5.3915482,0.4830017l-2.7764511,1.5960007
			l2.2249985,5.7360001l8.137001-0.7290001c1.9114532,4.8389969,4.6139984,9.5180016,7.8494568,13.5919991l-4.6984558,6.6849976
			l3.8524551,4.7970047l2.7765427-1.5960007l3.1190033-4.4380035c1.9729996,1.802002,4.0530014,3.3759995,6.2109985,4.6220016
			c1.1284561,0.6520004,2.2289963,1.1589966,3.3119965,1.5970001v13.4869995l4.4504547,2.5690002l2.7765503-1.5960007V84.1306152
			c1.894455-0.0879974,3.5889587-0.6440506,5.1364517-1.4489975c0.0083694-0.0043564,0.0165939-0.0089264,0.0255432-0.0139999
			c1.5134583-0.8579788,2.7960052-2.114006,3.8209991-3.7020035c-1.0249939,1.5879974-2.3150024,2.8310013-3.8215408,3.7020035
			l2.7770004-1.5950012l11.0485382-6.3830032c1.5230103-0.8809967,2.8230133-2.1469955,3.8530121-3.7610016l11.302002,6.5250015
			l2.7759857-1.5960007v-5.1380005l-11.7025452-6.7569962c0.160553-1.1520004,0.2710114-2.3520012,0.2710114-3.6479988
			c0-2.4980011-0.3244629-5.0920029-0.901001-7.7080002l5.4250031-0.4840012l2.776535-1.5950012l-2.2249908-5.7339973
			l-8.1685486,0.7289963c-1.9084625-4.8309975-4.6044617-9.5029984-7.8334503-13.572998l4.7139893-6.710001l-3.8525391-4.789999
			l-2.7764587,1.5949993l-3.1320038,4.453001c-1.9779968-1.8080006-4.0629883-3.387001-6.2269974-4.6359997
			c-1.1199951-0.6459999-2.2109985-1.1500015-3.2859955-1.5860004V6.7746153l-4.4500046-2.5689998l-2.7770004,1.5959997v13.0440006
			c-1.9179993,0.0849991-3.668541,0.5790005-5.1955414,1.4619999l-11.0484543,6.382l-2.75,1.5809994l-0.0015488,0.0010014
			c-0.004364,0.0027275-0.0164108,0.0090618-0.0200882,0.0112724c-1.507988,0.9067993-2.8209076,2.1407261-3.8493652,3.7477283
			l-11.276001-6.5100021l-2.7770004,1.5960007v5.1389999l11.6730042,6.7389984
			C90.0828171,40.1496162,89.971817,41.3536148,89.971817,42.6546173z"/>
		<path opacity="0.5757576" fill="#8BA626" d="M151.0556946,94.4446182l2.2250061-3.1669998l-11.2875824-14.0440063
			l-2.7764282,1.5950012l-2.2249908,3.1679993l11.2874146,14.0440063L151.0556946,94.4446182z M133.252121,84.1656189
			l6.5155792,16.7929993l-2.776001,1.5949936l-3.8529968,0.3490067l-6.5185776-16.8010025l2.7765732-1.5950012
			L133.252121,84.1656189z M104.3666992,18.4636154l2.776001-1.5949993l-6.5180054-16.7950001l-3.8529968,0.342l-2.776001,1.5960001
			l6.5154266,16.7989998L104.3666992,18.4636154z M94.5466995,24.1406155l2.2224197-3.1650009L85.4846954,6.9356155
			L82.707695,8.5316153l-2.2249985,3.1640005l11.288002,14.0410004L94.5466995,24.1406155z M87.7486954,42.6546173
			c0,2.5,0.3244247,5.0959969,0.9020004,7.7129974l-5.391571,0.4830017l-2.7764282,1.5960007l2.2249985,5.7360001
			l8.137001-0.7290001c1.9114227,4.8389969,4.6139984,9.5180016,7.8494263,13.5919991l-4.6984253,6.6849976l3.8524246,4.7970047
			l2.7765732-1.5960007l3.1190033-4.4380035c1.9729996,1.802002,4.0530014,3.3759995,6.2109985,4.6220016
			c1.1284256,0.6520004,2.2290039,1.1589966,3.3120041,1.5970001v13.4869995l4.4504242,2.5690002l2.7765732-1.5960007V84.1306152
			c1.8944244-0.0879974,3.5884094-0.6451035,5.1364212-1.4489975c0.0084-0.004364,0.0166245-0.0089264,0.0255814-0.0139999
			c1.5134506-0.8579788,2.79599-2.114006,3.8209991-3.7020035c-1.0250092,1.5879974-2.3150024,2.8310013-3.821579,3.7020035
			l2.7769928-1.5950012l11.048584-6.3830032c1.522995-0.8809967,2.822998-2.1469955,3.8529968-3.7610016l11.302002,6.5250015
			l2.776001-1.5960007v-5.1380005l-11.7025757-6.7569962c0.1605682-1.1520004,0.2709961-2.3520012,0.2709961-3.6479988
			c0-2.4980011-0.3244171-5.0920029-0.901001-7.7080002l5.4250031-0.4840012l2.7765808-1.5950012l-2.2250061-5.7339973
			l-8.1685791,0.7289963c-1.9084167-4.8309975-4.6044159-9.5029984-7.8334198-13.572998l4.7140045-6.710001l-3.8525848-4.789999
			l-2.776413,1.5949993l-3.1320038,4.453001c-1.9779968-1.8080006-4.0630035-3.387001-6.227005-4.6359997
			c-1.1199951-0.6459999-2.2109985-1.1500015-3.2859955-1.5860004V6.7746153l-4.4500046-2.5689998l-2.7769928,1.5959997v13.0440006
			c-1.9180069,0.0849991-3.6685791,0.5790005-5.1955795,1.4619999l-11.0484238,6.382l-2.75,1.5809994l-0.0015793,0.0010014
			c-0.0046005,0.0028782-0.0163879,0.009058-0.0198135,0.0111198c-1.5082321,0.9069519-2.8211823,2.1408787-3.8496094,3.7478809
			l-11.276001-6.5100021l-2.7770004,1.5960007v5.1389999l11.6730042,6.7389984
			C87.8596954,40.1496162,87.7486954,41.3536148,87.7486954,42.6546173z"/>
		<path opacity="0.6060606" fill="#8BA626" d="M148.8325806,94.4446182l2.2249908-3.1669998l-11.2875977-14.0440063
			l-2.7763977,1.5950012l-2.2250061,3.1679993l11.2873993,14.0440063L148.8325806,94.4446182z M131.0289764,84.1656189
			l6.5155945,16.7929993l-2.776001,1.5949936l-3.8529968,0.3490067l-6.5186005-16.8010025l2.7766037-1.5950012
			L131.0289764,84.1656189z M102.1435776,18.4636154l2.776001-1.5949993L98.4015732,0.0736154l-3.8529968,0.342l-2.776001,1.5960001
			l6.5153961,16.7989998L102.1435776,18.4636154z M92.3235779,24.1406155l2.2223892-3.1650009L83.2615738,6.9356155
			l-2.7770004,1.5959997l-2.2249985,3.1640005l11.288002,14.0410004L92.3235779,24.1406155z M85.5255737,42.6546173
			c0,2.5,0.3243942,5.0959969,0.9020004,7.7129974l-5.3916016,0.4830017l-2.7763977,1.5960007l2.2249985,5.7360001
			l8.137001-0.7290001c1.9113922,4.8389969,4.6139984,9.5180016,7.8493958,13.5919991l-4.6983948,6.6849976l3.8523941,4.7970047
			l2.7766037-1.5960007l3.1190033-4.4380035c1.9729996,1.802002,4.0530014,3.3759995,6.2109985,4.6220016
			c1.1283951,0.6520004,2.2290039,1.1589966,3.3120041,1.5970001v13.4869995l4.4503937,2.5690002l2.7766037-1.5960007V84.1306152
			c1.8943939-0.0879974,3.5878677-0.6461563,5.1363907-1.4489975c0.0084305-0.0043716,0.016655-0.0089264,0.0256119-0.0139999
			c1.5134506-0.8579788,2.7959976-2.114006,3.8209991-3.7020035c-1.0250015,1.5879974-2.3150024,2.8310013-3.8216095,3.7020035
			l2.7770004-1.5950012l11.0485992-6.3830032c1.5230103-0.8809967,2.8230133-2.1469955,3.8530121-3.7610016l11.302002,6.5250015
			l2.776001-1.5960007v-5.1380005l-11.7026062-6.7569962c0.1605988-1.1520004,0.2709961-2.3520012,0.2709961-3.6479988
			c0-2.4980011-0.3244019-5.0920029-0.901001-7.7080002l5.4250031-0.4840012l2.7765961-1.5950012l-2.2249908-5.7339973
			l-8.1686096,0.7289963c-1.9084015-4.8309975-4.6044006-9.5029984-7.8333893-13.572998l4.7139893-6.710001l-3.8526001-4.789999
			l-2.7763977,1.5949993l-3.1319962,4.453001c-1.9780045-1.8080006-4.0630035-3.387001-6.2269974-4.6359997
			c-1.1200027-0.6459999-2.2110062-1.1500015-3.2860031-1.5860004V6.7746153l-4.4499969-2.5689998l-2.7770004,1.5959997v13.0440006
			c-1.9180069,0.0849991-3.6686096,0.5790005-5.19561,1.4619999l-11.0483932,6.382l-2.75,1.5809994L92.047966,28.271616
			c-0.0048447,0.0030289-0.0163574,0.0090542-0.0195389,0.0109692c-1.5084763,0.9071026-2.8214569,2.1410294-3.8498535,3.7480316
			l-11.276001-6.5100021l-2.7770004,1.5960007v5.1389999l11.6730042,6.7389984
			C85.6365738,40.1496162,85.5255737,41.3536148,85.5255737,42.6546173z"/>
		<path opacity="0.6363636" fill="#8BA626" d="M146.6094513,94.4446182l2.2250061-3.1669998L137.546814,77.2336121
			l-2.7763519,1.5950012l-2.2250061,3.1679993l11.2873688,14.0440063L146.6094513,94.4446182z M128.8058167,84.1656189
			l6.5156403,16.7929993l-2.776001,1.5949936l-3.8529968,0.3490067l-6.5186386-16.8010025l2.7766342-1.5950012
			L128.8058167,84.1656189z M99.9204559,18.4636154l2.776001-1.5949993L96.1784515,0.0736154l-3.8529968,0.342l-2.776001,1.5960001
			l6.5153656,16.7989998L99.9204559,18.4636154z M90.1004562,24.1406155l2.2223587-3.1650009L81.0384521,6.9356155
			l-2.7770004,1.5959997l-2.2249985,3.1640005l11.288002,14.0410004L90.1004562,24.1406155z M83.3024521,42.6546173
			c0,2.5,0.3243637,5.0959969,0.9020004,7.7129974l-5.3916321,0.4830017l-2.7763672,1.5960007l2.2249985,5.7360001
			l8.137001-0.7290001c1.9113617,4.8389969,4.6139984,9.5180016,7.8493652,13.5919991l-4.6983643,6.6849976l3.8523636,4.7970047
			l2.7766342-1.5960007l3.1190033-4.4380035c1.9729996,1.802002,4.0530014,3.3759995,6.2109985,4.6220016
			c1.1283646,0.6520004,2.2290039,1.1589966,3.3120041,1.5970001v13.4869995l4.4503632,2.5690002l2.7766342-1.5960007V84.1306152
			c1.8943634-0.0879974,3.587326-0.6472015,5.1363602-1.4489975c0.0084534-0.0043793,0.0166855-0.0089264,0.0256424-0.0139999
			c1.5134506-0.8579788,2.7959976-2.114006,3.8209991-3.7020035c-1.0250015,1.5879974-2.3150024,2.8310013-3.82164,3.7020035
			l2.7770004-1.5950012l11.0486374-6.3830032c1.522995-0.8809967,2.822998-2.1469955,3.8529968-3.7610016l11.302002,6.5250015
			l2.776001-1.5960007v-5.1380005l-11.7026367-6.7569962c0.1606445-1.1520004,0.2709961-2.3520012,0.2709961-3.6479988
			c0-2.4980011-0.3243561-5.0920029-0.901001-7.7080002l5.4250031-0.4840012l2.7766418-1.5950012l-2.2250061-5.7339973
			l-8.1686401,0.7289963c-1.9083557-4.8309975-4.6043549-9.5029984-7.8333588-13.572998l4.7140045-6.710001l-3.8526459-4.789999
			l-2.7763519,1.5949993l-3.1320038,4.453001c-1.9780045-1.8080006-4.0630035-3.387001-6.2269974-4.6359997
			c-1.1200027-0.6459999-2.2110062-1.1500015-3.2860031-1.5860004V6.7746153l-4.4499969-2.5689998l-2.7770004,1.5959997v13.0440006
			c-1.9179993,0.0849991-3.6686401,0.5790005-5.1956406,1.4619999l-11.0483627,6.382l-2.75,1.5809994l-0.0016327,0.0010014
			c-0.0050964,0.0031815-0.0163345,0.0090504-0.0192795,0.0108185c-1.5087128,0.9072533-2.8217239,2.14118-3.85009,3.7481823
			l-11.276001-6.5100021l-2.7769928,1.5960007v5.1389999l11.6729965,6.7389984
			C83.4134521,40.1496162,83.3024521,41.3536148,83.3024521,42.6546173z"/>
		<path opacity="0.6666667" fill="#8BA626" d="M144.3863373,94.4446182l2.2249908-3.1669998l-11.2876587-14.0440063
			l-2.7763367,1.5950012l-2.2250061,3.1679993l11.2873383,14.0440063L144.3863373,94.4446182z M126.5826645,84.1656189
			l6.5156631,16.7929993l-2.776001,1.5949936l-3.8529968,0.3490067l-6.5186615-16.8010025l2.7766647-1.5950012
			L126.5826645,84.1656189z M97.6973343,18.4636154l2.776001-1.5949993L93.9553299,0.0736154l-3.8529968,0.342l-2.776001,1.5960001
			l6.5153351,16.7989998L97.6973343,18.4636154z M87.8773346,24.1406155l2.2223358-3.1650009L78.8153305,6.9356155
			l-2.7770004,1.5959997l-2.2249985,3.1640005l11.288002,14.0410004L87.8773346,24.1406155z M81.0793304,42.6546173
			c0,2.5,0.3243332,5.0959969,0.9020004,7.7129974l-5.3916626,0.4830017l-2.7763367,1.5960007l2.2249985,5.7360001
			l8.137001-0.7290001c1.9113388,4.8389969,4.614006,9.5180016,7.8493347,13.5919991l-4.6983337,6.6849976l3.8523331,4.7970047
			l2.7766647-1.5960007l3.1190033-4.4380035c1.9729996,1.802002,4.0530014,3.3759995,6.2109985,4.6220016
			c1.128334,0.6520004,2.2290039,1.1589966,3.3120041,1.5970001v13.4869995l4.4503326,2.5690002l2.7766647-1.5960007V84.1306152
			c1.8943329-0.0879974,3.5867844-0.6482391,5.1363373-1.4489975c0.0084763-0.0043869,0.0167084-0.0089264,0.0256653-0.0139999
			c1.5134583-0.8579788,2.7959976-2.114006,3.8209991-3.7020035c-1.0250015,1.5879974-2.3150024,2.8310013-3.8216705,3.7020035
			l2.7770004-1.5950012l11.0486755-6.3830032c1.522995-0.8809967,2.822998-2.1469955,3.8529968-3.7610016l11.302002,6.5250015
			l2.776001-1.5960007v-5.1380005l-11.7026672-6.7569962c0.1606598-1.1520004,0.2709961-2.3520012,0.2709961-3.6479988
			c0-2.4980011-0.3243408-5.0920029-0.901001-7.7080002l5.4250031-0.4840012l2.7766571-1.5950012l-2.2249908-5.7339973
			l-8.1686707,0.7289963c-1.9083405-4.8309975-4.6043396-9.5029984-7.8333282-13.572998l4.7139893-6.710001l-3.8526611-4.789999
			l-2.7763367,1.5949993l-3.1319962,4.453001c-1.9779968-1.8080006-4.0630035-3.387001-6.2269974-4.6359997
			c-1.1200027-0.6459999-2.2110062-1.1500015-3.2860031-1.5860004V6.7746153l-4.4499969-2.5689998l-2.7770004,1.5959997v13.0440006
			c-1.9179993,0.0849991-3.6686707,0.5790005-5.1956711,1.4619999l-11.0483322,6.382l-2.75,1.5809994l-0.0016632,0.0010014
			c-0.0053329,0.0033321-0.016304,0.0090446-0.0190048,0.0106659c-1.5089569,0.9074059-2.8219986,2.1413326-3.8503342,3.7483349
			L72.456337,25.5206146l-2.7770004,1.5960007v5.1389999l11.6729965,6.7389984
			C81.1903305,40.1496162,81.0793304,41.3536148,81.0793304,42.6546173z"/>
		<path opacity="0.6969697" fill="#8BA626" d="M142.163208,94.4446182l2.2250061-3.1669998l-11.2877045-14.0440063
			l-2.7762909,1.5950012l-2.2250061,3.1679993l11.2873077,14.0440063L142.163208,94.4446182z M124.3595123,84.1656189
			l6.5157013,16.7929993l-2.776001,1.5949936l-3.8529968,0.3490067l-6.5186996-16.8010025l2.7766953-1.5950012
			L124.3595123,84.1656189z M95.4742126,18.4636154l2.776001-1.5949993L91.7322159,0.0736154l-3.8530045,0.342l-2.776001,1.5960001
			l6.5153046,16.7989998L95.4742126,18.4636154z M85.654213,24.1406155l2.2223053-3.1650009L76.5922089,6.9356155
			l-2.7770004,1.5959997L71.59021,11.6956158l11.288002,14.0410004L85.654213,24.1406155z M78.8562088,42.6546173
			c0,2.5,0.3243027,5.0959969,0.9020004,7.7129974l-5.3916931,0.4830017L71.59021,52.4466171l2.2249985,5.7360001
			l8.137001-0.7290001c1.9113083,4.8389969,4.614006,9.5180016,7.8493042,13.5919991l-4.6983032,6.6849976l3.8523026,4.7970047
			l2.7767029-1.5960007l3.1189957-4.4380035c1.9729996,1.802002,4.0530014,3.3759995,6.2109985,4.6220016
			c1.1283035,0.6520004,2.2290039,1.1589966,3.3120041,1.5970001v13.4869995l4.4503021,2.5690002l2.7766953-1.5960007V84.1306152
			c1.8943024-0.0879974,3.5862503-0.6492691,5.1363068-1.4489975c0.0085068-0.0043945,0.0167389-0.0089264,0.0256958-0.0139999
			c1.5134583-0.8579788,2.7959976-2.114006,3.8209991-3.7020035c-1.0250015,1.5879974-2.3150024,2.8310013-3.821701,3.7020035
			l2.7770004-1.5950012l11.0486984-6.3830032c1.522995-0.8809967,2.822998-2.1469955,3.8529968-3.7610016l11.302002,6.5250015
			l2.776001-1.5960007v-5.1380005l-11.7026978-6.7569962c0.1607056-1.1520004,0.2709961-2.3520012,0.2709961-3.6479988
			c0-2.4980011-0.324295-5.0920029-0.901001-7.7080002l5.4250031-0.4840012l2.7767029-1.5950012l-2.2250061-5.7339973
			l-8.1686859,0.7289963c-1.9083099-4.8309975-4.6043091-9.5029984-7.833313-13.572998l4.7140045-6.710001l-3.8526993-4.789999
			l-2.7762985,1.5949993l-3.1320038,4.453001c-1.9779968-1.8080006-4.0630035-3.387001-6.2269974-4.6359997
			c-1.1200027-0.6459999-2.2110062-1.1500015-3.2860031-1.5860004V6.7746153l-4.4499969-2.5689998l-2.7770004,1.5959997v13.0440006
			c-1.9179993,0.0849991-3.6687012,0.5790005-5.1957016,1.4619999l-11.0483017,6.382l-2.75,1.5809994l-0.0016937,0.0010014
			c-0.0055771,0.0034847-0.0162811,0.0090408-0.0187302,0.0105152c-1.509201,0.9075565-2.8222733,2.1414833-3.8505783,3.7484856
			l-11.2759933-6.5100021l-2.7770004,1.5960007v5.1389999l11.6729965,6.7389984
			C78.9672089,40.1496162,78.8562088,41.3536148,78.8562088,42.6546173z"/>
		<path opacity="0.7272727" fill="#8BA626" d="M139.940094,94.4446182l2.2249908-3.1669998l-11.2877197-14.0440063
			l-2.7762756,1.5950012l-2.2249985,3.1679993l11.2872696,14.0440063L139.940094,94.4446182z M122.1363602,84.1656189
			l6.5157242,16.7929993l-2.7759933,1.5949936l-3.8529968,0.3490067l-6.5187302-16.8010025l2.7767258-1.5950012
			L122.1363602,84.1656189z M93.251091,18.4636154l2.776001-1.5949993L89.5090942,0.0736154l-3.8530045,0.342l-2.776001,1.5960001
			l6.515274,16.7989998L93.251091,18.4636154z M83.4310913,24.1406155l2.2222748-3.1650009L74.3690872,6.9356155
			l-2.7769928,1.5959997l-2.2250061,3.1640005l11.288002,14.0410004L83.4310913,24.1406155z M76.6330948,42.6546173
			c0,2.5,0.3242722,5.0959969,0.9019928,7.7129974l-5.3917236,0.4830017l-2.7762756,1.5960007l2.2250061,5.7360001
			l8.1369934-0.7290001c1.9112778,4.8389969,4.614006,9.5180016,7.8492737,13.5919991l-4.6982727,6.6849976l3.852272,4.7970047
			l2.7767334-1.5960007l3.1189957-4.4380035c1.9729996,1.802002,4.0530014,3.3759995,6.2109985,4.6220016
			c1.128273,0.6520004,2.2290039,1.1589966,3.3120041,1.5970001v13.4869995l4.4502716,2.5690002l2.7767258-1.5960007V84.1306152
			c1.8942719-0.0879974,3.5857239-0.6502991,5.1362762-1.4489975c0.0085297-0.0044022,0.0167694-0.0089264,0.0257263-0.0139999
			c1.5134583-0.8579788,2.7959976-2.114006,3.8209991-3.7020035c-1.0250015,1.5879974-2.3150024,2.8310013-3.8217316,3.7020035
			l2.7770004-1.5950012l11.0487366-6.3830032c1.522995-0.8809967,2.822998-2.1469955,3.8529968-3.7610016l11.302002,6.5250015
			l2.776001-1.5960007v-5.1380005l-11.7027283-6.7569962c0.1607208-1.1520004,0.2709961-2.3520012,0.2709961-3.6479988
			c0-2.4980011-0.3242798-5.0920029-0.901001-7.7080002l5.4250031-0.4840012l2.7767181-1.5950012l-2.2249908-5.7339973
			l-8.1687317,0.7289963c-1.9082642-4.8309975-4.6042709-9.5029984-7.8332748-13.572998l4.7139969-6.710001l-3.8527222-4.789999
			l-2.776268,1.5949993l-3.1320038,4.453001c-1.9779968-1.8080006-4.0629959-3.387001-6.2269974-4.6359997
			c-1.1200027-0.6459999-2.2109985-1.1500015-3.2860031-1.5860004V6.7746153l-4.4499969-2.5689998l-2.7770004,1.5959997v13.0440006
			c-1.9179993,0.0849991-3.6687317,0.5790005-5.1957321,1.4619999l-11.0482712,6.382l-2.75,1.5809994L83.155365,28.271616
			c-0.0058212,0.0036354-0.0162506,0.009037-0.0184555,0.0103626c-1.5094452,0.9077091-2.8225479,2.1416359-3.8508148,3.7486382
			l-11.276001-6.5100021l-2.7770004,1.5960007v5.1389999l11.6729965,6.7389984
			C76.7440872,40.1496162,76.6330948,41.3536148,76.6330948,42.6546173z"/>
		<path opacity="0.7575758" fill="#8BA626" d="M137.7169647,94.4446182l2.2250061-3.1669998l-11.2877655-14.0440063
			l-2.7762375,1.5950012l-2.2249985,3.1679993l11.2872467,14.0440063L137.7169647,94.4446182z M119.9132156,84.1656189
			l6.5157547,16.7929993l-2.776001,1.5949936l-3.8529968,0.3490067l-6.5187607-16.8010025l2.7767563-1.5950012
			L119.9132156,84.1656189z M91.0279694,18.4636154l2.776001-1.5949993L87.2859726,0.0736154l-3.8530045,0.342l-2.776001,1.5960001
			l6.5152435,16.7989998L91.0279694,18.4636154z M81.2079697,24.1406155l2.2222443-3.1650009L72.1459732,6.9356155
			l-2.7770004,1.5959997l-2.2250061,3.1640005l11.288002,14.0410004L81.2079697,24.1406155z M74.4099731,42.6546173
			c0,2.5,0.3242416,5.0959969,0.9020004,7.7129974l-5.3917618,0.4830017l-2.7762451,1.5960007l2.2250061,5.7360001
			l8.1369934-0.7290001c1.9112473,4.8389969,4.614006,9.5180016,7.8492432,13.5919991l-4.6982422,6.6849976l3.8522415,4.7970047
			l2.7767639-1.5960007l3.1189957-4.4380035c1.9729996,1.802002,4.0530014,3.3759995,6.2109985,4.6220016
			c1.1282425,0.6520004,2.2290039,1.1589966,3.3120041,1.5970001v13.4869995l4.4502411,2.5690002l2.7767563-1.5960007V84.1306152
			c1.8942413-0.0879974,3.5851974-0.6513214,5.1362457-1.4489975c0.0085602-0.0044022,0.0167999-0.0089264,0.0257568-0.0139999
			c1.5134583-0.8579788,2.7959976-2.114006,3.8209991-3.7020035c-1.0250015,1.5879974-2.3150024,2.8310013-3.8217545,3.7020035
			l2.7770004-1.5950012l11.0487518-6.3830032c1.5230026-0.8809967,2.822998-2.1469955,3.8529968-3.7610016l11.302002,6.5250015
			l2.776001-1.5960007v-5.1380005l-11.7027588-6.7569962c0.1607666-1.1520004,0.2709961-2.3520012,0.2709961-3.6479988
			c0-2.4980011-0.324234-5.0920029-0.9009857-7.7080002l5.4249878-0.4840012l2.7767639-1.5950012l-2.2250061-5.7339973
			l-8.1687469,0.7289963c-1.9082489-4.8309975-4.604248-9.5029984-7.8332443-13.572998l4.7139969-6.710001l-3.8527603-4.789999
			l-2.7762375,1.5949993l-3.1320038,4.453001c-1.9779968-1.8080006-4.0629959-3.387001-6.2269974-4.6359997
			c-1.1200027-0.6459999-2.2109985-1.1500015-3.2860031-1.5860004V6.7746153l-4.4499969-2.5689998l-2.7770004,1.5959997v13.0440006
			c-1.9179993,0.0849991-3.6687622,0.5790005-5.195755,1.4619999l-11.0482483,6.382l-2.75,1.5809994l-0.0017548,0.0010014
			c-0.0060577,0.003788-0.0162201,0.0090332-0.0181808,0.0102119c-1.5096893,0.9078598-2.8228226,2.1417866-3.851059,3.7487888
			l-11.276001-6.5100021l-2.7770004,1.5960007v5.1389999l11.6729965,6.7389984
			C74.5209732,40.1496162,74.4099731,41.3536148,74.4099731,42.6546173z"/>
		<path opacity="0.7878788" fill="#8BA626" d="M135.4938507,94.4446182l2.2249908-3.1669998l-11.2877808-14.0440063
			l-2.7762146,1.5950012l-2.2249985,3.1679993l11.2872086,14.0440063L135.4938507,94.4446182z M117.6900635,84.1656189
			l6.5157852,16.7929993l-2.776001,1.5949936l-3.8529968,0.3490067l-6.5187912-16.8010025l2.7767868-1.5950012
			L117.6900635,84.1656189z M88.8048477,18.4636154l2.776001-1.5949993L85.062851,0.0736154l-3.8530045,0.342l-2.776001,1.5960001
			l6.515213,16.7989998L88.8048477,18.4636154z M78.984848,24.1406155l2.2222137-3.1650009L69.9228516,6.9356155
			l-2.7770004,1.5959997l-2.2250061,3.1640005l11.288002,14.0410004L78.984848,24.1406155z M72.1868515,42.6546173
			c0,2.5,0.3242111,5.0959969,0.9020004,7.7129974l-5.3917923,0.4830017l-2.7762146,1.5960007l2.2250061,5.7360001
			l8.137001-0.7290001c1.9112091,4.8389969,4.6139984,9.5180016,7.849205,13.5919991l-4.6982117,6.6849976l3.8522186,4.7970047
			l2.7767868-1.5960007l3.1189957-4.4380035c1.9729996,1.802002,4.0530014,3.3759995,6.2109985,4.6220016
			c1.128212,0.6520004,2.2290039,1.1589966,3.3120041,1.5970001v13.4869995l4.4502106,2.5690002l2.7767868-1.5960007V84.1306152
			c1.8942108-0.0879974,3.584671-0.6523361,5.1362152-1.4489975c0.0085907-0.0044098,0.0168304-0.0089264,0.0257874-0.0139999
			c1.5134583-0.8579788,2.7959976-2.114006,3.8209991-3.7020035c-1.0250015,1.5879974-2.3150024,2.8310013-3.821785,3.7020035
			l2.7770004-1.5950012l11.0487823-6.3830032c1.5230026-0.8809967,2.8230057-2.1469955,3.8530045-3.7610016l11.302002,6.5250015
			l2.776001-1.5960007v-5.1380005l-11.7027893-6.7569962c0.1607819-1.1520004,0.2709961-2.3520012,0.2709961-3.6479988
			c0-2.4980011-0.3242188-5.0920029-0.901001-7.7080002l5.4250031-0.4840012l2.7767792-1.5950012l-2.2249908-5.7339973
			l-8.1687927,0.7289963c-1.9082108-4.8309975-4.6042099-9.5029984-7.8332062-13.572998l4.7139969-6.710001l-3.8527908-4.789999
			l-2.776207,1.5949993l-3.1320038,4.453001c-1.9779968-1.8080006-4.0629959-3.387001-6.2269974-4.6359997
			c-1.1200027-0.6459999-2.2109985-1.1500015-3.2860031-1.5860004V6.7746153l-4.4499969-2.5689998l-2.7770004,1.5959997v13.0440006
			c-1.9179993,0.0849991-3.6687851,0.5790005-5.1957855,1.4619999l-11.0482178,6.382l-2.75,1.5809994l-0.0017853,0.0010014
			c-0.0063019,0.0039387-0.0161972,0.0090294-0.0179062,0.0100594c-1.5099335,0.9080124-2.8230972,2.1419392-3.8513031,3.7489414
			l-11.276001-6.5100021L60.78685,27.1166153v5.1389999l11.6729965,6.7389984
			C72.2978516,40.1496162,72.1868515,41.3536148,72.1868515,42.6546173z"/>
		<path opacity="0.8181818" fill="#8BA626" d="M133.2707214,94.4446182l2.2250061-3.1669998l-11.2878189-14.0440063
			l-2.7761841,1.5950012l-2.2249985,3.1679993l11.2871857,14.0440063L133.2707214,94.4446182z M115.4669113,84.1656189
			l6.5158157,16.7929993l-2.776001,1.5949936l-3.8529968,0.3490067l-6.5188217-16.8010025l2.7768173-1.5950012
			L115.4669113,84.1656189z M86.5817261,18.4636154l2.776001-1.5949993L82.8397293,0.0736154l-3.8530045,0.342l-2.776001,1.5960001
			l6.5151825,16.7989998L86.5817261,18.4636154z M76.7617264,24.1406155l2.2221832-3.1650009L67.6997299,6.9356155
			l-2.7770004,1.5959997l-2.2250023,3.1640005l11.2879982,14.0410004L76.7617264,24.1406155z M69.9637299,42.6546173
			c0,2.5,0.3241806,5.0959969,0.9020004,7.7129974l-5.3918228,0.4830017l-2.7761803,1.5960007l2.2250023,5.7360001
			l8.137001-0.7290001c1.9111786,4.8389969,4.6139984,9.5180016,7.8491821,13.5919991l-4.6981888,6.6849976l3.8521881,4.7970047
			l2.7768173-1.5960007l3.1189957-4.4380035c1.9729996,1.802002,4.0530014,3.3759995,6.2110062,4.6220016
			c1.1281815,0.6520004,2.2289963,1.1589966,3.3119965,1.5970001v13.4869995l4.4501801,2.5690002l2.7768173-1.5960007V84.1306152
			c1.8941879-0.0879974,3.5841522-0.6533508,5.1361847-1.4489975c0.0086136-0.0044174,0.016861-0.0089264,0.0258179-0.0139999
			c1.5134583-0.8579788,2.7959976-2.114006,3.8209991-3.7020035c-1.0250015,1.5879974-2.3150024,2.8310013-3.8218155,3.7020035
			l2.7770004-1.5950012l11.0488129-6.3830032c1.5230026-0.8809967,2.8230057-2.1469955,3.8530045-3.7610016l11.3019943,6.5250015
			l2.776001-1.5960007v-5.1380005L127.923912,63.962616c0.16082-1.1520004,0.2710037-2.3520012,0.2710037-3.6479988
			c0-2.4980011-0.3241882-5.0920029-0.9010086-7.7080002l5.4249954-0.4840012l2.776825-1.5950012l-2.2250061-5.7339973
			l-8.1688156,0.7289963c-1.9081802-4.8309975-4.6041794-9.5029984-7.8331757-13.572998l4.7139969-6.710001l-3.8528214-4.789999
			l-2.7761765,1.5949993l-3.1320038,4.453001c-1.9779968-1.8080006-4.0629959-3.387001-6.2269974-4.6359997
			c-1.1200027-0.6459999-2.2109985-1.1500015-3.2860031-1.5860004V6.7746153L98.258728,4.2056155l-2.7770004,1.5959997v13.0440006
			c-1.9179993,0.0849991-3.6688156,0.5790005-5.195816,1.4619999l-11.0481873,6.382l-2.75,1.5809994l-0.0018158,0.0010014
			c-0.006546,0.0040913-0.0161667,0.0090237-0.0176392,0.0099087c-1.51017,0.9081631-2.8233566,2.1420898-3.8515396,3.7490921
			l-11.276001-6.5100021l-2.7770004,1.5960007v5.1389999l11.6729965,6.7389984
			C70.0747299,40.1496162,69.9637299,41.3536148,69.9637299,42.6546173z"/>
		<path opacity="0.8484849" fill="#8BA626" d="M131.0476074,94.4446182l2.2250061-3.1669998l-11.2878571-14.0440063
			l-2.7761536,1.5950012l-2.2249985,3.1679993l11.2871475,14.0440063L131.0476074,94.4446182z M113.2437592,84.1656189
			l6.5158463,16.7929993l-2.776001,1.5949936l-3.8529968,0.3490067l-6.5188522-16.8010025l2.7768478-1.5950012
			L113.2437592,84.1656189z M84.3586044,18.4636154l2.776001-1.5949993L80.6166077,0.0736154l-3.8530045,0.342l-2.7759933,1.5960001
			l6.5151443,16.7989998L84.3586044,18.4636154z M74.5386047,24.1406155l2.2221527-3.1650009L65.4766083,6.9356155
			l-2.7770004,1.5959997l-2.2250023,3.1640005l11.2879982,14.0410004L74.5386047,24.1406155z M67.7406082,42.6546173
			c0,2.5,0.3241501,5.0959969,0.9020004,7.7129974l-5.3918495,0.4830017l-2.7761536,1.5960007l2.2250023,5.7360001
			l8.137001-0.7290001c1.9111481,4.8389969,4.6139984,9.5180016,7.8491516,13.5919991l-4.6981506,6.6849976l3.85215,4.7970047
			l2.7768478-1.5960007l3.1189957-4.4380035c1.9729996,1.802002,4.0530014,3.3759995,6.2110062,4.6220016
			c1.1281509,0.6520004,2.2289963,1.1589966,3.3119965,1.5970001v13.4869995l4.4501495,2.5690002l2.7768478-1.5960007V84.1306152
			c1.8941574-0.0879974,3.5836411-0.6543579,5.1361542-1.4489975c0.0086441-0.004425,0.0168915-0.0089264,0.0258484-0.0139999
			c1.5134583-0.8579788,2.7959976-2.114006,3.8209991-3.7020035c-1.0250015,1.5879974-2.3150024,2.8310013-3.821846,3.7020035
			l2.7770004-1.5950012l11.0488434-6.3830032c1.5230026-0.8809967,2.8230057-2.1469955,3.8530045-3.7610016l11.302002,6.5250015
			l2.776001-1.5960007v-5.1380005l-11.7028503-6.7569962c0.1608429-1.1520004,0.2709961-2.3520012,0.2709961-3.6479988
			c0-2.4980011-0.3241501-5.0920029-0.901001-7.7080002l5.4250031-0.4840012l2.7768555-1.5950012l-2.2250061-5.7339973
			l-8.1688461,0.7289963c-1.9081573-4.8309975-4.6041565-9.5029984-7.8331528-13.572998l4.7139969-6.710001l-3.8528442-4.789999
			l-2.7761536,1.5949993l-3.1320038,4.453001c-1.9779968-1.8080006-4.0629959-3.387001-6.2269974-4.6359997
			c-1.1200027-0.6459999-2.2109985-1.1500015-3.2860031-1.5860004V6.7746153l-4.4499969-2.5689998L93.258606,5.8016152v13.0440006
			c-1.9179993,0.0849991-3.6688461,0.5790005-5.1958466,1.4619999l-11.0481567,6.382l-2.75,1.5809994l-0.0018463,0.0010014
			c-0.0067902,0.0042419-0.0161362,0.0090199-0.0173645,0.0097561c-1.5104065,0.9083157-2.8236313,2.1422424-3.8517838,3.7492447
			l-11.276001-6.5100021l-2.7770004,1.5960007v5.1389999l11.6729965,6.7389984
			C67.8516083,40.1496162,67.7406082,41.3536148,67.7406082,42.6546173z"/>
		<path opacity="0.8787879" fill="#8BA626" d="M128.8244781,94.4446182l2.2250061-3.1669998l-11.2878799-14.0440063
			l-2.776123,1.5950012l-2.2249985,3.1679993l11.2871246,14.0440063L128.8244781,94.4446182z M111.020607,84.1656189
			l6.5158768,16.7929993l-2.776001,1.5949936l-3.8529968,0.3490067l-6.5188828-16.8010025l2.7768784-1.5950012
			L111.020607,84.1656189z M82.1354828,18.4636154l2.776001-1.5949993L78.393486,0.0736154l-3.8530045,0.342l-2.7759933,1.5960001
			l6.5151215,16.7989998L82.1354828,18.4636154z M72.3154831,24.1406155l2.2221222-3.1650009L63.2534866,6.9356155
			l-2.7770004,1.5959997l-2.2250023,3.1640005l11.2879982,14.0410004L72.3154831,24.1406155z M65.5174866,42.6546173
			c0,2.5,0.3241196,5.0959969,0.9020004,7.7129974l-5.39188,0.4830017l-2.776123,1.5960007l2.2250023,5.7360001l8.137001-0.7290001
			c1.9111176,4.8389969,4.6139984,9.5180016,7.8491211,13.5919991l-4.6981201,6.6849976l3.8521194,4.7970047l2.7768784-1.5960007
			l3.1189957-4.4380035c1.9729996,1.802002,4.0530014,3.3759995,6.2110062,4.6220016
			c1.1281204,0.6520004,2.2289963,1.1589966,3.3119965,1.5970001v13.4869995l4.450119,2.5690002l2.7768784-1.5960007V84.1306152
			c1.8941269-0.0879974,3.5831299-0.6553574,5.1361237-1.4489975c0.0086746-0.0044327,0.016922-0.0089264,0.0258789-0.0139999
			c1.5134583-0.8579788,2.7959976-2.114006,3.8209991-3.7020035c-1.0250015,1.5879974-2.3149948,2.8310013-3.8218765,3.7020035
			l2.7770004-1.5950012l11.0488739-6.3830032c1.5230026-0.8809967,2.8230057-2.1469955,3.8530045-3.7610016l11.3019943,6.5250015
			l2.776001-1.5960007v-5.1380005l-11.7028732-6.7569962c0.1608734-1.1520004,0.2709961-2.3520012,0.2709961-3.6479988
			c0-2.4980011-0.3241196-5.0920029-0.901001-7.7080002l5.4250107-0.4840012l2.7768707-1.5950012l-2.2250061-5.7339973
			l-8.168869,0.7289963c-1.9081268-4.8309975-4.604126-9.5029984-7.8331223-13.572998l4.7139969-6.710001l-3.8528748-4.789999
			l-2.776123,1.5949993l-3.1320038,4.453001c-1.9779968-1.8080006-4.0629959-3.387001-6.2269974-4.6359997
			c-1.1200027-0.6459999-2.2109985-1.1500015-3.2860031-1.5860004V6.7746153l-4.4499969-2.5689998l-2.7770004,1.5959997v13.0440006
			c-1.9179993,0.0849991-3.6688766,0.5790005-5.1958771,1.4619999l-11.0481186,6.382l-2.75,1.5809994l-0.0018845,0.0010014
			c-0.0070267,0.0043926-0.0161057,0.009016-0.0170898,0.0096054c-1.5106506,0.9084663-2.8239059,2.1423931-3.8520279,3.7493954
			l-11.276001-6.5100021l-2.7770004,1.5960007v5.1389999l11.6729965,6.7389984
			C65.6284866,40.1496162,65.5174866,41.3536148,65.5174866,42.6546173z"/>
		<path opacity="0.9090909" fill="#8BA626" d="M126.6013641,94.4446182l2.2250061-3.1669998l-11.2879181-14.0440063
			l-2.7760849,1.5950012l-2.2250061,3.1679993l11.2870941,14.0440063L126.6013641,94.4446182z M108.7974548,84.1656189
			l6.5159073,16.7929993l-2.776001,1.5949936l-3.8529968,0.3490067l-6.5189133-16.8010025l2.7769165-1.5950012
			L108.7974548,84.1656189z M79.9123611,18.4636154l2.776001-1.5949993L76.1703644,0.0736154l-3.8529968,0.342l-2.776001,1.5960001
			l6.5150909,16.7989998L79.9123611,18.4636154z M70.0923615,24.1406155l2.2220917-3.1650009L61.030365,6.9356155
			l-2.7770004,1.5959997l-2.2250023,3.1640005l11.2879982,14.0410004L70.0923615,24.1406155z M63.2943649,42.6546173
			c0,2.5,0.3240891,5.0959969,0.9020004,7.7129974l-5.3919106,0.4830017l-2.7760925,1.5960007l2.2250023,5.7360001
			l8.137001-0.7290001c1.911087,4.8389969,4.6139984,9.5180016,7.8490906,13.5919991l-4.6980896,6.6849976l3.8520889,4.7970047
			l2.7769089-1.5960007l3.1189957-4.4380035c1.9730072,1.802002,4.0530014,3.3759995,6.2110062,4.6220016
			c1.1280899,0.6520004,2.2289963,1.1589966,3.3119965,1.5970001v13.4869995l4.4500885,2.5690002l2.7769089-1.5960007V84.1306152
			c1.8940964-0.0879974,3.5826187-0.6563492,5.1360931-1.4489975c0.0086975-0.0044403,0.0169525-0.0089264,0.0259094-0.0139999
			c1.5134583-0.8579788,2.7959976-2.114006,3.8209991-3.7020035c-1.0250015,1.5879974-2.3149948,2.8310013-3.821907,3.7020035
			l2.7770004-1.5950012l11.048912-6.3830032c1.522995-0.8809967,2.822998-2.1469955,3.8529968-3.7610016l11.302002,6.5250015
			l2.776001-1.5960007v-5.1380005l-11.7029114-6.7569962c0.1609116-1.1520004,0.2709961-2.3520012,0.2709961-3.6479988
			c0-2.4980011-0.3240891-5.0920029-0.9009933-7.7080002l5.4249954-0.4840012l2.7769165-1.5950012l-2.2250061-5.7339973
			l-8.1689072,0.7289963c-1.9080963-4.8309975-4.6040955-9.5029984-7.8330917-13.572998l4.7139969-6.710001l-3.8529053-4.789999
			l-2.7760925,1.5949993l-3.1320038,4.453001c-1.9779968-1.8080006-4.0629959-3.387001-6.2269974-4.6359997
			c-1.1200027-0.6459999-2.2109985-1.1500015-3.2860031-1.5860004V6.7746153l-4.4499969-2.5689998l-2.7770004,1.5959997v13.0440006
			c-1.9179993,0.0849991-3.6689072,0.5790005-5.1959076,1.4619999l-11.0480881,6.382l-2.75,1.5809994l-0.001915,0.0010014
			c-0.0072708,0.0045452-0.0160828,0.0090122-0.0168152,0.0094547c-1.5108948,0.908617-2.8241806,2.1425438-3.852272,3.7495461
			l-11.276001-6.5100021l-2.7770004,1.5960007v5.1389999l11.6730003,6.7389984
			C63.405365,40.1496162,63.2943649,41.3536148,63.2943649,42.6546173z"/>
		<path opacity="0.9393939" fill="#8BA626" d="M124.3782425,94.4446182l2.2249985-3.1669998L115.3153,77.2336121
			l-2.7760544,1.5950012l-2.2250061,3.1679993l11.2870636,14.0440063L124.3782425,94.4446182z M106.5743027,84.1656189
			l6.5159378,16.7929993l-2.776001,1.5949936l-3.8529968,0.3490067l-6.5189362-16.8010025l2.7769394-1.5950012
			L106.5743027,84.1656189z M77.6892395,18.4636154l2.776001-1.5949993L73.9472427,0.0736154l-3.8529968,0.342l-2.776001,1.5960001
			l6.5150604,16.7989998L77.6892395,18.4636154z M67.8692398,24.1406155l2.2220612-3.1650009L58.8072433,6.9356155
			l-2.7770004,1.5959997l-2.2250023,3.1640005l11.2879982,14.0410004L67.8692398,24.1406155z M61.0712433,42.6546173
			c0,2.5,0.3240585,5.0959969,0.9020004,7.7129974l-5.3919411,0.4830017l-2.776062,1.5960007l2.2250023,5.7360001
			l8.137001-0.7290001c1.9110565,4.8389969,4.6139984,9.5180016,7.8490601,13.5919991l-4.6980591,6.6849976l3.8520584,4.7970047
			l2.7769394-1.5960007l3.1190033-4.4380035c1.9729996,1.802002,4.0529938,3.3759995,6.2109985,4.6220016
			c1.1280594,0.6520004,2.2289963,1.1589966,3.3119965,1.5970001v13.4869995l4.4500656,2.5690002l2.7769394-1.5960007V84.1306152
			c1.8940582-0.0879974,3.5821075-0.657341,5.136055-1.4489975c0.008728-0.0044479,0.016983-0.0089264,0.0259399-0.0139999
			c1.5134583-0.8579788,2.7960052-2.114006,3.8209991-3.7020035c-1.0249939,1.5879974-2.3149948,2.8310013-3.8219376,3.7020035
			l2.7770004-1.5950012l11.0489426-6.3830032c1.522995-0.8809967,2.822998-2.1469955,3.8529968-3.7610016l11.302002,6.5250015
			l2.7759933-1.5960007v-5.1380005l-11.7029343-6.7569962c0.1609421-1.1520004,0.2709961-2.3520012,0.2709961-3.6479988
			c0-2.4980011-0.3240585-5.0920029-0.9009933-7.7080002l5.4249954-0.4840012l2.7769394-1.5950012l-2.2249985-5.7339973
			l-8.1689377,0.7289963c-1.9080658-4.8309975-4.6040649-9.5029984-7.8330612-13.572998l4.7139969-6.710001l-3.8529358-4.789999
			l-2.776062,1.5949993l-3.1320038,4.453001c-1.9779968-1.8080006-4.0629959-3.387001-6.2269974-4.6359997
			c-1.1200027-0.6459999-2.2109985-1.1500015-3.2859955-1.5860004V6.7746153l-4.4500046-2.5689998L86.589241,5.8016152v13.0440006
			c-1.9179993,0.0849991-3.6689377,0.5790005-5.1959381,1.4619999l-11.0480576,6.382l-2.75,1.5809994l-0.0019455,0.0010014
			c-0.007515,0.0046959-0.0160522,0.0090084-0.0165405,0.0093021c-1.5111389,0.9087696-2.8244553,2.1426964-3.8525162,3.7496986
			l-11.276001-6.5100021l-2.7770004,1.5960007v5.1389999l11.6730003,6.7389984
			C61.1822433,40.1496162,61.0712433,41.3536148,61.0712433,42.6546173z"/>
		<path opacity="0.969697" fill="#8BA626" d="M122.1551208,94.4446182l2.2249985-3.1669998l-11.2879715-14.0440063
			l-2.7760239,1.5950012l-2.2250061,3.1679993l11.2870331,14.0440063L122.1551208,94.4446182z M104.3511505,84.1656189
			l6.5159683,16.7929993l-2.776001,1.5949936l-3.8529968,0.3490067l-6.5189667-16.8010025l2.7769699-1.5950012
			L104.3511505,84.1656189z M75.4661179,18.4636154l2.776001-1.5949993L71.7241211,0.0736154l-3.8529968,0.342l-2.776001,1.5960001
			l6.5150299,16.7989998L75.4661179,18.4636154z M65.6461182,24.1406155l2.2220306-3.1650009L56.5841217,6.9356155
			l-2.7770004,1.5959997l-2.2249985,3.1640005L62.870121,25.7366161L65.6461182,24.1406155z M58.8481216,42.6546173
			c0,2.5,0.3240318,5.0959969,0.9020004,7.7129974l-5.3919716,0.4830017l-2.7760277,1.5960007l2.2249985,5.7360001
			l8.137001-0.7290001c1.9110298,4.8389969,4.6139984,9.5180016,7.8490295,13.5919991l-4.6980286,6.6849976l3.8520279,4.7970047
			l2.7769699-1.5960007l3.1190033-4.4380035c1.9729996,1.802002,4.0529938,3.3759995,6.2109985,4.6220016
			c1.1280289,0.6520004,2.2289963,1.1589966,3.3119965,1.5970001v13.4869995l4.4500351,2.5690002l2.7769699-1.5960007V84.1306152
			c1.8940277-0.0879974,3.581604-0.6583252,5.1360245-1.4489975c0.0087585-0.0044556,0.0170135-0.0089264,0.0259705-0.0139999
			c1.5134583-0.8579788,2.7960052-2.114006,3.8209991-3.7020035c-1.0249939,1.5879974-2.3149948,2.8310013-3.8219681,3.7020035
			l2.7770004-1.5950012l11.0489731-6.3830032c1.522995-0.8809967,2.822998-2.1469955,3.8529968-3.7610016l11.302002,6.5250015
			l2.776001-1.5960007v-5.1380005l-11.7029724-6.7569962c0.1609726-1.1520004,0.2710037-2.3520012,0.2710037-3.6479988
			c0-2.4980011-0.3240356-5.0920029-0.901001-7.7080002l5.4249954-0.4840012l2.7769699-1.5950012l-2.2249985-5.7339973
			l-8.1689682,0.7289963c-1.9080276-4.8309975-4.6040344-9.5029984-7.8330307-13.572998l4.7139969-6.710001l-3.8529663-4.789999
			l-2.7760315,1.5949993l-3.1319962,4.453001c-1.9780045-1.8080006-4.0630035-3.387001-6.227005-4.6359997
			c-1.1199951-0.6459999-2.2109985-1.1500015-3.2859955-1.5860004V6.7746153l-4.4500046-2.5689998l-2.7770004,1.5959997v13.0440006
			c-1.9179993,0.0849991-3.6689682,0.5790005-5.1959686,1.4619999l-11.048027,6.382l-2.75,1.5809994l-0.0019684,0.0010014
			c-0.0077591,0.0048485-0.016037,0.0089989-0.0162735,0.0091515c-1.5267601,0.8828487-2.8247299,2.1428471-3.8527603,3.7498493
			l-11.276001-6.5100021l-2.7770004,1.5960007v5.1389999l11.6730003,6.7389984
			C58.9591217,40.1496162,58.8481216,41.3536148,58.8481216,42.6546173z"/>
		<path fill="#8BA626" d="M119.9319992,94.4446182l2.2249985-3.1669998l-11.2879944-14.0440063l-2.776001,1.5950012
			l-2.2249985,3.1679993l11.2869949,14.0440063L119.9319992,94.4446182z M102.1279984,84.1656189l6.5159988,16.7929993
			l-2.7759933,1.5949936l-3.8530045,0.3490067l-6.5189972-16.8010025l2.7770004-1.5950012L102.1279984,84.1656189z
			 M73.2430038,18.4636154l2.7759933-1.5949993L69.5009995,0.0736154l-3.8529968,0.342l-2.776001,1.5960001l6.5149994,16.7989998
			L73.2430038,18.4636154z M63.4230003,24.1406155l2.2219963-3.1650009L54.3610001,6.9356155l-2.7770004,1.5959997
			l-2.2249985,3.1640005l11.2879982,14.0410004L63.4230003,24.1406155z M56.625,42.6546173
			c0,2.5,0.3240013,5.0959969,0.9020004,7.7129974l-5.3920021,0.4830017l-2.7759972,1.5960007l2.2249985,5.7360001
			l8.137001-0.7290001c1.9109993,4.8389969,4.6139984,9.5180016,7.848999,13.5919991l-4.697998,6.6849976l3.8519974,4.7970047
			l2.7770004-1.5960007l3.1190033-4.4380035c1.9729996,1.802002,4.0529938,3.3759995,6.2109985,4.6220016
			c1.1279984,0.6520004,2.2289963,1.1589966,3.3119965,1.5970001v13.4869995l4.4500046,2.5690002l2.7770004-1.5960007V84.1306152
			c1.8939972-0.0879974,3.6240005-0.5800018,5.135994-1.4489975c0.0090027-0.0040054,0.0170059-0.0090027,0.026001-0.0139999
			c1.5060043-0.8710022,2.7960052-2.114006,3.8209991-3.7020035c-1.0249939,1.5879974-2.3149948,2.8310013-3.8219986,3.7020035
			l2.7770004-1.5950012l11.0490036-6.3830032c1.522995-0.8809967,2.822998-2.1469955,3.8529968-3.7610016l11.302002,6.5250015
			l2.776001-1.5960007v-5.1380005l-11.7030029-6.7569962c0.1610031-1.1520004,0.2710037-2.3520012,0.2710037-3.6479988
			c0-2.4980011-0.3240051-5.0920029-0.901001-7.7080002l5.4249954-0.4840012l2.7770004-1.5950012l-2.2249985-5.7339973
			l-8.1689987,0.7289963c-1.9079971-4.8309975-4.6040039-9.5029984-7.8330002-13.572998l4.7139969-6.710001l-3.8529968-4.789999
			l-2.776001,1.5949993l-3.1319962,4.453001c-1.9780045-1.8080006-4.0630035-3.387001-6.227005-4.6359997
			c-1.1199951-0.6459999-2.2109985-1.1500015-3.2859955-1.5860004V6.7746153l-4.4500046-2.5689998l-2.7770004,1.5959997v13.0440006
			c-1.9179993,0.0849991-3.6689987,0.5790005-5.1959991,1.4619999l-11.0479965,6.382l-2.7500038,1.5809994l-0.0019989,0.0010014
			c-0.0079994,0.0049992-0.0159988,0.0089989-0.0159988,0.0089989c-1.5270004,0.8830013-2.8250008,2.1429996-3.8530006,3.7500019
			l-11.276001-6.5100021l-2.7770004,1.5960007v5.1389999l11.6730003,6.7389984
			C56.7360001,40.1496162,56.625,41.3536148,56.625,42.6546173z"/>
	</g>
</g>
<g>
	<linearGradient id="SVGID_4_" gradientUnits="userSpaceOnUse" x1="77.891861" y1="19.759243" x2="109.2953644" y2="74.1517105">
		<stop  offset="0" style="stop-color:#FFD902"/>
		<stop  offset="0.5702932" style="stop-color:#FABA13"/>
		<stop  offset="1" style="stop-color:#F7A418"/>
	</linearGradient>
	<path fill="url(#SVGID_4_)" d="M92.6559982,21.8616161c-6.1360016-3.5430012-11.6899948-3.8770008-15.7089996-1.5540009
		l-11.0479965,6.382l-2.7510033,1.5820007c4.0160027-2.3070011,9.5600014-1.967001,15.6830025,1.5679989
		c12.262001,7.0800018,22.1999969,24.2939987,22.1999969,38.4530029c0,7.0779953-2.4830017,12.0530014-6.5,14.375
		l2.7770004-1.5950012l11.0490036-6.3830032c4.0149994-2.3219986,6.4990005-7.2979965,6.4990005-14.3749962
		C114.8560028,46.1546173,104.9179993,28.9416161,92.6559982,21.8616161z"/>
	<polygon fill="#F9AE15" points="89.3700027,82.1196136 86.5930023,83.7146149 86.5930023,98.7686157 89.3700027,97.1726151 	"/>
	<polygon fill="#F7A418" points="102.1279984,84.1656189 99.3519974,85.7616119 105.8680038,102.5546188 108.6439972,100.9586182 	
		"/>
	<polygon fill="#FFD802" points="98.2730026,84.5056152 95.4960022,86.1016159 99.3519974,85.7616119 102.1279984,84.1656189 	"/>
	<polygon fill="#F38F1C" points="122.1569977,91.2776184 119.3799973,92.872612 117.1549988,96.0406189 119.9319992,94.4446182 	"/>
	<polygon fill="#FAB316" points="110.8690033,77.2336121 108.0930023,78.8296127 119.3799973,92.872612 122.1569977,91.2776184 	"/>
	<polygon fill="#EC621D" points="84.9199982,79.549614 82.1429977,81.1456146 86.5930023,83.7146149 89.3700027,82.1196136 	"/>
	<polygon fill="#F38F1C" points="126.288002,70.7196121 123.5110016,72.3146133 123.5110016,77.4536133 126.288002,75.8576126 	"/>
	<polygon fill="#F7A418" points="113.2559967,63.1956139 110.4800034,64.7916183 123.5110016,72.3146133 126.288002,70.7196121 	"/>
	<polygon fill="#FCC00D" points="76.0189972,71.6576157 73.2430038,73.2536163 66.723999,82.526619 69.5009995,80.9316177 	"/>
	<polygon fill="#EC621D" points="72.1640015,66.8656158 69.387001,68.4616165 73.2430038,73.2536163 76.0189972,71.6576157 	"/>
	<polygon fill="#F38F1C" points="119.9319992,44.7936172 117.1549988,46.3896141 119.3799973,52.1226158 122.1569977,50.5266151 	
		"/>
	<polygon fill="#FAB316" points="108.6439972,45.8006172 105.8680038,47.3966141 117.1549988,46.3896141 119.9319992,44.7936172 	
		"/>
	<polygon fill="#EC621D" points="63.4230003,49.8406143 60.6459999,51.4356155 62.8689995,57.1706161 65.6449966,55.5756149 	"/>
	<polygon fill="#FFCB09" points="52.1349983,50.8506165 49.3590012,52.4466171 60.6459999,51.4356155 63.4230003,49.8406143 	"/>
	<polygon fill="#F7A418" points="108.6439972,25.2396145 105.8680038,26.8356152 99.3519974,36.1106148 102.1279984,34.5146141 	"/>
	<polygon fill="#FEC90A" points="104.7910004,20.4496155 102.0149994,22.0446148 105.8680038,26.8356152 108.6439972,25.2396145 	
		"/>
	<polygon fill="#EC621D" points="61.0359993,33.0456161 58.2589989,34.6416168 58.2589989,39.7806168 61.0359993,38.1846161 	"/>
	<polygon fill="#FFD802" points="48.0019989,25.5206146 45.2249985,27.1166153 58.2589989,34.6416168 61.0359993,33.0456161 	"/>
	<polygon fill="#F8A815" points="65.6449966,20.9756145 62.8689995,22.5716152 60.6459999,25.7366161 63.4230003,24.1406155 	"/>
	<polygon fill="#FFCB09" points="54.3600006,6.9356155 51.5839996,8.5316153 62.8689995,22.5716152 65.6449966,20.9756145 	"/>
	<polygon fill="#FCC00D" points="69.5009995,0.0736154 66.723999,1.6696154 73.2430038,18.4636154 76.0189972,16.8686161 	"/>
	<polygon fill="#F9AE15" points="89.3700027,6.7746153 86.5930023,8.370615 86.5930023,23.4186153 89.3700027,21.8226147 	"/>
	<polygon fill="#FEC90A" points="84.9199982,4.2056155 82.1429977,5.8016152 86.5930023,8.370615 89.3700027,6.7746153 	"/>
	<polygon fill="#FEC90A" points="65.6480026,0.4156154 62.8720016,2.0116155 66.723999,1.6696154 69.5009995,0.0736154 	"/>
	<g>
		<g>
			<g>
				<g>
					<polygon fill="#FFE30C" points="86.5930023,23.4186153 82.1429977,20.8496151 82.1429977,5.8016152 86.5930023,8.370615 					
						"/>
				</g>
				<g>
					<polygon fill="#FFE30C" points="69.387001,18.8106155 62.8720016,2.0116155 66.723999,1.6696154 73.2430038,18.4636154 					
						"/>
				</g>
				<g>
					<polygon fill="#FFE30C" points="60.6459999,25.7366161 49.3590012,11.6956158 51.5839996,8.5316153 62.8689995,22.5716152 
											"/>
				</g>
				<g>
					<polygon fill="#FFE30C" points="45.2249985,32.2546158 45.2249985,27.1166153 58.2589989,34.6416168 58.2589989,39.7806168 
											"/>
				</g>
				<g>
					<polygon fill="#FFE30C" points="51.5839996,58.1826172 49.3590012,52.4466171 60.6459999,51.4356155 62.8689995,57.1706161 
											"/>
				</g>
				<g>
					<polygon fill="#FFE30C" points="66.723999,82.526619 62.8720016,77.7306137 69.387001,68.4616165 73.2430038,73.2536163 					
						"/>
				</g>
				<g>
					<polygon fill="#FFE30C" points="86.5930023,98.7686157 82.1429977,96.1996155 82.1429977,81.1456146 86.5930023,83.7146149 
											"/>
				</g>
				<g>
					<polygon fill="#FFE30C" points="102.0149994,102.9026184 95.4960022,86.1016159 99.3519974,85.7616119 
						105.8680038,102.5546188 					"/>
				</g>
				<g>
					<polygon fill="#FFE30C" points="117.1549988,96.0406189 105.8680038,81.9966125 108.0930023,78.8296127 119.3799973,92.872612 
											"/>
				</g>
				<g>
					<polygon fill="#FFE30C" points="110.4800034,69.9296188 110.4800034,64.7916183 123.5110016,72.3146133 
						123.5110016,77.4536133 					"/>
				</g>
				<g>
					<polygon fill="#FFE30C" points="108.0930023,53.1296158 105.8680038,47.3966141 117.1549988,46.3896141 
						119.3799973,52.1226158 					"/>
				</g>
				<g>
					<polygon fill="#FFE30C" points="99.3519974,36.1106148 95.4960022,31.3126163 102.0149994,22.0446148 105.8680038,26.8356152 
											"/>
				</g>
			</g>
		</g>
	</g>
	<radialGradient id="SVGID_5_" cx="63.4760895" cy="32.4488792" r="72.3371964" gradientUnits="userSpaceOnUse">
		<stop  offset="0" style="stop-color:#FFD708"/>
		<stop  offset="0.0954072" style="stop-color:#FFD90D"/>
		<stop  offset="0.300604" style="stop-color:#FFDB0F"/>
		<stop  offset="0.4045102" style="stop-color:#FED40D"/>
		<stop  offset="0.5985914" style="stop-color:#FDC90B"/>
		<stop  offset="0.744144" style="stop-color:#FDC50A"/>
		<stop  offset="1" style="stop-color:#F59C1A"/>
	</radialGradient>
	<path fill="url(#SVGID_5_)" d="M101.0309982,68.2926178c0,7.0779953-2.4830017,12.0530014-6.4990005,14.375
		c-0.0089951,0.0049973-0.0169983,0.0099945-0.026001,0.0139999c-4.0149994,2.3069992-9.5559998,1.9679947-15.6749954-1.5660019
		C66.5660019,74.0346146,56.625,56.8136139,56.625,42.6546173c0-7.0760002,2.4830017-12.0480022,6.4970016-14.3690014
		c0,0,0.0169983-0.0090008,0.0249977-0.0139999c4.0170021-2.3070011,9.5610008-1.967001,15.6840019,1.5679989
		C91.0930023,36.9196167,101.0309982,54.1336136,101.0309982,68.2926178z"/>
	<path fill="#585858" d="M83.7300034,51.6856155c0,2.7360001-0.9610062,4.6580009-2.5139999,5.5540009
		c-1.5530014,0.8969994-3.6980057,0.7669983-6.0680008-0.6010017c-4.737999-2.7350006-8.5800018-9.3899994-8.5800018-14.8619995
		c0-2.7360001,0.9599991-4.6580009,2.5130005-5.5550003c1.5530014-0.8959999,3.697998-0.7669983,6.0670013,0.6010017
		C79.887001,39.5586166,83.7300034,46.212616,83.7300034,51.6856155z"/>
</g>
</svg>
