<svg width="1074" height="150" xmlns="http://www.w3.org/2000/svg">
 <style type="text/css">.st0{fill:url(#SVGID_1_);}
	.st1{fill:#fff;}
	.st2{fill:url(#SVGID_2_);}
	.st3{fill:url(#SVGID_3_);}
	.st4{fill:url(#SVGID_4_);}
	.st5{fill:url(#SVGID_5_);}
	.st6{fill:url(#SVGID_6_);}
	.st7{fill:url(#SVGID_7_);}
	.st8{fill:url(#SVGID_8_);}
	.st9{fill:url(#SVGID_9_);}
	.st10{fill:url(#SVGID_10_);}
	.st11{fill:url(#SVGID_11_);}
	.st12{fill:url(#SVGID_12_);}
	.st13{fill:url(#SVGID_13_);}
	.st14{fill:url(#SVGID_14_);}
	.st15{fill:url(#SVGID_15_);}
	.st16{fill:url(#SVGID_16_);}
	.st17{fill:#1D71B8;}
	.st18{fill:url(#SVGID_17_);}
	.st19{fill:url(#SVGID_18_);}
	.st20{fill:url(#SVGID_19_);}
	.st21{fill:url(#SVGID_20_);}
	.st22{fill:url(#SVGID_21_);}
	.st23{fill:#FFFFFF;}
	.st24{fill:url(#SVGID_22_);}
	.st25{fill:url(#SVGID_23_);}
	.st26{fill:url(#SVGID_24_);}
	.st27{fill:url(#SVGID_25_);}
	.st28{fill:url(#SVGID_26_);}</style>

 <g>
  <rect x="-1" y="-1" width="1076" height="152" id="canvas_background" fill="none"/>
 </g>
 <g>
  <path class="st0" d="m95.89999,135.20295c0.9,-0.9 2,-1.7 2.8,-2.7c4.6,-5.5 6.7,-12 7.1,-19.1c0.3,-6.4 -1.1,-12.5 -3.7,-18.2c-0.4,-0.9 -0.4,-1.6 0.1,-2.5c2.3,-3.6 4.3,-7.4 5.4,-11.6c1.8,-6.6 0.8,-12.8 -2.4,-18.8c-2,-3.8 -4.6,-7.1 -7.5,-10.2c-0.1,-0.1 -0.3,-0.2 -0.7,-0.5c4.7,11 3.3,21.3 -2.4,31.3c-1.9,-2.1 -3.7,-4.1 -5.4,-6.2c-5.3,-6.2 -9.7,-12.8 -12,-20.7c-3,-10.3 -1.8,-19.8 5,-28.4c0.3,-0.4 0.7,-0.8 1,-1.2c0,0 0,-0.1 0,-0.2c-7.2,4.2 -13.9,8.8 -17,17c-1.9,4.8 -1.7,9.7 -0.5,14.6c1.1,4.4 2.4,8.8 3.6,13.2c0.6,2.4 1,5 0.4,7.5c-0.4,1.8 -1.3,3.4 -2.7,4.7c-4.7,-9.1 -12.2,-15.9 -17.9,-16.3c1,2.6 2,5.1 2.8,7.7c1.9,5.8 3.3,11.8 3,18c-0.2,4.5 -1.5,8.6 -4.3,12.3c-2,2.6 -4,5.2 -5.7,8c-3.2,5.1 -4,10.5 -2.2,16.3c0.1,0.2 0.1,0.4 0.2,0.7c-20.6,-12.3 -34.9,-39.5 -26.7,-68.7c7.9,-28.4 35.3,-47.9 66,-44.4c30.4,3.5 53.6,28.5 54.6,58.6c0.7,31.1 -20.5,53.2 -40.9,59.8z" id="svg_1"/>
  <g id="svg_20" stroke="null">
   <path class="st17" d="m535.6307,114.89331l-23.55906,0l0,-53.00787l-5.30079,0l5.30079,-22.67559l23.55906,0l0,52.27165" id="svg_21" stroke="null" fill="#B8874D"/>
   <path class="st17" d="m437.41889,62.62165l-23.85354,0l0,4.27008l27.82913,0l-5.0063,19.58346l-22.67559,0l0,4.56457l27.24016,0l-5.59528,23.7063l-45.20394,0l0,-52.86063l-5.30079,0l5.30079,-22.97008l31.36299,0l0.88346,-2.94488l21.05591,0l-6.03701,26.65118l0.00001,0z" id="svg_22" stroke="null" fill="#B8874D"/>
   <path class="st17" d="m358.49605,114.89331l-23.7063,0l0,-52.86063l-5.30079,0l5.30079,-22.97008l31.36299,0l0.88346,-2.94488l21.05591,0l-6.03701,26.50394l-23.85354,0l0,4.27008m0.14724,19.73071l0,4.56457" id="svg_23" stroke="null" fill="#B8874D"/>
   <path class="st17" d="m496.16928,91.18701c-3.09213,2.65039 -5.74252,4.41732 -8.24567,5.59528c-2.50315,1.03071 -5.30079,1.61969 -8.24567,1.61969l-7.3622,0l0,16.49134l-23.55906,0l0,-53.30236l-5.30079,0l5.30079,-22.52835l27.97638,0c1.03071,0 1.91417,0 2.50315,0.14724c0.58898,0 1.47244,0.14724 2.79764,0.44173c12.81024,2.35591 20.61417,9.86535 23.11732,22.52835c0.29449,1.17795 0.44173,2.20866 0.58898,3.23937c0,1.03071 0.14724,2.20866 0.14724,3.6811c0,4.85906 -0.73622,8.98189 -2.35591,12.66299c-1.76693,3.53386 -4.12283,6.62598 -7.3622,9.42362zm-18.7,-29.00709l-5.15354,0l0,13.84095l4.56457,0c1.17795,0 2.20866,-0.44173 3.38661,-1.47244c1.03071,-1.03071 1.76693,-2.20866 1.91417,-3.38661c0.14724,-1.17795 0.29449,-2.06142 0.29449,-2.50315c0,-2.06142 -0.44173,-3.6811 -1.47244,-4.85906c-1.03071,-1.03071 -2.06142,-1.61969 -3.53386,-1.61969z" id="svg_24" stroke="null" fill="#B8874D"/>
   <path class="st17" d="m514.86928,56.29016l27.97638,0c1.03071,0 1.91417,0 2.50315,0.14724c0.58898,0 1.47244,0.14724 2.79764,0.44173c12.81024,2.35591 20.61417,9.86535 23.11732,22.52835c0.29449,1.17795 0.44173,2.20866 0.58898,3.23937c0,1.03071 0.14724,2.20866 0.14724,3.6811c0,4.85906 -0.73622,8.98189 -2.35591,12.66299c-1.61969,3.53386 -3.97559,6.77323 -7.21496,9.42362c-3.09213,2.65039 -5.74252,4.41732 -8.24567,5.59528c-2.50315,1.03071 -5.30079,1.61969 -8.24567,1.61969l-7.21496,0l0,0l-23.55906,0l0,-36.66378m28.56535,0.44173l-5.30079,0l0,13.84095l4.56457,0c1.17795,0 2.20866,-0.44173 3.38661,-1.47244c1.03071,-1.03071 1.76693,-2.20866 1.91417,-3.38661c0.14724,-1.17795 0.29449,-2.06142 0.29449,-2.50315c0,-2.06142 -0.44173,-3.6811 -1.47244,-4.85906c-0.88346,-1.03071 -2.06142,-1.61969 -3.38661,-1.61969z" id="svg_25" stroke="null" fill="#B8874D"/>
   <path class="st17" d="m307.5496,114.89331l-2.06142,-10.45433l-21.35039,0l-3.09213,10.45433l-24.29528,0l14.72441,-55.36378l-5.30079,0l7.3622,-20.46693l37.54724,0l21.35039,75.83071l-24.88425,0l0.00002,0zm-12.81024,-53.00787l-5.74252,22.3811l11.77953,0l-6.03701,-22.3811z" id="svg_26" stroke="null" fill="#B8874D"/>
   <path class="st17" d="m227.89054,104.14449l2.06142,10.45433l25.0315,0l-21.35039,-75.83071l-37.54724,0l-7.3622,20.46693l5.30079,0l-14.72441,55.36378l24.29528,0l3.09213,-10.45433l1.03071,-4.71181c2.65039,-11.04331 1.61969,-6.62598 3.82835,-15.31339l0,0l5.74252,-22.3811l6.03701,22.3811" id="svg_27" stroke="null" fill="#B8874D"/>
  </g>
  <g id="svg_28" stroke="null">
   <path class="st17" d="m652.32029,113.78652l0,-26.45753l-16.85005,0l0,26.45753l-23.64919,0l0,-53.65411l-5.32107,0l5.32107,-22.46673l23.64919,0l0,25.42288l16.85005,0l0,-25.42288l23.50139,0l0,76.12084l-23.50139,0z" id="svg_29" stroke="null"/>
   <path class="st17" d="m728.44113,113.78652l-2.0693,-10.49433l-21.43208,0l-3.10396,10.49433l-24.38823,0l14.78075,-55.5756l-5.32107,0l7.39037,-20.54524l37.6909,0l21.43208,76.12084l-24.97946,0zm-12.85925,-53.21068l-5.76449,22.46673l11.8246,0l-6.06011,-22.46673z" id="svg_30" stroke="null"/>
   <path class="st17" d="m806.33566,110.23914c-1.77369,1.18246 -3.69519,2.0693 -5.76449,2.66053c-1.9215,0.59123 -4.13861,0.88684 -6.65134,0.88684l-38.13432,0l0,-53.94972l-5.32107,0l5.32107,-22.17112l39.02117,0c3.84299,0 7.24257,1.03465 10.49433,2.95615c5.76449,3.69519 8.72064,8.86845 8.72064,15.37198c0,0.59123 0,0.88684 0,1.18246c0,0.44342 0,1.18246 -0.14781,2.0693c-0.88684,6.20791 -3.9908,10.93775 -9.31187,14.18952l1.9215,1.33027c3.69519,2.80834 6.20791,5.61668 7.53818,8.27722c1.33027,2.66053 2.0693,6.20791 2.0693,10.34652c-0.14781,7.09476 -3.39957,12.71144 -9.75529,16.85005zm-23.35358,-52.02822l-4.28642,0l0,8.86845l5.17326,0c0.73904,0 1.47807,0 2.21711,-0.14781c0.73904,-0.14781 1.33027,-0.29561 1.9215,-0.44342c1.9215,-0.73904 2.80834,-2.0693 2.80834,-3.84299c0,-0.88684 -0.29561,-1.62588 -0.88684,-2.36492c-0.59123,-0.73904 -1.47807,-1.33027 -2.36492,-1.47807c-0.88684,-0.44342 -2.51273,-0.59123 -4.58203,-0.59123l0,-0.00001zm-0.73904,24.09261l-3.69519,0l0,10.19871l4.13861,0l3.39957,0c1.33027,0 2.36492,-0.59123 3.10396,-1.62588c0.73904,-1.03465 1.18246,-2.36492 1.03465,-3.69519c0,-3.25176 -2.66053,-4.87765 -7.9816,-4.87765l0,0.00001z" id="svg_31" stroke="null"/>
   <path class="st17" d="m886.00388,113.78652l0,-53.5063l-5.32107,0l5.46888,-22.46673l23.35358,0l0,76.12084l-23.50139,0l0,-0.14781z" id="svg_32" stroke="null"/>
   <path class="st17" d="m956.36022,113.78652l-14.63294,-26.75315l0,26.75315l-23.64919,0l0,-53.80191l-5.32107,0l5.32107,-22.31893l23.64919,0l0,25.57069l14.63294,-25.57069l25.42288,0l-20.24962,36.21283l21.8755,39.7602l-27.04876,0l0,0.14781z" id="svg_33" stroke="null"/>
   <path class="st17" d="m1029.82053,113.78652l-2.0693,-10.49433l-21.43208,0l-3.10396,10.49433l-24.38823,0l14.78075,-55.5756l-5.32107,0l7.39037,-20.54524l37.6909,0l21.43208,76.12084l-24.97946,0zm-12.85925,-53.21068l-5.76449,22.46673l11.8246,0l-6.06011,-22.46673z" id="svg_34" stroke="null"/>
   <path class="st17" d="m845.50463,113.78652l-23.64919,0l0,-53.21068l-5.32107,0l5.32107,-22.76235l23.64919,0l0,52.47165" id="svg_35" stroke="null"/>
   <path class="st17" d="m821.85544,54.07231l28.08342,0c1.03465,0 1.9215,0 2.51273,0.14781c0.59123,0 1.47807,0.14781 2.80834,0.44342c12.85925,2.36492 20.69304,9.9031 23.20577,22.61454c0.29561,1.18246 0.44342,2.21711 0.59123,3.25176c0,1.03465 0.14781,2.21711 0.14781,3.69519c0,4.87765 -0.73904,9.01625 -2.36492,12.71144c-1.62588,3.54738 -3.9908,6.79914 -7.24257,9.45968c-3.10396,2.66053 -5.76449,4.43422 -8.27722,5.61668c-2.51273,1.03465 -5.32107,1.62588 -8.27722,1.62588l-7.24257,0l0,0l-23.64919,0l0,-36.80406m28.67465,0.44342l-5.32107,0l0,13.8939l4.58203,0c1.18246,0 2.21711,-0.44342 3.39957,-1.47807c1.03465,-1.03465 1.77369,-2.21711 1.9215,-3.39957c0.14781,-1.18246 0.29561,-2.0693 0.29561,-2.51273c0,-2.0693 -0.44342,-3.69519 -1.47807,-4.87765c-0.88684,-1.03465 -2.0693,-1.62588 -3.39957,-1.62588z" id="svg_36" stroke="null"/>
  </g>
  <path class="st21" d="m149.19999,75.8" id="svg_42"/>
  <path class="st1" d="m75.59999,5.55c-38.8,0 -70.3,31.5 -70.3,70.3c0,35 25.6,64 59,69.4c-3.3,-3.5 -6.6,-7.3 -8.8,-11.3c-4.4,-7.9 -4.6,-16.6 7.8,-25.5c12.8,-9.2 14.5,-16.9 12.3,-25.8c3.8,3.1 14.6,18.3 3.6,33.9c4,-1.1 10.4,-3.9 10.4,-10.3c2.1,3.8 10.3,12.3 -9.7,30.9c-2,1.8 -3.2,4.1 -3.2,6.1c0,1 0.3,2 1.1,2.8c37.8,-1.2 68,-32.2 68,-70.2c0.1,-38.9 -31.4,-70.3 -70.2,-70.3zm20.1,128.4c7.3,-5 16.3,-21.6 6.4,-42c6.6,-10.8 13.5,-23.8 -4.7,-42.6c3.1,6 5.9,18.2 -2.3,31.7c-1,-1.3 -2.1,-2.6 -3.3,-3.9c-24.5,-26.7 -14.6,-46.1 -7.6,-53c-38.4,20.9 -3.8,45.2 -16.9,57.3c-2.7,-7.9 -11.5,-15.5 -18,-16.6c8.5,20 6.5,30.5 2.7,36.6c-3.1,4.9 -9.8,10.6 -9.9,19.8c0,3 0.6,5.4 1.2,7.1c-17.6,-10.8 -29.3,-30.2 -29.3,-52.4c0,-34 27.5,-61.5 61.5,-61.5c34,0 61.5,27.5 61.5,61.5c0.1,26.8 -17.2,49.7 -41.3,58z" id="svg_43"/>
  <path class="st22" d="m74.89999,5.55c-38.8,0 -70.3,31.5 -70.3,70.3c0,35 25.6,64 59,69.4c-3.3,-3.5 -6.6,-7.3 -8.8,-11.3c-4.4,-7.9 -4.6,-16.6 7.8,-25.5c12.8,-9.2 14.5,-16.9 12.3,-25.8c3.8,3.1 14.6,18.3 3.6,33.9c4,-1.1 10.4,-3.9 10.4,-10.3c2.1,3.8 10.3,12.3 -9.7,30.9c-2,1.8 -3.2,4.1 -3.2,6.1c0,1 0.3,2 1.1,2.8c37.8,-1.2 68,-32.2 68,-70.2c0,-38.8 -31.4,-70.3 -70.2,-70.3zm20.1,128.4c7.3,-5 16.3,-21.6 6.4,-42c6.6,-10.8 13.5,-23.8 -4.7,-42.6c3.1,6 5.9,18.2 -2.3,31.7c-1,-1.3 -2.1,-2.6 -3.3,-3.9c-24.5,-26.7 -14.6,-46.1 -7.6,-53c-38.4,20.9 -3.8,45.2 -16.9,57.3c-2.7,-7.9 -11.5,-15.5 -18,-16.6c8.5,20 6.5,30.5 2.7,36.6c-3.1,4.9 -9.8,10.6 -9.9,19.8c0,3 0.6,5.4 1.2,7.1c-17.6,-10.8 -29.3,-30.2 -29.3,-52.4c0,-34 27.5,-61.5 61.5,-61.5c34,0 61.5,27.5 61.5,61.5c0.1,26.8 -17.2,49.7 -41.3,58z" id="svg_44"/>
  <path class="st25" d="m135.29999,75.8" id="svg_53"/>
 </g>
</svg>