<?xml version="1.0" encoding="utf-8"?>
<!-- Generator: Adobe Illustrator 18.0.0, SVG Export Plug-In . SVG Version: 6.00 Build 0)  -->
<!DOCTYPE svg PUBLIC "-//W3C//DTD SVG 1.1//EN" "http://www.w3.org/Graphics/SVG/1.1/DTD/svg11.dtd">
<svg version="1.1" id="Слой_1" xmlns="http://www.w3.org/2000/svg" xmlns:xlink="http://www.w3.org/1999/xlink" x="0px" y="0px"
	 viewBox="0 0 178 154" enable-background="new 0 0 178 154" xml:space="preserve">
<g>
	<g>
		<path fill="#949494" d="M148.2110291,67.8814392c-38.9240036-22.4729996-79.0940018-22.4729996-118.0180054,0l0,0
			C10.7310247,79.1174393,1.0000249,90.5334396,1.0000249,101.9504395c0,11.4160004,9.7309999,22.8320007,29.1930008,34.0690002
			c38.9240036,22.4729919,79.0950012,22.4729919,118.0189972,0c19.4620056-11.2369995,29.1930084-22.6529999,29.1930084-34.0690002
			S167.6740265,79.1174393,148.2110291,67.8814392z"/>
	</g>
	<g>
		<path fill="#F5991A" d="M148.2650299,67.975441c-38.8880081-22.5350037-79.0580063-22.5990028-118.0180054-0.189003v0.0009995
			C10.7680244,78.9924393,1.0180249,90.3924408,1.0000249,101.8094406
			c-0.0180001,11.4160004,9.6949997,22.8479996,29.1389999,34.1149979
			c38.8880005,22.5350037,79.0579987,22.6000061,118.0180054,0.1889954
			c19.4799957-11.2049942,29.2290039-22.6059952,29.246994-34.0219955
			C177.4220276,90.6754379,167.710022,79.2434387,148.2650299,67.975441z"/>
		
			<linearGradient id="SVGID_1_" gradientUnits="userSpaceOnUse" x1="-4.811821" y1="119.058403" x2="171.5923767" y2="119.058403" gradientTransform="matrix(1 0.0016 -0.0016 1 5.9749999 -0.2802)">
			<stop  offset="0" style="stop-color:#FFED48"/>
			<stop  offset="0.0954072" style="stop-color:#FDED50"/>
			<stop  offset="0.300604" style="stop-color:#FCEC54"/>
			<stop  offset="0.353021" style="stop-color:#FCEA4E"/>
			<stop  offset="0.576553" style="stop-color:#FFE03C"/>
			<stop  offset="0.744144" style="stop-color:#FFDC35"/>
			<stop  offset="1" style="stop-color:#FAB61F"/>
		</linearGradient>
		<path fill="url(#SVGID_1_)" d="M148.184021,119.1134415c-38.9599991,22.409996-79.1299973,22.3460007-118.0179977-0.189003
			C10.7220249,107.6564407,1.0090249,96.2244415,1.0270249,84.8084412l-0.027,17.0009995
			c-0.0180001,11.4160004,9.6949997,22.8479996,29.1389999,34.1149979
			c38.8880005,22.5350037,79.0579987,22.6000061,118.0180054,0.1889954
			c19.4799957-11.2049942,29.2290039-22.6059952,29.246994-34.0219955l0.0270081-17
			C177.4130249,96.5074387,167.664032,107.9074402,148.184021,119.1134415z"/>
		<path fill="#FFDB34" d="M148.2930298,50.975441C109.4040222,28.4404392,69.234024,28.37644,30.2750244,50.786438l0,0
			C10.7950249,61.9914398,1.0460249,73.3924408,1.0270249,84.8084412c-0.018,11.4160004,9.6949997,22.8479996,29.1389999,34.1159973
			c38.8880005,22.5350037,79.0579987,22.598999,118.0179977,0.189003
			c19.480011-11.2060013,29.2290039-22.6060028,29.2470093-34.0220032
			C177.4500275,73.6744385,167.73703,62.2434387,148.2930298,50.975441z"/>
	</g>
	<g>
		<defs>
			<path id="SVGID_2_" d="M148.2930298,50.975441C109.4040222,28.4404392,69.234024,28.37644,30.2750244,50.786438l0,0
				C10.7950249,61.9914398,1.0460249,73.3924408,1.0270249,84.8084412
				c-0.018,11.4160004,9.6949997,22.8479996,29.1389999,34.1159973
				c38.8880005,22.5350037,79.0579987,22.598999,118.0179977,0.189003
				c19.480011-11.2060013,29.2290039-22.6060028,29.2470093-34.0220032
				C177.4500275,73.6744385,167.73703,62.2434387,148.2930298,50.975441z"/>
		</defs>
		<clipPath id="SVGID_3_">
			<use xlink:href="#SVGID_2_"  overflow="visible"/>
		</clipPath>
		<g clip-path="url(#SVGID_3_)">
			<path opacity="0" fill="#FFFFFF" d="M200.2763367,44.1165504c-1.258255-1.1655464-2.7127533-2.2580872-4.2979431-3.2882843
				c-5.0627136-3.289547-11.6768341-5.8405991-19.259903-7.3347969
				c-2.8903656-10.630331-11.9764099-22.7037392-18.9729309-28.2448006c0,0-7.3516846-0.1165986-13.3885651,3.3236346
				c-6.2601471,3.5669508-11.0983887,10.9674435-4.8675079,26.2849884
				c-15.4262848,4.3219681-25.9008865,13.0783272-25.5377731,22.9951248
				c0.0003433,0.0093193,0.0026779,0.0185966,0.0029831,0.0269852c0.2995224,7.9071426,5.9616394,21.942543,17.7393341,36.3798676
				c4.6564636,5.7088776,15.7713623,10.58992,30.2325439,10.2963867
				c14.4621735-0.2935638,24.4256592-4.1436844,29.4651489-11.5081558
				c10.7270508-15.6757507,15.3002472-29.1410217,15.0196228-37.0504112
				c-0.0002289-0.0065231,0.0014954-0.014019,0.0012207-0.0214767l0,0
				c-0.1573639-4.2975883-2.3272247-8.3006287-6.0145416-11.7570686
				C200.360733,44.1829262,200.3145905,44.1512146,200.2763367,44.1165504z"/>
			<path opacity="0.030303" fill="#FFFEFA" d="M198.397644,44.1595802c-1.2641449-1.158802-2.7123108-2.2578545-4.2973022-3.2878723
				c-5.0621033-3.2889824-11.6757965-5.8390427-19.2586823-7.3318977
				c-2.8881226-10.6312695-11.9717255-22.7045517-18.9671631-28.2449741c0,0-7.3518066-0.1151056-13.3895264,3.3268628
				c-6.2610779,3.5687523-11.1009674,10.9713058-4.873291,26.2897778
				c-15.4275284,4.3257599-25.9041748,13.0855293-25.5432053,23.0036812
				c0.0003433,0.0093231,0.0026779,0.0186043,0.0029831,0.0269928c0.297821,7.9082146,5.9569702,21.9444771,17.7317505,36.3814659
				c4.655365,5.7087479,15.7693787,10.5882111,30.2309113,10.2916565
				c14.4625092-0.2965698,24.427002-4.149292,29.4681702-11.5158615
				c10.7306213-15.6802139,15.3068237-29.148365,15.0279236-37.0588341
				c-0.0002441-0.0065269,0.0014801-0.0140266,0.0012207-0.0214844l0,0
				c-0.1564331-4.2981758-2.3410034-8.2848625-6.0121155-11.7575264
				C198.481842,44.2261162,198.4356842,44.1944466,198.397644,44.1595802z"/>
			<path opacity="0.0606061" fill="#FFFCF5" d="M196.5189667,44.2026138
				c-1.2637024-1.1589699-2.7118835-2.2576256-4.2966766-3.2874641c-5.0614929-3.2884178-11.6747437-5.8374901-19.2574463-7.3290024
				c-2.8858795-10.632206-11.967041-22.7053623-18.9614105-28.2451477c0,0-7.3519135-0.1136127-13.3904877,3.3300915
				c-6.2619934,3.5705538-11.1035461,10.9751654-4.8790588,26.2945633
				c-15.4287796,4.3295555-25.907486,13.0927353-25.5486526,23.0122452
				c0.0003433,0.0093193,0.0026779,0.0186043,0.0029755,0.0269928c0.2961197,7.9092979,5.9523087,21.9464226,17.7241898,36.3830681
				c4.6542358,5.7086105,15.7673645,10.5864944,30.2292633,10.2869263
				c14.4628448-0.2995834,24.4283447-4.1549072,29.4712067-11.5235672
				c10.7341614-15.6846771,15.3134003-29.1557121,15.0361938-37.0672646
				c-0.0002289-0.0065231,0.0014954-0.0140228,0.0012207-0.0214844l0,0
				c-0.1555023-4.2987633-2.3385162-8.2863426-6.0096741-11.757988
				C196.6031189,44.2691345,196.5569611,44.2374687,196.5189667,44.2026138z"/>
			<path opacity="0.0909091" fill="#FFFAEF" d="M194.640274,44.2456436c-1.2632294-1.1591339-2.711441-2.2573929-4.296051-3.287056
				c-5.0608521-3.2878494-11.6736908-5.8359299-19.2562103-7.3260994
				c-2.8836212-10.6331482-11.9623413-22.7061787-18.9556427-28.2453232c0,0-7.3520203-0.1121187-13.3914642,3.3333216
				c-6.2628937,3.5723534-11.1061096,10.9790249-4.8848267,26.2993546
				c-15.4300232,4.3333435-25.9107819,13.0999374-25.5540771,23.0208015
				c0.0003281,0.0093231,0.0026627,0.0186043,0.0029678,0.0269966c0.2944107,7.9103737,5.9476395,21.9483604,17.7166214,36.3846626
				c4.6531219,5.7084808,15.7653656,10.5847855,30.2276154,10.2822113
				c14.4631653-0.302597,24.4297028-4.1605225,29.4742279-11.5312881
				c10.7377319-15.6891327,15.3199921-29.1630478,15.0444794-37.0756836
				c-0.0002289-0.0065269,0.0014954-0.0140266,0.001236-0.0214882l0,0
				c-0.1545868-4.2993507-2.3360596-8.2878227-6.0072479-11.7584457
				C194.7243958,44.312149,194.6782532,44.2804871,194.640274,44.2456436z"/>
			<path opacity="0.1212121" fill="#FFF9EA" d="M192.7615814,44.2886696
				c-1.2627716-1.1592941-2.7109985-2.2571602-4.2954102-3.286644c-5.0602417-3.2872849-11.6726532-5.8343735-19.2549896-7.323204
				c-2.8813782-10.6340828-11.9576569-22.7069874-18.9498749-28.2454948c0,0-7.3521423-0.1106257-13.3924255,3.3365502
				c-6.2638245,3.5741549-11.1086884,10.9828863-4.8905945,26.3041382
				c-15.4312744,4.3371391-25.914093,13.1071472-25.5595245,23.0293617
				c0.0003281,0.0093269,0.0026627,0.0186119,0.0029602,0.0270042c0.2927094,7.9114494,5.9429779,21.9502983,17.709053,36.3862648
				c4.6520004,5.7083435,15.7633591,10.5830688,30.225975,10.2774811
				c14.463501-0.3056107,24.4310455-4.1661377,29.4772644-11.5389938
				c10.741272-15.6936035,15.3265533-29.1703949,15.0527649-37.0841141
				c-0.0002289-0.0065269,0.0014954-0.0140305,0.001236-0.0214882l0,0
				c-0.153656-4.2999382-2.3335876-8.2893028-6.0048218-11.7589073
				C192.8456726,44.3551636,192.79953,44.3235092,192.7615814,44.2886696z"/>
			<path opacity="0.1515152" fill="#FFF7E5" d="M190.8828888,44.3316994
				c-1.2622986-1.159462-2.7105713-2.2569313-4.2947693-3.2862396c-5.0596313-3.2867165-11.6716003-5.8328171-19.2537537-7.3203011
				c-2.8791351-10.6350231-11.9529724-22.7078018-18.9441376-28.2456703c0,0-7.3522339-0.1091323-13.3933868,3.3397794
				c-6.2647247,3.5759554-11.1112518,10.9867468-4.8963623,26.3089294
				c-15.432518,4.3409309-25.9173813,13.1143494-25.5649567,23.0379219
				c0.0003281,0.0093269,0.0026627,0.0186119,0.0029602,0.0270042c0.2910004,7.912529,5.9383163,21.9522324,17.7014771,36.3878632
				c4.6508865,5.7082138,15.7613678,10.5813599,30.2243347,10.2727585
				c14.4638214-0.3086243,24.4323883-4.1717529,29.4802856-11.5467072
				c10.7448425-15.6980591,15.3331451-29.1777344,15.0610504-37.0925369
				c-0.0002289-0.0065269,0.0015106-0.0140305,0.001236-0.021492l0,0
				c-0.1527252-4.3005257-2.3311157-8.2907791-6.0023804-11.7593651
				C190.9669495,44.3981781,190.9208069,44.3665237,190.8828888,44.3316994z"/>
			<path opacity="0.1818182" fill="#FFF6DF" d="M189.0041962,44.3747253
				c-1.2618256-1.159626-2.7101288-2.2566986-4.2941437-3.2858276c-5.0590057-3.2861519-11.6705475-5.8312607-19.2525177-7.3174057
				c-2.8768921-10.6359615-11.9482727-22.7086124-18.9383698-28.245842c0,0-7.352356-0.1076393-13.3943481,3.3430085
				c-6.2656479,3.5777559-11.1138306,10.9906063-4.9021301,26.3137188
				c-15.4337692,4.3447227-25.9206924,13.1215515-25.5704041,23.0464783
				c0.0003281,0.0093269,0.002655,0.0186119,0.0029526,0.0270081c0.289299,7.9136086,5.9336548,21.954174,17.6939163,36.3894691
				c4.649765,5.7080688,15.7593689,10.5796432,30.222702,10.2680206
				c14.4641418-0.3116302,24.4337158-4.1773605,29.4833069-11.5544128
				c10.7483826-15.7025223,15.3397064-29.1850815,15.0693207-37.1009598
				c-0.0002289-0.0065308,0.0015106-0.0140343,0.0012512-0.0214996l0,0
				c-0.1518097-4.3011093-2.3286591-8.2922554-5.9999542-11.7598228
				C189.0882263,44.4411888,189.0420837,44.4095421,189.0041962,44.3747253z"/>
			<path opacity="0.2121212" fill="#FFF4DA" d="M187.1255188,44.4177513
				c-1.2613831-1.1597939-2.7097015-2.2564659-4.2935181-3.2854195c-5.0583954-3.2855873-11.6694946-5.8297043-19.2512817-7.3145065
				c-2.874649-10.6368999-11.9436035-22.7094231-18.9326172-28.2460155c0,0-7.3524628-0.1061459-13.3953094,3.3462377
				c-6.266571,3.5795565-11.1164093,10.9944668-4.9079132,26.3185062
				c-15.4350128,4.3485146-25.9239883,13.1287575-25.5758362,23.0550385
				c0.0003281,0.0093307,0.002655,0.0186157,0.0029449,0.0270119c0.2875977,7.9146881,5.9289932,21.9561157,17.686348,36.3910675
				c4.6486511,5.7079391,15.7573624,10.5779266,30.2210617,10.263298
				c14.4644775-0.3146515,24.4350586-4.1829758,29.4863281-11.5621262
				c10.7519379-15.7069855,15.3462982-29.192421,15.0776215-37.1093864
				c-0.0002289-0.0065308,0.0014954-0.0140343,0.001236-0.0214996l0,0
				c-0.1508789-4.3017006-2.3261871-8.2937355-5.9975128-11.7602844
				C187.2095032,44.4841995,187.1633759,44.4525566,187.1255188,44.4177513z"/>
			<path opacity="0.2424242" fill="#FFF2D4" d="M185.2468262,44.4607773c-1.26091-1.1599617-2.709259-2.256237-4.2928772-3.2850113
				c-5.057785-3.2850227-11.668457-5.8281479-19.250061-7.3116074c-2.872406-10.6378384-11.9389038-22.7102375-18.9268494-28.246191
				c0,0-7.3525696-0.1046529-13.396286,3.3494658c-6.2674789,3.581358-11.1189728,10.9983273-4.9136734,26.3232956
				c-15.436264,4.3523064-25.9272919,13.1359634-25.5812759,23.0635986
				c0.0003281,0.0093307,0.0026474,0.0186157,0.0029449,0.0270157c0.2858887,7.91576,5.924324,21.9580498,17.678772,36.3926659
				c4.6475296,5.7078018,15.7553711,10.5762177,30.2194214,10.2585678
				c14.464798-0.3176575,24.4364014-4.188591,29.4893646-11.5698318
				c10.7554932-15.7114487,15.3528748-29.1997681,15.0858917-37.1178131
				c-0.0002289-0.0065308,0.0015106-0.0140381,0.0012512-0.0215034l0,0
				c-0.1499481-4.3022842-2.3237152-8.295208-5.9950867-11.7607422
				C185.33078,44.5272102,185.2846527,44.4955711,185.2468262,44.4607773z"/>
			<path opacity="0.2727273" fill="#FFF1CE" d="M183.3681335,44.5037994
				c-1.2604523-1.1601257-2.7088165-2.2560005-4.2922516-3.2846031c-5.0571442-3.2844543-11.6674042-5.8265877-19.2488098-7.3087082
				c-2.870163-10.6387749-11.9342194-22.7110481-18.9211121-28.2463627c0,0-7.3526764-0.1031594-13.3972321,3.3526955
				c-6.2684021,3.5831585-11.1215591,11.0021877-4.9194489,26.3280811
				c-15.4375076,4.356102-25.9305954,13.1431694-25.5867157,23.0721588
				c0.0003281,0.0093346,0.0026474,0.0186195,0.0029373,0.0270195c0.2841873,7.9168434,5.9196625,21.9599876,17.6712112,36.394268
				c4.6464081,5.7076721,15.7533569,10.574501,30.2177734,10.2538452
				c14.4651337-0.3206787,24.4377441-4.1942062,29.4923859-11.5775452
				c10.7590485-15.7159119,15.3594513-29.2071075,15.0941772-37.1262398
				c-0.0002289-0.0065308,0.0015106-0.0140419,0.0012512-0.0215073l0,0c-0.1490173-4.3028717-2.3212433-8.2966843-5.9926453-11.7612
				C183.4520416,44.5702171,183.4059296,44.5385857,183.3681335,44.5037994z"/>
			<path opacity="0.3030303" fill="#FFEFC8" d="M181.4894409,44.5468216
				c-1.2599792-1.1602898-2.708374-2.2557716-4.2916107-3.2841949c-5.0565338-3.2838898-11.6663513-5.8250313-19.2475891-7.3058052
				c-2.8679199-10.6397171-11.9295349-22.7118645-18.9153442-28.2465401c0,0-7.3527832-0.1016665-13.398201,3.3559241
				c-6.2693176,3.584959-11.1241302,11.0060482-4.9252167,26.3328686
				c-15.4387589,4.3598938-25.9338989,13.1503754-25.5921555,23.080719
				c0.0003204,0.0093346,0.0026474,0.0186234,0.0029297,0.0270233c0.282486,7.9179192,5.9150009,21.9619255,17.6636429,36.3958702
				c4.6452942,5.7075348,15.7513657,10.5727844,30.2161331,10.249115
				c14.4654541-0.3236847,24.4390869-4.1998215,29.4954071-11.5852585
				c10.7626038-15.7203674,15.3660431-29.214447,15.102478-37.1346588
				c-0.0002289-0.0065346,0.0015106-0.0140457,0.0012512-0.0215111l0,0
				c-0.1481018-4.3034592-2.3187866-8.2981606-5.9902191-11.7616615
				C181.5733185,44.6132278,181.5272064,44.5816002,181.4894409,44.5468216z"/>
			<path opacity="0.3333333" fill="#FFEDC2" d="M179.6107483,44.5898438
				c-1.2595062-1.1604576-2.7079315-2.2555389-4.2909851-3.2837868c-5.0559082-3.2833214-11.6652985-5.8234749-19.2463531-7.302906
				c-2.8656616-10.6406555-11.9248352-22.712677-18.9095764-28.2467136c0,0-7.3529053-0.100173-13.3991699,3.3591537
				c-6.2702332,3.5867596-11.1267014,11.0099068-4.9309921,26.337656
				c-15.4400024,4.3636856-25.9371872,13.1575813-25.5975876,23.0892792
				c0.0003204,0.0093346,0.0026398,0.0186234,0.0029297,0.0270233c0.280777,7.9189987,5.9103317,21.9638672,17.6560669,36.3974686
				c4.6441727,5.7074051,15.7493668,10.5710831,30.2144928,10.2443924
				c14.4657898-0.3266983,24.4404297-4.2054367,29.4984436-11.5929642
				c10.7661591-15.7248383,15.3726044-29.2217941,15.1107483-37.1430893
				c-0.0002289-0.0065346,0.0015106-0.0140457,0.0012665-0.0215149l0,0
				c-0.1471863-4.3040466-2.31633-8.2996368-5.9878082-11.7621193
				C179.6945953,44.6562347,179.6484833,44.6246109,179.6107483,44.5898438z"/>
			<path opacity="0.3636364" fill="#FFECBD" d="M177.7320709,44.6328621
				c-1.2590637-1.1606216-2.7075043-2.2553062-4.2903595-3.2833748c-5.0552979-3.2827568-11.6642609-5.8219185-19.2451172-7.3000107
				c-2.8634338-10.641592-11.920166-22.7134857-18.9038391-28.2468853c0,0-7.3530045-0.09868-13.4001236,3.3623824
				c-6.2711487,3.5885601-11.1292725,11.0137672-4.9367599,26.3424454
				c-15.441246,4.3674774-25.9404907,13.1647835-25.6030273,23.0978394
				c0.0003204,0.0093346,0.0026398,0.0186234,0.0029221,0.0270271c0.2790756,7.9200745,5.9056702,21.9658051,17.6484985,36.3990707
				c4.6430588,5.7072678,15.7473679,10.5693588,30.2128525,10.2396622
				c14.4661102-0.3297119,24.4417725-4.2110519,29.5014648-11.6006775
				c10.7697144-15.7292938,15.3791962-29.2291336,15.1190338-37.1515121
				c-0.0002289-0.0065346,0.0015259-0.0140495,0.0012665-0.0215149l0,0
				c-0.1462402-4.3046341-2.313858-8.3011131-5.9853668-11.7625809
				C177.8158722,44.6992378,177.7697754,44.6676216,177.7320709,44.6328621z"/>
			<path opacity="0.3939394" fill="#FFEAB7" d="M175.8533783,44.6758804
				c-1.2585907-1.1607895-2.7070618-2.2550735-4.2897186-3.2829666c-5.0546875-3.2821884-11.6632233-5.8203621-19.2438965-7.2971115
				c-2.8611755-10.6425285-11.9154663-22.7142963-18.8980713-28.247057c0,0-7.3531189-0.0971866-13.4010925,3.3656116
				c-6.2720642,3.5903606-11.1318512,11.0176287-4.9425278,26.3472328
				c-15.4424973,4.371273-25.9437943,13.1719933-25.6084671,23.1063995
				c0.0003204,0.0093384,0.0026321,0.0186272,0.0029144,0.0270309c0.2773743,7.921154,5.9010086,21.9677467,17.6409378,36.4006691
				c4.6419373,5.7071304,15.7453613,10.5676498,30.2112045,10.2349396
				c14.4664459-0.3327255,24.4431152-4.2166672,29.5045013-11.6083908
				c10.7732544-15.733757,15.3857574-29.2364807,15.1273041-37.159935
				c-0.0002136-0.0065346,0.0015259-0.0140495,0.0012817-0.0215225l0,0
				c-0.1453247-4.3052177-2.3114014-8.3025856-5.9829407-11.7630348
				C175.937149,44.7422447,175.8910522,44.7106285,175.8533783,44.6758804z"/>
			<path opacity="0.4242424" fill="#FFE8B1" d="M173.9746857,44.7188988
				c-1.2581177-1.1609535-2.7066193-2.2548409-4.289093-3.2825546c-5.0540619-3.2816277-11.6621552-5.8188095-19.2426605-7.2942123
				c-2.8589325-10.6434708-11.9107666-22.7151127-18.8923035-28.2472343c0,0-7.3532333-0.0956936-13.4020615,3.3688407
				c-6.2729797,3.5921621-11.1344223,11.0214891-4.9482956,26.3520241
				c-15.4437485,4.375061-25.9470978,13.1791916-25.6139069,23.1149559c0.0003128,0.0093384,0.0026245,0.018631,0.0029068,0.0270348
				c0.2756729,7.9222336,5.896347,21.9696808,17.6333694,36.4022675
				c4.6408157,5.7070007,15.7433624,10.5659409,30.2095642,10.230217
				c14.4667664-0.3357391,24.444458-4.2222824,29.5075226-11.6161041
				c10.776825-15.7382202,15.3923492-29.2438202,15.1355896-37.1683617
				c-0.0002136-0.0065346,0.0015411-0.0140533,0.0012817-0.0215225l0,0
				c-0.1443939-4.305809-2.3027039-8.3106842-5.9804993-11.7634964
				C174.0584869,44.7851791,174.0123291,44.7536392,173.9746857,44.7188988z"/>
			<path opacity="0.4545455" fill="#FFE7AB" d="M172.095993,44.7619171
				c-1.2576599-1.1611214-2.7061768-2.254612-4.2884521-3.2821503c-5.0534515-3.2810593-11.6611176-5.8172493-19.2414246-7.2913132
				c-2.8566895-10.6444054-11.9060974-22.7159214-18.8865662-28.247406c0,0-7.3533325-0.0942001-13.4030151,3.3720698
				c-6.2738953,3.5939627-11.1369934,11.0253487-4.954071,26.3568077
				c-15.4449844,4.3788567-25.9503937,13.1864014-25.619339,23.1235199c0.0003128,0.0093384,0.0026245,0.018631,0.0029068,0.0270348
				c0.2739639,7.9233093,5.8916779,21.9716263,17.6257935,36.4038696
				c4.6397018,5.7068634,15.7413635,10.5642242,30.2079239,10.2254868
				c14.4671021-0.3387527,24.4458008-4.22789,29.5105438-11.6238098
				c10.7803802-15.7426758,15.3989258-29.2511673,15.1438904-37.1767845
				c-0.0002289-0.0065384,0.0015259-0.0140572,0.0012817-0.0215302l0,0
				c-0.1434784-4.3063927-2.3009491-8.3114014-5.9780731-11.7639542
				C172.1797485,44.8281898,172.133606,44.7966461,172.095993,44.7619171z"/>
			<path opacity="0.4848485" fill="#FFE5A4" d="M170.2173004,44.8049316
				c-1.2571869-1.1612892-2.7057495-2.2543793-4.2878265-3.2817383c-5.0528259-3.2804947-11.6600647-5.8156929-19.2401886-7.288414
				c-2.8544464-10.6453476-11.9013977-22.7167358-18.8807983-28.2475815c0,0-7.353447-0.0927072-13.4039841,3.375298
				c-6.2748108,3.5957632-11.1395721,11.0292101-4.9598389,26.361599
				C93.9984283,40.106739,83.4909668,48.9176979,83.8198853,58.8561707
				c0.0003128,0.0093422,0.0026169,0.0186348,0.0028992,0.0270424c0.2722626,7.9243889,5.8870087,21.9735603,17.6182251,36.405468
				c4.6385803,5.7067337,15.7393646,10.5625153,30.2062836,10.2207565
				c14.4674225-0.3417587,24.4471436-4.2335052,29.5135803-11.6315155
				c10.7839203-15.7471466,15.4055023-29.2585068,15.1521606-37.1852112
				c-0.0002136-0.0065384,0.0015259-0.014061,0.0012817-0.021534l0,0
				c-0.1425476-4.3069801-2.2991943-8.3121185-5.9756317-11.7644119
				C170.3010101,44.8711967,170.2548828,44.839653,170.2173004,44.8049316z"/>
			<path opacity="0.5151515" fill="#FFE39E" d="M168.3386078,44.84795c-1.2567139-1.1614609-2.705307-2.2541504-4.2871857-3.2813339
				c-5.0522156-3.2799263-11.6590271-5.8141365-19.2389679-7.2855148
				c-2.8521881-10.6462841-11.8967133-22.7175484-18.8750381-28.2477531c0,0-7.3535538-0.0912137-13.4049454,3.3785276
				c-6.2757263,3.5975637-11.1421432,11.0330696-4.9656067,26.3663845
				c-15.4474869,4.3864403-25.9570007,13.2008095-25.6302185,23.1406364
				c0.0003052,0.0093422,0.0026169,0.0186386,0.0028915,0.0270462c0.2705612,7.9254646,5.8823471,21.9754982,17.6106567,36.4070702
				c4.6374664,5.7065964,15.7373657,10.5607986,30.2046432,10.2160339
				c14.4677582-0.34478,24.4484863-4.2391205,29.5166016-11.6392365
				c10.7874908-15.7516022,15.4120789-29.2658463,15.1604462-37.193634c-0.0002136-0.0065384,0.0015411-0.014061,0.001297-0.021534
				l0,0c-0.1416168-4.3075676-2.2974548-8.3128395-5.9732208-11.7648735
				C168.422287,44.9142075,168.3761597,44.8826561,168.3386078,44.84795z"/>
			<path opacity="0.5454546" fill="#FFE298" d="M166.4599152,44.8909607
				c-1.2541199-1.1639175-2.7048645-2.2539139-4.2865601-3.2809219c-5.05159-3.2793617-11.657959-5.8125801-19.2377167-7.2826157
				c-2.8499603-10.6472225-11.8920288-22.7183609-18.8692856-28.2479286c0,0-7.3536682-0.0897207-13.4059143,3.3817563
				c-6.2766418,3.5993652-11.1447144,11.0369291-4.9713821,26.3711739
				c-15.4487305,4.3902321-25.9602966,13.2080154-25.6356506,23.1491966
				c0.0003052,0.0093422,0.0026093,0.0186386,0.0028839,0.0270462c0.2688599,7.9265442,5.8776855,21.9774399,17.6030884,36.4086685
				c4.6363449,5.7064667,15.7353668,10.5590897,30.2030029,10.2113113
				c14.4680786-0.3477936,24.4498291-4.2447357,29.5196228-11.6469421
				c10.7910461-15.7560654,15.4186707-29.2731934,15.1687317-37.2020645c-0.0002136-0.0065384,0.0015411-0.014061,0.001297-0.021534
				l0,0c-0.140686-4.3081589-2.2957001-8.3135605-5.9707794-11.7653351
				C166.5435486,44.9572144,166.4975128,44.9255905,166.4599152,44.8909607z"/>
			<path opacity="0.5757576" fill="#FFE091" d="M164.5812225,44.9339752c-1.253891-1.1638298-2.704422-2.253685-4.2859192-3.2805138
				c-5.0509796-3.2787971-11.6569214-5.8110237-19.236496-7.2797203
				c-2.8477173-10.648159-11.8873444-22.7191696-18.8635254-28.2481003c0,0-7.353775-0.0882273-13.4068756,3.3849854
				c-6.2775574,3.6011658-11.1472931,11.0407896-4.97715,26.3759613
				C88.3612747,40.2806129,77.8476563,49.1018105,78.170166,59.0443459c0.0003052,0.0093422,0.0026016,0.0186386,0.0028763,0.02705
				c0.2671585,7.9276199,5.873024,21.9793777,17.59552,36.4102707c4.635231,5.7063293,15.7333679,10.557373,30.2013626,10.2065811
				c14.4684143-0.3508072,24.4511719-4.250351,29.5226593-11.6546555
				c10.7945862-15.7605286,15.4252319-29.2805328,15.177002-37.2104836
				c-0.0002136-0.0065422,0.0015564-0.0140686,0.0013123-0.0215416l0,0
				c-0.1397705-4.3087463-2.2939453-8.3142776-5.9683533-11.7657928
				C164.6648102,45.0002174,164.6187744,44.9686012,164.5812225,44.9339752z"/>
			<path opacity="0.6060606" fill="#FFDF8B" d="M162.7025452,44.9769859
				c-1.2536774-1.1637383-2.7039948-2.2534523-4.2853088-3.2801056c-5.050354-3.2782288-11.6558685-5.8094635-19.23526-7.2768173
				c-2.845459-10.6490993-11.8826447-22.7199841-18.8577652-28.2482758c0,0-7.3538818-0.0867343-13.4078369,3.3882141
				c-6.2784729,3.6029663-11.1498642,11.044651-4.9829254,26.3807526
				c-15.4512177,4.3978119-25.9668961,13.2224236-25.6465225,23.1663132
				c0.0002975,0.009346,0.0026016,0.0186424,0.0028687,0.0270538c0.2654495,7.9286995,5.8683624,21.9813194,17.5879517,36.411869
				c4.6341095,5.706192,15.731369,10.5556641,30.1997147,10.2018585
				c14.4687424-0.3538208,24.4525223-4.2559662,29.5256882-11.6623688
				c10.7981415-15.7649841,15.4318237-29.2878723,15.1852875-37.2189102
				c-0.0001984-0.0065422,0.0015564-0.0140648,0.0013123-0.0215416l0,0
				c-0.1388397-4.3093338-2.2921906-8.3149948-5.9659119-11.7662544
				C162.7860718,45.0432243,162.7400513,45.0116119,162.7025452,44.9769859z"/>
			<path opacity="0.6363636" fill="#FFDD84" d="M160.8238525,45.0199966
				c-1.2534485-1.1636467-2.7035675-2.2532196-4.284668-3.2796936c-5.0497437-3.277668-11.6548309-5.8079109-19.2340393-7.273922
				c-2.8432159-10.6500378-11.8779526-22.7207966-18.852005-28.2484493c0,0-7.3539886-0.0852408-13.4087982,3.3914433
				c-6.2793884,3.6047678-11.1524429,11.0485115-4.9886932,26.38554
				c-15.4524689,4.4016075-25.9702072,13.2296295-25.6519623,23.1748734c0.0002975,0.009346,0.002594,0.0186462,0.002861,0.0270576
				c0.2637482,7.9297791,5.8636932,21.9832535,17.5803833,36.4134674
				c4.6329956,5.7060623,15.7293701,10.5539474,30.1980743,10.1971283
				c14.4690781-0.3568268,24.4538651-4.2615738,29.5287094-11.6700745
				c10.801712-15.7694473,15.4384003-29.2952194,15.1935883-37.2273331
				c-0.0002136-0.0065422,0.0015411-0.0140724,0.0013123-0.0215492l0,0
				c-0.1379242-4.3099174-2.290451-8.315712-5.9634857-11.7667084
				C160.9073486,45.0862274,160.8613281,45.0546227,160.8238525,45.0199966z"/>
			<path opacity="0.6666667" fill="#FFDB7D" d="M158.9451599,45.0630074
				c-1.2532196-1.163559-2.703125-2.2529907-4.2840424-3.2792892c-5.049118-3.2770996-11.6537628-5.8063507-19.2327881-7.271019
				C132.5873413,23.861721,123.5550537,11.79109,116.5820694,6.2640753c0,0-7.3540955-0.0837479-13.4097595,3.3946724
				c-6.280304,3.6065683-11.155014,11.052371-4.9944611,26.3903275
				c-15.4537201,4.4053993-25.9735107,13.2368317-25.6574097,23.1834335c0.0002975,0.009346,0.002594,0.0186462,0.002861,0.0270576
				c0.2620468,7.9308548,5.8590317,21.985199,17.5728149,36.4150772
				c4.6318741,5.7059174,15.7273636,10.5522308,30.196434,10.1923981
				c14.4693985-0.3598404,24.4552078-4.2671967,29.5317459-11.6777878
				c10.8052521-15.7739105,15.4449768-29.3025589,15.2018585-37.2357597
				c-0.0002136-0.0065422,0.0015564-0.0140724,0.0013123-0.0215492l0,0c-0.1369934-4.3105087-2.2886963-8.316433-5.9610596-11.76717
				C159.0286102,45.1292305,158.9825897,45.0976295,158.9451599,45.0630074z"/>
			<path opacity="0.6969697" fill="#FFDA76" d="M157.0664673,45.1060143
				c-1.2529907-1.1634636-2.7026825-2.252758-4.2834015-3.2788773c-5.0485077-3.276535-11.6527252-5.8047981-19.2315674-7.2681236
				c-2.8387299-10.6519146-11.8685837-22.7224197-18.8404999-28.2487965c0,0-7.3542099-0.0822544-13.4107285,3.397902
				c-6.2812195,3.6083679-11.1575851,11.0562315-5.0002289,26.3951149
				C80.8450775,40.5124245,70.3232346,49.347271,70.6371994,59.2952271c0.0002975,0.0093498,0.002594,0.0186501,0.0028534,0.0270653
				c0.2603455,7.9319344,5.8543701,21.987133,17.5652466,36.4166679
				c4.6307602,5.7057877,15.7253647,10.5505219,30.1947937,10.1876755
				c14.4697342-0.362854,24.4565506-4.2728043,29.5347672-11.6854935
				c10.8088074-15.7783737,15.4515533-29.309906,15.210144-37.2441864c-0.0002136-0.006546,0.0015564-0.0140762,0.0013123-0.021553
				l0,0c-0.1360626-4.3110924-2.2869415-8.3171501-5.9586182-11.7676315
				C157.1498718,45.1722298,157.1038666,45.1406326,157.0664673,45.1060143z"/>
			<path opacity="0.7272727" fill="#FFD86F" d="M155.1877747,45.1490211
				c-1.2527618-1.1633759-2.70224-2.2525253-4.2827759-3.2784691c-5.0478821-3.2759666-11.6516724-5.8032379-19.2303314-7.2652245
				c-2.8364868-10.6528511-11.8638916-22.7232323-18.8347321-28.2489681c0,0-7.3543243-0.0807614-13.4116974,3.4011302
				c-6.282135,3.6101694-11.1601563,11.060092-5.0059967,26.3999023
				C78.9660263,40.5703773,68.442131,49.4086342,68.7539597,59.3579445
				c0.0002899,0.0093536,0.0025864,0.0186539,0.0028458,0.0270691c0.2586365,7.9330101,5.8497086,21.9890709,17.5576782,36.4182701
				c4.6296387,5.705658,15.7233658,10.5488052,30.1931534,10.1829453
				c14.4700546-0.3658676,24.4578934-4.2784195,29.5377884-11.6932068
				c10.8123627-15.7828369,15.4581299-29.3172455,15.2184296-37.2526093
				c-0.0001984-0.0065422,0.0015564-0.0140762,0.0013275-0.0215569l0,0
				c-0.1351318-4.3116798-2.2851868-8.3178673-5.956192-11.7680855
				C155.2711334,45.215229,155.2251434,45.1836395,155.1877747,45.1490211z"/>
			<path opacity="0.7575758" fill="#FFD768" d="M153.309082,45.192028c-1.252533-1.1632843-2.7017975-2.2522926-4.282135-3.2780609
				c-5.0472717-3.2754021-11.6506348-5.8016815-19.2291107-7.2623253
				c-2.8342361-10.6537914-11.8592072-22.7240448-18.8289719-28.2491436c0,0-7.3544312-0.0792675-13.4126587,3.4043603
				c-6.2830505,3.6119699-11.162735,11.0639505-5.0117722,26.4046898
				c-15.4574585,4.4167786-25.9834061,13.2584496-25.6737137,23.2091141
				c0.0002899,0.0093536,0.0025787,0.0186539,0.0028381,0.0270691c0.2569351,7.9340897,5.8450394,21.9910126,17.5501099,36.4198761
				c4.6285172,5.7055206,15.7213669,10.5470886,30.1915054,10.178215
				c14.4703827-0.3688736,24.4592438-4.2840347,29.5408173-11.7009125
				c10.815918-15.7873001,15.4647217-29.3245926,15.2267151-37.2610359c-0.0001984-0.006546,0.0015564-0.01408,0.0013275-0.0215607
				l0,0c-0.134201-4.3122673-2.283432-8.3185883-5.9537506-11.7685471
				C153.392395,45.2582283,153.346405,45.2266426,153.309082,45.192028z"/>
			<path opacity="0.7878788" fill="#FFD560" d="M151.4303894,45.2350311
				c-1.2523041-1.1631927-2.7013702-2.2520599-4.2815094-3.2776489c-5.0466461-3.2748375-11.6495819-5.8001289-19.2278671-7.2594261
				c-2.8319931-10.6547298-11.8545227-22.7248573-18.8232193-28.2493172c0,0-7.354538-0.0777745-13.41362,3.407589
				c-6.2839661,3.6137705-11.1653061,11.067811-5.0175476,26.4094772
				c-15.4587021,4.4205704-25.986702,13.2656555-25.6791534,23.2176743
				c0.0002899,0.0093536,0.0025787,0.0186539,0.0028381,0.0270729c0.2552338,7.9351654,5.8403778,21.9929504,17.5425415,36.4214706
				c4.6274033,5.7053833,15.719368,10.5453796,30.1898651,10.1734924
				c14.4707184-0.3718872,24.4605865-4.2896423,29.5438538-11.7086258
				c10.8194733-15.7917557,15.471283-29.3319321,15.2349854-37.2694588
				c-0.0001984-0.0065498,0.0015717-0.0140839,0.0013428-0.0215645l0,0
				c-0.1332855-4.3128548-2.2816925-8.3193054-5.9513397-11.7690048
				C151.5136719,45.3012276,151.4676819,45.2696457,151.4303894,45.2350311z"/>
			<path opacity="0.8181818" fill="#FFD359" d="M149.5516968,45.278038
				c-1.2520752-1.163105-2.7009277-2.2518311-4.2808838-3.2772446c-5.0460205-3.2742691-11.6485291-5.7985687-19.2266235-7.2565269
				c-2.8297577-10.6556683-11.8498383-22.7256699-18.8174667-28.2494907c0,0-7.3546524-0.0762811-13.4145813,3.4108181
				c-6.2848892,3.615571-11.1678848,11.0716724-5.0233154,26.4142685
				C73.3288727,40.7442207,62.7988167,49.59272,63.1042328,59.546093c0.0002861,0.0093536,0.0025749,0.0186577,0.0028305,0.0270767
				c0.2535286,7.936245,5.8357162,21.9948845,17.5349731,36.4230766c4.6262817,5.705246,15.7173615,10.543663,30.1882248,10.1687622
				c14.4710388-0.3749008,24.4619141-4.2952652,29.546875-11.7163391
				c10.8230286-15.7962189,15.4778595-29.3392715,15.2432709-37.2778816
				c-0.0001984-0.0065498,0.0015717-0.0140839,0.0013428-0.0215683l0,0
				c-0.1323547-4.3134422-2.2799377-8.3200226-5.9488983-11.7694664
				C149.6349335,45.344223,149.5889435,45.3126488,149.5516968,45.278038z"/>
			<path opacity="0.8484849" fill="#FFD251" d="M147.6730042,45.3210411
				c-1.2518463-1.1630135-2.7004852-2.2515984-4.2802429-3.2768364c-5.0454102-3.2737045-11.6474762-5.7970123-19.2254028-7.2536278
				c-2.827507-10.6566067-11.8451462-22.7264805-18.8117065-28.2496643c0,0-7.3547592-0.0747881-13.4155502,3.4140472
				c-6.2857971,3.6173716-11.1704483,11.0755329-5.0290833,26.4190559
				c-15.4611969,4.428154-25.993309,13.2800636-25.6900253,23.2347908c0.0002823,0.0093575,0.0025673,0.0186615,0.0028229,0.0270805
				c0.2518234,7.9373245,5.8310471,21.9968262,17.5274048,36.424675
				c4.6251602,5.7051163,15.7153625,10.541954,30.1865845,10.1640396
				c14.4713669-0.3779221,24.4632568-4.3008804,29.5498962-11.7240524
				c10.8265839-15.8006821,15.4844513-29.3466187,15.2515564-37.2863083
				c-0.0001984-0.0065498,0.0015717-0.0140877,0.0013428-0.0215721l0,0
				c-0.131424-4.3140259-2.278183-8.3207397-5.9464569-11.7699242
				C147.7561951,45.3872223,147.7102203,45.355648,147.6730042,45.3210411z"/>
			<path opacity="0.8787879" fill="#FFD048" d="M145.7943115,45.3640404
				c-1.2516174-1.1629219-2.700058-2.2513657-4.2796173-3.2764244c-5.0447845-3.27314-11.6464233-5.7954559-19.2241592-7.2507286
				c-2.825264-10.6575451-11.8404617-22.7272949-18.805954-28.2498398c0,0-7.354866-0.0732951-13.4165115,3.4172754
				c-6.2867126,3.619173-11.173027,11.0793934-5.0348511,26.4238453
				c-15.4624481,4.4319458-25.9966125,13.2872658-25.6954689,23.243351
				c0.0002823,0.0093575,0.0025635,0.0186615,0.0028191,0.0270805c0.2501183,7.9384079,5.8263855,21.998764,17.5198364,36.4262772
				c4.6240463,5.7049789,15.7133636,10.5402374,30.1849365,10.1593094
				c14.4717026-0.380928,24.4646072-4.306488,29.5529251-11.7317581
				c10.8301392-15.8051453,15.4910278-29.3539581,15.2598419-37.294735
				c-0.0001984-0.0065498,0.0015869-0.0140877,0.001358-0.0215721l0,0
				c-0.1305084-4.3146172-2.2764282-8.3214607-5.944046-11.7703857
				C145.8774567,45.4302139,145.8314819,45.3986473,145.7943115,45.3640404z"/>
			<path opacity="0.9090909" fill="#FFCE3F" d="M143.9156189,45.4070435
				c-1.2513885-1.1628342-2.6996155-2.2511368-4.2789764-3.2760162c-5.0441742-3.2725754-11.6453857-5.7938995-19.2229385-7.2478333
				c-2.8230209-10.6584816-11.8357697-22.7281036-18.8001938-28.2500114c0,0-7.3549805-0.0718017-13.4174728,3.420505
				c-6.2876358,3.6209736-11.1756058,11.0832539-5.0406265,26.4286308
				C67.6917191,40.9180565,57.1554985,49.7767944,57.4545059,59.73423c0.0002823,0.0093575,0.0025597,0.0186653,0.0028152,0.0270882
				c0.2484131,7.9394798,5.8217201,22.0007057,17.5122681,36.4278755
				c4.6229248,5.7048416,15.7113571,10.5385284,30.1832962,10.1545868
				c14.4720306-0.3839493,24.46595-4.3121109,29.5559616-11.7394714
				c10.8336792-15.8096085,15.4976044-29.3613052,15.2681122-37.3031616
				c-0.0001831-0.0065498,0.0015869-0.0140915,0.001358-0.0215759l0,0
				c-0.1295776-4.3152046-2.2746735-8.3221779-5.9416046-11.7708435
				C143.9987183,45.4732094,143.9527588,45.4416466,143.9156189,45.4070435z"/>
			<path opacity="0.9393939" fill="#FFCD36" d="M142.0369263,45.4500427
				c-1.2511597-1.1627426-2.699173-2.2509041-4.2783508-3.2756081c-5.0435486-3.272007-11.6443329-5.7923431-19.2217026-7.2449341
				c-2.8207703-10.65942-11.8310776-22.7289162-18.7944336-28.2501831c0,0-7.3550873-0.0703082-13.4184418,3.4237337
				c-6.2885437,3.6227751-11.1781693,11.0871143-5.0463943,26.4334183
				C65.8126678,40.9760017,55.2743912,49.83815,55.5712624,59.7969398c0.0002785,0.0093613,0.0025597,0.0186653,0.0028114,0.027092
				c0.2467079,7.9405556,5.8170547,22.0026436,17.5046997,36.4294701
				c4.6218033,5.7047195,15.7093582,10.5368195,30.1816559,10.1498642
				c14.4723511-0.3869553,24.4672928-4.3177185,29.5589828-11.7471848
				c10.8372345-15.814064,15.5041809-29.3686447,15.2763977-37.3115807
				c-0.0001831-0.0065536,0.0015869-0.0140953,0.001358-0.0215836l0,0
				c-0.1286469-4.3157883-2.2729187-8.3228951-5.9391632-11.7713013
				C142.1199799,45.516201,142.0740204,45.4846458,142.0369263,45.4500427z"/>
			<path opacity="0.969697" fill="#FECB2C" d="M140.1582336,45.4930382
				c-1.2509308-1.1626511-2.6987305-2.2506714-4.2777252-3.2751961c-5.042923-3.2714424-11.64328-5.7907867-19.220459-7.2420349
				c-2.8185349-10.6603584-11.8264008-22.7297287-18.788681-28.2503586c0,0-7.3551941-0.0688152-13.4194031,3.4269624
				c-6.2894592,3.6245756-11.180748,11.0909739-5.0521622,26.4382057
				c-15.4661903,4.443325-26.0065155,13.3088837-25.7117805,23.2690315c0.0002747,0.0093613,0.002552,0.0186691,0.0028,0.027092
				c0.2450104,7.9416351,5.8123932,22.0045853,17.4971275,36.431076
				c4.6206894,5.7045746,15.7073669,10.5351028,30.1800156,10.145134
				c14.4726868-0.3899689,24.4686356-4.3233337,29.5620117-11.7548904
				c10.8407898-15.8185349,15.5107574-29.3759918,15.2846832-37.3200111
				c-0.0001831-0.0065536,0.0015869-0.0140953,0.0013733-0.0215836l0,0
				c-0.1277313-4.3163757-2.2711792-8.323616-5.9367523-11.7717628
				C140.2412567,45.5591927,140.1952972,45.5276413,140.1582336,45.4930382z"/>
			<path fill="#FECA20" d="M138.279541,45.5360374c-1.2507019-1.1625633-2.6983032-2.2504387-4.2770844-3.2747879
				c-5.0423126-3.2708778-11.6422424-5.7892303-19.2192383-7.2391357
				c-2.8162842-10.6612988-11.8217087-22.7305412-18.7829208-28.2505341c0,0-7.3553085-0.0673218-13.4203644,3.4301915
				c-6.2903824,3.6263762-11.1833267,11.0948343-5.0579376,26.442997
				c-15.4674339,4.447113-26.0098152,13.3160896-25.7172165,23.2775917
				c0.0002747,0.0093613,0.0025482,0.0186691,0.0027962,0.0270958c0.2433052,7.9427109,5.8077278,22.0065155,17.4895592,36.4326782
				c4.6195679,5.7044373,15.7053604,10.5333862,30.1783752,10.1404037s24.4699783-4.328949,29.565033-11.7626038
				c10.8443604-15.8229904,15.5173492-29.3833313,15.2929688-37.328434
				c-0.0001831-0.0065536,0.0015869-0.0140991,0.0013733-0.0215874l0,0
				c-0.1268005-4.3169632-2.2694244-8.3243332-5.9343109-11.7722206
				C138.3625183,45.6021843,138.3165741,45.5706367,138.279541,45.5360374z"/>
		</g>
	</g>
	<g>
		<g>
			<linearGradient id="SVGID_4_" gradientUnits="userSpaceOnUse" x1="64.6197128" y1="31.193119" x2="102.7174759" y2="97.1803741">
				<stop  offset="0" style="stop-color:#76B72A"/>
				<stop  offset="0.2192232" style="stop-color:#70B12C"/>
				<stop  offset="0.5279454" style="stop-color:#5EA12F"/>
				<stop  offset="0.8881963" style="stop-color:#448832"/>
				<stop  offset="1" style="stop-color:#3B8032"/>
			</linearGradient>
			<path fill="url(#SVGID_4_)" d="M95.1991806,101.5210571l-9.5138016,5.4893799
				C72.5731659,77.7870636,67.3616257,48.7859612,72.1387329,26.8520126l9.5138016-5.4876976
				C76.8754272,43.2965813,82.0886536,72.2976837,95.1991806,101.5210571z"/>
			
				<linearGradient id="SVGID_5_" gradientUnits="userSpaceOnUse" x1="67.4970474" y1="18.8174858" x2="108.3194351" y2="89.5239258">
				<stop  offset="0" style="stop-color:#76B72A"/>
				<stop  offset="0.2192232" style="stop-color:#70B12C"/>
				<stop  offset="0.5279454" style="stop-color:#5EA12F"/>
				<stop  offset="0.8881963" style="stop-color:#448832"/>
				<stop  offset="1" style="stop-color:#3B8032"/>
			</linearGradient>
			<path fill="url(#SVGID_5_)" d="M104.0495453,91.8927536c0,0-4.5060043,2.8204651-6.1241913,3.5327377
				C71.6537781,107.010437,65.1220932,21.8391647,83.1865311,9.7591591
				C102.2528687,26.8520126,130.01297,76.9148254,104.0495453,91.8927536z"/>
			<radialGradient id="SVGID_6_" cx="101.111618" cy="94.1549377" r="85.1682739" gradientUnits="userSpaceOnUse">
				<stop  offset="0" style="stop-color:#6AB42D"/>
				<stop  offset="0.2109118" style="stop-color:#88BD27"/>
				<stop  offset="0.5308847" style="stop-color:#A9C81D"/>
				<stop  offset="0.8052173" style="stop-color:#BBCF14"/>
				<stop  offset="1" style="stop-color:#C1D110"/>
			</radialGradient>
			<path fill="url(#SVGID_6_)" d="M88.8931274,98.0556793c3.642189-0.33004,6.6243057-1.2410049,9.0322266-2.630188
				c7.4999084-4.3258362,8.3317337-20.8377609,6.3161545-31.2389526
				C97.7064514,30.4706249,83.1865311,9.7591591,83.1865311,9.7591591s-12.3763657-0.4799004-22.7573547,5.5079031
				c-10.8238449,6.2454329-19.4805641,19.5243454-9.6805038,47.7155113
				C58.4641151,85.1775208,77.678627,99.0710449,88.8931274,98.0556793z"/>
			<radialGradient id="SVGID_7_" cx="98.3898239" cy="97.5030899" r="96.505928" gradientUnits="userSpaceOnUse">
				<stop  offset="0" style="stop-color:#439334"/>
				<stop  offset="0.382337" style="stop-color:#66A72F"/>
				<stop  offset="0.7435019" style="stop-color:#7DB628"/>
				<stop  offset="1" style="stop-color:#85BC25"/>
			</radialGradient>
			<path fill="url(#SVGID_7_)" d="M85.685379,107.010437C72.5731659,77.7870636,67.3616257,48.7859612,72.1387329,26.8520126
				c-8.0202179,19.4856186-6.6967087,45.6308975,4.2315369,75.9908752L85.685379,107.010437z"/>
		</g>
	</g>
</g>
</svg>
